<svg width="105" height="39" viewBox="0 0 105 39" fill="none" xmlns="http://www.w3.org/2000/svg">
<g clip-path="url(#clip0_393_145)">
<path d="M47.748 24.9312H50.2385V29.4268H51.5697V26.1847H54.0601V29.4268H57.8817V31.9925H47.7526V24.9312H47.748Z" fill="white"/>
<path d="M54.6215 17.1213C55.5769 17.1213 58.1398 17.3243 58.1398 20.7377C58.1398 24.1512 55.5769 24.3541 54.6215 24.3541H51.0036C50.0482 24.3541 47.4854 24.1512 47.4854 20.7377C47.4854 17.3243 50.0482 17.1213 51.0036 17.1213H54.6215ZM51.7688 19.6014C50.655 19.6014 49.9758 19.6735 49.9758 20.7377C49.9758 21.8019 50.655 21.874 51.7688 21.874H53.8517C54.9656 21.874 55.6448 21.8019 55.6448 20.7377C55.6448 19.6735 54.9656 19.6014 53.8517 19.6014H51.7688Z" fill="white"/>
<path d="M57.8772 7.80981V10.5785L54.7076 12.2063V13.3155H57.8772V15.8226H47.748V12.2198C47.748 9.65407 48.8484 8.61696 51.221 8.61696C52.5975 8.61696 53.4941 8.91908 54.1461 9.8119L57.8817 7.80981H57.8772ZM50.252 13.3155H52.2081V12.1341C52.2081 11.4442 52.1221 11.097 51.2256 11.097C50.329 11.097 50.243 11.4442 50.2566 12.1341V13.3155H50.252Z" fill="white"/>
<path d="M15.6986 7.55737C22.1691 7.55737 24.3018 11.034 24.3018 16.6524V24.1602C24.3018 29.7787 22.1691 32.4211 15.6986 32.4211H6.99121V7.55737H15.6986ZM15.8027 26.523C17.4554 26.523 18.2795 26.248 18.2795 24.1918V16.6524C18.2795 14.5286 17.4554 14.3212 15.8027 14.3212H12.9138V26.523H15.8027Z" fill="white"/>
<path d="M86.6344 7.80981V18.925H92.0046V7.80981H97.9227V32.4165H92.0046V24.823H86.6344V32.4165H80.7163V7.80981H86.6344Z" fill="white"/>
<path d="M72.2443 24.3316C71.9952 25.7475 71.3749 26.5231 69.4369 26.5231C66.8922 26.5231 66.7201 24.9133 66.7201 22.2754V17.9556C66.7201 15.3177 66.8922 13.708 69.4369 13.708C71.9817 13.708 72.2579 15.0427 72.3982 17.41L72.4163 18.9882H75.2645L78.1126 18.9747V16.1429C78.1126 13.8793 77.5964 7.81445 69.4414 7.81445C61.2865 7.81445 60.802 13.8793 60.802 16.1429V24.0926C60.802 26.3563 61.282 32.4211 69.4414 32.4211C77.6009 32.4211 78.0718 26.7576 78.1126 24.3361V24.2099H72.276L72.2488 24.3361L72.2443 24.3316Z" fill="white"/>
<path d="M33.077 14.5151C32.9412 13.7259 33.7653 12.9368 35.1056 12.9368C36.79 12.9368 37.9944 13.5185 38.2706 15.6108L44.0846 15.48V14.3437C44.0846 11.3271 42.3323 7.55737 35.1056 7.55737C27.3989 7.55737 26.7786 13.1082 26.8102 14.1363C26.8102 22.0184 37.3424 21.6892 37.9944 24.6021C38.2027 25.5265 36.962 26.523 35.2776 26.523C34.1547 26.523 33.2174 26.2795 32.665 25.3912C32.5155 25.1522 32.4476 24.8637 32.4431 24.5841V24.1692L26.2986 24.0655V24.9629C26.362 27.9795 28.06 32.4211 35.2776 32.4211C43.4326 32.4211 44.6053 26.3562 44.6053 25.3281C44.6053 17.446 33.557 17.1935 33.077 14.5196V14.5151Z" fill="white"/>
<path d="M104.706 0.293213H0.294434V38.7025H104.706V0.293213Z" stroke="white" stroke-width="1.31" stroke-miterlimit="10"/>
</g>
<defs>
<clipPath id="clip0_393_145">
<rect width="105" height="39" fill="white"/>
</clipPath>
</defs>
</svg>
