<?xml version="1.0" encoding="utf-8"?>
<!-- Generated by IcoMoon.io -->
<!DOCTYPE svg PUBLIC "-//W3C//DTD SVG 1.1//EN" "http://www.w3.org/Graphics/SVG/1.1/DTD/svg11.dtd">
<svg version="1.1" xmlns="http://www.w3.org/2000/svg" xmlns:xlink="http://www.w3.org/1999/xlink" width="22" height="30" viewBox="0 0 22 30">
	<path d="M15 17.121l2.727-1.869v2.929q0 1.111-0.808 1.919t-1.919 0.808h-12.273q-1.111 0-1.919-0.808t-0.808-1.919v-10.909q0-1.111 0.808-1.919t1.919-0.808h7.727v1.111q-2.475 0.379-4.192 1.616h-3.535v10.909h12.273v-1.061zM21.616 9.621q0.202 0.152 0.202 0.379 0 0.253-0.202 0.379l-8.636 5.909q-0.101 0.076-0.253 0.076-0.101 0-0.202-0.051-0.253-0.126-0.253-0.404v-3.207q-1.465 0.025-2.689 0.24t-1.919 0.455-1.263 0.581-0.72 0.48-0.278 0.29l-0.025 0.025q-0.126 0.227-0.379 0.227h-0.101q-0.303-0.076-0.354-0.429 0-3.056 1.818-4.975 2.020-2.172 5.909-2.298v-3.207q0-0.278 0.253-0.404 0.253-0.152 0.455 0.025z" fill="#1a1a1a"></path>
</svg>
