<?xml version="1.0" encoding="UTF-8"?>
<!DOCTYPE svg PUBLIC "-//W3C//DTD SVG 1.1//EN" "http://www.w3.org/Graphics/SVG/1.1/DTD/svg11.dtd">
<svg version="1.1" xmlns="http://www.w3.org/2000/svg" xmlns:xlink="http://www.w3.org/1999/xlink" x="0" y="0" width="14" height="14" viewBox="0, 0, 14, 14">
  <g id="Layer_1">
    <g>
      <path d="M10.671,7.946 L10.175,7.946 C10.102,7.946 10.043,7.969 9.996,8.016 C9.95,8.062 9.926,8.122 9.926,8.194 L9.926,10.675 C9.926,11.016 9.805,11.308 9.562,11.551 C9.319,11.794 9.027,11.915 8.686,11.915 L2.236,11.915 C1.895,11.915 1.603,11.794 1.36,11.551 C1.117,11.308 0.995,11.016 0.995,10.675 L0.995,4.225 C0.995,3.884 1.117,3.592 1.36,3.349 C1.603,3.106 1.895,2.985 2.236,2.985 L7.694,2.985 C7.766,2.985 7.826,2.961 7.872,2.915 C7.918,2.868 7.942,2.809 7.942,2.736 L7.942,2.24 C7.942,2.168 7.918,2.108 7.872,2.062 C7.826,2.016 7.766,1.992 7.694,1.992 L2.236,1.992 C1.621,1.992 1.095,2.211 0.658,2.647 C0.221,3.084 0.003,3.61 0.003,4.225 L0.003,10.675 C0.003,11.29 0.221,11.816 0.658,12.253 C1.095,12.69 1.621,12.908 2.236,12.908 L8.686,12.908 C9.301,12.908 9.827,12.69 10.264,12.253 C10.701,11.816 10.919,11.29 10.919,10.675 L10.919,8.195 C10.919,8.122 10.896,8.063 10.849,8.016 C10.803,7.969 10.743,7.946 10.671,7.946 z" fill="#FFFFFF"/>
      <path d="M13.748,1.147 C13.65,1.049 13.534,1 13.4,1 L9.43,1 C9.296,1 9.179,1.049 9.081,1.147 C8.983,1.245 8.934,1.362 8.934,1.496 C8.934,1.631 8.983,1.747 9.081,1.845 L10.446,3.21 L5.391,8.264 C5.339,8.316 5.314,8.375 5.314,8.443 C5.314,8.51 5.339,8.569 5.391,8.621 L6.275,9.505 C6.327,9.556 6.386,9.582 6.453,9.582 C6.52,9.582 6.58,9.556 6.632,9.505 L11.686,4.45 L13.051,5.814 C13.149,5.913 13.265,5.962 13.4,5.962 C13.534,5.962 13.65,5.913 13.749,5.814 C13.847,5.716 13.896,5.6 13.896,5.466 L13.896,1.496 C13.896,1.362 13.847,1.245 13.748,1.147 z" fill="#FFFFFF"/>
    </g>
  </g>
</svg>
