<?xml version="1.0" encoding="UTF-8" standalone="no"?>
<!-- Created with Inkscape (http://www.inkscape.org/) -->

<svg
   version="1.1"
   id="svg2"
   xml:space="preserve"
   width="1358.7333"
   height="284.66666"
   viewBox="0 0 1358.7333 284.66666"
   sodipodi:docname="BG- Funded by the EU_NEG.eps"
   xmlns:inkscape="http://www.inkscape.org/namespaces/inkscape"
   xmlns:sodipodi="http://sodipodi.sourceforge.net/DTD/sodipodi-0.dtd"
   xmlns="http://www.w3.org/2000/svg"
   xmlns:svg="http://www.w3.org/2000/svg"><defs
     id="defs6" /><sodipodi:namedview
     id="namedview4"
     pagecolor="#ffffff"
     bordercolor="#666666"
     borderopacity="1.0"
     inkscape:pageshadow="2"
     inkscape:pageopacity="0.0"
     inkscape:pagecheckerboard="0" /><g
     id="g8"
     inkscape:groupmode="layer"
     inkscape:label="ink_ext_XXXXXX"
     transform="matrix(1.3333333,0,0,-1.3333333,0,284.66667)"><g
       id="g10"
       transform="scale(0.1)"><path
         d="M 164.473,71.0586 H 3113.93 V 2073.9 H 164.473 V 71.0586"
         style="fill:#ffffff;fill-opacity:1;fill-rule:nonzero;stroke:none"
         id="path12" /><path
         d="M 221.191,128.281 H 3057.22 V 2018.97 H 221.191 V 128.281"
         style="fill:#264ca4;fill-opacity:1;fill-rule:nonzero;stroke:none"
         id="path14" /><path
         d="m 1578.78,1607.02 59.83,43.67 59.86,-43.67 -22.79,70.63 60.79,43.67 h -74.93 l -22.93,71.48 -22.93,-71.56 -74.88,0.08 60.74,-43.67 -22.76,-70.63"
         style="fill:#f5f014;fill-opacity:1;fill-rule:nonzero;stroke:none"
         id="path16" /><path
         d="m 1269.08,1523.82 59.85,43.67 59.81,-43.67 -22.74,70.63 60.75,43.68 h -74.93 l -22.92,71.55 -22.93,-71.64 -74.9,0.09 60.75,-43.68 -22.74,-70.63"
         style="fill:#f5f014;fill-opacity:1;fill-rule:nonzero;stroke:none"
         id="path18" /><path
         d="m 1102.32,1482.57 -22.93,-71.64 -74.88,0.09 60.74,-43.68 -22.76,-70.63 59.83,43.68 59.85,-43.68 -22.78,70.63 60.75,43.68 h -74.89 l -22.93,71.55"
         style="fill:#f5f014;fill-opacity:1;fill-rule:nonzero;stroke:none"
         id="path20" /><path
         d="m 1019.21,1031.08 59.8,-43.658 -22.73,70.608 60.73,43.68 h -74.87 l -22.93,71.56 -22.933,-71.72 -74.922,0.16 60.786,-43.68 -22.778,-70.608 59.847,43.658"
         style="fill:#f5f014;fill-opacity:1;fill-rule:nonzero;stroke:none"
         id="path22" /><path
         d="m 1125.25,791.48 -22.93,71.559 -22.93,-71.641 -74.88,0.082 60.74,-43.66 -22.76,-70.64 59.83,43.75 59.85,-43.75 -22.78,70.64 60.75,43.66 h -74.89"
         style="fill:#f5f014;fill-opacity:1;fill-rule:nonzero;stroke:none"
         id="path24" /><path
         d="m 1352.29,564.461 -22.93,71.469 -22.9,-71.559 -74.92,0.09 60.75,-43.68 -22.73,-70.633 59.83,43.672 59.81,-43.672 -22.74,70.633 60.75,43.68 h -74.92"
         style="fill:#f5f014;fill-opacity:1;fill-rule:nonzero;stroke:none"
         id="path26" /><path
         d="m 1661.58,482.18 -22.93,71.558 -22.89,-71.636 -74.91,0.078 60.73,-43.668 -22.72,-70.633 59.83,43.68 59.81,-43.68 -22.78,70.633 60.78,43.668 h -74.92"
         style="fill:#f5f014;fill-opacity:1;fill-rule:nonzero;stroke:none"
         id="path28" /><path
         d="m 1970.89,564.461 -22.89,71.469 -22.97,-71.559 -74.84,0.09 60.7,-43.68 -22.74,-70.633 59.85,43.672 59.83,-43.672 -22.8,70.633 60.78,43.68 h -74.92"
         style="fill:#f5f014;fill-opacity:1;fill-rule:nonzero;stroke:none"
         id="path30" /><path
         d="m 2198,791.48 -22.97,71.559 -22.97,-71.641 -74.84,0.082 60.78,-43.66 -22.81,-70.64 59.84,43.75 59.83,-43.75 -22.8,70.64 60.77,43.66 H 2198"
         style="fill:#f5f014;fill-opacity:1;fill-rule:nonzero;stroke:none"
         id="path32" /><path
         d="m 2355.11,1102.57 h -74.92 l -22.97,71.57 -22.89,-71.65 -74.93,0.08 60.79,-43.67 -22.75,-70.619 59.78,43.749 59.84,-43.749 -22.73,70.619 60.78,43.67"
         style="fill:#f5f014;fill-opacity:1;fill-rule:nonzero;stroke:none"
         id="path34" /><path
         d="m 2115.18,1297.66 59.84,43.66 59.84,-43.66 -22.8,70.63 60.77,43.59 h -74.84 l -22.97,71.55 -22.96,-71.64 -74.85,0.09 60.78,-43.59 -22.81,-70.63"
         style="fill:#f5f014;fill-opacity:1;fill-rule:nonzero;stroke:none"
         id="path36" /><path
         d="m 1948.86,1709.6 -22.89,-71.64 -74.93,0.17 60.71,-43.75 -22.74,-70.64 59.93,43.75 59.75,-43.75 -22.72,70.64 60.78,43.75 h -75 l -22.89,71.47"
         style="fill:#f5f014;fill-opacity:1;fill-rule:nonzero;stroke:none"
         id="path38" /><path
         d="m 3744.51,1433.29 c 24.54,0 45.65,4.13 63.31,12.37 17.67,8.27 30.21,19.37 37.61,33.33 7.41,13.97 11.11,34.39 11.11,61.26 0,67.29 -37.34,100.92 -112.03,100.92 z m -92.05,0 v 207.88 c -39.56,0 -68.12,-8.83 -85.68,-26.49 -17.57,-17.68 -26.35,-44.39 -26.35,-80.15 0,-67.49 37.34,-101.24 112.03,-101.24 z m 92.05,-78.39 v -54.27 h -92.05 v 54.27 c -74.26,2.74 -126.69,21.1 -157.25,55.06 -30.58,33.97 -45.87,76.43 -45.87,127.43 0,53.74 15.97,96.86 47.93,129.34 31.94,32.47 83.68,50.09 155.19,52.84 v 46.02 h 92.05 v -46.02 c 73.84,-2.75 126.15,-20.95 156.95,-54.59 30.78,-33.64 46.18,-76.28 46.18,-127.91 0,-51.2 -15.35,-93.68 -46.03,-127.42 -30.68,-33.75 -83.05,-52.01 -157.1,-54.75"
         style="fill:#ffffff;fill-opacity:1;fill-rule:nonzero;stroke:none"
         id="path40" /><path
         d="m 4020.31,1637.68 h 85.7 V 1426 l 137.11,211.68 h 87.59 v -337.05 h -85.69 v 215.5 l -139.01,-215.5 h -85.7 v 337.05"
         style="fill:#ffffff;fill-opacity:1;fill-rule:nonzero;stroke:none"
         id="path42" /><path
         d="m 4418.63,1637.68 h 89.18 v -123.46 h 127.6 v 123.46 h 89.49 v -337.05 h -89.49 v 141.55 h -127.6 v -141.55 h -89.18 v 337.05"
         style="fill:#ffffff;fill-opacity:1;fill-rule:nonzero;stroke:none"
         id="path44" /><path
         d="m 5000.7,1462.49 c -11.42,-3.81 -29.51,-8.36 -54.26,-13.64 -24.76,-5.3 -40.95,-10.48 -48.57,-15.56 -11.63,-8.25 -17.45,-18.72 -17.45,-31.41 0,-12.5 4.65,-23.29 13.96,-32.39 9.31,-9.09 21.16,-13.64 35.55,-13.64 16.08,0 31.42,5.28 46.03,15.87 10.78,8.03 17.87,17.88 21.26,29.51 2.32,7.62 3.48,22.11 3.48,43.48 z m -119.33,72.36 -80.93,14.6 c 9.09,32.58 24.76,56.7 46.97,72.37 22.22,15.65 55.23,23.48 99.03,23.48 39.77,0 69.39,-4.71 88.86,-14.12 19.47,-9.42 33.17,-21.38 41.11,-35.87 7.93,-14.49 11.89,-41.09 11.89,-79.82 l -0.95,-104.1 c 0,-29.62 1.43,-51.47 4.29,-65.54 2.85,-14.07 8.19,-29.15 16.03,-45.22 h -88.24 c -2.33,5.91 -5.18,14.7 -8.57,26.34 -1.48,5.28 -2.54,8.77 -3.16,10.47 -15.24,-14.81 -31.54,-25.92 -48.89,-33.32 -17.35,-7.41 -35.86,-11.11 -55.54,-11.11 -34.71,0 -62.05,9.41 -82.04,28.24 -20,18.84 -30,42.64 -30,71.41 0,19.05 4.55,36.03 13.65,50.94 9.09,14.92 21.85,26.35 38.25,34.28 16.39,7.94 40.03,14.86 70.93,20.79 41.68,7.82 70.57,15.13 86.64,21.9 v 8.88 c 0,17.15 -4.23,29.37 -12.69,36.66 -8.46,7.31 -24.44,10.96 -47.92,10.96 -15.87,0 -28.25,-3.12 -37.14,-9.37 -8.89,-6.25 -16.07,-17.19 -21.58,-32.85"
         style="fill:#ffffff;fill-opacity:1;fill-rule:nonzero;stroke:none"
         id="path46" /><path
         d="m 5172.73,1637.68 h 89.18 v -123.46 h 127.6 v 123.46 H 5479 v -337.05 h -89.49 v 141.55 h -127.6 v -141.55 h -89.18 v 337.05"
         style="fill:#ffffff;fill-opacity:1;fill-rule:nonzero;stroke:none"
         id="path48" /><path
         d="m 5862.71,1538.03 -87.91,-15.87 c -2.96,17.55 -9.67,30.79 -20.15,39.68 -10.47,8.88 -24.07,13.32 -40.78,13.32 -22.22,0 -39.94,-7.67 -53.17,-23.01 -13.22,-15.35 -19.83,-41 -19.83,-76.97 0,-39.98 6.72,-68.23 20.16,-84.73 13.42,-16.5 31.46,-24.77 54.11,-24.77 16.92,0 30.78,4.82 41.58,14.45 10.78,9.62 18.4,26.18 22.85,49.67 l 87.6,-14.92 c -9.1,-40.2 -26.56,-70.56 -52.38,-91.09 -25.82,-20.52 -60.41,-30.78 -103.77,-30.78 -49.31,0 -88.62,15.54 -117.91,46.66 -29.31,31.09 -43.97,74.15 -43.97,129.17 0,55.64 14.71,98.96 44.12,129.97 29.41,30.99 69.19,46.49 119.34,46.49 41.04,0 73.68,-8.84 97.91,-26.5 24.23,-17.67 41.63,-44.59 52.2,-80.77"
         style="fill:#ffffff;fill-opacity:1;fill-rule:nonzero;stroke:none"
         id="path50" /><path
         d="m 5928.11,1637.68 h 85.69 V 1426 l 137.11,211.68 h 87.6 v -337.05 h -85.7 v 215.5 l -139.01,-215.5 h -85.69 v 337.05"
         style="fill:#ffffff;fill-opacity:1;fill-rule:nonzero;stroke:none"
         id="path52" /><path
         d="m 6415.6,1474.86 c 0,-37.87 7.51,-65.85 22.53,-83.94 15.02,-18.09 33.33,-27.13 54.91,-27.13 20.74,0 37.98,8.3 51.74,24.91 13.75,16.6 20.62,43.85 20.62,81.73 0,35.33 -7.09,61.56 -21.26,78.71 -14.18,17.13 -31.74,25.7 -52.68,25.7 -21.8,0 -39.89,-8.41 -54.28,-25.23 -14.39,-16.82 -21.58,-41.74 -21.58,-74.75 z m -88.23,162.82 h 83.15 v -49.51 c 10.8,16.93 25.39,30.68 43.81,41.26 18.39,10.58 38.81,15.87 61.25,15.87 39.14,0 72.36,-15.34 99.65,-46.02 27.3,-30.68 40.95,-73.42 40.95,-128.23 0,-56.28 -13.76,-100.03 -41.27,-131.23 -27.5,-31.21 -60.83,-46.81 -99.97,-46.81 -18.62,0 -35.5,3.7 -50.62,11.11 -15.13,7.4 -31.06,20.1 -47.77,38.09 V 1172.4 h -89.18 v 465.28"
         style="fill:#ffffff;fill-opacity:1;fill-rule:nonzero;stroke:none"
         id="path54" /><path
         d="m 6912.93,1462.49 c -11.43,-3.81 -29.51,-8.36 -54.27,-13.64 -24.75,-5.3 -40.95,-10.48 -48.56,-15.56 -11.63,-8.25 -17.45,-18.72 -17.45,-31.41 0,-12.5 4.64,-23.29 13.96,-32.39 9.31,-9.09 21.15,-13.64 35.55,-13.64 16.07,0 31.41,5.28 46.02,15.87 10.78,8.03 17.87,17.88 21.26,29.51 2.33,7.62 3.49,22.11 3.49,43.48 z m -119.34,72.36 -80.92,14.6 c 9.09,32.58 24.75,56.7 46.97,72.37 22.22,15.65 55.22,23.48 99.02,23.48 39.78,0 69.4,-4.71 88.87,-14.12 19.46,-9.42 33.16,-21.38 41.1,-35.87 7.93,-14.49 11.9,-41.09 11.9,-79.82 l -0.95,-104.1 c 0,-29.62 1.43,-51.47 4.29,-65.54 2.85,-14.07 8.19,-29.15 16.02,-45.22 h -88.23 c -2.33,5.91 -5.19,14.7 -8.57,26.34 -1.48,5.28 -2.54,8.77 -3.17,10.47 -15.23,-14.81 -31.53,-25.92 -48.88,-33.32 -17.35,-7.41 -35.86,-11.11 -55.54,-11.11 -34.71,0 -62.05,9.41 -82.04,28.24 -20,18.84 -30,42.64 -30,71.41 0,19.05 4.55,36.03 13.65,50.94 9.09,14.92 21.85,26.35 38.24,34.28 16.4,7.94 40.04,14.86 70.94,20.79 41.68,7.82 70.57,15.13 86.64,21.9 v 8.88 c 0,17.15 -4.23,29.37 -12.7,36.66 -8.45,7.31 -24.43,10.96 -47.92,10.96 -15.86,0 -28.25,-3.12 -37.13,-9.37 -8.89,-6.25 -16.08,-17.19 -21.59,-32.85"
         style="fill:#ffffff;fill-opacity:1;fill-rule:nonzero;stroke:none"
         id="path56" /><path
         d="m 7084.96,1637.68 h 89.18 v -123.46 h 127.6 v 123.46 h 89.49 v -337.05 h -89.49 v 141.55 h -127.6 v -141.55 h -89.18 v 337.05"
         style="fill:#ffffff;fill-opacity:1;fill-rule:nonzero;stroke:none"
         id="path58" /><path
         d="m 7551.83,1469.16 c 0,-33.44 7.94,-59.04 23.8,-76.82 15.87,-17.77 35.43,-26.66 58.72,-26.66 23.27,0 42.79,8.89 58.55,26.66 15.76,17.78 23.64,43.6 23.64,77.45 0,33 -7.88,58.39 -23.64,76.17 -15.76,17.77 -35.28,26.66 -58.55,26.66 -23.29,0 -42.85,-8.89 -58.72,-26.66 -15.86,-17.78 -23.8,-43.37 -23.8,-76.8 z m -91.41,4.75 c 0,29.63 7.29,58.3 21.9,86.01 14.59,27.72 35.28,48.89 62.05,63.48 26.76,14.61 56.65,21.9 89.65,21.9 51,0 92.79,-16.56 125.37,-49.67 32.58,-33.11 48.88,-74.96 48.88,-125.52 0,-51 -16.45,-93.27 -49.35,-126.8 -32.9,-33.54 -74.32,-50.3 -124.25,-50.3 -30.9,0 -60.36,6.98 -88.4,20.94 -28.04,13.97 -49.36,34.44 -63.95,61.42 -14.61,26.97 -21.9,59.83 -21.9,98.54"
         style="fill:#ffffff;fill-opacity:1;fill-rule:nonzero;stroke:none"
         id="path60" /><path
         d="m 8129.46,1469.16 c 0,-33.44 7.94,-59.04 23.8,-76.82 15.88,-17.77 35.44,-26.66 58.72,-26.66 23.27,0 42.8,8.89 58.56,26.66 15.76,17.78 23.64,43.6 23.64,77.45 0,33 -7.88,58.39 -23.64,76.17 -15.76,17.77 -35.29,26.66 -58.56,26.66 -23.28,0 -42.84,-8.89 -58.72,-26.66 -15.86,-17.78 -23.8,-43.37 -23.8,-76.8 z m -91.4,4.75 c 0,29.63 7.29,58.3 21.9,86.01 14.59,27.72 35.27,48.89 62.04,63.48 26.77,14.61 56.65,21.9 89.66,21.9 51,0 92.78,-16.56 125.37,-49.67 32.58,-33.11 48.88,-74.96 48.88,-125.52 0,-51 -16.46,-93.27 -49.36,-126.8 -32.9,-33.54 -74.31,-50.3 -124.25,-50.3 -30.89,0 -60.36,6.98 -88.39,20.94 -28.04,13.97 -49.36,34.44 -63.95,61.42 -14.61,26.97 -21.9,59.83 -21.9,98.54"
         style="fill:#ffffff;fill-opacity:1;fill-rule:nonzero;stroke:none"
         id="path62" /><path
         d="m 8399.55,1637.68 h 305.01 v -72.04 h -107.91 v -265.01 h -89.19 v 265.01 h -107.91 v 72.04"
         style="fill:#ffffff;fill-opacity:1;fill-rule:nonzero;stroke:none"
         id="path64" /><path
         d="M 3468.38,520.629 V 985.91 h 345 V 907.199 H 3562.32 V 804.051 h 233.6 V 725.66 h -233.6 V 599.031 h 259.95 v -78.402 h -353.89"
         style="fill:#ffffff;fill-opacity:1;fill-rule:nonzero;stroke:none"
         id="path66" /><path
         d="m 3992.06,577.762 h 70.47 c 25.39,0 43.9,3.058 55.54,9.199 11.63,6.141 17.45,17.148 17.45,33 0,16.508 -6.66,27.891 -19.99,34.129 -13.33,6.238 -39.25,9.359 -77.77,9.359 h -45.7 z m 0,139.957 h 57.45 c 27.72,0 47.77,3.492 60.15,10.48 12.37,6.981 18.56,17.981 18.56,33.012 0,14.16 -5.77,24.269 -17.29,30.309 -11.54,6.019 -32.01,9.039 -61.42,9.039 h -57.45 z m -89.81,139.972 h 195.18 c 40,0 69.93,-7.3 89.83,-21.902 19.88,-14.59 29.83,-36.609 29.83,-66.019 0,-18.829 -5.45,-35.231 -16.35,-49.188 -10.9,-13.961 -24.6,-23.281 -41.1,-27.934 23.28,-5.707 40.62,-16.398 52.05,-32.058 11.43,-15.649 17.15,-32.789 17.15,-51.41 0,-26.239 -9.64,-47.559 -28.89,-63.95 -19.26,-16.41 -47.71,-24.601 -85.37,-24.601 h -212.33 v 337.062"
         style="fill:#ffffff;fill-opacity:1;fill-rule:nonzero;stroke:none"
         id="path68" /><path
         d="m 4386.56,694.871 c 0,-37.871 7.51,-65.851 22.54,-83.949 15.02,-18.082 33.32,-27.133 54.9,-27.133 20.75,0 37.98,8.301 51.74,24.91 13.75,16.61 20.63,43.852 20.63,81.731 0,35.34 -7.09,61.57 -21.26,78.711 -14.18,17.129 -31.74,25.711 -52.69,25.711 -21.79,0 -39.88,-8.411 -54.28,-25.243 -14.38,-16.808 -21.58,-41.738 -21.58,-74.738 z m -88.22,162.82 h 83.14 V 808.18 c 10.81,16.922 25.4,30.672 43.81,41.261 18.4,10.571 38.82,15.868 61.25,15.868 39.14,0 72.37,-15.348 99.66,-46.028 27.3,-30.672 40.95,-73.422 40.95,-128.222 0,-56.278 -13.76,-100.028 -41.27,-131.231 -27.5,-31.207 -60.83,-46.816 -99.97,-46.816 -18.62,0 -35.5,3.699 -50.63,11.109 -15.12,7.41 -31.05,20.098 -47.76,38.09 V 392.41 h -89.18 v 465.281"
         style="fill:#ffffff;fill-opacity:1;fill-rule:nonzero;stroke:none"
         id="path70" /><path
         d="m 4768.7,689.16 c 0,-33.43 7.94,-59.039 23.8,-76.808 15.88,-17.782 35.44,-26.661 58.72,-26.661 23.27,0 42.79,8.879 58.56,26.661 15.76,17.769 23.64,43.589 23.64,77.437 0,33.012 -7.88,58.402 -23.64,76.172 -15.77,17.769 -35.29,26.66 -58.56,26.66 -23.28,0 -42.84,-8.891 -58.72,-26.66 -15.86,-17.77 -23.8,-43.371 -23.8,-76.801 z m -91.41,4.762 c 0,29.617 7.3,58.289 21.91,86.008 14.59,27.718 35.27,48.879 62.04,63.468 26.77,14.614 56.65,21.911 89.66,21.911 50.99,0 92.78,-16.571 125.37,-49.668 32.58,-33.121 48.88,-74.961 48.88,-125.532 0,-50.988 -16.46,-93.257 -49.36,-126.8 -32.9,-33.528 -74.32,-50.297 -124.25,-50.297 -30.9,0 -60.36,6.976 -88.4,20.949 -28.03,13.961 -49.35,34.43 -63.94,61.41 -14.61,26.981 -21.91,59.828 -21.91,98.551"
         style="fill:#ffffff;fill-opacity:1;fill-rule:nonzero;stroke:none"
         id="path72" /><path
         d="m 5091.48,857.691 h 299.3 V 520.629 h -89.19 V 785.648 H 5180.66 V 520.629 h -89.18 v 337.062"
         style="fill:#ffffff;fill-opacity:1;fill-rule:nonzero;stroke:none"
         id="path74" /><path
         d="m 5687.84,718.039 c -0.63,25.813 -7.29,45.441 -19.99,58.883 -12.69,13.43 -28.14,20.148 -46.35,20.148 -19.46,0 -35.54,-7.101 -48.24,-21.269 -12.69,-14.18 -18.93,-33.43 -18.72,-57.762 z m -5.08,-90.141 88.87,-14.91 c -11.42,-32.59 -29.46,-57.398 -54.11,-74.429 -24.66,-17.028 -55.5,-25.547 -92.52,-25.547 -58.61,0 -101.99,19.148 -130.13,57.437 -22.21,30.692 -33.33,69.41 -33.33,116.172 0,55.859 14.61,99.598 43.81,131.238 29.2,31.629 66.11,47.45 110.76,47.45 50.15,0 89.71,-16.571 118.7,-49.668 28.99,-33.121 42.85,-83.852 41.58,-152.192 h -223.44 c 0.64,-26.449 7.83,-47.027 21.58,-61.73 13.76,-14.699 30.9,-22.059 51.43,-22.059 13.96,0 25.7,3.809 35.22,11.43 9.52,7.609 16.71,19.879 21.58,36.808"
         style="fill:#ffffff;fill-opacity:1;fill-rule:nonzero;stroke:none"
         id="path76" /><path
         d="m 6060.45,994.48 h 43.49 c -2.54,-28.769 -12.65,-51.359 -30.32,-67.761 -17.66,-16.399 -40.57,-24.598 -68.71,-24.598 -28.14,0 -51.04,8.199 -68.71,24.598 -17.67,16.402 -27.77,38.992 -30.31,67.761 h 43.49 c 1.47,-15.019 6.76,-26.402 15.85,-34.109 9.11,-7.73 22.33,-11.601 39.68,-11.601 17.35,0 30.58,3.871 39.68,11.601 9.09,7.707 14.38,19.09 15.86,34.109 z M 5846.86,857.691 h 85.69 V 646 l 137.11,211.691 h 87.6 V 520.629 h -85.7 V 736.141 L 5932.55,520.629 h -85.69 v 337.062"
         style="fill:#ffffff;fill-opacity:1;fill-rule:nonzero;stroke:none"
         id="path78" /><path
         d="m 6542.55,758.031 -87.91,-15.871 c -2.97,17.559 -9.68,30.789 -20.16,39.68 -10.47,8.89 -24.07,13.32 -40.78,13.32 -22.22,0 -39.94,-7.672 -53.16,-23.012 -13.23,-15.339 -19.84,-40.988 -19.84,-76.957 0,-39.992 6.72,-68.23 20.16,-84.742 13.43,-16.5 31.46,-24.758 54.11,-24.758 16.92,0 30.78,4.809 41.58,14.438 10.78,9.633 18.4,26.18 22.85,49.68 l 87.6,-14.918 c -9.1,-40.211 -26.56,-70.571 -52.37,-91.102 -25.82,-20.508 -60.41,-30.777 -103.78,-30.777 -49.31,0 -88.61,15.547 -117.91,46.66 -29.31,31.098 -43.97,74.148 -43.97,129.168 0,55.648 14.71,98.969 44.13,129.969 29.4,31 69.19,46.5 119.33,46.5 41.05,0 73.68,-8.84 97.91,-26.508 24.23,-17.66 41.63,-44.59 52.21,-80.77"
         style="fill:#ffffff;fill-opacity:1;fill-rule:nonzero;stroke:none"
         id="path80" /><path
         d="m 6606.66,857.691 h 88.87 V 719.949 c 14.8,1.68 25.28,6.242 31.42,13.653 6.14,7.398 13.54,23.578 22.21,48.546 11.43,33.223 23.92,54.481 37.46,63.793 13.54,9.321 31.31,13.969 53.32,13.969 6.77,0 18.51,-0.531 35.23,-1.59 l 0.32,-59.031 c -23.5,0 -38.52,-2.219 -45.08,-6.668 -6.55,-4.652 -13.64,-18.512 -21.26,-41.57 -10.37,-31.102 -25.28,-50.262 -44.76,-57.449 28.15,-7.821 51.95,-32.274 71.42,-73.313 1.06,-2.117 2.22,-4.34 3.49,-6.668 l 49.83,-92.992 h -95.85 l -44.43,97.441 c -9.1,19.668 -16.98,32.309 -23.64,37.918 -6.67,5.614 -16.57,8.41 -29.68,8.41 V 520.629 h -88.87 v 337.062"
         style="fill:#ffffff;fill-opacity:1;fill-rule:nonzero;stroke:none"
         id="path82" /><path
         d="m 6933.25,857.691 h 85.7 V 646 l 137.1,211.691 h 87.6 V 520.629 h -85.69 V 736.141 L 7018.95,520.629 h -85.7 v 337.062"
         style="fill:#ffffff;fill-opacity:1;fill-rule:nonzero;stroke:none"
         id="path84" /><path
         d="m 7535.32,800.238 h -63.8 c -23.47,0 -39.98,-3.328 -49.51,-9.988 -9.51,-6.672 -14.28,-17.73 -14.28,-33.18 0,-15.441 5.4,-26.55 16.2,-33.32 10.78,-6.77 28.44,-10.148 52.99,-10.148 h 58.4 z m 88.55,57.453 V 520.629 h -88.55 V 660.59 h -8.25 c -19.26,0 -33.38,-2.481 -42.37,-7.449 -9,-4.981 -19,-15.512 -29.99,-31.582 l -5.39,-6.668 -58.72,-94.262 h -103.78 l 63.79,97.75 c 18.19,27.93 34.69,44.012 49.51,48.242 -24.97,1.481 -45.23,10.949 -60.78,28.41 -15.55,17.449 -23.32,39.719 -23.32,66.809 0,21.789 5.12,40.41 15.39,55.859 10.25,15.442 23.9,25.973 40.93,31.582 17.04,5.61 42.38,8.41 76.02,8.41 h 175.51"
         style="fill:#ffffff;fill-opacity:1;fill-rule:nonzero;stroke:none"
         id="path86" /><path
         d="M 8188.81,758.031 8100.9,742.16 c -2.97,17.559 -9.68,30.789 -20.16,39.68 -10.47,8.89 -24.07,13.32 -40.78,13.32 -22.22,0 -39.94,-7.672 -53.16,-23.012 -13.23,-15.339 -19.84,-40.988 -19.84,-76.957 0,-39.992 6.72,-68.23 20.16,-84.742 13.43,-16.5 31.46,-24.758 54.11,-24.758 16.92,0 30.78,4.809 41.58,14.438 10.78,9.633 18.4,26.18 22.85,49.68 l 87.6,-14.918 c -9.1,-40.211 -26.56,-70.571 -52.37,-91.102 -25.82,-20.508 -60.41,-30.777 -103.78,-30.777 -49.31,0 -88.61,15.547 -117.91,46.66 -29.31,31.098 -43.97,74.148 -43.97,129.168 0,55.648 14.71,98.969 44.13,129.969 29.4,31 69.18,46.5 119.33,46.5 41.05,0 73.68,-8.84 97.91,-26.508 24.23,-17.66 41.63,-44.59 52.21,-80.77"
         style="fill:#ffffff;fill-opacity:1;fill-rule:nonzero;stroke:none"
         id="path88" /><path
         d="m 8413.2,577.121 h 82.84 c 26.03,0 42.74,4.18 50.15,12.539 7.4,8.352 11.1,18.461 11.1,30.301 0,16.301 -6.29,27.508 -18.88,33.66 -12.59,6.129 -35.07,9.199 -67.44,9.199 h -57.77 z m -199.31,280.57 H 8413.2 V 717.719 h 88.87 c 35.75,0 62.78,-2.43 81.09,-7.297 18.3,-4.871 33.85,-15.711 46.65,-32.531 12.81,-16.821 19.21,-36.45 19.21,-58.871 0,-28.782 -9.42,-52.379 -28.25,-70.77 -18.84,-18.422 -54.27,-27.621 -106.32,-27.621 h -190.43 v 265.019 h -110.13 v 72.043"
         style="fill:#ffffff;fill-opacity:1;fill-rule:nonzero;stroke:none"
         id="path90" /><path
         d="m 9041.63,795.801 c -24.76,0 -42.8,-7.93 -54.12,-23.801 -11.32,-15.871 -16.97,-41.16 -16.97,-75.859 0,-44.442 6.07,-74.43 18.24,-89.969 12.17,-15.563 30.62,-23.332 55.39,-23.332 22.85,0 39.98,8.73 51.41,26.18 11.42,17.46 17.14,43.64 17.14,78.55 0,42.739 -6.19,71.469 -18.57,86.168 -12.37,14.703 -29.88,22.063 -52.52,22.063 z m -320.57,61.89 h 89.19 v -136.16 h 71.1 c 4.65,43.16 20.99,77.918 49.03,104.258 28.04,26.34 65.55,39.52 112.52,39.52 47.39,0 86.21,-15.348 116.48,-46.028 30.25,-30.672 45.38,-74.902 45.38,-132.66 0,-33.851 -5.66,-63.473 -16.98,-88.859 -11.32,-25.391 -28.62,-45.871 -51.89,-61.422 -23.28,-15.559 -53.63,-23.328 -91.1,-23.328 -53.94,0 -94.15,14.648 -120.6,43.957 -26.45,29.301 -40.73,60.562 -42.84,93.793 h -71.1 V 520.629 h -89.19 v 337.062"
         style="fill:#ffffff;fill-opacity:1;fill-rule:nonzero;stroke:none"
         id="path92" /><path
         d="m 9367.58,659.012 v 58.078 c 15.45,0 26.66,1 33.65,3.012 6.97,2.007 13.58,6.878 19.83,14.597 6.24,7.731 9.37,16.551 9.37,26.512 0,10.57 -3.87,20.359 -11.59,29.348 -7.73,8.992 -19.31,13.492 -34.76,13.492 -11.84,0 -22.42,-2.539 -31.74,-7.621 -9.3,-5.078 -17.77,-17.129 -25.39,-36.168 l -75.52,16.179 c 7.61,29.618 23.9,51.84 48.86,66.649 24.97,14.801 53.43,22.219 85.38,22.219 40.63,0 72.1,-9.321 94.43,-27.93 22.31,-18.629 33.47,-42.008 33.47,-70.149 0,-17.558 -4.81,-32.109 -14.43,-43.628 -9.63,-11.543 -24.81,-22.282 -45.55,-32.223 24.96,-6.777 43.65,-17.027 56.02,-30.789 12.38,-13.75 18.57,-30.891 18.57,-51.41 0,-26.239 -12.27,-48.821 -36.81,-67.758 -24.55,-18.953 -59.89,-28.41 -106.02,-28.41 -80.4,0 -129.6,31.429 -147.58,94.258 l 81.57,14.921 c 13.12,-33.011 34.8,-49.511 65.06,-49.511 16.71,0 30.1,4.379 40.15,13.172 10.05,8.777 15.08,19.097 15.08,30.949 0,13.121 -5.24,23.429 -15.71,30.937 -10.47,7.512 -24.17,11.274 -41.11,11.274 h -15.23"
         style="fill:#ffffff;fill-opacity:1;fill-rule:nonzero;stroke:none"
         id="path94" /></g></g></svg>
