<?xml version="1.0" encoding="UTF-8" standalone="no"?>
<!-- Created with Inkscape (http://www.inkscape.org/) -->

<svg
   version="1.1"
   id="svg2"
   xml:space="preserve"
   width="1506.6667"
   height="284.66666"
   viewBox="0 0 1506.6667 284.66666"
   sodipodi:docname="EL- Funded by the EU_NEG.eps"
   xmlns:inkscape="http://www.inkscape.org/namespaces/inkscape"
   xmlns:sodipodi="http://sodipodi.sourceforge.net/DTD/sodipodi-0.dtd"
   xmlns="http://www.w3.org/2000/svg"
   xmlns:svg="http://www.w3.org/2000/svg"><defs
     id="defs6" /><sodipodi:namedview
     id="namedview4"
     pagecolor="#ffffff"
     bordercolor="#666666"
     borderopacity="1.0"
     inkscape:pageshadow="2"
     inkscape:pageopacity="0.0"
     inkscape:pagecheckerboard="0" /><g
     id="g8"
     inkscape:groupmode="layer"
     inkscape:label="ink_ext_XXXXXX"
     transform="matrix(1.3333333,0,0,-1.3333333,0,284.66667)"><g
       id="g10"
       transform="scale(0.1)"><path
         d="M 89.2422,71.0586 H 3038.7 V 2073.9 H 89.2422 V 71.0586"
         style="fill:#ffffff;fill-opacity:1;fill-rule:nonzero;stroke:none"
         id="path12" /><path
         d="M 145.961,128.281 H 2981.99 V 2018.97 H 145.961 V 128.281"
         style="fill:#264ca4;fill-opacity:1;fill-rule:nonzero;stroke:none"
         id="path14" /><path
         d="m 1503.55,1607.02 59.83,43.67 59.86,-43.67 -22.79,70.63 60.79,43.67 h -74.93 l -22.93,71.48 -22.93,-71.56 -74.88,0.08 60.74,-43.67 -22.76,-70.63"
         style="fill:#f5f014;fill-opacity:1;fill-rule:nonzero;stroke:none"
         id="path16" /><path
         d="m 1193.85,1523.82 59.85,43.67 59.81,-43.67 -22.74,70.63 60.75,43.68 h -74.93 l -22.92,71.55 -22.93,-71.64 -74.9,0.09 60.75,-43.68 -22.74,-70.63"
         style="fill:#f5f014;fill-opacity:1;fill-rule:nonzero;stroke:none"
         id="path18" /><path
         d="m 1027.09,1482.57 -22.93,-71.64 -74.879,0.09 60.742,-43.68 -22.761,-70.63 59.828,43.68 59.85,-43.68 -22.78,70.63 60.75,43.68 h -74.89 l -22.93,71.55"
         style="fill:#f5f014;fill-opacity:1;fill-rule:nonzero;stroke:none"
         id="path20" /><path
         d="m 943.977,1031.08 59.803,-43.658 -22.729,70.608 60.729,43.68 h -74.874 l -22.929,71.56 -22.926,-71.72 -74.922,0.16 60.777,-43.68 -22.769,-70.608 59.84,43.658"
         style="fill:#f5f014;fill-opacity:1;fill-rule:nonzero;stroke:none"
         id="path22" /><path
         d="m 1050.02,791.48 -22.93,71.559 -22.93,-71.641 -74.879,0.082 60.742,-43.66 -22.761,-70.64 59.828,43.75 59.85,-43.75 -22.78,70.64 60.75,43.66 h -74.89"
         style="fill:#f5f014;fill-opacity:1;fill-rule:nonzero;stroke:none"
         id="path24" /><path
         d="m 1277.05,564.461 -22.93,71.469 -22.89,-71.559 -74.92,0.09 60.74,-43.68 -22.72,-70.633 59.83,43.672 59.81,-43.672 -22.74,70.633 60.75,43.68 h -74.93"
         style="fill:#f5f014;fill-opacity:1;fill-rule:nonzero;stroke:none"
         id="path26" /><path
         d="m 1586.35,482.18 -22.93,71.558 -22.89,-71.636 -74.91,0.078 60.73,-43.668 -22.72,-70.633 59.83,43.68 59.81,-43.68 -22.78,70.633 60.78,43.668 h -74.92"
         style="fill:#f5f014;fill-opacity:1;fill-rule:nonzero;stroke:none"
         id="path28" /><path
         d="m 1895.66,564.461 -22.89,71.469 -22.97,-71.559 -74.85,0.09 60.71,-43.68 -22.74,-70.633 59.85,43.672 59.83,-43.672 -22.8,70.633 60.78,43.68 h -74.92"
         style="fill:#f5f014;fill-opacity:1;fill-rule:nonzero;stroke:none"
         id="path30" /><path
         d="m 2122.77,791.48 -22.97,71.559 -22.97,-71.641 -74.84,0.082 60.78,-43.66 -22.82,-70.64 59.85,43.75 59.83,-43.75 -22.8,70.64 60.77,43.66 h -74.83"
         style="fill:#f5f014;fill-opacity:1;fill-rule:nonzero;stroke:none"
         id="path32" /><path
         d="m 2279.88,1102.57 h -74.93 l -22.96,71.57 -22.89,-71.65 -74.93,0.08 60.78,-43.67 -22.74,-70.619 59.78,43.749 59.84,-43.749 -22.73,70.619 60.78,43.67"
         style="fill:#f5f014;fill-opacity:1;fill-rule:nonzero;stroke:none"
         id="path34" /><path
         d="m 2039.95,1297.66 59.84,43.66 59.84,-43.66 -22.8,70.63 60.77,43.59 h -74.84 l -22.97,71.55 -22.96,-71.64 -74.85,0.09 60.78,-43.59 -22.81,-70.63"
         style="fill:#f5f014;fill-opacity:1;fill-rule:nonzero;stroke:none"
         id="path36" /><path
         d="m 1873.63,1709.6 -22.89,-71.64 -74.93,0.17 60.71,-43.75 -22.74,-70.64 59.92,43.75 59.76,-43.75 -22.72,70.64 60.78,43.75 h -75 l -22.89,71.47"
         style="fill:#f5f014;fill-opacity:1;fill-rule:nonzero;stroke:none"
         id="path38" /><path
         d="m 3391.88,1300.63 v 465.28 h 140.6 l 84.43,-317.39 83.46,317.39 h 140.92 v -465.28 h -87.27 v 366.25 l -92.36,-366.25 h -90.46 l -92.04,366.25 v -366.25 h -87.28"
         style="fill:#ffffff;fill-opacity:1;fill-rule:nonzero;stroke:none"
         id="path40" /><path
         d="m 4096.79,1508.83 v -69.19 c -36.18,0 -60.78,-2.97 -73.79,-8.89 -13.02,-5.93 -19.52,-16.18 -19.52,-30.79 0,-10.78 4.55,-19.57 13.64,-26.34 9.1,-6.78 19.9,-10.16 32.39,-10.16 22.42,0 49.08,10.49 79.98,31.42 l 58.71,-58.08 c -48.88,-29.19 -96.7,-43.79 -143.46,-43.79 -37.88,0 -69.45,9.3 -94.74,27.93 -25.29,18.61 -37.93,42.52 -37.93,71.72 0,38.09 19.89,65.59 59.67,82.52 -31.32,17.14 -46.97,41.68 -46.97,73.64 0,26.44 10.1,49.14 30.31,68.07 20.21,18.94 52.32,28.41 96.32,28.41 49.31,0 90.24,-11.32 122.83,-33.95 l -52.68,-56.82 c -21.8,12.06 -43.06,18.09 -63.8,18.09 -14.81,0 -25.97,-2.85 -33.48,-8.57 -7.52,-5.71 -11.27,-12.59 -11.27,-20.63 0,-23.06 27.93,-34.59 83.79,-34.59"
         style="fill:#ffffff;fill-opacity:1;fill-rule:nonzero;stroke:none"
         id="path42" /><path
         d="m 4391.64,1637.68 h 259.3 v -73.95 h -82.52 v -263.1 h -89.18 v 263.1 h -87.6 v 73.95"
         style="fill:#ffffff;fill-opacity:1;fill-rule:nonzero;stroke:none"
         id="path44" /><path
         d="m 5018.78,1172.4 h -89.19 v 300.24 c 0,30.04 -1.21,51.16 -3.64,63.32 -2.44,12.17 -8.15,22.07 -17.14,29.68 -8.99,7.62 -20.47,11.43 -34.43,11.43 -16.72,0 -31.32,-4.77 -43.81,-14.29 -12.48,-9.52 -20.58,-21.74 -24.28,-36.66 -3.7,-14.91 -5.54,-39.19 -5.54,-72.84 v -152.65 h -89.19 v 337.05 h 82.84 v -49.51 c 29.4,38.09 66.53,57.13 111.39,57.13 26.03,0 48.03,-5.6 66.02,-16.82 17.98,-11.21 30.31,-25.5 36.97,-42.85 6.67,-17.35 10,-42.52 10,-75.53 v -337.7"
         style="fill:#ffffff;fill-opacity:1;fill-rule:nonzero;stroke:none"
         id="path46" /><path
         d="m 5257.13,1637.68 h 98.4 l 74.9,-155.82 81.25,155.82 h 93.3 l -120.6,-230.41 129.49,-234.87 h -102.19 l -81.25,160.28 -84.11,-160.28 h -96.8 l 128.86,234.87 -121.25,230.41"
         style="fill:#ffffff;fill-opacity:1;fill-rule:nonzero;stroke:none"
         id="path48" /><path
         d="m 5744.96,1459 c 0,-27.93 7.08,-50.46 21.26,-67.61 14.17,-17.13 33.43,-25.71 57.77,-25.71 23.9,0 43.27,9.58 58.08,28.73 14.81,19.14 22.21,44.28 22.21,75.38 0,31.73 -6.82,56.81 -20.47,75.22 -13.64,18.41 -33.27,27.61 -58.86,27.61 -22.23,0 -41.11,-8.3 -56.67,-24.92 -15.54,-16.61 -23.32,-46.18 -23.32,-88.7 z m 0,-137.75 V 1172.4 h -89.18 v 265.33 c 0,47.82 4.92,85.75 14.75,113.78 9.84,28.04 27.67,50.68 53.48,67.92 25.82,17.25 57.02,25.87 93.63,25.87 54.38,0 97.65,-17.57 129.81,-52.68 32.16,-35.13 48.24,-77.34 48.24,-126.64 0,-48.25 -15.5,-89.14 -46.5,-122.67 -30.99,-33.54 -69.03,-50.3 -114.09,-50.3 -29.84,0 -59.88,9.41 -90.14,28.24"
         style="fill:#ffffff;fill-opacity:1;fill-rule:nonzero;stroke:none"
         id="path50" /><path
         d="m 6372.75,1172.4 h -89.19 v 300.24 c 0,30.04 -1.21,51.16 -3.64,63.32 -2.45,12.17 -8.16,22.07 -17.14,29.68 -9,7.62 -20.47,11.43 -34.44,11.43 -16.72,0 -31.31,-4.77 -43.81,-14.29 -12.48,-9.52 -20.57,-21.74 -24.27,-36.66 -3.7,-14.91 -5.55,-39.19 -5.55,-72.84 v -152.65 h -89.19 v 337.05 h 82.84 v -49.51 c 29.41,38.09 66.54,57.13 111.4,57.13 26.02,0 48.03,-5.6 66.02,-16.82 17.97,-11.21 30.31,-25.5 36.97,-42.85 6.67,-17.35 10,-42.52 10,-75.53 v -337.7"
         style="fill:#ffffff;fill-opacity:1;fill-rule:nonzero;stroke:none"
         id="path52" /><path
         d="m 6463.2,1637.68 h 89.18 v -153.29 c 0,-28.57 1.48,-50.89 4.45,-66.97 2.96,-16.08 9.68,-29.09 20.15,-39.04 10.47,-9.94 23.01,-14.92 37.6,-14.92 15.24,0 28.41,5.19 39.53,15.56 11.1,10.36 18.25,22.95 21.41,37.77 3.18,14.8 4.77,37.02 4.77,66.65 v 154.24 h 89.18 v -337.05 h -82.2 v 40.62 c -16.72,-32.17 -39.36,-48.24 -67.92,-48.24 -30.47,0 -52.79,16.07 -66.97,48.24 V 1172.4 h -89.18 v 465.28"
         style="fill:#ffffff;fill-opacity:1;fill-rule:nonzero;stroke:none"
         id="path54" /><path
         d="m 6931.34,1468.2 c 0,-31.1 6.61,-56.34 19.84,-75.69 13.22,-19.37 30.42,-29.05 51.58,-29.05 20.31,0 36.91,8.57 49.82,25.72 12.9,17.13 19.36,43.48 19.36,79.02 0,34.91 -6.88,61.36 -20.63,79.35 -13.76,17.98 -30.36,26.98 -49.82,26.98 -20.31,0 -37.09,-9.32 -50.31,-27.93 -13.23,-18.62 -19.84,-44.76 -19.84,-78.4 z m 185.68,169.48 h 76.48 c -12.06,-24.55 -22.17,-55.91 -30.31,-94.1 -8.15,-38.19 -12.22,-64.91 -12.22,-80.14 0,-19.67 3.7,-45.39 11.1,-77.12 7.42,-31.74 16.72,-60.3 27.93,-85.69 h -74.9 c -1.05,4.22 -2.96,10.15 -5.7,17.77 -4.45,12.69 -8.26,25.39 -11.43,38.08 -26.03,-42.32 -63.16,-63.47 -111.4,-63.47 -45.5,0 -81.31,18.45 -107.44,55.38 -26.13,36.92 -39.19,80.03 -39.19,129.33 0,46.55 13.01,86.12 39.03,118.71 26.03,32.57 62.21,48.87 108.55,48.87 45.71,0 82.62,-21.9 110.76,-65.69 3.81,15.44 10.05,34.79 18.74,58.07"
         style="fill:#ffffff;fill-opacity:1;fill-rule:nonzero;stroke:none"
         id="path56" /><path
         d="m 7229.99,1637.68 h 259.3 v -73.95 h -82.52 v -263.1 h -89.18 v 263.1 h -87.6 v 73.95"
         style="fill:#ffffff;fill-opacity:1;fill-rule:nonzero;stroke:none"
         id="path58" /><path
         d="m 7604.19,1469.16 c 0,-33.44 7.94,-59.04 23.8,-76.82 15.88,-17.77 35.44,-26.66 58.72,-26.66 23.27,0 42.8,8.89 58.56,26.66 15.76,17.78 23.64,43.6 23.64,77.45 0,33 -7.88,58.39 -23.64,76.17 -15.76,17.77 -35.29,26.66 -58.56,26.66 -23.28,0 -42.84,-8.89 -58.72,-26.66 -15.86,-17.78 -23.8,-43.37 -23.8,-76.8 z m -91.4,4.75 c 0,29.63 7.29,58.3 21.9,86.01 14.59,27.72 35.27,48.89 62.04,63.48 26.77,14.61 56.65,21.9 89.66,21.9 51,0 92.78,-16.56 125.37,-49.67 32.58,-33.11 48.88,-74.96 48.88,-125.52 0,-51 -16.46,-93.27 -49.36,-126.8 -32.9,-33.54 -74.31,-50.3 -124.25,-50.3 -30.89,0 -60.36,6.98 -88.39,20.94 -28.04,13.97 -49.36,34.44 -63.95,61.42 -14.61,26.97 -21.9,59.83 -21.9,98.54"
         style="fill:#ffffff;fill-opacity:1;fill-rule:nonzero;stroke:none"
         id="path60" /><path
         d="m 7994.56,1459.95 c 0,-31.74 8.31,-56.12 24.93,-73.15 16.6,-17.05 36.86,-25.55 60.78,-25.55 23.9,0 44.43,8.93 61.56,26.82 17.15,17.87 25.71,42.89 25.71,75.06 0,32.37 -8.36,57.44 -25.07,75.21 -16.71,17.77 -36.71,26.66 -59.99,26.66 -27.09,0 -48.5,-9.79 -64.26,-29.36 -15.77,-19.57 -23.66,-44.8 -23.66,-75.69 z m -54.59,305.96 h 284.7 v -73.96 h -159.01 c 17.99,-16.71 48.35,-39.35 91.09,-67.91 27.3,-18.41 46.76,-34.12 58.4,-47.14 11.63,-13.01 20.95,-29.3 27.93,-48.87 6.98,-19.57 10.47,-40.04 10.47,-61.41 0,-47.62 -14.59,-88.45 -43.79,-122.52 -29.2,-34.06 -71.85,-51.09 -127.91,-51.09 -38.3,0 -68.87,7.09 -91.72,21.27 -22.85,14.17 -42.17,34.96 -57.93,62.36 -15.76,27.39 -23.64,58.56 -23.64,93.47 0,40.62 11.63,76.32 34.91,107.12 23.27,30.78 53.32,49.23 90.14,55.38 -23.7,16.71 -39.67,28.35 -47.93,34.91 l -45.71,35.55 v 62.84"
         style="fill:#ffffff;fill-opacity:1;fill-rule:nonzero;stroke:none"
         id="path62" /><path
         d="m 8427.8,1678.95 43.8,94.9 h 99.97 l -87.28,-94.9 z m -32.38,-209.79 c 0,-33.44 7.94,-59.04 23.8,-76.82 15.88,-17.77 35.44,-26.66 58.72,-26.66 23.27,0 42.8,8.89 58.56,26.66 15.76,17.78 23.64,43.6 23.64,77.45 0,33 -7.88,58.39 -23.64,76.17 -15.76,17.77 -35.29,26.66 -58.56,26.66 -23.28,0 -42.84,-8.89 -58.72,-26.66 -15.86,-17.78 -23.8,-43.37 -23.8,-76.8 z m -91.4,4.75 c 0,29.63 7.29,58.3 21.9,86.01 14.59,27.72 35.28,48.89 62.04,63.48 26.77,14.61 56.65,21.9 89.66,21.9 51,0 92.78,-16.56 125.37,-49.67 32.58,-33.11 48.88,-74.96 48.88,-125.52 0,-51 -16.46,-93.27 -49.36,-126.8 -32.9,-33.54 -74.31,-50.3 -124.24,-50.3 -30.9,0 -60.37,6.98 -88.4,20.94 -28.04,13.97 -49.36,34.44 -63.95,61.42 -14.61,26.97 -21.9,59.83 -21.9,98.54"
         style="fill:#ffffff;fill-opacity:1;fill-rule:nonzero;stroke:none"
         id="path64" /><path
         d="m 8672.18,1637.68 h 259.3 v -73.95 h -82.52 v -263.1 h -89.18 v 263.1 h -87.6 v 73.95"
         style="fill:#ffffff;fill-opacity:1;fill-rule:nonzero;stroke:none"
         id="path66" /><path
         d="m 9299.33,1172.4 h -89.19 v 300.24 c 0,30.04 -1.21,51.16 -3.64,63.32 -2.44,12.17 -8.16,22.07 -17.14,29.68 -9,7.62 -20.47,11.43 -34.43,11.43 -16.72,0 -31.32,-4.77 -43.81,-14.29 -12.48,-9.52 -20.58,-21.74 -24.28,-36.66 -3.7,-14.91 -5.55,-39.19 -5.55,-72.84 v -152.65 h -89.19 v 337.05 h 82.85 v -49.51 c 29.4,38.09 66.53,57.13 111.39,57.13 26.03,0 48.03,-5.6 66.02,-16.82 17.98,-11.21 30.31,-25.5 36.97,-42.85 6.67,-17.35 10,-42.52 10,-75.53 v -337.7"
         style="fill:#ffffff;fill-opacity:1;fill-rule:nonzero;stroke:none"
         id="path68" /><path
         d="m 9460.25,1469.16 c 0,-32.17 7.72,-57.45 23.17,-75.86 15.44,-18.41 35.23,-27.62 59.35,-27.62 23.27,0 42.79,8.89 58.55,26.66 15.76,17.78 23.64,43.91 23.64,78.4 0,30.47 -7.51,55.07 -22.52,73.79 -15.03,18.73 -34.92,28.09 -59.67,28.09 -24.34,0 -44.17,-9.2 -59.51,-27.61 -15.35,-18.41 -23.01,-43.69 -23.01,-75.85 z m 313.25,168.52 v -73.95 h -81.56 c 16.5,-28.14 24.75,-59.24 24.75,-93.3 0,-49.09 -16.02,-90.94 -48.08,-125.53 -32.05,-34.6 -74.43,-51.89 -127.11,-51.89 -51.42,0 -93.05,16.07 -124.89,48.24 -31.85,32.16 -47.77,74.27 -47.77,126.32 0,51.62 15.61,94.15 46.82,127.59 31.2,33.42 73.99,50.14 128.38,50.14 15.87,0 34.17,-2.54 54.91,-7.62 h 174.55"
         style="fill:#ffffff;fill-opacity:1;fill-rule:nonzero;stroke:none"
         id="path70" /><path
         d="m 10141,1172.4 h -89.2 v 300.24 c 0,30.04 -1.2,51.16 -3.6,63.32 -2.4,12.17 -8.2,22.07 -17.1,29.68 -9,7.62 -20.5,11.43 -34.48,11.43 -16.71,0 -31.31,-4.77 -43.8,-14.29 -12.48,-9.52 -20.58,-21.74 -24.28,-36.66 -3.7,-14.91 -5.55,-39.19 -5.55,-72.84 v -152.65 h -89.19 v 337.05 h 82.84 v -49.51 c 29.41,38.09 66.54,57.13 111.36,57.13 26.1,0 48.1,-5.6 66.1,-16.82 17.9,-11.21 30.3,-25.5 36.9,-42.85 6.7,-17.35 10,-42.52 10,-75.53 v -337.7"
         style="fill:#ffffff;fill-opacity:1;fill-rule:nonzero;stroke:none"
         id="path72" /><path
         d="m 3361.1,857.691 h 259.29 V 783.73 h -82.52 V 520.629 H 3448.7 V 783.73 h -87.6 v 73.961"
         style="fill:#ffffff;fill-opacity:1;fill-rule:nonzero;stroke:none"
         id="path74" /><path
         d="m 3988.25,392.41 h -89.19 v 300.238 c 0,30.043 -1.21,51.153 -3.65,63.321 -2.44,12.16 -8.15,22.062 -17.13,29.679 -9,7.622 -20.47,11.422 -34.44,11.422 -16.72,0 -31.32,-4.761 -43.81,-14.281 -12.48,-9.519 -20.57,-21.738 -24.27,-36.66 -3.71,-14.918 -5.55,-39.188 -5.55,-72.84 v -152.66 h -89.19 v 337.062 h 82.84 V 808.18 c 29.41,38.082 66.53,57.129 111.4,57.129 26.02,0 48.02,-5.61 66.01,-16.829 17.98,-11.21 30.32,-25.5 36.98,-42.839 6.67,-17.352 10,-42.532 10,-75.539 V 392.41"
         style="fill:#ffffff;fill-opacity:1;fill-rule:nonzero;stroke:none"
         id="path76" /><path
         d="m 4359.9,850.07 -18.41,-74.898 c -23.92,7.617 -46.13,11.43 -66.65,11.43 -38.94,0 -71.2,-10.852 -96.81,-32.532 -25.59,-21.691 -38.4,-47.25 -38.4,-76.648 0,-19.262 6.77,-34.442 20.32,-45.551 13.53,-11.101 37.77,-21.101 72.67,-29.992 42.11,-10.789 72.58,-24.649 91.41,-41.578 18.83,-16.93 28.25,-40.313 28.25,-70.141 0,-32.789 -12.85,-58.711 -38.57,-77.75 -25.7,-19.051 -59.4,-28.582 -101.08,-28.582 -12.49,0 -32.37,1.492 -59.67,4.453 l 18.41,76.797 c 17.77,-4.43 32.58,-6.656 44.43,-6.656 13.33,0 24.5,2.797 33.49,8.41 8.99,5.617 13.49,13.598 13.49,23.957 0,9.742 -3.97,17.41 -11.91,23.012 -7.93,5.621 -22.9,10.64 -44.91,15.078 -52.26,11 -90.03,29.359 -113.3,55.07 -23.28,25.699 -34.91,55.582 -34.91,89.66 0,32.371 8.93,63.801 26.81,94.262 17.89,30.469 42.86,54.32 74.91,71.57 32.06,17.239 68.5,25.868 109.34,25.868 34.48,0 64.85,-5.079 91.09,-15.239"
         style="fill:#ffffff;fill-opacity:1;fill-rule:nonzero;stroke:none"
         id="path78" /><path
         d="M 4598.89,520.629 V 985.91 h 345 V 907.199 H 4692.84 V 804.051 h 233.59 V 725.66 H 4692.84 V 599.031 h 259.94 v -78.402 h -353.89"
         style="fill:#ffffff;fill-opacity:1;fill-rule:nonzero;stroke:none"
         id="path80" /><path
         d="m 5022.59,857.691 h 89.19 v -172.66 c 0,-41.261 5.81,-68.133 17.45,-80.609 11.63,-12.492 26.66,-18.731 45.07,-18.731 21.37,0 37.13,7.239 47.29,21.75 10.15,14.489 15.23,40.348 15.23,77.59 v 172.66 h 89.19 V 699.32 c 0,-45.281 -4.97,-80.461 -14.91,-105.539 -9.95,-25.07 -26.88,-44.801 -50.78,-59.191 -23.92,-14.379 -52.17,-21.578 -84.75,-21.578 -35.13,0 -64.7,7.508 -88.71,22.539 -24.01,15.019 -40.73,35.008 -50.15,59.98 -9.41,24.957 -14.12,59.559 -14.12,103.789 v 158.371"
         style="fill:#ffffff;fill-opacity:1;fill-rule:nonzero;stroke:none"
         id="path82" /><path
         d="m 5490.1,679.012 c 0,-27.934 7.08,-50.473 21.26,-67.614 14.17,-17.136 33.43,-25.707 57.76,-25.707 23.91,0 43.28,9.579 58.09,28.731 14.81,19.137 22.21,44.277 22.21,75.367 0,31.742 -6.82,56.82 -20.47,75.223 -13.64,18.41 -33.27,27.609 -58.87,27.609 -22.22,0 -41.1,-8.301 -56.66,-24.91 -15.55,-16.609 -23.32,-46.18 -23.32,-88.699 z m 0,-137.762 V 392.41 h -89.19 v 265.328 c 0,47.813 4.92,85.742 14.76,113.782 9.84,28.031 27.66,50.671 53.47,67.921 25.82,17.239 57.03,25.868 93.64,25.868 54.37,0 97.64,-17.571 129.8,-52.688 32.17,-35.133 48.24,-77.332 48.24,-126.641 0,-48.242 -15.49,-89.128 -46.49,-122.671 -31,-33.528 -69.03,-50.297 -114.09,-50.297 -29.85,0 -59.88,9.418 -90.14,28.238"
         style="fill:#ffffff;fill-opacity:1;fill-rule:nonzero;stroke:none"
         id="path84" /><path
         d="m 5838.27,857.691 h 85.05 c -27.71,-57.761 -41.57,-117.011 -41.57,-177.73 0,-34.711 6.19,-59.473 18.57,-74.27 12.38,-14.82 27.03,-22.222 43.96,-22.222 11.63,0 21.84,3.59 30.63,10.793 8.78,7.187 14.43,16.078 16.97,26.66 2.54,10.578 3.81,26.769 3.81,48.558 v 102.2 h 89.19 v -102.2 c 0,-20.941 1.21,-36.929 3.65,-47.921 2.43,-11.008 8.14,-20.11 17.14,-27.297 8.98,-7.203 19.2,-10.793 30.62,-10.793 17.78,0 32.64,7.73 44.59,23.172 11.96,15.437 17.93,41.05 17.93,76.8 0,24.118 -3.59,52.368 -10.78,84.75 -7.2,32.368 -17.46,62.2 -30.79,89.5 h 85.06 c 11.84,-19.679 22.79,-46.601 32.85,-80.769 10.05,-34.184 15.07,-65.551 15.07,-94.102 0,-49.519 -13.12,-90.199 -39.36,-122.039 -26.23,-31.851 -60.72,-47.769 -103.45,-47.769 -51.21,0 -86.87,23.597 -106.97,70.777 -20.31,-47.18 -56.07,-70.777 -107.27,-70.777 -42.96,0 -77.5,15.976 -103.63,47.929 -26.13,31.938 -39.19,72.571 -39.19,121.879 0,28.551 5.01,59.918 15.07,94.102 10.05,34.168 21,61.09 32.85,80.769"
         style="fill:#ffffff;fill-opacity:1;fill-rule:nonzero;stroke:none"
         id="path86" /><path
         d="m 6311.8,857.691 h 466.88 V 783.73 h -89.52 V 520.629 h -89.18 V 783.73 H 6490.49 V 520.629 H 6401.3 V 783.73 h -89.5 v 73.961"
         style="fill:#ffffff;fill-opacity:1;fill-rule:nonzero;stroke:none"
         id="path88" /><path
         d="m 6892.3,688.211 c 0,-31.109 6.61,-56.34 19.83,-75.699 13.23,-19.364 30.42,-29.043 51.58,-29.043 20.32,0 36.92,8.562 49.83,25.711 12.9,17.129 19.35,43.48 19.35,79.031 0,34.91 -6.87,61.348 -20.62,79.34 -13.76,17.98 -30.36,26.988 -49.82,26.988 -20.32,0 -37.09,-9.32 -50.32,-27.93 -13.22,-18.629 -19.83,-44.757 -19.83,-78.398 z m 185.67,169.48 h 76.49 c -12.06,-24.55 -22.17,-55.921 -30.32,-94.101 -8.14,-38.199 -12.21,-64.91 -12.21,-80.149 0,-19.671 3.7,-45.382 11.1,-77.121 7.41,-31.742 16.72,-60.3 27.93,-85.691 h -74.9 c -1.06,4.23 -2.96,10.152 -5.7,17.769 -4.46,12.704 -8.27,25.391 -11.43,38.09 -26.04,-42.328 -63.16,-63.476 -111.41,-63.476 -45.49,0 -81.31,18.457 -107.43,55.379 -26.13,36.929 -39.2,80.031 -39.2,129.339 0,46.54 13.02,86.11 39.04,118.7 26.03,32.582 62.2,48.879 108.55,48.879 45.7,0 82.62,-21.911 110.76,-65.7 3.81,15.442 10.05,34.801 18.73,58.082"
         style="fill:#ffffff;fill-opacity:1;fill-rule:nonzero;stroke:none"
         id="path90" /><path
         d="m 7296.02,917.359 v 76.493 h 76.8 v -76.493 z m -73.63,-396.73 v 337.062 h 89.18 V 520.629 Z m -62.86,396.73 v 76.493 h 76.5 v -76.493 h -76.5"
         style="fill:#ffffff;fill-opacity:1;fill-rule:nonzero;stroke:none"
         id="path92" /><path
         d="m 7401.38,857.691 h 89.19 v -116.8 l 104.1,116.8 h 108.86 l -135.52,-142.82 146,-194.242 h -104.43 l -98.7,134.57 -20.31,-21.578 V 520.629 h -89.19 v 337.062"
         style="fill:#ffffff;fill-opacity:1;fill-rule:nonzero;stroke:none"
         id="path94" /><path
         d="m 7868.57,898.949 43.8,94.903 h 99.97 l -87.28,-94.903 z M 8071.06,392.41 h -89.19 v 300.238 c 0,30.043 -1.21,51.153 -3.64,63.321 -2.45,12.16 -8.16,22.062 -17.14,29.679 -9,7.622 -20.47,11.422 -34.44,11.422 -16.71,0 -31.31,-4.761 -43.8,-14.281 -12.49,-9.519 -20.58,-21.738 -24.28,-36.66 -3.7,-14.918 -5.55,-39.188 -5.55,-72.84 v -152.66 h -89.19 v 337.062 h 82.84 V 808.18 c 29.41,38.082 66.54,57.129 111.4,57.129 26.03,0 48.03,-5.61 66.02,-16.829 17.97,-11.21 30.31,-25.5 36.97,-42.839 6.67,-17.352 10,-42.532 10,-75.539 V 392.41"
         style="fill:#ffffff;fill-opacity:1;fill-rule:nonzero;stroke:none"
         id="path96" /><path
         d="m 8442.71,850.07 -18.41,-74.898 c -23.92,7.617 -46.13,11.43 -66.65,11.43 -38.94,0 -71.2,-10.852 -96.81,-32.532 -25.59,-21.691 -38.39,-47.25 -38.39,-76.648 0,-19.262 6.76,-34.442 20.31,-45.551 13.53,-11.101 37.77,-21.101 72.67,-29.992 42.11,-10.789 72.58,-24.649 91.41,-41.578 18.84,-16.93 28.25,-40.313 28.25,-70.141 0,-32.789 -12.85,-58.711 -38.56,-77.75 -25.71,-19.051 -59.41,-28.582 -101.09,-28.582 -12.49,0 -32.37,1.492 -59.66,4.453 l 18.4,76.797 c 17.78,-4.43 32.58,-6.656 44.44,-6.656 13.33,0 24.49,2.797 33.48,8.41 8.99,5.617 13.49,13.598 13.49,23.957 0,9.742 -3.97,17.41 -11.9,23.012 -7.93,5.621 -22.91,10.64 -44.92,15.078 -52.25,11 -90.03,29.359 -113.3,55.07 -23.28,25.699 -34.91,55.582 -34.91,89.66 0,32.371 8.94,63.801 26.82,94.262 17.88,30.469 42.85,54.32 74.9,71.57 32.06,17.239 68.5,25.868 109.34,25.868 34.49,0 64.85,-5.079 91.09,-15.239"
         style="fill:#ffffff;fill-opacity:1;fill-rule:nonzero;stroke:none"
         id="path98" /><path
         d="M 8802.63,520.629 V 985.91 h 344.99 V 907.199 H 8896.25 V 804.051 h 233.92 V 725.66 H 8896.25 V 599.031 h 260.26 v -78.402 z m -190.11,382.762 50.78,82.519 h 118.38 l -104.41,-82.519 h -64.75"
         style="fill:#ffffff;fill-opacity:1;fill-rule:nonzero;stroke:none"
         id="path100" /><path
         d="M 9328.22,520.629 9192.38,857.691 H 9286 l 63.48,-172.019 18.4,-57.442 c 4.87,14.59 7.93,24.219 9.2,28.872 2.97,9.519 6.15,19.046 9.53,28.57 l 64.11,172.019 h 91.73 L 9408.51,520.629 h -80.29"
         style="fill:#ffffff;fill-opacity:1;fill-rule:nonzero;stroke:none"
         id="path102" /><path
         d="m 9623.05,857.691 h 85.06 c -27.72,-57.761 -41.57,-117.011 -41.57,-177.73 0,-34.711 6.19,-59.473 18.56,-74.27 12.38,-14.82 27.03,-22.222 43.97,-22.222 11.63,0 21.83,3.59 30.62,10.793 8.78,7.187 14.43,16.078 16.97,26.66 2.54,10.578 3.81,26.769 3.81,48.558 v 102.2 h 89.19 v -102.2 c 0,-20.941 1.21,-36.929 3.65,-47.921 2.44,-11.008 8.15,-20.11 17.14,-27.297 8.99,-7.203 19.2,-10.793 30.63,-10.793 17.77,0 32.63,7.73 44.59,23.172 11.95,15.437 17.93,41.05 17.93,76.8 0,24.118 -3.6,52.368 -10.78,84.75 -7.2,32.368 -17.46,62.2 -30.79,89.5 h 85.07 c 11.8,-19.679 22.8,-46.601 32.8,-80.769 10.1,-34.184 15.1,-65.551 15.1,-94.102 0,-49.519 -13.1,-90.199 -39.4,-122.039 -26.2,-31.851 -60.67,-47.769 -103.41,-47.769 -51.21,0 -86.86,23.597 -106.96,70.777 -20.31,-47.18 -56.08,-70.777 -107.28,-70.777 -42.96,0 -77.5,15.976 -103.62,47.929 -26.13,31.938 -39.2,72.571 -39.2,121.879 0,28.551 5.02,59.918 15.08,94.102 10.05,34.168 20.99,61.09 32.84,80.769"
         style="fill:#ffffff;fill-opacity:1;fill-rule:nonzero;stroke:none"
         id="path104" /><path
         d="m 10215.6,689.16 c 0,-32.16 7.7,-57.449 23.2,-75.859 15.4,-18.403 35.2,-27.61 59.3,-27.61 23.3,0 42.8,8.879 58.6,26.661 15.8,17.769 23.6,43.898 23.6,78.398 0,30.461 -7.5,55.059 -22.5,73.789 -15,18.731 -34.9,28.082 -59.7,28.082 -24.3,0 -44.1,-9.199 -59.5,-27.609 -15.3,-18.403 -23,-43.692 -23,-75.852 z m 313.3,168.531 V 783.73 h -81.6 c 16.5,-28.128 24.8,-59.23 24.8,-93.3 0,-49.09 -16.1,-90.93 -48.1,-125.52 -32.1,-34.601 -74.4,-51.898 -127.1,-51.898 -51.4,0 -93.1,16.078 -124.9,48.238 -31.9,32.16 -47.8,74.27 -47.8,126.32 0,51.621 15.6,94.149 46.8,127.59 31.2,33.43 74,50.149 128.4,50.149 15.9,0 34.2,-2.539 54.9,-7.618 h 174.6"
         style="fill:#ffffff;fill-opacity:1;fill-rule:nonzero;stroke:none"
         id="path106" /><path
         d="m 10896.4,392.41 h -89.2 v 300.238 c 0,30.043 -1.2,51.153 -3.6,63.321 -2.5,12.16 -8.2,22.062 -17.2,29.679 -9,7.622 -20.4,11.422 -34.4,11.422 -16.7,0 -31.3,-4.761 -43.8,-14.281 -12.5,-9.519 -20.6,-21.738 -24.3,-36.66 -3.7,-14.918 -5.5,-39.188 -5.5,-72.84 v -152.66 h -89.2 v 337.062 h 82.8 V 808.18 c 29.4,38.082 66.5,57.129 111.4,57.129 26,0 48,-5.61 66,-16.829 18,-11.21 30.3,-25.5 37,-42.839 6.7,-17.352 10,-42.532 10,-75.539 V 392.41"
         style="fill:#ffffff;fill-opacity:1;fill-rule:nonzero;stroke:none"
         id="path108" /><path
         d="m 11268.1,850.07 -18.4,-74.898 c -24,7.617 -46.2,11.43 -66.7,11.43 -38.9,0 -71.2,-10.852 -96.8,-32.532 -25.6,-21.691 -38.4,-47.25 -38.4,-76.648 0,-19.262 6.8,-34.442 20.3,-45.551 13.5,-11.101 37.8,-21.101 72.7,-29.992 42.1,-10.789 72.6,-24.649 91.4,-41.578 18.8,-16.93 28.2,-40.313 28.2,-70.141 0,-32.789 -12.8,-58.711 -38.5,-77.75 -25.7,-19.051 -59.4,-28.582 -101.1,-28.582 -12.5,0 -32.4,1.492 -59.7,4.453 l 18.4,76.797 c 17.8,-4.43 32.6,-6.656 44.5,-6.656 13.3,0 24.5,2.797 33.5,8.41 8.9,5.617 13.4,13.598 13.4,23.957 0,9.742 -3.9,17.41 -11.9,23.012 -7.9,5.621 -22.9,10.64 -44.9,15.078 -52.2,11 -90,29.359 -113.3,55.07 -23.3,25.699 -34.9,55.582 -34.9,89.66 0,32.371 8.9,63.801 26.8,94.262 17.9,30.469 42.9,54.32 74.9,71.57 32.1,17.239 68.5,25.868 109.4,25.868 34.5,0 64.8,-5.079 91.1,-15.239"
         style="fill:#ffffff;fill-opacity:1;fill-rule:nonzero;stroke:none"
         id="path110" /></g></g></svg>
