<?xml version="1.0" encoding="UTF-8" standalone="no"?>
<!-- Created with Inkscape (http://www.inkscape.org/) -->

<svg
   version="1.1"
   id="svg2"
   xml:space="preserve"
   width="1358.7333"
   height="284.66666"
   viewBox="0 0 1358.7333 284.66666"
   sodipodi:docname="ES-H-Financiado por la UE NEG.eps"
   xmlns:inkscape="http://www.inkscape.org/namespaces/inkscape"
   xmlns:sodipodi="http://sodipodi.sourceforge.net/DTD/sodipodi-0.dtd"
   xmlns="http://www.w3.org/2000/svg"
   xmlns:svg="http://www.w3.org/2000/svg"><defs
     id="defs6" /><sodipodi:namedview
     id="namedview4"
     pagecolor="#ffffff"
     bordercolor="#666666"
     borderopacity="1.0"
     inkscape:pageshadow="2"
     inkscape:pageopacity="0.0"
     inkscape:pagecheckerboard="0" /><g
     id="g8"
     inkscape:groupmode="layer"
     inkscape:label="ink_ext_XXXXXX"
     transform="matrix(1.3333333,0,0,-1.3333333,0,284.66667)"><g
       id="g10"
       transform="scale(0.1)"><path
         d="M 164.473,71.0586 H 3113.93 V 2073.9 H 164.473 V 71.0586"
         style="fill:#ffffff;fill-opacity:1;fill-rule:nonzero;stroke:none"
         id="path12" /><path
         d="M 221.191,128.281 H 3057.22 V 2018.97 H 221.191 V 128.281"
         style="fill:#264ca4;fill-opacity:1;fill-rule:nonzero;stroke:none"
         id="path14" /><path
         d="m 1578.78,1607.02 59.83,43.67 59.86,-43.67 -22.79,70.63 60.79,43.67 h -74.93 l -22.93,71.48 -22.93,-71.56 -74.88,0.08 60.74,-43.67 -22.76,-70.63"
         style="fill:#f5f014;fill-opacity:1;fill-rule:nonzero;stroke:none"
         id="path16" /><path
         d="m 1269.08,1523.82 59.85,43.67 59.81,-43.67 -22.74,70.63 60.75,43.68 h -74.93 l -22.92,71.55 -22.93,-71.64 -74.9,0.09 60.75,-43.68 -22.74,-70.63"
         style="fill:#f5f014;fill-opacity:1;fill-rule:nonzero;stroke:none"
         id="path18" /><path
         d="m 1102.32,1482.57 -22.93,-71.64 -74.88,0.09 60.74,-43.68 -22.76,-70.63 59.83,43.68 59.85,-43.68 -22.78,70.63 60.75,43.68 h -74.89 l -22.93,71.55"
         style="fill:#f5f014;fill-opacity:1;fill-rule:nonzero;stroke:none"
         id="path20" /><path
         d="m 1019.21,1031.08 59.8,-43.658 -22.73,70.608 60.73,43.68 h -74.87 l -22.93,71.56 -22.933,-71.72 -74.922,0.16 60.786,-43.68 -22.778,-70.608 59.847,43.658"
         style="fill:#f5f014;fill-opacity:1;fill-rule:nonzero;stroke:none"
         id="path22" /><path
         d="m 1125.25,791.48 -22.93,71.559 -22.93,-71.641 -74.88,0.082 60.74,-43.66 -22.76,-70.64 59.83,43.75 59.85,-43.75 -22.78,70.64 60.75,43.66 h -74.89"
         style="fill:#f5f014;fill-opacity:1;fill-rule:nonzero;stroke:none"
         id="path24" /><path
         d="m 1352.29,564.461 -22.93,71.469 -22.9,-71.559 -74.92,0.09 60.75,-43.68 -22.73,-70.633 59.83,43.672 59.81,-43.672 -22.74,70.633 60.75,43.68 h -74.92"
         style="fill:#f5f014;fill-opacity:1;fill-rule:nonzero;stroke:none"
         id="path26" /><path
         d="m 1661.58,482.18 -22.93,71.558 -22.89,-71.636 -74.91,0.078 60.73,-43.668 -22.72,-70.633 59.83,43.68 59.81,-43.68 -22.78,70.633 60.78,43.668 h -74.92"
         style="fill:#f5f014;fill-opacity:1;fill-rule:nonzero;stroke:none"
         id="path28" /><path
         d="m 1970.89,564.461 -22.89,71.469 -22.97,-71.559 -74.84,0.09 60.7,-43.68 -22.74,-70.633 59.85,43.672 59.83,-43.672 -22.8,70.633 60.78,43.68 h -74.92"
         style="fill:#f5f014;fill-opacity:1;fill-rule:nonzero;stroke:none"
         id="path30" /><path
         d="m 2198,791.48 -22.97,71.559 -22.97,-71.641 -74.84,0.082 60.78,-43.66 -22.81,-70.64 59.84,43.75 59.83,-43.75 -22.8,70.64 60.77,43.66 H 2198"
         style="fill:#f5f014;fill-opacity:1;fill-rule:nonzero;stroke:none"
         id="path32" /><path
         d="m 2355.11,1102.57 h -74.92 l -22.97,71.57 -22.89,-71.65 -74.93,0.08 60.79,-43.67 -22.75,-70.619 59.78,43.749 59.84,-43.749 -22.73,70.619 60.78,43.67"
         style="fill:#f5f014;fill-opacity:1;fill-rule:nonzero;stroke:none"
         id="path34" /><path
         d="m 2115.18,1297.66 59.84,43.66 59.84,-43.66 -22.8,70.63 60.77,43.59 h -74.84 l -22.97,71.55 -22.96,-71.64 -74.85,0.09 60.78,-43.59 -22.81,-70.63"
         style="fill:#f5f014;fill-opacity:1;fill-rule:nonzero;stroke:none"
         id="path36" /><path
         d="m 1948.86,1709.6 -22.89,-71.64 -74.93,0.17 60.71,-43.75 -22.74,-70.64 59.93,43.75 59.75,-43.75 -22.72,70.64 60.78,43.75 h -75 l -22.89,71.47"
         style="fill:#f5f014;fill-opacity:1;fill-rule:nonzero;stroke:none"
         id="path38" /><path
         d="m 3466.21,1306.77 v 465.28 h 318.97 v -78.71 h -225.02 v -110.13 h 194.23 v -78.71 h -194.23 v -197.73 h -93.95"
         style="fill:#ffffff;fill-opacity:1;fill-rule:nonzero;stroke:none"
         id="path40" /><path
         d="m 3861.99,1306.77 v 337.06 h 89.18 v -337.06 z m 0,382.76 v 82.52 h 89.18 v -82.52 h -89.18"
         style="fill:#ffffff;fill-opacity:1;fill-rule:nonzero;stroke:none"
         id="path42" /><path
         d="m 4349.16,1306.77 h -89.18 v 172.02 c 0,36.39 -1.9,59.93 -5.71,70.61 -3.81,10.69 -10,18.99 -18.57,24.92 -8.57,5.92 -18.88,8.89 -30.94,8.89 -15.45,0 -29.31,-4.24 -41.58,-12.7 -12.27,-8.46 -20.69,-19.67 -25.23,-33.64 -4.55,-13.97 -6.83,-39.78 -6.83,-77.44 v -152.66 h -89.19 v 337.06 h 82.85 v -49.51 c 29.4,38.08 66.43,57.13 111.08,57.13 19.68,0 37.66,-3.55 53.95,-10.64 16.29,-7.09 28.62,-16.13 36.98,-27.13 8.36,-11.01 14.18,-23.49 17.46,-37.45 3.27,-13.97 4.91,-33.96 4.91,-59.99 v -209.47"
         style="fill:#ffffff;fill-opacity:1;fill-rule:nonzero;stroke:none"
         id="path44" /><path
         d="m 4625.61,1468.63 c -11.43,-3.81 -29.52,-8.36 -54.27,-13.65 -24.76,-5.29 -40.95,-10.47 -48.57,-15.55 -11.63,-8.25 -17.45,-18.72 -17.45,-31.42 0,-12.48 4.65,-23.28 13.97,-32.37 9.3,-9.1 21.15,-13.65 35.54,-13.65 16.08,0 31.42,5.29 46.03,15.87 10.78,8.04 17.87,17.87 21.26,29.52 2.32,7.61 3.49,22.1 3.49,43.48 z m -119.34,72.37 -80.93,14.59 c 9.09,32.59 24.76,56.71 46.97,72.37 22.22,15.65 55.23,23.49 99.03,23.49 39.77,0 69.39,-4.72 88.87,-14.13 19.46,-9.42 33.16,-21.37 41.1,-35.87 7.93,-14.49 11.89,-41.09 11.89,-79.81 l -0.94,-104.11 c 0,-29.62 1.42,-51.47 4.28,-65.54 2.85,-14.07 8.2,-29.14 16.03,-45.22 h -88.23 c -2.34,5.92 -5.19,14.7 -8.58,26.34 -1.47,5.29 -2.54,8.78 -3.16,10.47 -15.24,-14.81 -31.54,-25.92 -48.89,-33.32 -17.34,-7.4 -35.86,-11.11 -55.54,-11.11 -34.7,0 -62.05,9.41 -82.04,28.24 -20,18.84 -30,42.64 -30,71.42 0,19.04 4.55,36.02 13.66,50.94 9.09,14.92 21.84,26.34 38.24,34.27 16.39,7.94 40.04,14.87 70.93,20.79 41.68,7.83 70.57,15.13 86.65,21.9 v 8.89 c 0,17.14 -4.23,29.36 -12.7,36.65 -8.46,7.31 -24.43,10.96 -47.92,10.96 -15.87,0 -28.25,-3.13 -37.14,-9.36 -8.89,-6.25 -16.07,-17.2 -21.58,-32.85"
         style="fill:#ffffff;fill-opacity:1;fill-rule:nonzero;stroke:none"
         id="path46" /><path
         d="m 5107.71,1306.77 h -89.18 v 172.02 c 0,36.39 -1.91,59.93 -5.72,70.61 -3.81,10.69 -10,18.99 -18.56,24.92 -8.58,5.92 -18.89,8.89 -30.95,8.89 -15.45,0 -29.31,-4.24 -41.57,-12.7 -12.28,-8.46 -20.69,-19.67 -25.24,-33.64 -4.55,-13.97 -6.82,-39.78 -6.82,-77.44 v -152.66 h -89.19 v 337.06 h 82.84 v -49.51 c 29.4,38.08 66.44,57.13 111.08,57.13 19.68,0 37.66,-3.55 53.96,-10.64 16.29,-7.09 28.61,-16.13 36.97,-27.13 8.36,-11.01 14.18,-23.49 17.46,-37.45 3.27,-13.97 4.92,-33.96 4.92,-59.99 v -209.47"
         style="fill:#ffffff;fill-opacity:1;fill-rule:nonzero;stroke:none"
         id="path48" /><path
         d="m 5492.05,1544.17 -87.91,-15.87 c -2.97,17.56 -9.68,30.79 -20.16,39.67 -10.46,8.89 -24.07,13.33 -40.78,13.33 -22.21,0 -39.94,-7.67 -53.16,-23.01 -13.22,-15.34 -19.83,-41 -19.83,-76.96 0,-39.99 6.71,-68.24 20.15,-84.74 13.43,-16.51 31.47,-24.76 54.11,-24.76 16.93,0 30.78,4.81 41.58,14.44 10.79,9.63 18.4,26.18 22.86,49.67 l 87.59,-14.92 c -9.1,-40.2 -26.56,-70.56 -52.37,-91.08 -25.82,-20.53 -60.41,-30.79 -103.78,-30.79 -49.31,0 -88.61,15.55 -117.91,46.65 -29.31,31.11 -43.96,74.16 -43.96,129.18 0,55.65 14.7,98.97 44.12,129.97 29.4,30.99 69.19,46.5 119.33,46.5 41.05,0 73.69,-8.84 97.91,-26.51 24.23,-17.67 41.63,-44.59 52.21,-80.77"
         style="fill:#ffffff;fill-opacity:1;fill-rule:nonzero;stroke:none"
         id="path50" /><path
         d="m 5559.67,1306.77 v 337.06 h 89.18 v -337.06 z m 0,382.76 v 82.52 h 89.18 v -82.52 h -89.18"
         style="fill:#ffffff;fill-opacity:1;fill-rule:nonzero;stroke:none"
         id="path52" /><path
         d="m 5926.23,1468.63 c -11.43,-3.81 -29.51,-8.36 -54.27,-13.65 -24.75,-5.29 -40.94,-10.47 -48.56,-15.55 -11.63,-8.25 -17.45,-18.72 -17.45,-31.42 0,-12.48 4.65,-23.28 13.96,-32.37 9.31,-9.1 21.15,-13.65 35.55,-13.65 16.07,0 31.42,5.29 46.02,15.87 10.79,8.04 17.88,17.87 21.26,29.52 2.33,7.61 3.49,22.1 3.49,43.48 z m -119.34,72.37 -80.92,14.59 c 9.09,32.59 24.75,56.71 46.97,72.37 22.22,15.65 55.22,23.49 99.02,23.49 39.78,0 69.4,-4.72 88.87,-14.13 19.46,-9.42 33.16,-21.37 41.1,-35.87 7.93,-14.49 11.9,-41.09 11.9,-79.81 l -0.95,-104.11 c 0,-29.62 1.43,-51.47 4.29,-65.54 2.85,-14.07 8.19,-29.14 16.02,-45.22 h -88.23 c -2.33,5.92 -5.18,14.7 -8.57,26.34 -1.48,5.29 -2.54,8.78 -3.17,10.47 -15.23,-14.81 -31.53,-25.92 -48.88,-33.32 -17.35,-7.4 -35.86,-11.11 -55.54,-11.11 -34.71,0 -62.05,9.41 -82.04,28.24 -20,18.84 -30,42.64 -30,71.42 0,19.04 4.55,36.02 13.65,50.94 9.09,14.92 21.85,26.34 38.24,34.27 16.4,7.94 40.04,14.87 70.94,20.79 41.68,7.83 70.57,15.13 86.64,21.9 v 8.89 c 0,17.14 -4.23,29.36 -12.69,36.65 -8.46,7.31 -24.44,10.96 -47.92,10.96 -15.87,0 -28.26,-3.13 -37.14,-9.36 -8.89,-6.25 -16.08,-17.2 -21.59,-32.85"
         style="fill:#ffffff;fill-opacity:1;fill-rule:nonzero;stroke:none"
         id="path54" /><path
         d="m 6172.85,1482.6 c 0,-35.97 4.96,-62 14.91,-78.08 14.39,-23.28 34.49,-34.91 60.31,-34.91 20.51,0 37.97,8.73 52.36,26.18 14.39,17.46 21.58,43.53 21.58,78.24 0,38.72 -6.97,66.6 -20.94,83.63 -13.96,17.03 -31.85,25.55 -53.64,25.55 -21.16,0 -38.88,-8.42 -53.16,-25.23 -14.28,-16.83 -21.42,-41.96 -21.42,-75.38 z m 238.03,-175.83 h -82.83 v 49.51 c -13.76,-19.26 -29.99,-33.6 -48.72,-43.01 -18.72,-9.41 -37.61,-14.12 -56.65,-14.12 -38.72,0 -71.89,15.6 -99.51,46.81 -27.6,31.21 -41.41,74.75 -41.41,130.61 0,57.13 13.44,100.56 40.31,130.29 26.87,29.71 60.82,44.59 101.88,44.59 37.65,0 70.24,-15.66 97.75,-46.98 v 167.58 h 89.18 v -465.28"
         style="fill:#ffffff;fill-opacity:1;fill-rule:nonzero;stroke:none"
         id="path56" /><path
         d="m 6569.58,1475.3 c 0,-33.44 7.94,-59.03 23.8,-76.81 15.88,-17.77 35.44,-26.66 58.72,-26.66 23.27,0 42.79,8.89 58.55,26.66 15.77,17.78 23.65,43.58 23.65,77.44 0,33.01 -7.88,58.4 -23.65,76.17 -15.76,17.78 -35.28,26.67 -58.55,26.67 -23.28,0 -42.84,-8.89 -58.72,-26.67 -15.86,-17.77 -23.8,-43.37 -23.8,-76.8 z m -91.41,4.76 c 0,29.62 7.3,58.29 21.91,86.01 14.59,27.71 35.27,48.88 62.04,63.48 26.77,14.59 56.65,21.9 89.66,21.9 50.99,0 92.78,-16.56 125.37,-49.67 32.58,-33.12 48.88,-74.96 48.88,-125.53 0,-51 -16.46,-93.26 -49.36,-126.8 -32.9,-33.53 -74.32,-50.3 -124.25,-50.3 -30.9,0 -60.36,6.98 -88.4,20.95 -28.03,13.96 -49.35,34.43 -63.94,61.41 -14.61,26.97 -21.91,59.83 -21.91,98.55"
         style="fill:#ffffff;fill-opacity:1;fill-rule:nonzero;stroke:none"
         id="path58" /><path
         d="m 7162.13,1481.01 c 0,-37.88 7.51,-65.85 22.54,-83.95 15.02,-18.09 33.32,-27.13 54.9,-27.13 20.74,0 37.98,8.3 51.74,24.91 13.75,16.61 20.62,43.85 20.62,81.73 0,35.33 -7.09,61.57 -21.26,78.71 -14.18,17.14 -31.73,25.7 -52.68,25.7 -21.8,0 -39.88,-8.4 -54.28,-25.23 -14.38,-16.82 -21.58,-41.73 -21.58,-74.74 z m -88.22,162.82 h 83.14 v -49.51 c 10.8,16.92 25.39,30.67 43.81,41.25 18.4,10.58 38.82,15.88 61.25,15.88 39.14,0 72.36,-15.35 99.66,-46.02 27.29,-30.69 40.94,-73.43 40.94,-128.23 0,-56.28 -13.75,-100.03 -41.26,-131.24 -27.5,-31.21 -60.83,-46.81 -99.98,-46.81 -18.62,0 -35.49,3.71 -50.62,11.11 -15.13,7.4 -31.06,20.1 -47.76,38.08 v -169.8 h -89.18 v 465.29"
         style="fill:#ffffff;fill-opacity:1;fill-rule:nonzero;stroke:none"
         id="path60" /><path
         d="m 7544.26,1475.3 c 0,-33.44 7.94,-59.03 23.8,-76.81 15.88,-17.77 35.44,-26.66 58.72,-26.66 23.27,0 42.79,8.89 58.55,26.66 15.76,17.78 23.64,43.58 23.64,77.44 0,33.01 -7.88,58.4 -23.64,76.17 -15.76,17.78 -35.28,26.67 -58.55,26.67 -23.28,0 -42.84,-8.89 -58.72,-26.67 -15.86,-17.77 -23.8,-43.37 -23.8,-76.8 z m -91.41,4.76 c 0,29.62 7.3,58.29 21.91,86.01 14.59,27.71 35.27,48.88 62.04,63.48 26.76,14.59 56.65,21.9 89.66,21.9 50.99,0 92.78,-16.56 125.37,-49.67 32.57,-33.12 48.87,-74.96 48.87,-125.53 0,-51 -16.45,-93.26 -49.35,-126.8 -32.9,-33.53 -74.32,-50.3 -124.25,-50.3 -30.9,0 -60.36,6.98 -88.4,20.95 -28.04,13.96 -49.35,34.43 -63.94,61.41 -14.61,26.97 -21.91,59.83 -21.91,98.55"
         style="fill:#ffffff;fill-opacity:1;fill-rule:nonzero;stroke:none"
         id="path62" /><path
         d="m 7955.9,1306.77 h -89.18 v 337.06 h 82.83 v -47.93 c 14.17,22.64 26.92,37.56 38.24,44.75 11.32,7.2 24.17,10.8 38.57,10.8 20.31,0 39.88,-5.61 58.72,-16.82 l -27.62,-77.77 c -15.03,9.74 -28.99,14.6 -41.89,14.6 -12.49,0 -23.07,-3.44 -31.74,-10.31 -8.68,-6.88 -15.5,-19.31 -20.47,-37.29 -4.98,-17.99 -7.46,-55.65 -7.46,-112.99 v -104.1"
         style="fill:#ffffff;fill-opacity:1;fill-rule:nonzero;stroke:none"
         id="path64" /><path
         d="m 3464.94,526.77 v 465.269 h 89.18 V 526.77 h -89.18"
         style="fill:#ffffff;fill-opacity:1;fill-rule:nonzero;stroke:none"
         id="path66" /><path
         d="m 3831.5,688.629 c -11.42,-3.809 -29.51,-8.359 -54.26,-13.649 -24.76,-5.289 -40.95,-10.468 -48.57,-15.55 -11.63,-8.239 -17.45,-18.719 -17.45,-31.418 0,-12.492 4.65,-23.274 13.97,-32.371 9.3,-9.102 21.15,-13.653 35.54,-13.653 16.08,0 31.42,5.293 46.03,15.883 10.78,8.02 17.87,17.867 21.26,29.508 2.32,7.609 3.48,22.109 3.48,43.473 z m -119.33,72.359 -80.93,14.614 c 9.09,32.578 24.76,56.699 46.97,72.359 22.22,15.648 55.23,23.48 99.03,23.48 39.77,0 69.39,-4.711 88.86,-14.121 19.47,-9.422 33.17,-21.371 41.11,-35.859 7.93,-14.492 11.89,-41.102 11.89,-79.832 l -0.95,-104.098 c 0,-29.633 1.43,-51.461 4.29,-65.543 2.85,-14.066 8.19,-29.136 16.03,-45.218 h -88.24 c -2.33,5.921 -5.18,14.699 -8.57,26.339 -1.47,5.282 -2.54,8.782 -3.16,10.481 -15.24,-14.828 -31.54,-25.93 -48.89,-33.328 -17.34,-7.403 -35.86,-11.114 -55.54,-11.114 -34.7,0 -62.05,9.422 -82.04,28.25 -20,18.821 -30,42.633 -30,71.403 0,19.051 4.55,36.039 13.65,50.937 9.1,14.922 21.85,26.352 38.25,34.282 16.39,7.949 40.03,14.859 70.93,20.8 41.68,7.821 70.57,15.121 86.64,21.891 v 8.891 c 0,17.136 -4.22,29.359 -12.69,36.66 -8.46,7.297 -24.43,10.949 -47.92,10.949 -15.87,0 -28.25,-3.133 -37.14,-9.371 -8.89,-6.238 -16.07,-17.192 -21.58,-32.852"
         style="fill:#ffffff;fill-opacity:1;fill-rule:nonzero;stroke:none"
         id="path68" /><path
         d="m 4187.62,992.039 h 93.94 V 740.051 c 0,-40 1.15,-65.922 3.49,-77.762 4.01,-19.039 13.59,-34.328 28.72,-45.867 15.13,-11.524 35.81,-17.293 62.05,-17.293 26.66,0 46.76,5.441 60.3,16.351 13.54,10.891 21.69,24.282 24.45,40.141 2.74,15.879 4.12,42.219 4.12,79.027 v 257.391 h 93.94 V 747.672 c 0,-55.863 -2.54,-95.332 -7.61,-118.391 -5.08,-23.07 -14.45,-42.531 -28.09,-58.402 -13.65,-15.867 -31.89,-28.508 -54.75,-37.918 -22.85,-9.41 -52.69,-14.133 -89.51,-14.133 -44.43,0 -78.12,5.133 -101.08,15.402 -22.96,10.258 -41.11,23.59 -54.43,39.981 -13.34,16.398 -22.12,33.598 -26.34,51.578 -6.15,26.672 -9.2,66.02 -9.2,118.07 v 248.18"
         style="fill:#ffffff;fill-opacity:1;fill-rule:nonzero;stroke:none"
         id="path70" /><path
         d="m 4963.61,526.77 h -89.18 v 172.011 c 0,36.399 -1.9,59.938 -5.71,70.629 -3.81,10.68 -10,18.981 -18.56,24.91 -8.58,5.93 -18.89,8.891 -30.95,8.891 -15.45,0 -29.31,-4.231 -41.57,-12.699 -12.28,-8.473 -20.7,-19.684 -25.24,-33.641 -4.55,-13.973 -6.82,-39.793 -6.82,-77.441 V 526.77 h -89.19 v 337.05 h 82.84 v -49.511 c 29.4,38.089 66.43,57.132 111.08,57.132 19.68,0 37.66,-3.543 53.96,-10.632 16.29,-7.09 28.61,-16.129 36.97,-27.129 8.36,-11.008 14.18,-23.489 17.46,-37.461 3.27,-13.957 4.91,-33.957 4.91,-59.981 V 526.77"
         style="fill:#ffffff;fill-opacity:1;fill-rule:nonzero;stroke:none"
         id="path72" /><path
         d="m 5054.08,526.77 v 337.05 h 89.18 V 526.77 Z m 0,382.761 v 82.508 h 89.18 v -82.508 h -89.18"
         style="fill:#ffffff;fill-opacity:1;fill-rule:nonzero;stroke:none"
         id="path74" /><path
         d="m 5342.89,905.09 43.8,94.89 h 99.97 l -87.28,-94.89 z m -37.45,-209.789 c 0,-33.43 7.94,-59.039 23.8,-76.813 15.88,-17.769 35.44,-26.656 58.72,-26.656 23.27,0 42.79,8.887 58.55,26.656 15.77,17.774 23.65,43.582 23.65,77.442 0,33.011 -7.88,58.402 -23.65,76.172 -15.76,17.777 -35.28,26.66 -58.55,26.66 -23.28,0 -42.84,-8.883 -58.72,-26.66 -15.86,-17.77 -23.8,-43.383 -23.8,-76.801 z m -91.41,4.75 c 0,29.629 7.3,58.301 21.91,86.019 14.59,27.711 35.27,48.879 62.04,63.469 26.77,14.602 56.65,21.902 89.66,21.902 50.99,0 92.78,-16.55 125.37,-49.671 32.58,-33.11 48.87,-74.961 48.87,-125.532 0,-50.988 -16.45,-93.258 -49.35,-126.789 -32.9,-33.539 -74.32,-50.301 -124.25,-50.301 -30.9,0 -60.36,6.981 -88.4,20.942 -28.03,13.969 -49.35,34.441 -63.94,61.43 -14.61,26.968 -21.91,59.82 -21.91,98.531"
         style="fill:#ffffff;fill-opacity:1;fill-rule:nonzero;stroke:none"
         id="path76" /><path
         d="m 5938.3,526.77 h -89.18 v 172.011 c 0,36.399 -1.9,59.938 -5.71,70.629 -3.81,10.68 -10,18.981 -18.57,24.91 -8.57,5.93 -18.88,8.891 -30.94,8.891 -15.45,0 -29.31,-4.231 -41.58,-12.699 -12.27,-8.473 -20.69,-19.684 -25.23,-33.641 -4.55,-13.973 -6.83,-39.793 -6.83,-77.441 V 526.77 h -89.19 v 337.05 h 82.85 v -49.511 c 29.4,38.089 66.43,57.132 111.08,57.132 19.68,0 37.66,-3.543 53.96,-10.632 16.28,-7.09 28.61,-16.129 36.97,-27.129 8.36,-11.008 14.18,-23.489 17.46,-37.461 3.27,-13.957 4.91,-33.957 4.91,-59.981 V 526.77"
         style="fill:#ffffff;fill-opacity:1;fill-rule:nonzero;stroke:none"
         id="path78" /><path
         d="m 6209.98,526.77 v 465.269 h 345 V 913.328 H 6303.93 V 810.191 h 233.59 V 731.789 H 6303.93 V 605.16 h 259.94 v -78.39 h -353.89"
         style="fill:#ffffff;fill-opacity:1;fill-rule:nonzero;stroke:none"
         id="path80" /><path
         d="m 6864.74,526.77 v 50.46 c -12.28,-17.992 -28.41,-32.16 -48.4,-42.531 -20,-10.367 -41.11,-15.551 -63.32,-15.551 -22.65,0 -42.96,4.973 -60.94,14.922 -17.99,9.942 -31,23.899 -39.03,41.891 -8.05,17.98 -12.07,42.84 -12.07,74.578 V 863.82 h 89.19 V 708.941 c 0,-47.39 1.64,-76.441 4.92,-87.109 3.27,-10.691 9.25,-19.16 17.93,-25.391 8.67,-6.25 19.68,-9.382 33.01,-9.382 15.23,0 28.87,4.179 40.94,12.543 12.05,8.359 20.32,18.726 24.75,31.117 4.45,12.363 6.67,42.672 6.67,90.91 V 863.82 h 89.19 V 526.77 h -82.84"
         style="fill:#ffffff;fill-opacity:1;fill-rule:nonzero;stroke:none"
         id="path82" /><path
         d="m 7125.31,526.77 h -89.18 v 337.05 h 82.83 v -47.922 c 14.17,22.641 26.93,37.551 38.25,44.762 11.32,7.192 24.17,10.781 38.56,10.781 20.31,0 39.88,-5.613 58.72,-16.82 l -27.61,-77.75 c -15.03,9.731 -29,14.59 -41.9,14.59 -12.49,0 -23.07,-3.441 -31.74,-10.313 -8.68,-6.878 -15.5,-19.308 -20.47,-37.289 -4.98,-17.988 -7.46,-55.648 -7.46,-112.988 V 526.77"
         style="fill:#ffffff;fill-opacity:1;fill-rule:nonzero;stroke:none"
         id="path84" /><path
         d="m 7363.66,695.301 c 0,-33.43 7.94,-59.039 23.8,-76.813 15.88,-17.769 35.44,-26.656 58.72,-26.656 23.27,0 42.79,8.887 58.56,26.656 15.76,17.774 23.64,43.582 23.64,77.442 0,33.011 -7.88,58.402 -23.64,76.172 -15.77,17.777 -35.29,26.66 -58.56,26.66 -23.28,0 -42.84,-8.883 -58.72,-26.66 -15.86,-17.77 -23.8,-43.383 -23.8,-76.801 z m -91.4,4.75 c 0,29.629 7.29,58.301 21.9,86.019 14.59,27.711 35.27,48.879 62.04,63.469 26.77,14.602 56.65,21.902 89.66,21.902 51,0 92.78,-16.55 125.37,-49.671 32.58,-33.11 48.88,-74.961 48.88,-125.532 0,-50.988 -16.46,-93.258 -49.36,-126.789 -32.9,-33.539 -74.31,-50.301 -124.25,-50.301 -30.89,0 -60.36,6.981 -88.39,20.942 -28.04,13.969 -49.36,34.441 -63.95,61.43 -14.61,26.968 -21.9,59.82 -21.9,98.531"
         style="fill:#ffffff;fill-opacity:1;fill-rule:nonzero;stroke:none"
         id="path86" /><path
         d="m 7775.63,701.012 c 0,-37.871 7.5,-65.864 22.53,-83.953 15.02,-18.079 33.32,-27.129 54.91,-27.129 20.74,0 37.97,8.3 51.73,24.91 13.75,16.609 20.63,43.851 20.63,81.73 0,35.328 -7.09,61.571 -21.26,78.711 -14.18,17.141 -31.74,25.707 -52.69,25.707 -21.79,0 -39.88,-8.418 -54.27,-25.226 -14.39,-16.821 -21.58,-41.742 -21.58,-74.75 z M 7687.4,863.82 h 83.15 v -49.511 c 10.8,16.929 25.39,30.679 43.81,41.269 18.39,10.57 38.81,15.863 61.25,15.863 39.14,0 72.36,-15.332 99.65,-46.019 27.3,-30.684 40.95,-73.41 40.95,-128.223 0,-56.289 -13.76,-100.027 -41.27,-131.23 -27.5,-31.219 -60.83,-46.821 -99.97,-46.821 -18.62,0 -35.5,3.711 -50.62,11.114 -15.13,7.398 -31.06,20.097 -47.77,38.078 V 398.551 H 7687.4 V 863.82"
         style="fill:#ffffff;fill-opacity:1;fill-rule:nonzero;stroke:none"
         id="path88" /><path
         d="m 8287.26,724.172 c -0.64,25.816 -7.3,45.437 -19.99,58.887 -12.7,13.429 -28.15,20.152 -46.35,20.152 -19.46,0 -35.55,-7.09 -48.24,-21.262 -12.7,-14.179 -18.94,-33.437 -18.72,-57.777 z m -5.08,-90.133 88.86,-14.918 c -11.42,-32.582 -29.46,-57.391 -54.11,-74.422 -24.65,-17.027 -55.49,-25.551 -92.52,-25.551 -58.61,0 -101.99,19.141 -130.12,57.454 -22.22,30.679 -33.33,69.386 -33.33,116.16 0,55.859 14.61,99.597 43.81,131.238 29.19,31.621 66.11,47.441 110.76,47.441 50.14,0 89.7,-16.55 118.7,-49.671 28.98,-33.11 42.84,-83.848 41.57,-152.192 h -223.44 c 0.65,-26.437 7.84,-47.019 21.59,-61.707 13.76,-14.723 30.89,-22.082 51.42,-22.082 13.97,0 25.7,3.813 35.23,11.43 9.52,7.621 16.7,19.89 21.58,36.82"
         style="fill:#ffffff;fill-opacity:1;fill-rule:nonzero;stroke:none"
         id="path90" /><path
         d="m 8634.46,688.629 c -11.42,-3.809 -29.51,-8.359 -54.26,-13.649 -24.76,-5.289 -40.95,-10.468 -48.57,-15.55 -11.63,-8.239 -17.45,-18.719 -17.45,-31.418 0,-12.492 4.65,-23.274 13.96,-32.371 9.31,-9.102 21.16,-13.653 35.55,-13.653 16.08,0 31.42,5.293 46.03,15.883 10.78,8.02 17.87,17.867 21.26,29.508 2.32,7.609 3.48,22.109 3.48,43.473 z m -119.33,72.359 -80.93,14.614 c 9.09,32.578 24.76,56.699 46.97,72.359 22.22,15.648 55.23,23.48 99.03,23.48 39.77,0 69.39,-4.711 88.86,-14.121 19.47,-9.422 33.17,-21.371 41.11,-35.859 7.93,-14.492 11.89,-41.102 11.89,-79.832 l -0.95,-104.098 c 0,-29.633 1.43,-51.461 4.29,-65.543 2.85,-14.066 8.19,-29.136 16.03,-45.218 h -88.24 c -2.33,5.921 -5.18,14.699 -8.57,26.339 -1.48,5.282 -2.54,8.782 -3.16,10.481 -15.24,-14.828 -31.54,-25.93 -48.89,-33.328 -17.35,-7.403 -35.86,-11.114 -55.54,-11.114 -34.71,0 -62.05,9.422 -82.04,28.25 -20,18.821 -30,42.633 -30,71.403 0,19.051 4.55,36.039 13.65,50.937 9.09,14.922 21.85,26.352 38.24,34.282 16.4,7.949 40.04,14.859 70.94,20.8 41.68,7.821 70.57,15.121 86.64,21.891 v 8.891 c 0,17.136 -4.23,29.359 -12.69,36.66 -8.46,7.297 -24.44,10.949 -47.92,10.949 -15.87,0 -28.25,-3.133 -37.14,-9.371 -8.89,-6.238 -16.08,-17.192 -21.58,-32.852"
         style="fill:#ffffff;fill-opacity:1;fill-rule:nonzero;stroke:none"
         id="path92" /></g></g></svg>
