<?xml version="1.0" encoding="UTF-8" standalone="no"?>
<!-- Created with Inkscape (http://www.inkscape.org/) -->

<svg
   version="1.1"
   id="svg2"
   xml:space="preserve"
   width="1358.7333"
   height="284.66666"
   viewBox="0 0 1358.7333 284.66666"
   sodipodi:docname="FI- Funded by the EU_NEG.eps"
   xmlns:inkscape="http://www.inkscape.org/namespaces/inkscape"
   xmlns:sodipodi="http://sodipodi.sourceforge.net/DTD/sodipodi-0.dtd"
   xmlns="http://www.w3.org/2000/svg"
   xmlns:svg="http://www.w3.org/2000/svg"><defs
     id="defs6" /><sodipodi:namedview
     id="namedview4"
     pagecolor="#ffffff"
     bordercolor="#666666"
     borderopacity="1.0"
     inkscape:pageshadow="2"
     inkscape:pageopacity="0.0"
     inkscape:pagecheckerboard="0" /><g
     id="g8"
     inkscape:groupmode="layer"
     inkscape:label="ink_ext_XXXXXX"
     transform="matrix(1.3333333,0,0,-1.3333333,0,284.66667)"><g
       id="g10"
       transform="scale(0.1)"><path
         d="M 164.473,71.0586 H 3113.93 V 2073.9 H 164.473 V 71.0586"
         style="fill:#ffffff;fill-opacity:1;fill-rule:nonzero;stroke:none"
         id="path12" /><path
         d="M 221.191,128.281 H 3057.22 V 2018.97 H 221.191 V 128.281"
         style="fill:#264ca4;fill-opacity:1;fill-rule:nonzero;stroke:none"
         id="path14" /><path
         d="m 1578.78,1607.02 59.83,43.67 59.86,-43.67 -22.79,70.63 60.79,43.67 h -74.93 l -22.93,71.48 -22.93,-71.56 -74.88,0.08 60.74,-43.67 -22.76,-70.63"
         style="fill:#f5f014;fill-opacity:1;fill-rule:nonzero;stroke:none"
         id="path16" /><path
         d="m 1269.08,1523.82 59.85,43.67 59.81,-43.67 -22.74,70.63 60.75,43.68 h -74.93 l -22.92,71.55 -22.93,-71.64 -74.9,0.09 60.75,-43.68 -22.74,-70.63"
         style="fill:#f5f014;fill-opacity:1;fill-rule:nonzero;stroke:none"
         id="path18" /><path
         d="m 1102.32,1482.57 -22.93,-71.64 -74.88,0.09 60.74,-43.68 -22.76,-70.63 59.83,43.68 59.85,-43.68 -22.78,70.63 60.75,43.68 h -74.89 l -22.93,71.55"
         style="fill:#f5f014;fill-opacity:1;fill-rule:nonzero;stroke:none"
         id="path20" /><path
         d="m 1019.21,1031.08 59.8,-43.658 -22.73,70.608 60.73,43.68 h -74.87 l -22.93,71.56 -22.933,-71.72 -74.922,0.16 60.786,-43.68 -22.778,-70.608 59.847,43.658"
         style="fill:#f5f014;fill-opacity:1;fill-rule:nonzero;stroke:none"
         id="path22" /><path
         d="m 1125.25,791.48 -22.93,71.559 -22.93,-71.641 -74.88,0.082 60.74,-43.66 -22.76,-70.64 59.83,43.75 59.85,-43.75 -22.78,70.64 60.75,43.66 h -74.89"
         style="fill:#f5f014;fill-opacity:1;fill-rule:nonzero;stroke:none"
         id="path24" /><path
         d="m 1352.29,564.461 -22.93,71.469 -22.9,-71.559 -74.92,0.09 60.75,-43.68 -22.73,-70.633 59.83,43.672 59.81,-43.672 -22.74,70.633 60.75,43.68 h -74.92"
         style="fill:#f5f014;fill-opacity:1;fill-rule:nonzero;stroke:none"
         id="path26" /><path
         d="m 1661.58,482.18 -22.93,71.558 -22.89,-71.636 -74.91,0.078 60.73,-43.668 -22.72,-70.633 59.83,43.68 59.81,-43.68 -22.78,70.633 60.78,43.668 h -74.92"
         style="fill:#f5f014;fill-opacity:1;fill-rule:nonzero;stroke:none"
         id="path28" /><path
         d="m 1970.89,564.461 -22.89,71.469 -22.97,-71.559 -74.84,0.09 60.7,-43.68 -22.74,-70.633 59.85,43.672 59.83,-43.672 -22.8,70.633 60.78,43.68 h -74.92"
         style="fill:#f5f014;fill-opacity:1;fill-rule:nonzero;stroke:none"
         id="path30" /><path
         d="m 2198,791.48 -22.97,71.559 -22.97,-71.641 -74.84,0.082 60.78,-43.66 -22.81,-70.64 59.84,43.75 59.83,-43.75 -22.8,70.64 60.77,43.66 H 2198"
         style="fill:#f5f014;fill-opacity:1;fill-rule:nonzero;stroke:none"
         id="path32" /><path
         d="m 2355.11,1102.57 h -74.92 l -22.97,71.57 -22.89,-71.65 -74.93,0.08 60.79,-43.67 -22.75,-70.619 59.78,43.749 59.84,-43.749 -22.73,70.619 60.78,43.67"
         style="fill:#f5f014;fill-opacity:1;fill-rule:nonzero;stroke:none"
         id="path34" /><path
         d="m 2115.18,1297.66 59.84,43.66 59.84,-43.66 -22.8,70.63 60.77,43.59 h -74.84 l -22.97,71.55 -22.96,-71.64 -74.85,0.09 60.78,-43.59 -22.81,-70.63"
         style="fill:#f5f014;fill-opacity:1;fill-rule:nonzero;stroke:none"
         id="path36" /><path
         d="m 1948.86,1709.6 -22.89,-71.64 -74.93,0.17 60.71,-43.75 -22.74,-70.64 59.93,43.75 59.75,-43.75 -22.72,70.64 60.78,43.75 h -75 l -22.89,71.47"
         style="fill:#f5f014;fill-opacity:1;fill-rule:nonzero;stroke:none"
         id="path38" /><path
         d="m 3468.38,1300.63 v 465.28 h 345 v -78.71 h -251.06 v -103.16 h 233.6 v -78.39 h -233.6 v -126.63 h 259.95 v -78.39 h -353.89"
         style="fill:#ffffff;fill-opacity:1;fill-rule:nonzero;stroke:none"
         id="path40" /><path
         d="m 4123.14,1300.63 v 50.46 c -12.27,-17.98 -28.4,-32.16 -48.39,-42.54 -20,-10.36 -41.11,-15.54 -63.32,-15.54 -22.65,0 -42.96,4.97 -60.94,14.92 -17.99,9.94 -31,23.91 -39.03,41.89 -8.05,17.98 -12.08,42.84 -12.08,74.58 v 213.28 h 89.19 V 1482.8 c 0,-47.4 1.64,-76.43 4.93,-87.12 3.27,-10.69 9.24,-19.15 17.93,-25.39 8.67,-6.25 19.67,-9.36 33,-9.36 15.24,0 28.88,4.18 40.95,12.53 12.05,8.36 20.31,18.73 24.75,31.11 4.45,12.37 6.67,42.68 6.67,90.93 v 142.18 h 89.19 v -337.05 h -82.85"
         style="fill:#ffffff;fill-opacity:1;fill-rule:nonzero;stroke:none"
         id="path42" /><path
         d="m 4383.71,1300.63 h -89.18 v 337.05 h 82.83 v -47.91 c 14.17,22.63 26.93,37.54 38.25,44.74 11.31,7.19 24.17,10.79 38.56,10.79 20.31,0 39.88,-5.6 58.72,-16.82 l -27.62,-77.76 c -15.03,9.73 -28.99,14.6 -41.89,14.6 -12.49,0 -23.07,-3.44 -31.74,-10.31 -8.68,-6.88 -15.5,-19.32 -20.47,-37.3 -4.98,-17.98 -7.46,-55.65 -7.46,-112.98 v -104.1"
         style="fill:#ffffff;fill-opacity:1;fill-rule:nonzero;stroke:none"
         id="path44" /><path
         d="m 4622.07,1469.16 c 0,-33.44 7.94,-59.04 23.8,-76.82 15.88,-17.77 35.44,-26.66 58.72,-26.66 23.27,0 42.79,8.89 58.55,26.66 15.77,17.78 23.65,43.6 23.65,77.45 0,33 -7.88,58.39 -23.65,76.17 -15.76,17.77 -35.28,26.66 -58.55,26.66 -23.28,0 -42.84,-8.89 -58.72,-26.66 -15.86,-17.78 -23.8,-43.37 -23.8,-76.8 z m -91.41,4.75 c 0,29.63 7.3,58.3 21.91,86.01 14.59,27.72 35.27,48.89 62.04,63.48 26.77,14.61 56.65,21.9 89.66,21.9 50.99,0 92.78,-16.56 125.37,-49.67 32.58,-33.11 48.88,-74.96 48.88,-125.52 0,-51 -16.46,-93.27 -49.36,-126.8 -32.9,-33.54 -74.32,-50.3 -124.25,-50.3 -30.9,0 -60.36,6.98 -88.4,20.94 -28.03,13.97 -49.35,34.44 -63.94,61.42 -14.61,26.97 -21.91,59.83 -21.91,98.54"
         style="fill:#ffffff;fill-opacity:1;fill-rule:nonzero;stroke:none"
         id="path46" /><path
         d="m 5019.11,1469.16 c 0,-33.44 7.94,-59.04 23.8,-76.82 15.88,-17.77 35.44,-26.66 58.72,-26.66 23.27,0 42.79,8.89 58.56,26.66 15.76,17.78 23.64,43.6 23.64,77.45 0,33 -7.88,58.39 -23.64,76.17 -15.77,17.77 -35.29,26.66 -58.56,26.66 -23.28,0 -42.84,-8.89 -58.72,-26.66 -15.86,-17.78 -23.8,-43.37 -23.8,-76.8 z m -91.4,4.75 c 0,29.63 7.29,58.3 21.9,86.01 14.59,27.72 35.27,48.89 62.04,63.48 26.77,14.61 56.65,21.9 89.66,21.9 50.99,0 92.78,-16.56 125.37,-49.67 32.58,-33.11 48.88,-74.96 48.88,-125.52 0,-51 -16.46,-93.27 -49.36,-126.8 -32.9,-33.54 -74.32,-50.3 -124.25,-50.3 -30.9,0 -60.36,6.98 -88.4,20.94 -28.03,13.97 -49.35,34.44 -63.94,61.42 -14.61,26.97 -21.9,59.83 -21.9,98.54"
         style="fill:#ffffff;fill-opacity:1;fill-rule:nonzero;stroke:none"
         id="path48" /><path
         d="m 5431.07,1474.86 c 0,-37.87 7.51,-65.85 22.54,-83.94 15.02,-18.09 33.32,-27.13 54.91,-27.13 20.74,0 37.97,8.3 51.73,24.91 13.75,16.6 20.63,43.85 20.63,81.73 0,35.33 -7.09,61.56 -21.26,78.71 -14.18,17.13 -31.74,25.7 -52.69,25.7 -21.79,0 -39.88,-8.41 -54.27,-25.23 -14.39,-16.82 -21.59,-41.74 -21.59,-74.75 z m -88.22,162.82 H 5426 v -49.51 c 10.8,16.93 25.39,30.68 43.8,41.26 18.4,10.58 38.82,15.87 61.25,15.87 39.15,0 72.37,-15.34 99.66,-46.02 27.3,-30.68 40.95,-73.42 40.95,-128.23 0,-56.28 -13.76,-100.03 -41.27,-131.23 -27.5,-31.21 -60.83,-46.81 -99.97,-46.81 -18.62,0 -35.5,3.7 -50.63,11.11 -15.12,7.4 -31.05,20.1 -47.76,38.09 V 1172.4 h -89.18 v 465.28"
         style="fill:#ffffff;fill-opacity:1;fill-rule:nonzero;stroke:none"
         id="path50" /><path
         d="m 5928.42,1462.49 c -11.43,-3.81 -29.51,-8.36 -54.27,-13.64 -24.76,-5.3 -40.95,-10.48 -48.56,-15.56 -11.63,-8.25 -17.46,-18.72 -17.46,-31.41 0,-12.5 4.65,-23.29 13.97,-32.39 9.31,-9.09 21.15,-13.64 35.55,-13.64 16.07,0 31.41,5.28 46.02,15.87 10.78,8.03 17.87,17.88 21.26,29.51 2.33,7.62 3.49,22.11 3.49,43.48 z m -119.34,72.36 -80.93,14.6 c 9.1,32.58 24.76,56.7 46.98,72.37 22.21,15.65 55.22,23.48 99.02,23.48 39.78,0 69.39,-4.71 88.87,-14.12 19.46,-9.42 33.16,-21.38 41.1,-35.87 7.93,-14.49 11.9,-41.09 11.9,-79.82 l -0.95,-104.1 c 0,-29.62 1.42,-51.47 4.29,-65.54 2.85,-14.07 8.19,-29.15 16.02,-45.22 h -88.23 c -2.34,5.91 -5.19,14.7 -8.58,26.34 -1.47,5.28 -2.53,8.77 -3.16,10.47 -15.23,-14.81 -31.53,-25.92 -48.89,-33.32 -17.34,-7.41 -35.86,-11.11 -55.53,-11.11 -34.71,0 -62.05,9.41 -82.04,28.24 -20,18.84 -30,42.64 -30,71.41 0,19.05 4.55,36.03 13.65,50.94 9.09,14.92 21.84,26.35 38.24,34.28 16.4,7.94 40.04,14.86 70.94,20.79 41.68,7.82 70.56,15.13 86.64,21.9 v 8.88 c 0,17.15 -4.23,29.37 -12.7,36.66 -8.45,7.31 -24.43,10.96 -47.92,10.96 -15.87,0 -28.25,-3.12 -37.14,-9.37 -8.88,-6.25 -16.07,-17.19 -21.58,-32.85"
         style="fill:#ffffff;fill-opacity:1;fill-rule:nonzero;stroke:none"
         id="path52" /><path
         d="m 6410.52,1300.63 h -89.18 v 172.01 c 0,36.39 -1.91,59.94 -5.71,70.62 -3.81,10.69 -10,18.99 -18.57,24.92 -8.57,5.92 -18.89,8.89 -30.95,8.89 -15.45,0 -29.3,-4.24 -41.57,-12.69 -12.27,-8.47 -20.69,-19.69 -25.23,-33.66 -4.55,-13.96 -6.83,-39.77 -6.83,-77.44 v -152.65 h -89.19 v 337.05 h 82.84 v -49.51 c 29.41,38.09 66.44,57.13 111.09,57.13 19.67,0 37.65,-3.54 53.95,-10.63 16.29,-7.09 28.62,-16.13 36.97,-27.13 8.36,-11.01 14.18,-23.5 17.47,-37.46 3.27,-13.97 4.91,-33.96 4.91,-59.98 v -209.47"
         style="fill:#ffffff;fill-opacity:1;fill-rule:nonzero;stroke:none"
         id="path54" /><path
         d="m 6903.42,1300.63 v 50.46 c -12.28,-17.98 -28.41,-32.16 -48.4,-42.54 -20,-10.36 -41.1,-15.54 -63.32,-15.54 -22.65,0 -42.96,4.97 -60.94,14.92 -17.99,9.94 -30.99,23.91 -39.03,41.89 -8.05,17.98 -12.07,42.84 -12.07,74.58 v 213.28 h 89.19 V 1482.8 c 0,-47.4 1.64,-76.43 4.92,-87.12 3.27,-10.69 9.25,-19.15 17.93,-25.39 8.67,-6.25 19.68,-9.36 33.01,-9.36 15.23,0 28.87,4.18 40.94,12.53 12.06,8.36 20.32,18.73 24.75,31.11 4.45,12.37 6.67,42.68 6.67,90.93 v 142.18 h 89.19 v -337.05 h -82.84"
         style="fill:#ffffff;fill-opacity:1;fill-rule:nonzero;stroke:none"
         id="path56" /><path
         d="m 7385.2,1300.63 h -89.18 v 172.01 c 0,36.39 -1.91,59.94 -5.72,70.62 -3.81,10.69 -10,18.99 -18.56,24.92 -8.58,5.92 -18.89,8.89 -30.95,8.89 -15.45,0 -29.31,-4.24 -41.57,-12.69 -12.28,-8.47 -20.69,-19.69 -25.24,-33.66 -4.55,-13.96 -6.82,-39.77 -6.82,-77.44 v -152.65 h -89.19 v 337.05 h 82.84 v -49.51 c 29.4,38.09 66.44,57.13 111.08,57.13 19.68,0 37.66,-3.54 53.96,-10.63 16.29,-7.09 28.61,-16.13 36.97,-27.13 8.36,-11.01 14.18,-23.5 17.46,-37.46 3.27,-13.97 4.92,-33.96 4.92,-59.98 v -209.47"
         style="fill:#ffffff;fill-opacity:1;fill-rule:nonzero;stroke:none"
         id="path58" /><path
         d="m 7475.66,1300.63 v 337.05 h 89.18 v -337.05 z m 0,382.76 v 82.52 h 89.18 v -82.52 h -89.18"
         style="fill:#ffffff;fill-opacity:1;fill-rule:nonzero;stroke:none"
         id="path60" /><path
         d="m 7727.02,1469.16 c 0,-33.44 7.94,-59.04 23.8,-76.82 15.88,-17.77 35.44,-26.66 58.72,-26.66 23.27,0 42.79,8.89 58.56,26.66 15.76,17.78 23.64,43.6 23.64,77.45 0,33 -7.88,58.39 -23.64,76.17 -15.77,17.77 -35.29,26.66 -58.56,26.66 -23.28,0 -42.84,-8.89 -58.72,-26.66 -15.86,-17.78 -23.8,-43.37 -23.8,-76.8 z m -91.4,4.75 c 0,29.63 7.29,58.3 21.9,86.01 14.59,27.72 35.27,48.89 62.04,63.48 26.77,14.61 56.65,21.9 89.66,21.9 50.99,0 92.78,-16.56 125.37,-49.67 32.58,-33.11 48.88,-74.96 48.88,-125.52 0,-51 -16.46,-93.27 -49.36,-126.8 -32.9,-33.54 -74.32,-50.3 -124.25,-50.3 -30.9,0 -60.36,6.98 -88.4,20.94 -28.03,13.97 -49.35,34.44 -63.94,61.42 -14.61,26.97 -21.9,59.83 -21.9,98.54"
         style="fill:#ffffff;fill-opacity:1;fill-rule:nonzero;stroke:none"
         id="path62" /><path
         d="m 8359.88,1300.63 h -89.18 v 172.01 c 0,36.39 -1.9,59.94 -5.71,70.62 -3.81,10.69 -10,18.99 -18.56,24.92 -8.58,5.92 -18.89,8.89 -30.95,8.89 -15.45,0 -29.31,-4.24 -41.57,-12.69 -12.28,-8.47 -20.7,-19.69 -25.24,-33.66 -4.55,-13.96 -6.82,-39.77 -6.82,-77.44 v -152.65 h -89.19 v 337.05 h 82.84 v -49.51 c 29.4,38.09 66.43,57.13 111.08,57.13 19.68,0 37.66,-3.54 53.96,-10.63 16.29,-7.09 28.61,-16.13 36.97,-27.13 8.36,-11.01 14.18,-23.5 17.46,-37.46 3.27,-13.97 4.91,-33.96 4.91,-59.98 v -209.47"
         style="fill:#ffffff;fill-opacity:1;fill-rule:nonzero;stroke:none"
         id="path64" /><path
         d="m 8450.35,1300.63 v 337.05 h 89.18 v -337.05 z m 0,382.76 v 82.52 h 89.18 v -82.52 h -89.18"
         style="fill:#ffffff;fill-opacity:1;fill-rule:nonzero;stroke:none"
         id="path66" /><path
         d="m 8937.52,1300.63 h -89.18 v 172.01 c 0,36.39 -1.9,59.94 -5.71,70.62 -3.81,10.69 -10,18.99 -18.57,24.92 -8.57,5.92 -18.88,8.89 -30.94,8.89 -15.45,0 -29.31,-4.24 -41.58,-12.69 -12.27,-8.47 -20.69,-19.69 -25.23,-33.66 -4.55,-13.96 -6.83,-39.77 -6.83,-77.44 v -152.65 h -89.19 v 337.05 h 82.84 v -49.51 c 29.41,38.09 66.44,57.13 111.09,57.13 19.68,0 37.66,-3.54 53.95,-10.63 16.29,-7.09 28.62,-16.13 36.98,-27.13 8.36,-11.01 14.18,-23.5 17.46,-37.46 3.27,-13.97 4.91,-33.96 4.91,-59.98 v -209.47"
         style="fill:#ffffff;fill-opacity:1;fill-rule:nonzero;stroke:none"
         id="path68" /><path
         d="m 3553.13,520.629 h -89.18 v 337.062 h 82.83 V 809.77 c 14.17,22.64 26.92,37.55 38.24,44.75 11.32,7.179 24.17,10.789 38.56,10.789 20.32,0 39.89,-5.61 58.72,-16.829 l -27.61,-77.75 c -15.03,9.719 -29,14.598 -41.9,14.598 -12.49,0 -23.06,-3.437 -31.74,-10.316 -8.68,-6.883 -15.49,-19.313 -20.46,-37.293 -4.98,-17.989 -7.46,-55.66 -7.46,-112.989 V 520.629"
         style="fill:#ffffff;fill-opacity:1;fill-rule:nonzero;stroke:none"
         id="path70" /><path
         d="m 3906.68,682.488 c -11.43,-3.797 -29.51,-8.359 -54.27,-13.636 -24.75,-5.293 -40.95,-10.481 -48.56,-15.563 -11.63,-8.25 -17.45,-18.719 -17.45,-31.41 0,-12.488 4.64,-23.277 13.96,-32.379 9.31,-9.102 21.15,-13.648 35.55,-13.648 16.07,0 31.41,5.289 46.02,15.867 10.78,8.043 17.87,17.883 21.26,29.511 2.33,7.622 3.49,22.11 3.49,43.489 z m -119.34,72.371 -80.92,14.602 c 9.09,32.578 24.75,56.699 46.97,72.359 22.22,15.649 55.22,23.489 99.02,23.489 39.78,0 69.4,-4.707 88.87,-14.118 19.46,-9.429 33.16,-21.382 41.1,-35.871 7.93,-14.5 11.9,-41.101 11.9,-79.832 l -0.95,-104.097 c 0,-29.621 1.43,-51.461 4.29,-65.539 2.85,-14.071 8.19,-29.153 16.02,-45.223 h -88.23 c -2.33,5.922 -5.19,14.711 -8.57,26.351 -1.48,5.282 -2.54,8.77 -3.17,10.469 -15.23,-14.82 -31.53,-25.918 -48.88,-33.328 -17.35,-7.41 -35.86,-11.109 -55.54,-11.109 -34.71,0 -62.05,9.418 -82.04,28.238 -20,18.84 -30,42.641 -30,71.422 0,19.039 4.55,36.027 13.65,50.937 9.09,14.922 21.85,26.352 38.24,34.27 16.4,7.941 40.04,14.871 70.94,20.801 41.68,7.82 70.57,15.121 86.64,21.89 v 8.891 c 0,17.148 -4.23,29.359 -12.7,36.66 -8.45,7.301 -24.43,10.949 -47.92,10.949 -15.86,0 -28.25,-3.121 -37.13,-9.359 -8.89,-6.25 -16.08,-17.199 -21.59,-32.852"
         style="fill:#ffffff;fill-opacity:1;fill-rule:nonzero;stroke:none"
         id="path72" /><path
         d="M 4171.07,985.91 V 814.852 c 28.77,33.628 63.16,50.457 103.15,50.457 20.52,0 39.04,-3.809 55.55,-11.43 16.5,-7.617 28.92,-17.348 37.28,-29.199 8.36,-11.852 14.07,-24.969 17.14,-39.352 3.07,-14.398 4.6,-36.707 4.6,-66.969 v -197.73 h -89.18 V 698.68 c 0,35.34 -1.7,57.769 -5.08,67.281 -3.39,9.527 -9.36,17.09 -17.93,22.699 -8.57,5.602 -19.31,8.41 -32.22,8.41 -14.81,0 -28.03,-3.601 -39.67,-10.8 -11.63,-7.18 -20.15,-18.032 -25.55,-32.532 -5.39,-14.488 -8.09,-35.91 -8.09,-64.258 V 520.629 h -89.19 V 985.91 h 89.19"
         style="fill:#ffffff;fill-opacity:1;fill-rule:nonzero;stroke:none"
         id="path74" /><path
         d="m 4550.03,689.16 c 0,-33.43 7.94,-59.039 23.8,-76.808 15.88,-17.782 35.44,-26.661 58.72,-26.661 23.27,0 42.79,8.879 58.55,26.661 15.77,17.769 23.65,43.589 23.65,77.437 0,33.012 -7.88,58.402 -23.65,76.172 -15.76,17.769 -35.28,26.66 -58.55,26.66 -23.28,0 -42.84,-8.891 -58.72,-26.66 -15.86,-17.77 -23.8,-43.371 -23.8,-76.801 z m -91.41,4.762 c 0,29.617 7.3,58.289 21.91,86.008 14.59,27.718 35.27,48.879 62.04,63.468 26.77,14.614 56.65,21.911 89.66,21.911 50.99,0 92.78,-16.571 125.37,-49.668 32.58,-33.121 48.87,-74.961 48.87,-125.532 0,-50.988 -16.45,-93.257 -49.35,-126.8 -32.9,-33.528 -74.32,-50.297 -124.25,-50.297 -30.9,0 -60.36,6.976 -88.4,20.949 -28.03,13.961 -49.35,34.43 -63.94,61.41 -14.61,26.981 -21.91,59.828 -21.91,98.551"
         style="fill:#ffffff;fill-opacity:1;fill-rule:nonzero;stroke:none"
         id="path76" /><path
         d="m 4876.3,520.629 v 337.062 h 89.18 V 520.629 Z m 0,382.762 v 82.519 h 89.18 v -82.519 h -89.18"
         style="fill:#ffffff;fill-opacity:1;fill-rule:nonzero;stroke:none"
         id="path78" /><path
         d="m 5211.46,857.691 v -71.089 h -60.94 v -135.84 c 0,-27.512 0.57,-43.543 1.75,-48.09 1.16,-4.551 3.8,-8.301 7.93,-11.262 4.13,-2.969 9.15,-4.449 15.07,-4.449 8.26,0 20.21,2.859 35.86,8.57 l 7.62,-69.191 c -20.73,-8.891 -44.22,-13.328 -70.45,-13.328 -16.08,0 -30.59,2.699 -43.49,8.097 -12.91,5.391 -22.37,12.371 -28.4,20.942 -6.03,8.57 -10.21,20.16 -12.54,34.75 -1.9,10.371 -2.85,31.32 -2.85,62.847 v 146.954 h -40.94 v 71.089 h 40.94 v 66.957 l 89.5,52.051 V 857.691 h 60.94"
         style="fill:#ffffff;fill-opacity:1;fill-rule:nonzero;stroke:none"
         id="path80" /><path
         d="m 5427.9,857.691 v -71.089 h -60.94 v -135.84 c 0,-27.512 0.58,-43.543 1.75,-48.09 1.16,-4.551 3.81,-8.301 7.93,-11.262 4.13,-2.969 9.15,-4.449 15.08,-4.449 8.25,0 20.2,2.859 35.86,8.57 l 7.62,-69.191 c -20.74,-8.891 -44.22,-13.328 -70.45,-13.328 -16.09,0 -30.59,2.699 -43.49,8.097 -12.91,5.391 -22.37,12.371 -28.41,20.942 -6.02,8.57 -10.2,20.16 -12.54,34.75 -1.89,10.371 -2.85,31.32 -2.85,62.847 v 146.954 h -40.94 v 71.089 h 40.94 v 66.957 l 89.5,52.051 V 857.691 h 60.94"
         style="fill:#ffffff;fill-opacity:1;fill-rule:nonzero;stroke:none"
         id="path82" /><path
         d="m 5675.78,682.488 c -11.42,-3.797 -29.51,-8.359 -54.27,-13.636 -24.75,-5.293 -40.94,-10.481 -48.56,-15.563 -11.63,-8.25 -17.45,-18.719 -17.45,-31.41 0,-12.488 4.65,-23.277 13.96,-32.379 9.31,-9.102 21.16,-13.648 35.55,-13.648 16.07,0 31.42,5.289 46.03,15.867 10.78,8.043 17.87,17.883 21.25,29.511 2.33,7.622 3.49,22.11 3.49,43.489 z m -119.33,72.371 -80.93,14.602 c 9.09,32.578 24.75,56.699 46.97,72.359 22.22,15.649 55.22,23.489 99.02,23.489 39.78,0 69.4,-4.707 88.87,-14.118 19.46,-9.429 33.16,-21.382 41.1,-35.871 7.93,-14.5 11.9,-41.101 11.9,-79.832 l -0.95,-104.097 c 0,-29.621 1.43,-51.461 4.29,-65.539 2.85,-14.071 8.19,-29.153 16.02,-45.223 h -88.23 c -2.33,5.922 -5.18,14.711 -8.57,26.351 -1.48,5.282 -2.54,8.77 -3.17,10.469 -15.23,-14.82 -31.53,-25.918 -48.88,-33.328 -17.35,-7.41 -35.86,-11.109 -55.54,-11.109 -34.71,0 -62.05,9.418 -82.04,28.238 -20,18.84 -30,42.641 -30,71.422 0,19.039 4.55,36.027 13.65,50.937 9.09,14.922 21.85,26.352 38.24,34.27 16.4,7.941 40.04,14.871 70.94,20.801 41.68,7.82 70.57,15.121 86.64,21.89 v 8.891 c 0,17.148 -4.23,29.359 -12.69,36.66 -8.46,7.301 -24.44,10.949 -47.92,10.949 -15.87,0 -28.26,-3.121 -37.14,-9.359 -8.89,-6.25 -16.08,-17.199 -21.58,-32.852"
         style="fill:#ffffff;fill-opacity:1;fill-rule:nonzero;stroke:none"
         id="path84" /><path
         d="m 5844.63,857.691 h 82.2 V 811.66 c 29.41,35.77 64.43,53.649 105.05,53.649 21.59,0 40.32,-4.45 56.18,-13.329 15.88,-8.89 28.88,-22.332 39.04,-40.32 14.8,17.988 30.78,31.43 47.93,40.32 17.13,8.879 35.43,13.329 54.9,13.329 24.76,0 45.7,-5.028 62.84,-15.079 17.14,-10.05 29.94,-24.808 38.41,-44.269 6.13,-14.391 9.2,-37.672 9.2,-69.82 V 520.629 h -89.18 v 192.66 c 0,33.422 -3.07,55 -9.21,64.742 -8.25,12.699 -20.95,19.039 -38.08,19.039 -12.49,0 -24.23,-3.8 -35.23,-11.422 -11,-7.617 -18.94,-18.789 -23.81,-33.488 -4.87,-14.699 -7.3,-37.93 -7.3,-69.672 V 520.629 h -89.18 v 184.723 c 0,32.789 -1.58,53.949 -4.77,63.468 -3.16,9.52 -8.08,16.61 -14.75,21.258 -6.66,4.66 -15.72,6.992 -27.14,6.992 -13.75,0 -26.13,-3.711 -37.13,-11.109 -11.01,-7.41 -18.89,-18.09 -23.64,-32.051 -4.77,-13.961 -7.14,-37.14 -7.14,-69.512 V 520.629 h -89.19 v 337.062"
         style="fill:#ffffff;fill-opacity:1;fill-rule:nonzero;stroke:none"
         id="path86" /><path
         d="m 6615.23,682.488 c -11.42,-3.797 -29.51,-8.359 -54.26,-13.636 -24.76,-5.293 -40.95,-10.481 -48.57,-15.563 -11.63,-8.25 -17.45,-18.719 -17.45,-31.41 0,-12.488 4.65,-23.277 13.97,-32.379 9.3,-9.102 21.15,-13.648 35.54,-13.648 16.08,0 31.42,5.289 46.03,15.867 10.78,8.043 17.87,17.883 21.26,29.511 2.32,7.622 3.48,22.11 3.48,43.489 z m -119.33,72.371 -80.93,14.602 c 9.09,32.578 24.76,56.699 46.97,72.359 22.22,15.649 55.23,23.489 99.03,23.489 39.77,0 69.39,-4.707 88.86,-14.118 19.47,-9.429 33.17,-21.382 41.11,-35.871 7.93,-14.5 11.89,-41.101 11.89,-79.832 l -0.95,-104.097 c 0,-29.621 1.43,-51.461 4.29,-65.539 2.85,-14.071 8.2,-29.153 16.03,-45.223 h -88.24 c -2.33,5.922 -5.18,14.711 -8.57,26.351 -1.47,5.282 -2.54,8.77 -3.16,10.469 -15.24,-14.82 -31.54,-25.918 -48.89,-33.328 -17.34,-7.41 -35.86,-11.109 -55.54,-11.109 -34.7,0 -62.05,9.418 -82.04,28.238 -20,18.84 -30,42.641 -30,71.422 0,19.039 4.55,36.027 13.65,50.937 9.1,14.922 21.85,26.352 38.25,34.27 16.39,7.941 40.04,14.871 70.93,20.801 41.68,7.82 70.57,15.121 86.64,21.89 v 8.891 c 0,17.148 -4.22,29.359 -12.69,36.66 -8.46,7.301 -24.43,10.949 -47.92,10.949 -15.87,0 -28.25,-3.121 -37.14,-9.359 -8.89,-6.25 -16.07,-17.199 -21.58,-32.852"
         style="fill:#ffffff;fill-opacity:1;fill-rule:nonzero;stroke:none"
         id="path88" /></g></g></svg>
