<?xml version="1.0" encoding="UTF-8" standalone="no"?>
<!-- Created with Inkscape (http://www.inkscape.org/) -->

<svg
   version="1.1"
   id="svg2"
   xml:space="preserve"
   width="1358.7333"
   height="284.66666"
   viewBox="0 0 1358.7333 284.66666"
   sodipodi:docname="LT Finansuojama Europos Sąjungos_NEG.eps"
   xmlns:inkscape="http://www.inkscape.org/namespaces/inkscape"
   xmlns:sodipodi="http://sodipodi.sourceforge.net/DTD/sodipodi-0.dtd"
   xmlns="http://www.w3.org/2000/svg"
   xmlns:svg="http://www.w3.org/2000/svg"><defs
     id="defs6" /><sodipodi:namedview
     id="namedview4"
     pagecolor="#ffffff"
     bordercolor="#666666"
     borderopacity="1.0"
     inkscape:pageshadow="2"
     inkscape:pageopacity="0.0"
     inkscape:pagecheckerboard="0" /><g
     id="g8"
     inkscape:groupmode="layer"
     inkscape:label="ink_ext_XXXXXX"
     transform="matrix(1.3333333,0,0,-1.3333333,0,284.66667)"><g
       id="g10"
       transform="scale(0.1)"><path
         d="M 164.473,71.0586 H 3113.93 V 2073.9 H 164.473 V 71.0586"
         style="fill:#ffffff;fill-opacity:1;fill-rule:nonzero;stroke:none"
         id="path12" /><path
         d="M 221.191,128.281 H 3057.22 V 2018.97 H 221.191 V 128.281"
         style="fill:#264ca4;fill-opacity:1;fill-rule:nonzero;stroke:none"
         id="path14" /><path
         d="m 1578.78,1607.02 59.83,43.67 59.86,-43.67 -22.79,70.63 60.79,43.67 h -74.93 l -22.93,71.48 -22.93,-71.56 -74.88,0.08 60.74,-43.67 -22.76,-70.63"
         style="fill:#f5f014;fill-opacity:1;fill-rule:nonzero;stroke:none"
         id="path16" /><path
         d="m 1269.08,1523.82 59.85,43.67 59.81,-43.67 -22.74,70.63 60.75,43.68 h -74.93 l -22.92,71.55 -22.93,-71.64 -74.9,0.09 60.75,-43.68 -22.74,-70.63"
         style="fill:#f5f014;fill-opacity:1;fill-rule:nonzero;stroke:none"
         id="path18" /><path
         d="m 1102.32,1482.57 -22.93,-71.64 -74.88,0.09 60.74,-43.68 -22.76,-70.63 59.83,43.68 59.85,-43.68 -22.78,70.63 60.75,43.68 h -74.89 l -22.93,71.55"
         style="fill:#f5f014;fill-opacity:1;fill-rule:nonzero;stroke:none"
         id="path20" /><path
         d="m 1019.21,1031.08 59.8,-43.658 -22.73,70.608 60.73,43.68 h -74.87 l -22.93,71.56 -22.933,-71.72 -74.922,0.16 60.786,-43.68 -22.778,-70.608 59.847,43.658"
         style="fill:#f5f014;fill-opacity:1;fill-rule:nonzero;stroke:none"
         id="path22" /><path
         d="m 1125.25,791.48 -22.93,71.559 -22.93,-71.641 -74.88,0.082 60.74,-43.66 -22.76,-70.64 59.83,43.75 59.85,-43.75 -22.78,70.64 60.75,43.66 h -74.89"
         style="fill:#f5f014;fill-opacity:1;fill-rule:nonzero;stroke:none"
         id="path24" /><path
         d="m 1352.29,564.461 -22.93,71.469 -22.9,-71.559 -74.92,0.09 60.75,-43.68 -22.73,-70.633 59.83,43.672 59.81,-43.672 -22.74,70.633 60.75,43.68 h -74.92"
         style="fill:#f5f014;fill-opacity:1;fill-rule:nonzero;stroke:none"
         id="path26" /><path
         d="m 1661.58,482.18 -22.93,71.558 -22.89,-71.636 -74.91,0.078 60.73,-43.668 -22.72,-70.633 59.83,43.68 59.81,-43.68 -22.78,70.633 60.78,43.668 h -74.92"
         style="fill:#f5f014;fill-opacity:1;fill-rule:nonzero;stroke:none"
         id="path28" /><path
         d="m 1970.89,564.461 -22.89,71.469 -22.97,-71.559 -74.84,0.09 60.7,-43.68 -22.74,-70.633 59.85,43.672 59.83,-43.672 -22.8,70.633 60.78,43.68 h -74.92"
         style="fill:#f5f014;fill-opacity:1;fill-rule:nonzero;stroke:none"
         id="path30" /><path
         d="m 2198,791.48 -22.97,71.559 -22.97,-71.641 -74.84,0.082 60.78,-43.66 -22.81,-70.64 59.84,43.75 59.83,-43.75 -22.8,70.64 60.77,43.66 H 2198"
         style="fill:#f5f014;fill-opacity:1;fill-rule:nonzero;stroke:none"
         id="path32" /><path
         d="m 2355.11,1102.57 h -74.92 l -22.97,71.57 -22.89,-71.65 -74.93,0.08 60.79,-43.67 -22.75,-70.619 59.78,43.749 59.84,-43.749 -22.73,70.619 60.78,43.67"
         style="fill:#f5f014;fill-opacity:1;fill-rule:nonzero;stroke:none"
         id="path34" /><path
         d="m 2115.18,1297.66 59.84,43.66 59.84,-43.66 -22.8,70.63 60.77,43.59 h -74.84 l -22.97,71.55 -22.96,-71.64 -74.85,0.09 60.78,-43.59 -22.81,-70.63"
         style="fill:#f5f014;fill-opacity:1;fill-rule:nonzero;stroke:none"
         id="path36" /><path
         d="m 1948.86,1709.6 -22.89,-71.64 -74.93,0.17 60.71,-43.75 -22.74,-70.64 59.93,43.75 59.75,-43.75 -22.72,70.64 60.78,43.75 h -75 l -22.89,71.47"
         style="fill:#f5f014;fill-opacity:1;fill-rule:nonzero;stroke:none"
         id="path38" /><path
         d="m 3469.02,1300.63 v 465.28 h 318.97 v -78.71 h -225.02 v -110.13 h 194.24 v -78.71 h -194.24 v -197.73 h -93.95"
         style="fill:#ffffff;fill-opacity:1;fill-rule:nonzero;stroke:none"
         id="path40" /><path
         d="m 3864.8,1300.63 v 337.05 h 89.18 v -337.05 z m 0,382.76 v 82.52 h 89.18 v -82.52 h -89.18"
         style="fill:#ffffff;fill-opacity:1;fill-rule:nonzero;stroke:none"
         id="path42" /><path
         d="m 4351.97,1300.63 h -89.18 v 172.01 c 0,36.39 -1.9,59.94 -5.71,70.62 -3.81,10.69 -10,18.99 -18.56,24.92 -8.58,5.92 -18.89,8.89 -30.95,8.89 -15.45,0 -29.31,-4.24 -41.57,-12.69 -12.28,-8.47 -20.7,-19.69 -25.24,-33.66 -4.55,-13.96 -6.82,-39.77 -6.82,-77.44 v -152.65 h -89.19 v 337.05 h 82.84 v -49.51 c 29.4,38.09 66.43,57.13 111.08,57.13 19.68,0 37.66,-3.54 53.96,-10.63 16.29,-7.09 28.61,-16.13 36.97,-27.13 8.36,-11.01 14.18,-23.5 17.46,-37.46 3.27,-13.97 4.91,-33.96 4.91,-59.98 v -209.47"
         style="fill:#ffffff;fill-opacity:1;fill-rule:nonzero;stroke:none"
         id="path44" /><path
         d="m 4628.42,1462.49 c -11.43,-3.81 -29.51,-8.36 -54.27,-13.64 -24.76,-5.3 -40.95,-10.48 -48.56,-15.56 -11.63,-8.25 -17.46,-18.72 -17.46,-31.41 0,-12.5 4.65,-23.29 13.97,-32.39 9.31,-9.09 21.15,-13.64 35.55,-13.64 16.07,0 31.41,5.28 46.02,15.87 10.78,8.03 17.87,17.88 21.26,29.51 2.33,7.62 3.49,22.11 3.49,43.48 z m -119.34,72.36 -80.93,14.6 c 9.1,32.58 24.76,56.7 46.98,72.37 22.21,15.65 55.22,23.48 99.02,23.48 39.78,0 69.39,-4.71 88.87,-14.12 19.46,-9.42 33.16,-21.38 41.1,-35.87 7.93,-14.49 11.9,-41.09 11.9,-79.82 l -0.95,-104.1 c 0,-29.62 1.42,-51.47 4.29,-65.54 2.85,-14.07 8.19,-29.15 16.02,-45.22 h -88.23 c -2.34,5.91 -5.19,14.7 -8.58,26.34 -1.47,5.28 -2.53,8.77 -3.16,10.47 -15.23,-14.81 -31.53,-25.92 -48.89,-33.32 -17.34,-7.41 -35.86,-11.11 -55.53,-11.11 -34.71,0 -62.05,9.41 -82.04,28.24 -20,18.84 -30,42.64 -30,71.41 0,19.05 4.55,36.03 13.65,50.94 9.09,14.92 21.84,26.35 38.24,34.28 16.4,7.94 40.04,14.86 70.94,20.79 41.68,7.82 70.56,15.13 86.64,21.9 v 8.88 c 0,17.15 -4.23,29.37 -12.7,36.66 -8.45,7.31 -24.43,10.96 -47.92,10.96 -15.87,0 -28.25,-3.12 -37.14,-9.37 -8.88,-6.25 -16.07,-17.19 -21.58,-32.85"
         style="fill:#ffffff;fill-opacity:1;fill-rule:nonzero;stroke:none"
         id="path46" /><path
         d="m 5110.52,1300.63 h -89.18 v 172.01 c 0,36.39 -1.91,59.94 -5.71,70.62 -3.81,10.69 -10,18.99 -18.57,24.92 -8.57,5.92 -18.89,8.89 -30.95,8.89 -15.45,0 -29.3,-4.24 -41.57,-12.69 -12.27,-8.47 -20.69,-19.69 -25.23,-33.66 -4.55,-13.96 -6.83,-39.77 -6.83,-77.44 v -152.65 h -89.19 v 337.05 h 82.84 v -49.51 c 29.41,38.09 66.44,57.13 111.09,57.13 19.67,0 37.65,-3.54 53.95,-10.63 16.29,-7.09 28.62,-16.13 36.97,-27.13 8.36,-11.01 14.18,-23.5 17.47,-37.46 3.27,-13.97 4.91,-33.96 4.91,-59.98 v -209.47"
         style="fill:#ffffff;fill-opacity:1;fill-rule:nonzero;stroke:none"
         id="path48" /><path
         d="m 5169.55,1396.8 89.5,13.64 c 3.81,-17.35 11.54,-30.53 23.18,-39.51 11.63,-9 27.93,-13.49 48.86,-13.49 23.07,0 40.42,4.23 52.05,12.7 7.84,5.91 11.75,13.84 11.75,23.79 0,6.77 -2.12,12.38 -6.35,16.83 -4.44,4.23 -14.39,8.13 -29.83,11.74 -71.94,15.87 -117.54,30.36 -136.8,43.48 -26.66,18.2 -39.98,43.48 -39.98,75.86 0,29.2 11.53,53.73 34.59,73.63 23.06,19.88 58.82,29.83 107.28,29.83 46.12,0 80.4,-7.51 102.83,-22.53 22.42,-15.03 37.87,-37.24 46.34,-66.66 l -84.1,-15.54 c -3.61,13.11 -10.43,23.16 -20.48,30.15 -10.05,6.98 -24.39,10.47 -43,10.47 -23.5,0 -40.31,-3.28 -50.47,-9.84 -6.78,-4.65 -10.15,-10.69 -10.15,-18.09 0,-6.35 2.95,-11.74 8.88,-16.19 8.04,-5.92 35.81,-14.28 83.31,-25.07 47.5,-10.79 80.67,-24.01 99.5,-39.68 18.62,-15.86 27.93,-37.98 27.93,-66.32 0,-30.9 -12.91,-57.45 -38.72,-79.67 -25.82,-22.21 -64,-33.32 -114.58,-33.32 -45.9,0 -82.25,9.3 -109.01,27.93 -26.77,18.61 -44.28,43.9 -52.53,75.86"
         style="fill:#ffffff;fill-opacity:1;fill-rule:nonzero;stroke:none"
         id="path50" /><path
         d="m 5784.33,1300.63 v 50.46 c -12.28,-17.98 -28.41,-32.16 -48.4,-42.54 -20,-10.36 -41.11,-15.54 -63.32,-15.54 -22.65,0 -42.96,4.97 -60.94,14.92 -17.99,9.94 -31,23.91 -39.03,41.89 -8.05,17.98 -12.07,42.84 -12.07,74.58 v 213.28 h 89.19 V 1482.8 c 0,-47.4 1.64,-76.43 4.92,-87.12 3.27,-10.69 9.25,-19.15 17.93,-25.39 8.67,-6.25 19.68,-9.36 33.01,-9.36 15.23,0 28.87,4.18 40.94,12.53 12.05,8.36 20.32,18.73 24.75,31.11 4.45,12.37 6.67,42.68 6.67,90.93 v 142.18 h 89.19 v -337.05 h -82.84"
         style="fill:#ffffff;fill-opacity:1;fill-rule:nonzero;stroke:none"
         id="path52" /><path
         d="m 6030.3,1469.16 c 0,-33.44 7.94,-59.04 23.8,-76.82 15.88,-17.77 35.44,-26.66 58.72,-26.66 23.27,0 42.8,8.89 58.56,26.66 15.76,17.78 23.64,43.6 23.64,77.45 0,33 -7.88,58.39 -23.64,76.17 -15.76,17.77 -35.29,26.66 -58.56,26.66 -23.28,0 -42.84,-8.89 -58.72,-26.66 -15.86,-17.78 -23.8,-43.37 -23.8,-76.8 z m -91.4,4.75 c 0,29.63 7.29,58.3 21.9,86.01 14.59,27.72 35.27,48.89 62.04,63.48 26.77,14.61 56.65,21.9 89.66,21.9 51,0 92.78,-16.56 125.37,-49.67 32.58,-33.11 48.88,-74.96 48.88,-125.52 0,-51 -16.46,-93.27 -49.36,-126.8 -32.9,-33.54 -74.31,-50.3 -124.25,-50.3 -30.89,0 -60.36,6.98 -88.39,20.94 -28.04,13.97 -49.36,34.44 -63.95,61.42 -14.61,26.97 -21.9,59.83 -21.9,98.54"
         style="fill:#ffffff;fill-opacity:1;fill-rule:nonzero;stroke:none"
         id="path54" /><path
         d="m 6354.66,1683.39 v 82.52 h 89.19 v -82.52 z m 89.19,-45.71 v -326.59 c 0,-42.95 -2.81,-73.25 -8.41,-90.93 -5.62,-17.66 -16.41,-31.46 -32.37,-41.41 -15.98,-9.94 -36.34,-14.92 -61.11,-14.92 -8.88,0 -18.45,0.8 -28.72,2.38 -10.25,1.59 -21.31,3.97 -33.16,7.15 l 15.55,76.17 c 4.23,-0.85 8.2,-1.53 11.9,-2.07 3.7,-0.53 7.15,-0.79 10.31,-0.79 9.1,0 16.56,1.96 22.38,5.87 5.82,3.91 9.68,8.62 11.59,14.12 1.9,5.51 2.85,22.01 2.85,49.51 v 321.51 h 89.19"
         style="fill:#ffffff;fill-opacity:1;fill-rule:nonzero;stroke:none"
         id="path56" /><path
         d="m 6723.14,1462.49 c -11.42,-3.81 -29.51,-8.36 -54.26,-13.64 -24.76,-5.3 -40.95,-10.48 -48.57,-15.56 -11.63,-8.25 -17.45,-18.72 -17.45,-31.41 0,-12.5 4.65,-23.29 13.97,-32.39 9.3,-9.09 21.15,-13.64 35.54,-13.64 16.08,0 31.42,5.28 46.03,15.87 10.78,8.03 17.87,17.88 21.26,29.51 2.32,7.62 3.48,22.11 3.48,43.48 z m -119.33,72.36 -80.93,14.6 c 9.09,32.58 24.76,56.7 46.97,72.37 22.22,15.65 55.23,23.48 99.03,23.48 39.77,0 69.39,-4.71 88.86,-14.12 19.47,-9.42 33.17,-21.38 41.11,-35.87 7.93,-14.49 11.89,-41.09 11.89,-79.82 l -0.95,-104.1 c 0,-29.62 1.43,-51.47 4.29,-65.54 2.85,-14.07 8.2,-29.15 16.03,-45.22 h -88.23 c -2.34,5.91 -5.19,14.7 -8.58,26.34 -1.47,5.28 -2.54,8.77 -3.16,10.47 -15.24,-14.81 -31.54,-25.92 -48.89,-33.32 -17.34,-7.41 -35.86,-11.11 -55.54,-11.11 -34.7,0 -62.05,9.41 -82.04,28.24 -20,18.84 -30,42.64 -30,71.41 0,19.05 4.55,36.03 13.65,50.94 9.1,14.92 21.85,26.35 38.25,34.28 16.39,7.94 40.04,14.86 70.93,20.79 41.68,7.82 70.57,15.13 86.64,21.9 v 8.88 c 0,17.15 -4.22,29.37 -12.69,36.66 -8.46,7.31 -24.43,10.96 -47.92,10.96 -15.87,0 -28.25,-3.12 -37.14,-9.37 -8.89,-6.25 -16.07,-17.19 -21.58,-32.85"
         style="fill:#ffffff;fill-opacity:1;fill-rule:nonzero;stroke:none"
         id="path58" /><path
         d="m 6891.99,1637.68 h 82.2 v -46.02 c 29.41,35.76 64.43,53.64 105.06,53.64 21.58,0 40.31,-4.44 56.17,-13.33 15.88,-8.88 28.89,-22.32 39.04,-40.31 14.81,17.99 30.78,31.43 47.93,40.31 17.13,8.89 35.43,13.33 54.9,13.33 24.76,0 45.71,-5.03 62.85,-15.08 17.14,-10.04 29.94,-24.8 38.4,-44.26 6.14,-14.4 9.2,-37.67 9.2,-69.83 v -215.5 h -89.18 v 192.65 c 0,33.43 -3.07,55.01 -9.2,64.75 -8.26,12.69 -20.95,19.04 -38.09,19.04 -12.49,0 -24.23,-3.81 -35.23,-11.43 -11,-7.61 -18.94,-18.78 -23.8,-33.48 -4.88,-14.71 -7.31,-37.93 -7.31,-69.67 v -161.86 h -89.18 v 184.71 c 0,32.79 -1.58,53.96 -4.76,63.48 -3.17,9.52 -8.09,16.61 -14.76,21.26 -6.66,4.65 -15.71,6.99 -27.14,6.99 -13.75,0 -26.13,-3.71 -37.13,-11.11 -11,-7.42 -18.88,-18.09 -23.64,-32.05 -4.77,-13.97 -7.14,-37.14 -7.14,-69.52 v -163.76 h -89.19 v 337.05"
         style="fill:#ffffff;fill-opacity:1;fill-rule:nonzero;stroke:none"
         id="path60" /><path
         d="m 7662.6,1462.49 c -11.43,-3.81 -29.51,-8.36 -54.27,-13.64 -24.76,-5.3 -40.95,-10.48 -48.56,-15.56 -11.64,-8.25 -17.46,-18.72 -17.46,-31.41 0,-12.5 4.65,-23.29 13.97,-32.39 9.31,-9.09 21.15,-13.64 35.55,-13.64 16.07,0 31.41,5.28 46.02,15.87 10.78,8.03 17.87,17.88 21.26,29.51 2.33,7.62 3.49,22.11 3.49,43.48 z m -119.34,72.36 -80.93,14.6 c 9.1,32.58 24.76,56.7 46.98,72.37 22.21,15.65 55.22,23.48 99.02,23.48 39.78,0 69.39,-4.71 88.87,-14.12 19.46,-9.42 33.16,-21.38 41.1,-35.87 7.93,-14.49 11.9,-41.09 11.9,-79.82 l -0.95,-104.1 c 0,-29.62 1.42,-51.47 4.29,-65.54 2.85,-14.07 8.19,-29.15 16.02,-45.22 h -88.23 c -2.34,5.91 -5.19,14.7 -8.58,26.34 -1.47,5.28 -2.54,8.77 -3.16,10.47 -15.23,-14.81 -31.53,-25.92 -48.89,-33.32 -17.34,-7.41 -35.86,-11.11 -55.53,-11.11 -34.71,0 -62.05,9.41 -82.04,28.24 -20,18.84 -30,42.64 -30,71.41 0,19.05 4.55,36.03 13.65,50.94 9.09,14.92 21.84,26.35 38.24,34.28 16.4,7.94 40.04,14.86 70.94,20.79 41.68,7.82 70.56,15.13 86.64,21.9 v 8.88 c 0,17.15 -4.23,29.37 -12.7,36.66 -8.45,7.31 -24.43,10.96 -47.92,10.96 -15.87,0 -28.25,-3.12 -37.14,-9.37 -8.88,-6.25 -16.07,-17.19 -21.58,-32.85"
         style="fill:#ffffff;fill-opacity:1;fill-rule:nonzero;stroke:none"
         id="path62" /><path
         d="M 3468.38,520.629 V 985.91 h 345 V 907.199 H 3562.32 V 804.051 h 233.6 V 725.66 h -233.6 V 599.031 h 259.95 v -78.402 h -353.89"
         style="fill:#ffffff;fill-opacity:1;fill-rule:nonzero;stroke:none"
         id="path64" /><path
         d="m 4123.14,520.629 v 50.473 c -12.27,-17.993 -28.4,-32.172 -48.39,-42.543 -20,-10.36 -41.11,-15.547 -63.32,-15.547 -22.65,0 -42.96,4.968 -60.94,14.918 -17.99,9.941 -31,23.91 -39.03,41.898 -8.05,17.981 -12.08,42.844 -12.08,74.582 v 213.281 h 89.19 V 702.809 c 0,-47.411 1.64,-76.438 4.93,-87.118 3.27,-10.703 9.24,-19.152 17.93,-25.39 8.67,-6.25 19.67,-9.371 33,-9.371 15.24,0 28.88,4.179 40.95,12.539 12.05,8.351 20.31,18.722 24.75,31.101 4.45,12.379 6.67,42.692 6.67,90.93 v 142.191 h 89.19 V 520.629 h -82.85"
         style="fill:#ffffff;fill-opacity:1;fill-rule:nonzero;stroke:none"
         id="path66" /><path
         d="m 4383.71,520.629 h -89.18 v 337.062 h 82.83 V 809.77 c 14.17,22.64 26.93,37.55 38.25,44.75 11.31,7.179 24.17,10.789 38.56,10.789 20.31,0 39.88,-5.61 58.72,-16.829 l -27.62,-77.75 c -15.03,9.719 -28.99,14.598 -41.89,14.598 -12.49,0 -23.07,-3.437 -31.74,-10.316 -8.68,-6.883 -15.5,-19.313 -20.47,-37.293 -4.98,-17.989 -7.46,-55.66 -7.46,-112.989 V 520.629"
         style="fill:#ffffff;fill-opacity:1;fill-rule:nonzero;stroke:none"
         id="path68" /><path
         d="m 4622.07,689.16 c 0,-33.43 7.94,-59.039 23.8,-76.808 15.88,-17.782 35.44,-26.661 58.72,-26.661 23.27,0 42.79,8.879 58.55,26.661 15.77,17.769 23.65,43.589 23.65,77.437 0,33.012 -7.88,58.402 -23.65,76.172 -15.76,17.769 -35.28,26.66 -58.55,26.66 -23.28,0 -42.84,-8.891 -58.72,-26.66 -15.86,-17.77 -23.8,-43.371 -23.8,-76.801 z m -91.41,4.762 c 0,29.617 7.3,58.289 21.91,86.008 14.59,27.718 35.27,48.879 62.04,63.468 26.77,14.614 56.65,21.911 89.66,21.911 50.99,0 92.78,-16.571 125.37,-49.668 32.58,-33.121 48.88,-74.961 48.88,-125.532 0,-50.988 -16.46,-93.257 -49.36,-126.8 -32.9,-33.528 -74.32,-50.297 -124.25,-50.297 -30.9,0 -60.36,6.976 -88.4,20.949 -28.03,13.961 -49.35,34.43 -63.94,61.41 -14.61,26.981 -21.91,59.828 -21.91,98.551"
         style="fill:#ffffff;fill-opacity:1;fill-rule:nonzero;stroke:none"
         id="path70" /><path
         d="m 5034.02,694.871 c 0,-37.871 7.51,-65.851 22.54,-83.949 15.02,-18.082 33.32,-27.133 54.9,-27.133 20.75,0 37.98,8.301 51.74,24.91 13.75,16.61 20.63,43.852 20.63,81.731 0,35.34 -7.09,61.57 -21.26,78.711 -14.18,17.129 -31.74,25.711 -52.69,25.711 -21.79,0 -39.88,-8.411 -54.27,-25.243 -14.39,-16.808 -21.59,-41.738 -21.59,-74.738 z m -88.22,162.82 h 83.15 V 808.18 c 10.8,16.922 25.39,30.672 43.8,41.261 18.4,10.571 38.82,15.868 61.25,15.868 39.14,0 72.37,-15.348 99.66,-46.028 27.3,-30.672 40.95,-73.422 40.95,-128.222 0,-56.278 -13.76,-100.028 -41.27,-131.231 -27.5,-31.207 -60.83,-46.816 -99.97,-46.816 -18.62,0 -35.5,3.699 -50.63,11.109 -15.12,7.41 -31.05,20.098 -47.76,38.09 V 392.41 h -89.18 v 465.281"
         style="fill:#ffffff;fill-opacity:1;fill-rule:nonzero;stroke:none"
         id="path72" /><path
         d="m 5416.16,689.16 c 0,-33.43 7.94,-59.039 23.8,-76.808 15.88,-17.782 35.44,-26.661 58.72,-26.661 23.27,0 42.79,8.879 58.56,26.661 15.76,17.769 23.64,43.589 23.64,77.437 0,33.012 -7.88,58.402 -23.64,76.172 -15.77,17.769 -35.29,26.66 -58.56,26.66 -23.28,0 -42.84,-8.891 -58.72,-26.66 -15.86,-17.77 -23.8,-43.371 -23.8,-76.801 z m -91.4,4.762 c 0,29.617 7.29,58.289 21.9,86.008 14.59,27.718 35.27,48.879 62.04,63.468 26.77,14.614 56.65,21.911 89.66,21.911 51,0 92.78,-16.571 125.37,-49.668 32.58,-33.121 48.88,-74.961 48.88,-125.532 0,-50.988 -16.46,-93.257 -49.36,-126.8 -32.9,-33.528 -74.31,-50.297 -124.25,-50.297 -30.89,0 -60.36,6.976 -88.39,20.949 -28.04,13.961 -49.36,34.43 -63.95,61.41 -14.61,26.981 -21.9,59.828 -21.9,98.551"
         style="fill:#ffffff;fill-opacity:1;fill-rule:nonzero;stroke:none"
         id="path74" /><path
         d="m 5711.02,616.801 89.5,13.64 c 3.81,-17.351 11.53,-30.519 23.17,-39.511 11.63,-8.989 27.93,-13.481 48.87,-13.481 23.07,0 40.42,4.223 52.05,12.692 7.83,5.918 11.75,13.847 11.75,23.8 0,6.77 -2.12,12.368 -6.35,16.829 -4.44,4.218 -14.39,8.128 -29.83,11.73 -71.95,15.871 -117.54,30.371 -136.8,43.48 -26.66,18.2 -39.98,43.489 -39.98,75.86 0,29.199 11.52,53.742 34.59,73.629 23.05,19.89 58.82,29.84 107.27,29.84 46.13,0 80.4,-7.508 102.84,-22.528 22.42,-15.031 37.87,-37.25 46.33,-66.66 l -84.1,-15.551 c -3.6,13.121 -10.43,23.16 -20.48,30.16 -10.05,6.969 -24.38,10.469 -42.99,10.469 -23.5,0 -40.32,-3.289 -50.47,-9.847 -6.78,-4.653 -10.16,-10.68 -10.16,-18.082 0,-6.348 2.96,-11.739 8.89,-16.2 8.03,-5.91 35.81,-14.269 83.31,-25.058 47.5,-10.801 80.66,-24.024 99.5,-39.684 18.61,-15.859 27.93,-37.976 27.93,-66.328 0,-30.898 -12.91,-57.441 -38.72,-79.672 -25.82,-22.207 -64.01,-33.316 -114.58,-33.316 -45.91,0 -82.26,9.308 -109.02,27.929 -26.76,18.61 -44.27,43.911 -52.52,75.86"
         style="fill:#ffffff;fill-opacity:1;fill-rule:nonzero;stroke:none"
         id="path76" /><path
         d="m 6261.36,672.02 91.4,8.878 c 5.5,-30.668 16.66,-53.207 33.49,-67.597 16.82,-14.391 39.51,-21.582 68.08,-21.582 30.25,0 53.05,6.402 68.39,19.203 15.34,12.797 23.01,27.777 23.01,44.906 0,11.004 -3.23,20.371 -9.68,28.094 -6.45,7.719 -17.72,14.437 -33.8,20.156 -11,3.801 -36.08,10.57 -75.22,20.313 -50.36,12.48 -85.69,27.82 -106,46.019 -28.57,25.602 -42.85,56.809 -42.85,93.629 0,23.691 6.71,45.859 20.15,66.492 13.44,20.629 32.79,36.34 58.09,47.129 25.28,10.789 55.8,16.192 91.56,16.192 58.4,0 102.35,-12.813 131.87,-38.411 29.52,-25.601 45.01,-59.769 46.5,-102.511 l -93.95,-4.129 c -4.02,23.91 -12.64,41.109 -25.87,51.57 -13.22,10.481 -33.05,15.719 -59.5,15.719 -27.3,0 -48.67,-5.61 -64.12,-16.828 -9.94,-7.192 -14.91,-16.813 -14.91,-28.883 0,-11 4.65,-20.418 13.96,-28.25 11.85,-9.938 40.63,-20.309 86.33,-31.09 45.7,-10.801 79.5,-21.961 101.41,-33.488 21.89,-11.531 39.03,-27.289 51.41,-47.289 12.38,-19.992 18.57,-44.703 18.57,-74.102 0,-26.66 -7.41,-51.629 -22.22,-74.91 -14.81,-23.281 -35.76,-40.57 -62.84,-51.891 -27.09,-11.32 -60.83,-16.98 -101.24,-16.98 -58.83,0 -104,13.59 -135.53,40.781 -31.53,27.192 -50.36,66.801 -56.49,118.86"
         style="fill:#ffffff;fill-opacity:1;fill-rule:nonzero;stroke:none"
         id="path78" /><path
         d="m 6990.69,520.629 c -4.02,-2.957 -7.67,-6.399 -10.94,-10.309 -3.29,-3.922 -6.09,-8.101 -8.42,-12.539 -2.33,-4.453 -4.12,-8.941 -5.39,-13.492 -1.27,-4.551 -1.91,-8.93 -1.91,-13.168 0,-6.992 1.85,-12.851 5.56,-17.621 3.7,-4.762 9.88,-7.141 18.56,-7.141 3.81,0 8.1,0.692 12.86,2.063 4.76,1.379 9.25,2.699 13.48,3.969 v -53 c -17.77,-8.461 -33.75,-12.7 -47.92,-12.7 -11.85,0 -22.11,1.59 -30.79,4.758 -8.67,3.18 -15.92,7.52 -21.74,13.02 -5.82,5.5 -10.15,11.902 -13,19.203 -2.87,7.297 -4.29,15.066 -4.29,23.328 0,12.27 3.7,25.07 11.1,38.391 7.41,13.339 17.36,25.078 29.85,35.238 z m -86.65,161.859 c -11.42,-3.797 -29.51,-8.359 -54.26,-13.636 -24.76,-5.293 -40.95,-10.481 -48.57,-15.563 -11.63,-8.25 -17.45,-18.719 -17.45,-31.41 0,-12.488 4.65,-23.277 13.96,-32.379 9.31,-9.102 21.16,-13.648 35.55,-13.648 16.08,0 31.42,5.289 46.03,15.867 10.78,8.043 17.87,17.883 21.26,29.511 2.32,7.622 3.48,22.11 3.48,43.489 z m -119.33,72.371 -80.93,14.602 c 9.09,32.578 24.76,56.699 46.97,72.359 22.22,15.649 55.23,23.489 99.03,23.489 39.77,0 69.39,-4.707 88.86,-14.118 19.47,-9.429 33.17,-21.382 41.11,-35.871 7.93,-14.5 11.89,-41.101 11.89,-79.832 l -0.95,-104.097 c 0,-29.621 1.43,-51.461 4.29,-65.539 2.85,-14.071 8.19,-29.153 16.03,-45.223 h -88.24 c -2.33,5.922 -5.18,14.711 -8.57,26.351 -1.48,5.282 -2.54,8.77 -3.16,10.469 -15.24,-14.82 -31.54,-25.918 -48.89,-33.328 -17.35,-7.41 -35.86,-11.109 -55.54,-11.109 -34.71,0 -62.05,9.418 -82.04,28.238 -20,18.84 -30,42.641 -30,71.422 0,19.039 4.55,36.027 13.65,50.937 9.09,14.922 21.85,26.352 38.24,34.27 16.4,7.941 40.04,14.871 70.94,20.801 41.68,7.82 70.57,15.121 86.64,21.89 v 8.891 c 0,17.148 -4.23,29.359 -12.69,36.66 -8.46,7.301 -24.44,10.949 -47.92,10.949 -15.87,0 -28.25,-3.121 -37.14,-9.359 -8.89,-6.25 -16.08,-17.199 -21.58,-32.852"
         style="fill:#ffffff;fill-opacity:1;fill-rule:nonzero;stroke:none"
         id="path80" /><path
         d="m 7077.66,903.391 v 82.519 h 89.19 v -82.519 z m 89.19,-45.7 V 531.102 c 0,-42.954 -2.81,-73.25 -8.41,-90.93 -5.62,-17.672 -16.41,-31.473 -32.38,-41.422 -15.97,-9.941 -36.33,-14.922 -61.1,-14.922 -8.89,0 -18.46,0.801 -28.72,2.383 -10.25,1.598 -21.31,3.969 -33.16,7.148 l 15.55,76.172 c 4.23,-0.84 8.2,-1.531 11.9,-2.07 3.7,-0.52 7.15,-0.789 10.31,-0.789 9.1,0 16.56,1.969 22.38,5.867 5.81,3.922 9.68,8.633 11.58,14.121 1.91,5.512 2.86,22.02 2.86,49.52 v 321.511 h 89.19"
         style="fill:#ffffff;fill-opacity:1;fill-rule:nonzero;stroke:none"
         id="path82" /><path
         d="m 7482,520.629 v 50.473 c -12.27,-17.993 -28.41,-32.172 -48.4,-42.543 -20,-10.36 -41.1,-15.547 -63.32,-15.547 -22.64,0 -42.96,4.968 -60.93,14.918 -17.99,9.941 -31,23.91 -39.04,41.898 -8.04,17.981 -12.07,42.844 -12.07,74.582 v 213.281 h 89.19 V 702.809 c 0,-47.411 1.64,-76.438 4.92,-87.118 3.28,-10.703 9.25,-19.152 17.93,-25.39 8.68,-6.25 19.68,-9.371 33.01,-9.371 15.24,0 28.88,4.179 40.95,12.539 12.05,8.351 20.31,18.722 24.74,31.101 4.46,12.379 6.67,42.692 6.67,90.93 v 142.191 h 89.19 V 520.629 H 7482"
         style="fill:#ffffff;fill-opacity:1;fill-rule:nonzero;stroke:none"
         id="path84" /><path
         d="m 7963.79,520.629 h -89.18 v 172.019 c 0,36.391 -1.9,59.93 -5.71,70.622 -3.81,10.679 -10,18.992 -18.57,24.921 -8.57,5.918 -18.88,8.879 -30.95,8.879 -15.44,0 -29.3,-4.23 -41.57,-12.691 -12.27,-8.469 -20.69,-19.688 -25.23,-33.649 -4.55,-13.968 -6.83,-39.781 -6.83,-77.441 v -152.66 h -89.19 v 337.062 h 82.84 V 808.18 c 29.41,38.082 66.44,57.129 111.09,57.129 19.68,0 37.65,-3.547 53.95,-10.637 16.29,-7.094 28.62,-16.133 36.98,-27.133 8.36,-11 14.18,-23.488 17.46,-37.461 3.27,-13.957 4.91,-33.949 4.91,-59.976 V 520.629"
         style="fill:#ffffff;fill-opacity:1;fill-rule:nonzero;stroke:none"
         id="path86" /><path
         d="m 8125.66,696.141 c 0,-35.762 6.93,-61.95 20.8,-78.551 13.85,-16.61 30.94,-24.91 51.25,-24.91 21.79,0 40.2,8.511 55.22,25.55 15.03,17.032 22.54,42.25 22.54,75.692 0,34.906 -7.2,60.828 -21.58,77.758 -14.4,16.929 -32.59,25.39 -54.59,25.39 -21.38,0 -38.99,-8.308 -52.84,-24.922 -13.87,-16.609 -20.8,-41.937 -20.8,-76.007 z M 8046,498.41 8147.88,486.039 c 1.69,-11.859 5.61,-20 11.75,-24.437 8.46,-6.352 21.79,-9.532 39.98,-9.532 23.28,0 40.73,3.5 52.37,10.469 7.82,4.66 13.75,12.18 17.78,22.539 2.74,7.41 4.13,21.063 4.13,40.942 v 49.199 c -26.66,-36.399 -60.32,-54.59 -100.94,-54.59 -45.27,0 -81.14,19.152 -107.59,57.441 -20.74,30.258 -31.1,67.93 -31.1,112.989 0,56.5 13.59,99.671 40.78,129.492 27.19,29.84 60.99,44.758 101.41,44.758 41.68,0 76.06,-18.297 103.14,-54.918 v 47.3 h 83.48 V 555.219 c 0,-39.778 -3.28,-69.5 -9.85,-89.18 -6.55,-19.68 -15.76,-35.117 -27.6,-46.34 -11.86,-11.211 -27.67,-19.988 -47.46,-26.34 -19.78,-6.339 -44.8,-9.531 -75.05,-9.531 -57.13,0 -97.65,9.801 -121.57,29.371 -23.9,19.571 -35.86,44.379 -35.86,74.422 0,2.969 0.11,6.559 0.32,10.789"
         style="fill:#ffffff;fill-opacity:1;fill-rule:nonzero;stroke:none"
         id="path88" /><path
         d="m 8522.07,689.16 c 0,-33.43 7.94,-59.039 23.8,-76.808 15.88,-17.782 35.44,-26.661 58.72,-26.661 23.27,0 42.79,8.879 58.55,26.661 15.77,17.769 23.65,43.589 23.65,77.437 0,33.012 -7.88,58.402 -23.65,76.172 -15.76,17.769 -35.28,26.66 -58.55,26.66 -23.28,0 -42.84,-8.891 -58.72,-26.66 -15.86,-17.77 -23.8,-43.371 -23.8,-76.801 z m -91.41,4.762 c 0,29.617 7.3,58.289 21.91,86.008 14.59,27.718 35.27,48.879 62.04,63.468 26.77,14.614 56.65,21.911 89.66,21.911 50.99,0 92.78,-16.571 125.37,-49.668 32.58,-33.121 48.88,-74.961 48.88,-125.532 0,-50.988 -16.46,-93.257 -49.36,-126.8 -32.9,-33.528 -74.32,-50.297 -124.25,-50.297 -30.9,0 -60.36,6.976 -88.4,20.949 -28.03,13.961 -49.35,34.43 -63.94,61.41 -14.61,26.981 -21.91,59.828 -21.91,98.551"
         style="fill:#ffffff;fill-opacity:1;fill-rule:nonzero;stroke:none"
         id="path90" /><path
         d="m 8816.91,616.801 89.51,13.64 c 3.8,-17.351 11.53,-30.519 23.17,-39.511 11.63,-8.989 27.93,-13.481 48.87,-13.481 23.06,0 40.42,4.223 52.05,12.692 7.83,5.918 11.75,13.847 11.75,23.8 0,6.77 -2.12,12.368 -6.35,16.829 -4.45,4.218 -14.4,8.128 -29.84,11.73 -71.94,15.871 -117.53,30.371 -136.79,43.48 -26.66,18.2 -39.98,43.489 -39.98,75.86 0,29.199 11.52,53.742 34.59,73.629 23.05,19.89 58.82,29.84 107.27,29.84 46.13,0 80.4,-7.508 102.83,-22.528 22.43,-15.031 37.88,-37.25 46.34,-66.66 l -84.1,-15.551 c -3.6,13.121 -10.43,23.16 -20.48,30.16 -10.05,6.969 -24.38,10.469 -43,10.469 -23.49,0 -40.31,-3.289 -50.46,-9.847 -6.78,-4.653 -10.16,-10.68 -10.16,-18.082 0,-6.348 2.96,-11.739 8.89,-16.2 8.03,-5.91 35.81,-14.269 83.31,-25.058 47.5,-10.801 80.66,-24.024 99.5,-39.684 18.61,-15.859 27.93,-37.976 27.93,-66.328 0,-30.898 -12.91,-57.441 -38.72,-79.672 -25.82,-22.207 -64.01,-33.316 -114.58,-33.316 -45.91,0 -82.26,9.308 -109.02,27.929 -26.76,18.61 -44.27,43.911 -52.53,75.86"
         style="fill:#ffffff;fill-opacity:1;fill-rule:nonzero;stroke:none"
         id="path92" /></g></g></svg>
