<?xml version="1.0" encoding="UTF-8" standalone="no"?>
<!-- Created with Inkscape (http://www.inkscape.org/) -->

<svg
   version="1.1"
   id="svg2"
   xml:space="preserve"
   width="1358.7333"
   height="284.66666"
   viewBox="0 0 1358.7333 284.66666"
   sodipodi:docname="MT Iffinanzjat mill-Unjoni Ewropea_NEG.eps"
   xmlns:inkscape="http://www.inkscape.org/namespaces/inkscape"
   xmlns:sodipodi="http://sodipodi.sourceforge.net/DTD/sodipodi-0.dtd"
   xmlns="http://www.w3.org/2000/svg"
   xmlns:svg="http://www.w3.org/2000/svg"><defs
     id="defs6" /><sodipodi:namedview
     id="namedview4"
     pagecolor="#ffffff"
     bordercolor="#666666"
     borderopacity="1.0"
     inkscape:pageshadow="2"
     inkscape:pageopacity="0.0"
     inkscape:pagecheckerboard="0" /><g
     id="g8"
     inkscape:groupmode="layer"
     inkscape:label="ink_ext_XXXXXX"
     transform="matrix(1.3333333,0,0,-1.3333333,0,284.66667)"><g
       id="g10"
       transform="scale(0.1)"><path
         d="M 164.473,71.0586 H 3113.93 V 2073.9 H 164.473 V 71.0586"
         style="fill:#ffffff;fill-opacity:1;fill-rule:nonzero;stroke:none"
         id="path12" /><path
         d="M 221.191,128.281 H 3057.22 V 2018.97 H 221.191 V 128.281"
         style="fill:#264ca4;fill-opacity:1;fill-rule:nonzero;stroke:none"
         id="path14" /><path
         d="m 1578.78,1607.02 59.83,43.67 59.86,-43.67 -22.79,70.63 60.79,43.67 h -74.93 l -22.93,71.48 -22.93,-71.56 -74.88,0.08 60.74,-43.67 -22.76,-70.63"
         style="fill:#f5f014;fill-opacity:1;fill-rule:nonzero;stroke:none"
         id="path16" /><path
         d="m 1269.08,1523.82 59.85,43.67 59.81,-43.67 -22.74,70.63 60.75,43.68 h -74.93 l -22.92,71.55 -22.93,-71.64 -74.9,0.09 60.75,-43.68 -22.74,-70.63"
         style="fill:#f5f014;fill-opacity:1;fill-rule:nonzero;stroke:none"
         id="path18" /><path
         d="m 1102.32,1482.57 -22.93,-71.64 -74.88,0.09 60.74,-43.68 -22.76,-70.63 59.83,43.68 59.85,-43.68 -22.78,70.63 60.75,43.68 h -74.89 l -22.93,71.55"
         style="fill:#f5f014;fill-opacity:1;fill-rule:nonzero;stroke:none"
         id="path20" /><path
         d="m 1019.21,1031.08 59.8,-43.658 -22.73,70.608 60.73,43.68 h -74.87 l -22.93,71.56 -22.933,-71.72 -74.922,0.16 60.786,-43.68 -22.778,-70.608 59.847,43.658"
         style="fill:#f5f014;fill-opacity:1;fill-rule:nonzero;stroke:none"
         id="path22" /><path
         d="m 1125.25,791.48 -22.93,71.559 -22.93,-71.641 -74.88,0.082 60.74,-43.66 -22.76,-70.64 59.83,43.75 59.85,-43.75 -22.78,70.64 60.75,43.66 h -74.89"
         style="fill:#f5f014;fill-opacity:1;fill-rule:nonzero;stroke:none"
         id="path24" /><path
         d="m 1352.29,564.461 -22.93,71.469 -22.9,-71.559 -74.92,0.09 60.75,-43.68 -22.73,-70.633 59.83,43.672 59.81,-43.672 -22.74,70.633 60.75,43.68 h -74.92"
         style="fill:#f5f014;fill-opacity:1;fill-rule:nonzero;stroke:none"
         id="path26" /><path
         d="m 1661.58,482.18 -22.93,71.558 -22.89,-71.636 -74.91,0.078 60.73,-43.668 -22.72,-70.633 59.83,43.68 59.81,-43.68 -22.78,70.633 60.78,43.668 h -74.92"
         style="fill:#f5f014;fill-opacity:1;fill-rule:nonzero;stroke:none"
         id="path28" /><path
         d="m 1970.89,564.461 -22.89,71.469 -22.97,-71.559 -74.84,0.09 60.7,-43.68 -22.74,-70.633 59.85,43.672 59.83,-43.672 -22.8,70.633 60.78,43.68 h -74.92"
         style="fill:#f5f014;fill-opacity:1;fill-rule:nonzero;stroke:none"
         id="path30" /><path
         d="m 2198,791.48 -22.97,71.559 -22.97,-71.641 -74.84,0.082 60.78,-43.66 -22.81,-70.64 59.84,43.75 59.83,-43.75 -22.8,70.64 60.77,43.66 H 2198"
         style="fill:#f5f014;fill-opacity:1;fill-rule:nonzero;stroke:none"
         id="path32" /><path
         d="m 2355.11,1102.57 h -74.92 l -22.97,71.57 -22.89,-71.65 -74.93,0.08 60.79,-43.67 -22.75,-70.619 59.78,43.749 59.84,-43.749 -22.73,70.619 60.78,43.67"
         style="fill:#f5f014;fill-opacity:1;fill-rule:nonzero;stroke:none"
         id="path34" /><path
         d="m 2115.18,1297.66 59.84,43.66 59.84,-43.66 -22.8,70.63 60.77,43.59 h -74.84 l -22.97,71.55 -22.96,-71.64 -74.85,0.09 60.78,-43.59 -22.81,-70.63"
         style="fill:#f5f014;fill-opacity:1;fill-rule:nonzero;stroke:none"
         id="path36" /><path
         d="m 1948.86,1709.6 -22.89,-71.64 -74.93,0.17 60.71,-43.75 -22.74,-70.64 59.93,43.75 59.75,-43.75 -22.72,70.64 60.78,43.75 h -75 l -22.89,71.47"
         style="fill:#f5f014;fill-opacity:1;fill-rule:nonzero;stroke:none"
         id="path38" /><path
         d="m 3465.53,1280.63 v 465.28 h 93.94 v -465.28 h -93.94"
         style="fill:#ffffff;fill-opacity:1;fill-rule:nonzero;stroke:none"
         id="path40" /><path
         d="m 4060.94,1280.63 v 337.05 h 89.18 v -337.05 z m 0,382.76 v 82.52 h 89.18 v -82.52 z m -451.64,-45.71 h 49.51 v 25.39 c 0,28.36 3.02,49.52 9.04,63.48 6.04,13.97 17.14,25.33 33.33,34.12 16.18,8.78 36.65,13.18 61.42,13.18 25.39,0 50.24,-3.81 74.58,-11.43 l -12.06,-62.21 c -14.18,3.38 -27.83,5.08 -40.94,5.08 -12.91,0 -22.17,-3.02 -27.77,-9.05 -5.62,-6.03 -8.42,-17.61 -8.42,-34.76 v -23.8 h 111.4 v 25.39 c 0,28.36 3.02,49.52 9.05,63.48 6.03,13.97 17.14,25.33 33.33,34.12 16.18,8.78 36.65,13.18 61.41,13.18 25.39,0 50.25,-3.81 74.58,-11.43 l -12.06,-62.21 c -14.18,3.38 -27.82,5.08 -40.93,5.08 -12.91,0 -22.17,-3.02 -27.78,-9.05 -5.61,-6.03 -8.42,-17.61 -8.42,-34.76 v -23.8 h 66.66 v -70.14 h -66.66 v -266.91 h -89.18 v 266.91 h -111.4 v -266.91 h -89.18 v 266.91 h -49.51 v 70.14"
         style="fill:#ffffff;fill-opacity:1;fill-rule:nonzero;stroke:none"
         id="path42" /><path
         d="m 4550.98,1280.63 h -89.18 v 172.01 c 0,36.39 -1.91,59.94 -5.72,70.62 -3.8,10.69 -10,18.99 -18.56,24.92 -8.57,5.92 -18.89,8.89 -30.95,8.89 -15.45,0 -29.3,-4.24 -41.57,-12.69 -12.28,-8.47 -20.69,-19.69 -25.23,-33.66 -4.56,-13.96 -6.83,-39.77 -6.83,-77.44 v -152.65 h -89.19 v 337.05 h 82.84 v -49.51 c 29.41,38.09 66.44,57.13 111.09,57.13 19.67,0 37.65,-3.54 53.95,-10.63 16.29,-7.09 28.61,-16.13 36.97,-27.13 8.36,-11.01 14.18,-23.5 17.46,-37.46 3.28,-13.97 4.92,-33.96 4.92,-59.98 v -209.47"
         style="fill:#ffffff;fill-opacity:1;fill-rule:nonzero;stroke:none"
         id="path44" /><path
         d="m 4827.41,1442.49 c -11.42,-3.81 -29.51,-8.36 -54.27,-13.64 -24.75,-5.3 -40.94,-10.48 -48.56,-15.56 -11.63,-8.25 -17.45,-18.72 -17.45,-31.41 0,-12.5 4.65,-23.29 13.96,-32.39 9.31,-9.09 21.16,-13.64 35.55,-13.64 16.07,0 31.42,5.28 46.03,15.87 10.78,8.03 17.87,17.88 21.26,29.51 2.32,7.62 3.48,22.11 3.48,43.48 z m -119.33,72.36 -80.93,14.6 c 9.09,32.58 24.75,56.7 46.97,72.37 22.22,15.65 55.23,23.48 99.02,23.48 39.78,0 69.4,-4.71 88.87,-14.12 19.46,-9.42 33.17,-21.38 41.11,-35.87 7.92,-14.49 11.89,-41.09 11.89,-79.82 l -0.95,-104.1 c 0,-29.62 1.43,-51.47 4.29,-65.54 2.85,-14.07 8.19,-29.15 16.03,-45.22 h -88.24 c -2.33,5.91 -5.18,14.7 -8.57,26.34 -1.48,5.28 -2.54,8.77 -3.17,10.47 -15.23,-14.81 -31.53,-25.92 -48.88,-33.32 -17.35,-7.41 -35.86,-11.11 -55.54,-11.11 -34.71,0 -62.05,9.41 -82.04,28.24 -20,18.84 -30,42.64 -30,71.41 0,19.05 4.55,36.03 13.65,50.94 9.09,14.92 21.85,26.35 38.24,34.28 16.4,7.94 40.04,14.86 70.94,20.79 41.68,7.82 70.57,15.13 86.64,21.9 v 8.88 c 0,17.15 -4.23,29.37 -12.69,36.66 -8.46,7.31 -24.44,10.96 -47.92,10.96 -15.87,0 -28.26,-3.12 -37.14,-9.37 -8.89,-6.25 -16.08,-17.19 -21.58,-32.85"
         style="fill:#ffffff;fill-opacity:1;fill-rule:nonzero;stroke:none"
         id="path46" /><path
         d="m 5309.51,1280.63 h -89.18 v 172.01 c 0,36.39 -1.9,59.94 -5.71,70.62 -3.81,10.69 -10,18.99 -18.57,24.92 -8.57,5.92 -18.88,8.89 -30.94,8.89 -15.45,0 -29.31,-4.24 -41.57,-12.69 -12.28,-8.47 -20.7,-19.69 -25.24,-33.66 -4.55,-13.96 -6.83,-39.77 -6.83,-77.44 v -152.65 h -89.18 v 337.05 h 82.84 v -49.51 c 29.4,38.09 66.43,57.13 111.08,57.13 19.68,0 37.66,-3.54 53.96,-10.63 16.29,-7.09 28.61,-16.13 36.97,-27.13 8.36,-11.01 14.18,-23.5 17.46,-37.46 3.27,-13.97 4.91,-33.96 4.91,-59.98 v -209.47"
         style="fill:#ffffff;fill-opacity:1;fill-rule:nonzero;stroke:none"
         id="path48" /><path
         d="m 5364.11,1280.63 v 69.51 l 126.32,145.04 c 20.73,23.69 36.07,40.51 46.02,50.46 -10.37,-0.64 -24.02,-1.06 -40.94,-1.26 l -119.03,-0.65 v 73.95 h 278.68 v -63.15 L 5526.29,1406 l -45.38,-49.2 c 24.75,1.47 40.1,2.22 46.02,2.22 h 138.06 v -78.39 h -300.88"
         style="fill:#ffffff;fill-opacity:1;fill-rule:nonzero;stroke:none"
         id="path50" /><path
         d="m 5723.07,1663.39 v 82.52 h 89.19 v -82.52 z m 89.19,-45.71 v -326.59 c 0,-42.95 -2.81,-73.25 -8.41,-90.93 -5.62,-17.66 -16.41,-31.46 -32.38,-41.41 -15.97,-9.94 -36.33,-14.92 -61.1,-14.92 -8.89,0 -18.46,0.8 -28.72,2.38 -10.25,1.59 -21.31,3.97 -33.16,7.15 l 15.55,76.17 c 4.23,-0.85 8.2,-1.53 11.9,-2.07 3.7,-0.53 7.15,-0.79 10.31,-0.79 9.1,0 16.56,1.96 22.38,5.87 5.81,3.91 9.68,8.62 11.58,14.12 1.91,5.51 2.86,22.01 2.86,49.51 v 321.51 h 89.19"
         style="fill:#ffffff;fill-opacity:1;fill-rule:nonzero;stroke:none"
         id="path52" /><path
         d="m 6091.54,1442.49 c -11.42,-3.81 -29.51,-8.36 -54.26,-13.64 -24.76,-5.3 -40.95,-10.48 -48.57,-15.56 -11.63,-8.25 -17.45,-18.72 -17.45,-31.41 0,-12.5 4.65,-23.29 13.96,-32.39 9.31,-9.09 21.16,-13.64 35.55,-13.64 16.08,0 31.42,5.28 46.03,15.87 10.78,8.03 17.87,17.88 21.26,29.51 2.32,7.62 3.48,22.11 3.48,43.48 z m -119.33,72.36 -80.93,14.6 c 9.09,32.58 24.76,56.7 46.97,72.37 22.22,15.65 55.23,23.48 99.03,23.48 39.77,0 69.39,-4.71 88.86,-14.12 19.47,-9.42 33.17,-21.38 41.11,-35.87 7.93,-14.49 11.89,-41.09 11.89,-79.82 l -0.95,-104.1 c 0,-29.62 1.43,-51.47 4.29,-65.54 2.85,-14.07 8.19,-29.15 16.03,-45.22 h -88.24 c -2.33,5.91 -5.18,14.7 -8.57,26.34 -1.48,5.28 -2.54,8.77 -3.16,10.47 -15.24,-14.81 -31.54,-25.92 -48.89,-33.32 -17.35,-7.41 -35.86,-11.11 -55.54,-11.11 -34.71,0 -62.05,9.41 -82.04,28.24 -20,18.84 -30,42.64 -30,71.41 0,19.05 4.55,36.03 13.65,50.94 9.09,14.92 21.85,26.35 38.24,34.28 16.4,7.94 40.04,14.86 70.94,20.79 41.68,7.82 70.57,15.13 86.64,21.9 v 8.88 c 0,17.15 -4.23,29.37 -12.69,36.66 -8.46,7.31 -24.44,10.96 -47.92,10.96 -15.87,0 -28.25,-3.12 -37.14,-9.37 -8.89,-6.25 -16.08,-17.19 -21.58,-32.85"
         style="fill:#ffffff;fill-opacity:1;fill-rule:nonzero;stroke:none"
         id="path54" /><path
         d="m 6421.63,1617.68 v -71.09 h -60.94 v -135.84 c 0,-27.51 0.58,-43.54 1.75,-48.09 1.16,-4.55 3.81,-8.3 7.93,-11.25 4.13,-2.97 9.15,-4.46 15.08,-4.46 8.25,0 20.2,2.86 35.86,8.58 l 7.62,-69.19 c -20.74,-8.89 -44.22,-13.33 -70.45,-13.33 -16.09,0 -30.59,2.69 -43.49,8.09 -12.91,5.39 -22.37,12.38 -28.41,20.95 -6.02,8.56 -10.2,20.16 -12.54,34.75 -1.89,10.37 -2.85,31.31 -2.85,62.85 v 146.94 h -40.94 v 71.09 h 40.94 v 66.97 l 89.5,52.05 v -119.02 h 60.94"
         style="fill:#ffffff;fill-opacity:1;fill-rule:nonzero;stroke:none"
         id="path56" /><path
         d="m 3461.08,837.691 h 82.2 V 791.66 c 29.42,35.77 64.43,53.649 105.06,53.649 21.58,0 40.31,-4.45 56.17,-13.329 15.88,-8.89 28.89,-22.332 39.04,-40.32 14.81,17.988 30.79,31.43 47.93,40.32 17.13,8.879 35.43,13.329 54.91,13.329 24.75,0 45.7,-5.028 62.84,-15.079 17.14,-10.05 29.94,-24.808 38.41,-44.269 6.13,-14.391 9.2,-37.672 9.2,-69.82 V 500.629 h -89.18 v 192.66 c 0,33.422 -3.08,55 -9.21,64.742 -8.25,12.699 -20.95,19.039 -38.09,19.039 -12.49,0 -24.23,-3.8 -35.22,-11.422 -11.01,-7.617 -18.95,-18.789 -23.81,-33.488 -4.87,-14.699 -7.31,-37.93 -7.31,-69.672 V 500.629 h -89.18 v 184.723 c 0,32.789 -1.58,53.949 -4.76,63.468 -3.17,9.52 -8.09,16.61 -14.76,21.258 -6.66,4.66 -15.71,6.992 -27.14,6.992 -13.75,0 -26.13,-3.711 -37.13,-11.109 -11,-7.41 -18.88,-18.09 -23.64,-32.051 -4.76,-13.961 -7.14,-37.14 -7.14,-69.512 V 500.629 h -89.19 v 337.062"
         style="fill:#ffffff;fill-opacity:1;fill-rule:nonzero;stroke:none"
         id="path58" /><path
         d="m 4045.7,500.629 v 337.062 h 89.18 V 500.629 Z m 0,382.762 v 82.519 h 89.18 v -82.519 h -89.18"
         style="fill:#ffffff;fill-opacity:1;fill-rule:nonzero;stroke:none"
         id="path60" /><path
         d="M 4226.3,500.629 V 965.91 h 89.18 V 500.629 h -89.18"
         style="fill:#ffffff;fill-opacity:1;fill-rule:nonzero;stroke:none"
         id="path62" /><path
         d="M 4406.89,500.629 V 965.91 h 89.18 V 500.629 h -89.18"
         style="fill:#ffffff;fill-opacity:1;fill-rule:nonzero;stroke:none"
         id="path64" /><path
         d="m 4577.32,624.73 v 89.18 h 175.2 v -89.18 h -175.2"
         style="fill:#ffffff;fill-opacity:1;fill-rule:nonzero;stroke:none"
         id="path66" /><path
         d="m 4803.94,965.91 h 93.94 v -252 c 0,-39.988 1.15,-65.91 3.49,-77.75 4.01,-19.051 13.59,-34.34 28.72,-45.871 15.12,-11.539 35.81,-17.301 62.05,-17.301 26.66,0 46.76,5.453 60.3,16.352 13.54,10.89 21.69,24.281 24.44,40.148 2.75,15.871 4.13,42.211 4.13,79.032 v 257.39 h 93.94 V 721.531 c 0,-55.859 -2.54,-95.332 -7.62,-118.383 -5.07,-23.07 -14.44,-42.539 -28.08,-58.398 -13.65,-15.879 -31.9,-28.52 -54.75,-37.93 -22.85,-9.41 -52.69,-14.121 -89.51,-14.121 -44.43,0 -78.12,5.129 -101.08,15.391 -22.96,10.25 -41.11,23.582 -54.43,39.992 -13.34,16.398 -22.12,33.578 -26.35,51.566 -6.14,26.661 -9.19,66.024 -9.19,118.071 V 965.91"
         style="fill:#ffffff;fill-opacity:1;fill-rule:nonzero;stroke:none"
         id="path68" /><path
         d="m 5579.92,500.629 h -89.18 v 172.019 c 0,36.391 -1.9,59.93 -5.71,70.622 -3.81,10.679 -10,18.992 -18.57,24.921 -8.57,5.918 -18.88,8.879 -30.94,8.879 -15.45,0 -29.31,-4.23 -41.57,-12.691 -12.28,-8.469 -20.7,-19.688 -25.24,-33.649 -4.55,-13.968 -6.83,-39.781 -6.83,-77.441 v -152.66 h -89.18 v 337.062 h 82.84 V 788.18 c 29.4,38.082 66.43,57.129 111.08,57.129 19.68,0 37.66,-3.547 53.96,-10.637 16.29,-7.094 28.61,-16.133 36.97,-27.133 8.36,-11 14.18,-23.488 17.46,-37.461 3.27,-13.957 4.91,-33.949 4.91,-59.976 V 500.629"
         style="fill:#ffffff;fill-opacity:1;fill-rule:nonzero;stroke:none"
         id="path70" /><path
         d="m 5668.48,883.391 v 82.519 h 89.19 v -82.519 z m 89.19,-45.7 V 511.102 c 0,-42.954 -2.81,-73.25 -8.41,-90.93 -5.62,-17.672 -16.41,-31.473 -32.38,-41.422 -15.97,-9.941 -36.33,-14.922 -61.1,-14.922 -8.89,0 -18.46,0.801 -28.72,2.383 -10.25,1.598 -21.31,3.969 -33.16,7.148 l 15.55,76.172 c 4.23,-0.84 8.2,-1.531 11.9,-2.07 3.7,-0.52 7.15,-0.789 10.31,-0.789 9.1,0 16.56,1.969 22.38,5.867 5.81,3.922 9.68,8.633 11.59,14.121 1.9,5.512 2.85,22.02 2.85,49.52 v 321.511 h 89.19"
         style="fill:#ffffff;fill-opacity:1;fill-rule:nonzero;stroke:none"
         id="path72" /><path
         d="m 5921.75,669.16 c 0,-33.43 7.94,-59.039 23.8,-76.808 15.88,-17.782 35.44,-26.661 58.72,-26.661 23.27,0 42.79,8.879 58.55,26.661 15.76,17.769 23.64,43.589 23.64,77.437 0,33.012 -7.88,58.402 -23.64,76.172 -15.76,17.769 -35.28,26.66 -58.55,26.66 -23.28,0 -42.84,-8.891 -58.72,-26.66 -15.86,-17.77 -23.8,-43.371 -23.8,-76.801 z m -91.41,4.762 c 0,29.617 7.3,58.289 21.91,86.008 14.59,27.718 35.27,48.879 62.04,63.468 26.76,14.614 56.65,21.911 89.66,21.911 50.99,0 92.78,-16.571 125.37,-49.668 32.57,-33.121 48.87,-74.961 48.87,-125.532 0,-50.988 -16.45,-93.257 -49.35,-126.8 -32.9,-33.528 -74.32,-50.297 -124.25,-50.297 -30.9,0 -60.36,6.976 -88.4,20.949 -28.04,13.961 -49.35,34.43 -63.94,61.41 -14.61,26.981 -21.91,59.828 -21.91,98.551"
         style="fill:#ffffff;fill-opacity:1;fill-rule:nonzero;stroke:none"
         id="path74" /><path
         d="m 6554.61,500.629 h -89.18 v 172.019 c 0,36.391 -1.9,59.93 -5.71,70.622 -3.81,10.679 -10,18.992 -18.57,24.921 -8.57,5.918 -18.88,8.879 -30.94,8.879 -15.45,0 -29.31,-4.23 -41.58,-12.691 -12.27,-8.469 -20.69,-19.688 -25.23,-33.649 -4.55,-13.968 -6.83,-39.781 -6.83,-77.441 v -152.66 h -89.19 v 337.062 h 82.84 V 788.18 c 29.41,38.082 66.44,57.129 111.09,57.129 19.68,0 37.65,-3.547 53.95,-10.637 16.29,-7.094 28.62,-16.133 36.98,-27.133 8.36,-11 14.18,-23.488 17.46,-37.461 3.27,-13.957 4.91,-33.949 4.91,-59.976 V 500.629"
         style="fill:#ffffff;fill-opacity:1;fill-rule:nonzero;stroke:none"
         id="path76" /><path
         d="m 6645.08,500.629 v 337.062 h 89.18 V 500.629 Z m 0,382.762 v 82.519 h 89.18 v -82.519 h -89.18"
         style="fill:#ffffff;fill-opacity:1;fill-rule:nonzero;stroke:none"
         id="path78" /><path
         d="M 7006.88,500.629 V 965.91 h 345 V 887.199 H 7100.82 V 784.051 h 233.59 V 705.66 H 7100.82 V 579.031 h 259.94 v -78.402 h -353.88"
         style="fill:#ffffff;fill-opacity:1;fill-rule:nonzero;stroke:none"
         id="path80" /><path
         d="M 7502.64,500.629 7396,837.691 h 86.65 l 63.15,-220.902 58.09,220.902 h 86.01 l 56.17,-220.902 64.44,220.902 h 87.91 L 7790.2,500.629 h -85.71 l -58.07,216.781 -57.13,-216.781 h -86.65"
         style="fill:#ffffff;fill-opacity:1;fill-rule:nonzero;stroke:none"
         id="path82" /><path
         d="m 8030.76,500.629 h -89.18 v 337.062 h 82.83 V 789.77 c 14.17,22.64 26.93,37.55 38.25,44.75 11.31,7.179 24.17,10.789 38.56,10.789 20.31,0 39.88,-5.61 58.72,-16.829 l -27.62,-77.75 c -15.03,9.719 -28.99,14.598 -41.89,14.598 -12.49,0 -23.07,-3.437 -31.74,-10.316 -8.68,-6.883 -15.5,-19.313 -20.47,-37.293 -4.98,-17.989 -7.46,-55.66 -7.46,-112.989 V 500.629"
         style="fill:#ffffff;fill-opacity:1;fill-rule:nonzero;stroke:none"
         id="path84" /><path
         d="m 8269.11,669.16 c 0,-33.43 7.94,-59.039 23.8,-76.808 15.88,-17.782 35.44,-26.661 58.72,-26.661 23.27,0 42.79,8.879 58.56,26.661 15.76,17.769 23.64,43.589 23.64,77.437 0,33.012 -7.88,58.402 -23.64,76.172 -15.77,17.769 -35.29,26.66 -58.56,26.66 -23.28,0 -42.84,-8.891 -58.72,-26.66 -15.86,-17.77 -23.8,-43.371 -23.8,-76.801 z m -91.4,4.762 c 0,29.617 7.29,58.289 21.9,86.008 14.59,27.718 35.27,48.879 62.04,63.468 26.77,14.614 56.65,21.911 89.66,21.911 50.99,0 92.78,-16.571 125.37,-49.668 32.58,-33.121 48.88,-74.961 48.88,-125.532 0,-50.988 -16.46,-93.257 -49.36,-126.8 -32.9,-33.528 -74.32,-50.297 -124.25,-50.297 -30.9,0 -60.36,6.976 -88.4,20.949 -28.03,13.961 -49.35,34.43 -63.94,61.41 -14.61,26.981 -21.9,59.828 -21.9,98.551"
         style="fill:#ffffff;fill-opacity:1;fill-rule:nonzero;stroke:none"
         id="path86" /><path
         d="m 8681.07,674.871 c 0,-37.871 7.51,-65.851 22.54,-83.949 15.02,-18.082 33.32,-27.133 54.91,-27.133 20.74,0 37.97,8.301 51.73,24.91 13.75,16.61 20.63,43.852 20.63,81.731 0,35.34 -7.09,61.57 -21.26,78.711 -14.18,17.129 -31.74,25.711 -52.69,25.711 -21.79,0 -39.88,-8.411 -54.27,-25.243 -14.39,-16.808 -21.59,-41.738 -21.59,-74.738 z m -88.22,162.82 H 8676 V 788.18 c 10.8,16.922 25.39,30.672 43.8,41.261 18.4,10.571 38.82,15.868 61.25,15.868 39.15,0 72.37,-15.348 99.66,-46.028 27.3,-30.672 40.95,-73.422 40.95,-128.222 0,-56.278 -13.76,-100.028 -41.27,-131.231 -27.5,-31.207 -60.83,-46.816 -99.97,-46.816 -18.62,0 -35.5,3.699 -50.63,11.109 -15.12,7.41 -31.05,20.098 -47.76,38.09 V 372.41 h -89.18 v 465.281"
         style="fill:#ffffff;fill-opacity:1;fill-rule:nonzero;stroke:none"
         id="path88" /><path
         d="m 9192.71,698.039 c -0.64,25.813 -7.3,45.441 -20,58.883 -12.69,13.43 -28.14,20.148 -46.34,20.148 -19.47,0 -35.55,-7.101 -48.24,-21.269 -12.7,-14.18 -18.94,-33.43 -18.73,-57.762 z m -5.08,-90.141 88.86,-14.91 c -11.42,-32.59 -29.46,-57.398 -54.11,-74.429 -24.66,-17.028 -55.5,-25.547 -92.52,-25.547 -58.61,0 -101.99,19.148 -130.12,57.437 -22.22,30.692 -33.33,69.41 -33.33,116.172 0,55.859 14.61,99.598 43.8,131.238 29.2,31.629 66.12,47.45 110.77,47.45 50.14,0 89.7,-16.571 118.7,-49.668 28.98,-33.121 42.84,-83.852 41.57,-152.192 h -223.44 c 0.65,-26.449 7.83,-47.027 21.58,-61.73 13.76,-14.699 30.9,-22.059 51.43,-22.059 13.97,0 25.7,3.809 35.22,11.43 9.53,7.609 16.71,19.879 21.59,36.808"
         style="fill:#ffffff;fill-opacity:1;fill-rule:nonzero;stroke:none"
         id="path90" /><path
         d="m 9539.91,662.488 c -11.42,-3.797 -29.51,-8.359 -54.27,-13.636 -24.75,-5.293 -40.94,-10.481 -48.56,-15.563 -11.63,-8.25 -17.45,-18.719 -17.45,-31.41 0,-12.488 4.65,-23.277 13.96,-32.379 9.31,-9.102 21.16,-13.648 35.55,-13.648 16.07,0 31.42,5.289 46.03,15.867 10.78,8.043 17.87,17.883 21.26,29.511 2.32,7.622 3.48,22.11 3.48,43.489 z m -119.33,72.371 -80.93,14.602 c 9.09,32.578 24.75,56.699 46.97,72.359 22.22,15.649 55.23,23.489 99.02,23.489 39.78,0 69.4,-4.707 88.87,-14.118 19.46,-9.429 33.17,-21.382 41.11,-35.871 7.92,-14.5 11.89,-41.101 11.89,-79.832 l -0.95,-104.097 c 0,-29.621 1.43,-51.461 4.29,-65.539 2.85,-14.071 8.19,-29.153 16.03,-45.223 h -88.24 c -2.33,5.922 -5.18,14.711 -8.57,26.351 -1.48,5.282 -2.54,8.77 -3.17,10.469 -15.23,-14.82 -31.53,-25.918 -48.88,-33.328 -17.35,-7.41 -35.86,-11.109 -55.54,-11.109 -34.71,0 -62.05,9.418 -82.04,28.238 -20,18.84 -30,42.641 -30,71.422 0,19.039 4.55,36.027 13.65,50.937 9.09,14.922 21.85,26.352 38.24,34.27 16.4,7.941 40.04,14.871 70.94,20.801 41.68,7.82 70.57,15.121 86.64,21.89 v 8.891 c 0,17.148 -4.23,29.359 -12.69,36.66 -8.46,7.301 -24.44,10.949 -47.92,10.949 -15.87,0 -28.26,-3.121 -37.14,-9.359 -8.89,-6.25 -16.08,-17.199 -21.58,-32.852"
         style="fill:#ffffff;fill-opacity:1;fill-rule:nonzero;stroke:none"
         id="path92" /></g></g></svg>
