<?xml version="1.0" encoding="UTF-8" standalone="no"?>
<!-- Created with Inkscape (http://www.inkscape.org/) -->

<svg
   version="1.1"
   id="svg2"
   xml:space="preserve"
   width="1358.7333"
   height="284.66666"
   viewBox="0 0 1358.7333 284.66666"
   sodipodi:docname="PL Finansowane przez Unię Europejską_NEG.eps"
   xmlns:inkscape="http://www.inkscape.org/namespaces/inkscape"
   xmlns:sodipodi="http://sodipodi.sourceforge.net/DTD/sodipodi-0.dtd"
   xmlns="http://www.w3.org/2000/svg"
   xmlns:svg="http://www.w3.org/2000/svg"><defs
     id="defs6" /><sodipodi:namedview
     id="namedview4"
     pagecolor="#ffffff"
     bordercolor="#666666"
     borderopacity="1.0"
     inkscape:pageshadow="2"
     inkscape:pageopacity="0.0"
     inkscape:pagecheckerboard="0" /><g
     id="g8"
     inkscape:groupmode="layer"
     inkscape:label="ink_ext_XXXXXX"
     transform="matrix(1.3333333,0,0,-1.3333333,0,284.66667)"><g
       id="g10"
       transform="scale(0.1)"><path
         d="M 164.473,71.0586 H 3113.93 V 2073.9 H 164.473 V 71.0586"
         style="fill:#ffffff;fill-opacity:1;fill-rule:nonzero;stroke:none"
         id="path12" /><path
         d="M 221.191,128.281 H 3057.22 V 2018.97 H 221.191 V 128.281"
         style="fill:#264ca4;fill-opacity:1;fill-rule:nonzero;stroke:none"
         id="path14" /><path
         d="m 1578.78,1607.02 59.83,43.67 59.86,-43.67 -22.79,70.63 60.79,43.67 h -74.93 l -22.93,71.48 -22.93,-71.56 -74.88,0.08 60.74,-43.67 -22.76,-70.63"
         style="fill:#f5f014;fill-opacity:1;fill-rule:nonzero;stroke:none"
         id="path16" /><path
         d="m 1269.08,1523.82 59.85,43.67 59.81,-43.67 -22.74,70.63 60.75,43.68 h -74.93 l -22.92,71.55 -22.93,-71.64 -74.9,0.09 60.75,-43.68 -22.74,-70.63"
         style="fill:#f5f014;fill-opacity:1;fill-rule:nonzero;stroke:none"
         id="path18" /><path
         d="m 1102.32,1482.57 -22.93,-71.64 -74.88,0.09 60.74,-43.68 -22.76,-70.63 59.83,43.68 59.85,-43.68 -22.78,70.63 60.75,43.68 h -74.89 l -22.93,71.55"
         style="fill:#f5f014;fill-opacity:1;fill-rule:nonzero;stroke:none"
         id="path20" /><path
         d="m 1019.21,1031.08 59.8,-43.658 -22.73,70.608 60.73,43.68 h -74.87 l -22.93,71.56 -22.933,-71.72 -74.922,0.16 60.786,-43.68 -22.778,-70.608 59.847,43.658"
         style="fill:#f5f014;fill-opacity:1;fill-rule:nonzero;stroke:none"
         id="path22" /><path
         d="m 1125.25,791.48 -22.93,71.559 -22.93,-71.641 -74.88,0.082 60.74,-43.66 -22.76,-70.64 59.83,43.75 59.85,-43.75 -22.78,70.64 60.75,43.66 h -74.89"
         style="fill:#f5f014;fill-opacity:1;fill-rule:nonzero;stroke:none"
         id="path24" /><path
         d="m 1352.29,564.461 -22.93,71.469 -22.9,-71.559 -74.92,0.09 60.75,-43.68 -22.73,-70.633 59.83,43.672 59.81,-43.672 -22.74,70.633 60.75,43.68 h -74.92"
         style="fill:#f5f014;fill-opacity:1;fill-rule:nonzero;stroke:none"
         id="path26" /><path
         d="m 1661.58,482.18 -22.93,71.558 -22.89,-71.636 -74.91,0.078 60.73,-43.668 -22.72,-70.633 59.83,43.68 59.81,-43.68 -22.78,70.633 60.78,43.668 h -74.92"
         style="fill:#f5f014;fill-opacity:1;fill-rule:nonzero;stroke:none"
         id="path28" /><path
         d="m 1970.89,564.461 -22.89,71.469 -22.97,-71.559 -74.84,0.09 60.7,-43.68 -22.74,-70.633 59.85,43.672 59.83,-43.672 -22.8,70.633 60.78,43.68 h -74.92"
         style="fill:#f5f014;fill-opacity:1;fill-rule:nonzero;stroke:none"
         id="path30" /><path
         d="m 2198,791.48 -22.97,71.559 -22.97,-71.641 -74.84,0.082 60.78,-43.66 -22.81,-70.64 59.84,43.75 59.83,-43.75 -22.8,70.64 60.77,43.66 H 2198"
         style="fill:#f5f014;fill-opacity:1;fill-rule:nonzero;stroke:none"
         id="path32" /><path
         d="m 2355.11,1102.57 h -74.92 l -22.97,71.57 -22.89,-71.65 -74.93,0.08 60.79,-43.67 -22.75,-70.619 59.78,43.749 59.84,-43.749 -22.73,70.619 60.78,43.67"
         style="fill:#f5f014;fill-opacity:1;fill-rule:nonzero;stroke:none"
         id="path34" /><path
         d="m 2115.18,1297.66 59.84,43.66 59.84,-43.66 -22.8,70.63 60.77,43.59 h -74.84 l -22.97,71.55 -22.96,-71.64 -74.85,0.09 60.78,-43.59 -22.81,-70.63"
         style="fill:#f5f014;fill-opacity:1;fill-rule:nonzero;stroke:none"
         id="path36" /><path
         d="m 1948.86,1709.6 -22.89,-71.64 -74.93,0.17 60.71,-43.75 -22.74,-70.64 59.93,43.75 59.75,-43.75 -22.72,70.64 60.78,43.75 h -75 l -22.89,71.47"
         style="fill:#f5f014;fill-opacity:1;fill-rule:nonzero;stroke:none"
         id="path38" /><path
         d="m 3469.02,1300.63 v 465.28 h 318.97 v -78.71 h -225.02 v -110.13 h 194.24 v -78.71 h -194.24 v -197.73 h -93.95"
         style="fill:#ffffff;fill-opacity:1;fill-rule:nonzero;stroke:none"
         id="path40" /><path
         d="m 3864.8,1300.63 v 337.05 h 89.18 v -337.05 z m 0,382.76 v 82.52 h 89.18 v -82.52 h -89.18"
         style="fill:#ffffff;fill-opacity:1;fill-rule:nonzero;stroke:none"
         id="path42" /><path
         d="m 4351.97,1300.63 h -89.18 v 172.01 c 0,36.39 -1.9,59.94 -5.71,70.62 -3.81,10.69 -10,18.99 -18.56,24.92 -8.58,5.92 -18.89,8.89 -30.95,8.89 -15.45,0 -29.31,-4.24 -41.57,-12.69 -12.28,-8.47 -20.7,-19.69 -25.24,-33.66 -4.55,-13.96 -6.82,-39.77 -6.82,-77.44 v -152.65 h -89.19 v 337.05 h 82.84 v -49.51 c 29.4,38.09 66.43,57.13 111.08,57.13 19.68,0 37.66,-3.54 53.96,-10.63 16.29,-7.09 28.61,-16.13 36.97,-27.13 8.36,-11.01 14.18,-23.5 17.46,-37.46 3.27,-13.97 4.91,-33.96 4.91,-59.98 v -209.47"
         style="fill:#ffffff;fill-opacity:1;fill-rule:nonzero;stroke:none"
         id="path44" /><path
         d="m 4628.42,1462.49 c -11.43,-3.81 -29.51,-8.36 -54.27,-13.64 -24.76,-5.3 -40.95,-10.48 -48.56,-15.56 -11.63,-8.25 -17.46,-18.72 -17.46,-31.41 0,-12.5 4.65,-23.29 13.97,-32.39 9.31,-9.09 21.15,-13.64 35.55,-13.64 16.07,0 31.41,5.28 46.02,15.87 10.78,8.03 17.87,17.88 21.26,29.51 2.33,7.62 3.49,22.11 3.49,43.48 z m -119.34,72.36 -80.93,14.6 c 9.1,32.58 24.76,56.7 46.98,72.37 22.21,15.65 55.22,23.48 99.02,23.48 39.78,0 69.39,-4.71 88.87,-14.12 19.46,-9.42 33.16,-21.38 41.1,-35.87 7.93,-14.49 11.9,-41.09 11.9,-79.82 l -0.95,-104.1 c 0,-29.62 1.42,-51.47 4.29,-65.54 2.85,-14.07 8.19,-29.15 16.02,-45.22 h -88.23 c -2.34,5.91 -5.19,14.7 -8.58,26.34 -1.47,5.28 -2.53,8.77 -3.16,10.47 -15.23,-14.81 -31.53,-25.92 -48.89,-33.32 -17.34,-7.41 -35.86,-11.11 -55.53,-11.11 -34.71,0 -62.05,9.41 -82.04,28.24 -20,18.84 -30,42.64 -30,71.41 0,19.05 4.55,36.03 13.65,50.94 9.09,14.92 21.84,26.35 38.24,34.28 16.4,7.94 40.04,14.86 70.94,20.79 41.68,7.82 70.56,15.13 86.64,21.9 v 8.88 c 0,17.15 -4.23,29.37 -12.7,36.66 -8.45,7.31 -24.43,10.96 -47.92,10.96 -15.87,0 -28.25,-3.12 -37.14,-9.37 -8.88,-6.25 -16.07,-17.19 -21.58,-32.85"
         style="fill:#ffffff;fill-opacity:1;fill-rule:nonzero;stroke:none"
         id="path46" /><path
         d="m 5110.52,1300.63 h -89.18 v 172.01 c 0,36.39 -1.91,59.94 -5.71,70.62 -3.81,10.69 -10,18.99 -18.57,24.92 -8.57,5.92 -18.89,8.89 -30.95,8.89 -15.45,0 -29.3,-4.24 -41.57,-12.69 -12.27,-8.47 -20.69,-19.69 -25.23,-33.66 -4.55,-13.96 -6.83,-39.77 -6.83,-77.44 v -152.65 h -89.19 v 337.05 h 82.84 v -49.51 c 29.41,38.09 66.44,57.13 111.09,57.13 19.67,0 37.65,-3.54 53.95,-10.63 16.29,-7.09 28.62,-16.13 36.97,-27.13 8.36,-11.01 14.18,-23.5 17.47,-37.46 3.27,-13.97 4.91,-33.96 4.91,-59.98 v -209.47"
         style="fill:#ffffff;fill-opacity:1;fill-rule:nonzero;stroke:none"
         id="path48" /><path
         d="m 5169.55,1396.8 89.5,13.64 c 3.81,-17.35 11.54,-30.53 23.18,-39.51 11.63,-9 27.93,-13.49 48.86,-13.49 23.07,0 40.42,4.23 52.05,12.7 7.84,5.91 11.75,13.84 11.75,23.79 0,6.77 -2.12,12.38 -6.35,16.83 -4.44,4.23 -14.39,8.13 -29.83,11.74 -71.94,15.87 -117.54,30.36 -136.8,43.48 -26.66,18.2 -39.98,43.48 -39.98,75.86 0,29.2 11.53,53.73 34.59,73.63 23.06,19.88 58.82,29.83 107.28,29.83 46.12,0 80.4,-7.51 102.83,-22.53 22.42,-15.03 37.87,-37.24 46.34,-66.66 l -84.1,-15.54 c -3.61,13.11 -10.43,23.16 -20.48,30.15 -10.05,6.98 -24.39,10.47 -43,10.47 -23.5,0 -40.31,-3.28 -50.47,-9.84 -6.78,-4.65 -10.15,-10.69 -10.15,-18.09 0,-6.35 2.95,-11.74 8.88,-16.19 8.04,-5.92 35.81,-14.28 83.31,-25.07 47.5,-10.79 80.67,-24.01 99.5,-39.68 18.62,-15.86 27.93,-37.98 27.93,-66.32 0,-30.9 -12.91,-57.45 -38.72,-79.67 -25.82,-22.21 -64,-33.32 -114.58,-33.32 -45.9,0 -82.25,9.3 -109.01,27.93 -26.77,18.61 -44.28,43.9 -52.53,75.86"
         style="fill:#ffffff;fill-opacity:1;fill-rule:nonzero;stroke:none"
         id="path50" /><path
         d="m 5633.25,1469.16 c 0,-33.44 7.94,-59.04 23.8,-76.82 15.88,-17.77 35.44,-26.66 58.72,-26.66 23.27,0 42.79,8.89 58.56,26.66 15.76,17.78 23.64,43.6 23.64,77.45 0,33 -7.88,58.39 -23.64,76.17 -15.77,17.77 -35.29,26.66 -58.56,26.66 -23.28,0 -42.84,-8.89 -58.72,-26.66 -15.86,-17.78 -23.8,-43.37 -23.8,-76.8 z m -91.4,4.75 c 0,29.63 7.29,58.3 21.9,86.01 14.59,27.72 35.27,48.89 62.04,63.48 26.77,14.61 56.65,21.9 89.66,21.9 51,0 92.78,-16.56 125.37,-49.67 32.58,-33.11 48.88,-74.96 48.88,-125.52 0,-51 -16.46,-93.27 -49.36,-126.8 -32.9,-33.54 -74.31,-50.3 -124.25,-50.3 -30.89,0 -60.36,6.98 -88.39,20.94 -28.04,13.97 -49.36,34.44 -63.95,61.42 -14.61,26.97 -21.9,59.83 -21.9,98.54"
         style="fill:#ffffff;fill-opacity:1;fill-rule:nonzero;stroke:none"
         id="path52" /><path
         d="m 6022.36,1300.63 -106.64,337.05 h 86.65 l 63.16,-220.89 58.08,220.89 h 86.02 l 56.17,-220.89 64.43,220.89 h 87.91 l -108.22,-337.05 h -85.7 l -58.08,216.77 -57.13,-216.77 h -86.65"
         style="fill:#ffffff;fill-opacity:1;fill-rule:nonzero;stroke:none"
         id="path54" /><path
         d="m 6651.09,1462.49 c -11.42,-3.81 -29.51,-8.36 -54.26,-13.64 -24.76,-5.3 -40.95,-10.48 -48.57,-15.56 -11.63,-8.25 -17.45,-18.72 -17.45,-31.41 0,-12.5 4.65,-23.29 13.97,-32.39 9.3,-9.09 21.15,-13.64 35.54,-13.64 16.08,0 31.42,5.28 46.03,15.87 10.78,8.03 17.87,17.88 21.26,29.51 2.32,7.62 3.48,22.11 3.48,43.48 z m -119.33,72.36 -80.93,14.6 c 9.09,32.58 24.76,56.7 46.97,72.37 22.22,15.65 55.23,23.48 99.03,23.48 39.77,0 69.39,-4.71 88.86,-14.12 19.47,-9.42 33.17,-21.38 41.11,-35.87 7.93,-14.49 11.89,-41.09 11.89,-79.82 l -0.95,-104.1 c 0,-29.62 1.43,-51.47 4.29,-65.54 2.85,-14.07 8.19,-29.15 16.03,-45.22 h -88.24 c -2.33,5.91 -5.18,14.7 -8.57,26.34 -1.47,5.28 -2.54,8.77 -3.16,10.47 -15.24,-14.81 -31.54,-25.92 -48.89,-33.32 -17.34,-7.41 -35.86,-11.11 -55.54,-11.11 -34.7,0 -62.05,9.41 -82.04,28.24 -20,18.84 -30,42.64 -30,71.41 0,19.05 4.55,36.03 13.65,50.94 9.1,14.92 21.85,26.35 38.25,34.28 16.39,7.94 40.03,14.86 70.93,20.79 41.68,7.82 70.57,15.13 86.64,21.9 v 8.88 c 0,17.15 -4.22,29.37 -12.69,36.66 -8.46,7.31 -24.44,10.96 -47.92,10.96 -15.87,0 -28.25,-3.12 -37.14,-9.37 -8.89,-6.25 -16.07,-17.19 -21.58,-32.85"
         style="fill:#ffffff;fill-opacity:1;fill-rule:nonzero;stroke:none"
         id="path56" /><path
         d="m 7133.2,1300.63 h -89.18 v 172.01 c 0,36.39 -1.9,59.94 -5.71,70.62 -3.81,10.69 -10,18.99 -18.56,24.92 -8.58,5.92 -18.89,8.89 -30.95,8.89 -15.45,0 -29.31,-4.24 -41.57,-12.69 -12.28,-8.47 -20.7,-19.69 -25.24,-33.66 -4.55,-13.96 -6.82,-39.77 -6.82,-77.44 v -152.65 h -89.19 v 337.05 h 82.84 v -49.51 c 29.4,38.09 66.43,57.13 111.08,57.13 19.68,0 37.66,-3.54 53.96,-10.63 16.29,-7.09 28.61,-16.13 36.97,-27.13 8.36,-11.01 14.18,-23.5 17.46,-37.46 3.27,-13.97 4.91,-33.96 4.91,-59.98 v -209.47"
         style="fill:#ffffff;fill-opacity:1;fill-rule:nonzero;stroke:none"
         id="path58" /><path
         d="m 7423.93,1498.04 c -0.64,25.81 -7.3,45.44 -19.99,58.87 -12.7,13.43 -28.15,20.16 -46.35,20.16 -19.46,0 -35.55,-7.1 -48.24,-21.27 -12.7,-14.18 -18.94,-33.44 -18.72,-57.76 z m -5.08,-90.14 88.86,-14.91 c -11.42,-32.59 -29.46,-57.4 -54.11,-74.44 -24.65,-17.03 -55.49,-25.54 -92.52,-25.54 -58.61,0 -101.99,19.15 -130.12,57.44 -22.22,30.68 -33.33,69.4 -33.33,116.17 0,55.86 14.61,99.6 43.81,131.23 29.19,31.63 66.11,47.45 110.76,47.45 50.14,0 89.7,-16.56 118.7,-49.67 28.98,-33.11 42.84,-83.84 41.57,-152.18 h -223.44 c 0.65,-26.46 7.84,-47.04 21.59,-61.73 13.76,-14.71 30.89,-22.06 51.42,-22.06 13.97,0 25.7,3.8 35.23,11.42 9.52,7.62 16.7,19.88 21.58,36.82"
         style="fill:#ffffff;fill-opacity:1;fill-rule:nonzero;stroke:none"
         id="path60" /><path
         d="m 7851.44,1474.86 c 0,-37.87 7.51,-65.85 22.53,-83.94 15.02,-18.09 33.32,-27.13 54.91,-27.13 20.74,0 37.98,8.3 51.74,24.91 13.75,16.6 20.62,43.85 20.62,81.73 0,35.33 -7.09,61.56 -21.26,78.71 -14.18,17.13 -31.74,25.7 -52.69,25.7 -21.79,0 -39.88,-8.41 -54.27,-25.23 -14.39,-16.82 -21.58,-41.74 -21.58,-74.75 z m -88.23,162.82 h 83.15 v -49.51 c 10.8,16.93 25.39,30.68 43.81,41.26 18.39,10.58 38.81,15.87 61.25,15.87 39.14,0 72.36,-15.34 99.65,-46.02 27.3,-30.68 40.95,-73.42 40.95,-128.23 0,-56.28 -13.76,-100.03 -41.27,-131.23 -27.5,-31.21 -60.83,-46.81 -99.97,-46.81 -18.62,0 -35.5,3.7 -50.62,11.11 -15.13,7.4 -31.06,20.1 -47.77,38.09 V 1172.4 h -89.18 v 465.28"
         style="fill:#ffffff;fill-opacity:1;fill-rule:nonzero;stroke:none"
         id="path62" /><path
         d="m 8248.16,1300.63 h -89.18 v 337.05 h 82.84 v -47.91 c 14.17,22.63 26.92,37.54 38.24,44.74 11.32,7.19 24.17,10.79 38.56,10.79 20.32,0 39.89,-5.6 58.72,-16.82 l -27.61,-77.76 c -15.03,9.73 -29,14.6 -41.9,14.6 -12.49,0 -23.06,-3.44 -31.74,-10.31 -8.68,-6.88 -15.49,-19.32 -20.46,-37.3 -4.99,-17.98 -7.47,-55.65 -7.47,-112.98 v -104.1"
         style="fill:#ffffff;fill-opacity:1;fill-rule:nonzero;stroke:none"
         id="path64" /><path
         d="m 8379.88,1300.63 v 69.51 l 126.32,145.04 c 20.73,23.69 36.08,40.51 46.02,50.46 -10.36,-0.64 -24.02,-1.06 -40.94,-1.26 l -119.02,-0.65 v 73.95 h 278.67 v -63.15 L 8542.06,1426 l -45.38,-49.2 c 24.76,1.47 40.1,2.22 46.03,2.22 h 138.05 v -78.39 h -300.88"
         style="fill:#ffffff;fill-opacity:1;fill-rule:nonzero;stroke:none"
         id="path66" /><path
         d="m 8941.02,1498.04 c -0.64,25.81 -7.3,45.44 -19.99,58.87 -12.7,13.43 -28.15,20.16 -46.35,20.16 -19.47,0 -35.55,-7.1 -48.24,-21.27 -12.7,-14.18 -18.94,-33.44 -18.73,-57.76 z m -5.08,-90.14 88.86,-14.91 c -11.42,-32.59 -29.46,-57.4 -54.11,-74.44 -24.65,-17.03 -55.49,-25.54 -92.52,-25.54 -58.61,0 -101.99,19.15 -130.12,57.44 -22.22,30.68 -33.33,69.4 -33.33,116.17 0,55.86 14.61,99.6 43.81,131.23 29.19,31.63 66.11,47.45 110.76,47.45 50.14,0 89.7,-16.56 118.7,-49.67 28.98,-33.11 42.84,-83.84 41.57,-152.18 h -223.44 c 0.65,-26.46 7.84,-47.04 21.59,-61.73 13.75,-14.71 30.89,-22.06 51.42,-22.06 13.97,0 25.7,3.8 35.23,11.42 9.52,7.62 16.7,19.88 21.58,36.82"
         style="fill:#ffffff;fill-opacity:1;fill-rule:nonzero;stroke:none"
         id="path68" /><path
         d="m 9066.38,1300.63 v 69.51 l 126.32,145.04 c 20.73,23.69 36.07,40.51 46.01,50.46 -10.36,-0.64 -24.01,-1.06 -40.94,-1.26 l -119.02,-0.65 v 73.95 h 278.67 v -63.15 L 9228.55,1426 l -45.38,-49.2 c 24.76,1.47 40.1,2.22 46.03,2.22 h 138.06 v -78.39 h -300.88"
         style="fill:#ffffff;fill-opacity:1;fill-rule:nonzero;stroke:none"
         id="path70" /><path
         d="m 3467.75,985.91 h 93.95 v -252 c 0,-39.988 1.15,-65.91 3.49,-77.75 4.01,-19.051 13.59,-34.34 28.72,-45.871 15.12,-11.539 35.81,-17.301 62.05,-17.301 26.66,0 46.75,5.453 60.3,16.352 13.53,10.89 21.69,24.281 24.44,40.148 2.75,15.871 4.12,42.211 4.12,79.032 v 257.39 h 93.95 V 741.531 c 0,-55.859 -2.54,-95.332 -7.62,-118.383 -5.08,-23.07 -14.44,-42.539 -28.08,-58.398 -13.66,-15.879 -31.9,-28.52 -54.75,-37.93 -22.85,-9.41 -52.69,-14.121 -89.51,-14.121 -44.43,0 -78.13,5.129 -101.09,15.391 -22.95,10.25 -41.1,23.582 -54.42,39.992 -13.34,16.398 -22.12,33.578 -26.35,51.566 -6.14,26.661 -9.2,66.024 -9.2,118.071 V 985.91"
         style="fill:#ffffff;fill-opacity:1;fill-rule:nonzero;stroke:none"
         id="path72" /><path
         d="m 4243.75,520.629 h -89.18 v 172.019 c 0,36.391 -1.9,59.93 -5.71,70.622 -3.81,10.679 -10,18.992 -18.57,24.921 -8.57,5.918 -18.88,8.879 -30.94,8.879 -15.45,0 -29.31,-4.23 -41.58,-12.691 -12.27,-8.469 -20.69,-19.688 -25.23,-33.649 -4.55,-13.968 -6.83,-39.781 -6.83,-77.441 v -152.66 h -89.19 v 337.062 h 82.85 V 808.18 c 29.4,38.082 66.43,57.129 111.08,57.129 19.68,0 37.66,-3.547 53.95,-10.637 16.29,-7.094 28.62,-16.133 36.98,-27.133 8.36,-11 14.18,-23.488 17.46,-37.461 3.27,-13.957 4.91,-33.949 4.91,-59.976 V 520.629"
         style="fill:#ffffff;fill-opacity:1;fill-rule:nonzero;stroke:none"
         id="path74" /><path
         d="m 4334.21,520.629 v 337.062 h 89.18 V 520.629 Z m 0,382.762 v 82.519 h 89.18 v -82.519 h -89.18"
         style="fill:#ffffff;fill-opacity:1;fill-rule:nonzero;stroke:none"
         id="path76" /><path
         d="m 4707.13,520.629 c -4.01,-2.957 -7.67,-6.399 -10.95,-10.309 -3.28,-3.922 -6.08,-8.101 -8.41,-12.539 -2.33,-4.453 -4.12,-8.941 -5.39,-13.492 -1.27,-4.551 -1.91,-8.93 -1.91,-13.168 0,-6.992 1.85,-12.851 5.56,-17.621 3.7,-4.762 9.89,-7.141 18.56,-7.141 3.81,0 8.1,0.692 12.86,2.063 4.76,1.379 9.25,2.699 13.49,3.969 v -53 c -17.78,-8.461 -33.75,-12.7 -47.93,-12.7 -11.85,0 -22.11,1.59 -30.78,4.758 -8.69,3.18 -15.93,7.52 -21.74,13.02 -5.82,5.5 -10.16,11.902 -13.02,19.203 -2.85,7.297 -4.29,15.066 -4.29,23.328 0,12.27 3.7,25.07 11.12,38.391 7.4,13.339 17.34,25.078 29.83,35.238 z m 7.94,197.41 c -0.64,25.813 -7.3,45.441 -19.99,58.883 -12.7,13.43 -28.15,20.148 -46.35,20.148 -19.46,0 -35.55,-7.101 -48.24,-21.269 -12.7,-14.18 -18.94,-33.43 -18.72,-57.762 z m -5.08,-90.141 88.87,-14.91 c -11.43,-32.59 -29.47,-57.398 -54.11,-74.429 -24.66,-17.028 -55.5,-25.547 -92.52,-25.547 -58.62,0 -102,19.148 -130.13,57.437 -22.22,30.692 -33.33,69.41 -33.33,116.172 0,55.859 14.61,99.598 43.81,131.238 29.2,31.629 66.11,47.45 110.76,47.45 50.15,0 89.71,-16.571 118.7,-49.668 28.99,-33.121 42.84,-83.852 41.57,-152.192 h -223.43 c 0.64,-26.449 7.83,-47.027 21.58,-61.73 13.76,-14.699 30.9,-22.059 51.42,-22.059 13.97,0 25.71,3.809 35.23,11.43 9.52,7.609 16.71,19.879 21.58,36.808"
         style="fill:#ffffff;fill-opacity:1;fill-rule:nonzero;stroke:none"
         id="path78" /><path
         d="M 5057.52,520.629 V 985.91 h 345 V 907.199 H 5151.46 V 804.051 h 233.6 V 725.66 h -233.6 V 599.031 h 259.95 v -78.402 h -353.89"
         style="fill:#ffffff;fill-opacity:1;fill-rule:nonzero;stroke:none"
         id="path80" /><path
         d="m 5712.28,520.629 v 50.473 c -12.28,-17.993 -28.41,-32.172 -48.4,-42.543 -20,-10.36 -41.11,-15.547 -63.32,-15.547 -22.65,0 -42.96,4.968 -60.94,14.918 -17.99,9.941 -31,23.91 -39.03,41.898 -8.05,17.981 -12.07,42.844 -12.07,74.582 v 213.281 h 89.19 V 702.809 c 0,-47.411 1.64,-76.438 4.92,-87.118 3.27,-10.703 9.25,-19.152 17.93,-25.39 8.67,-6.25 19.67,-9.371 33,-9.371 15.24,0 28.88,4.179 40.95,12.539 12.05,8.351 20.31,18.722 24.75,31.101 4.45,12.379 6.67,42.692 6.67,90.93 v 142.191 h 89.19 V 520.629 h -82.84"
         style="fill:#ffffff;fill-opacity:1;fill-rule:nonzero;stroke:none"
         id="path82" /><path
         d="m 5972.85,520.629 h -89.18 v 337.062 h 82.83 V 809.77 c 14.17,22.64 26.93,37.55 38.25,44.75 11.31,7.179 24.17,10.789 38.56,10.789 20.31,0 39.88,-5.61 58.72,-16.829 l -27.62,-77.75 c -15.03,9.719 -28.99,14.598 -41.89,14.598 -12.49,0 -23.07,-3.437 -31.74,-10.316 -8.68,-6.883 -15.5,-19.313 -20.47,-37.293 -4.98,-17.989 -7.46,-55.66 -7.46,-112.989 V 520.629"
         style="fill:#ffffff;fill-opacity:1;fill-rule:nonzero;stroke:none"
         id="path84" /><path
         d="m 6211.2,689.16 c 0,-33.43 7.94,-59.039 23.8,-76.808 15.88,-17.782 35.44,-26.661 58.72,-26.661 23.27,0 42.79,8.879 58.56,26.661 15.76,17.769 23.64,43.589 23.64,77.437 0,33.012 -7.88,58.402 -23.64,76.172 -15.77,17.769 -35.29,26.66 -58.56,26.66 -23.28,0 -42.84,-8.891 -58.72,-26.66 -15.86,-17.77 -23.8,-43.371 -23.8,-76.801 z m -91.41,4.762 c 0,29.617 7.3,58.289 21.91,86.008 14.59,27.718 35.27,48.879 62.04,63.468 26.77,14.614 56.65,21.911 89.66,21.911 50.99,0 92.78,-16.571 125.37,-49.668 32.58,-33.121 48.88,-74.961 48.88,-125.532 0,-50.988 -16.46,-93.257 -49.36,-126.8 -32.9,-33.528 -74.32,-50.297 -124.25,-50.297 -30.9,0 -60.36,6.976 -88.4,20.949 -28.03,13.961 -49.35,34.43 -63.94,61.41 -14.61,26.981 -21.91,59.828 -21.91,98.551"
         style="fill:#ffffff;fill-opacity:1;fill-rule:nonzero;stroke:none"
         id="path86" /><path
         d="m 6623.16,694.871 c 0,-37.871 7.51,-65.851 22.54,-83.949 15.02,-18.082 33.32,-27.133 54.91,-27.133 20.74,0 37.97,8.301 51.73,24.91 13.75,16.61 20.63,43.852 20.63,81.731 0,35.34 -7.09,61.57 -21.26,78.711 -14.18,17.129 -31.74,25.711 -52.69,25.711 -21.79,0 -39.88,-8.411 -54.27,-25.243 -14.39,-16.808 -21.59,-41.738 -21.59,-74.738 z m -88.22,162.82 h 83.15 V 808.18 c 10.8,16.922 25.39,30.672 43.8,41.261 18.4,10.571 38.82,15.868 61.25,15.868 39.15,0 72.37,-15.348 99.66,-46.028 27.3,-30.672 40.95,-73.422 40.95,-128.222 0,-56.278 -13.76,-100.028 -41.27,-131.231 -27.5,-31.207 -60.83,-46.816 -99.97,-46.816 -18.62,0 -35.5,3.699 -50.63,11.109 -15.12,7.41 -31.05,20.098 -47.76,38.09 V 392.41 h -89.18 v 465.281"
         style="fill:#ffffff;fill-opacity:1;fill-rule:nonzero;stroke:none"
         id="path88" /><path
         d="m 7134.79,718.039 c -0.63,25.813 -7.29,45.441 -19.99,58.883 -12.69,13.43 -28.14,20.148 -46.34,20.148 -19.47,0 -35.55,-7.101 -48.25,-21.269 -12.69,-14.18 -18.93,-33.43 -18.72,-57.762 z m -5.07,-90.141 88.86,-14.91 c -11.42,-32.59 -29.46,-57.398 -54.11,-74.429 -24.66,-17.028 -55.5,-25.547 -92.52,-25.547 -58.61,0 -101.99,19.148 -130.12,57.437 -22.22,30.692 -33.33,69.41 -33.33,116.172 0,55.859 14.61,99.598 43.8,131.238 29.2,31.629 66.12,47.45 110.77,47.45 50.14,0 89.7,-16.571 118.7,-49.668 28.98,-33.121 42.84,-83.852 41.57,-152.192 H 6999.9 c 0.65,-26.449 7.83,-47.027 21.58,-61.73 13.76,-14.699 30.9,-22.059 51.43,-22.059 13.97,0 25.7,3.809 35.22,11.43 9.53,7.609 16.71,19.879 21.59,36.808"
         style="fill:#ffffff;fill-opacity:1;fill-rule:nonzero;stroke:none"
         id="path90" /><path
         d="m 7294.11,903.391 v 82.519 h 89.19 v -82.519 z m 89.19,-45.7 V 531.102 c 0,-42.954 -2.8,-73.25 -8.41,-90.93 -5.61,-17.672 -16.4,-31.473 -32.37,-41.422 -15.98,-9.941 -36.34,-14.922 -61.1,-14.922 -8.89,0 -18.46,0.801 -28.72,2.383 -10.26,1.598 -21.31,3.969 -33.17,7.148 l 15.56,76.172 c 4.23,-0.84 8.19,-1.531 11.89,-2.07 3.7,-0.52 7.15,-0.789 10.31,-0.789 9.11,0 16.57,1.969 22.39,5.867 5.81,3.922 9.68,8.633 11.58,14.121 1.9,5.512 2.85,22.02 2.85,49.52 v 321.511 h 89.19"
         style="fill:#ffffff;fill-opacity:1;fill-rule:nonzero;stroke:none"
         id="path92" /><path
         d="m 7445.2,616.801 89.5,13.64 c 3.81,-17.351 11.53,-30.519 23.17,-39.511 11.63,-8.989 27.93,-13.481 48.87,-13.481 23.06,0 40.42,4.223 52.05,12.692 7.83,5.918 11.75,13.847 11.75,23.8 0,6.77 -2.12,12.368 -6.35,16.829 -4.44,4.218 -14.4,8.128 -29.83,11.73 -71.95,15.871 -117.54,30.371 -136.8,43.48 -26.66,18.2 -39.98,43.489 -39.98,75.86 0,29.199 11.52,53.742 34.59,73.629 23.05,19.89 58.82,29.84 107.27,29.84 46.13,0 80.4,-7.508 102.84,-22.528 22.42,-15.031 37.87,-37.25 46.33,-66.66 l -84.1,-15.551 c -3.6,13.121 -10.43,23.16 -20.48,30.16 -10.05,6.969 -24.38,10.469 -42.99,10.469 -23.5,0 -40.32,-3.289 -50.47,-9.847 -6.78,-4.653 -10.16,-10.68 -10.16,-18.082 0,-6.348 2.96,-11.739 8.89,-16.2 8.03,-5.91 35.81,-14.269 83.31,-25.058 47.5,-10.801 80.66,-24.024 99.5,-39.684 18.61,-15.859 27.93,-37.976 27.93,-66.328 0,-30.898 -12.91,-57.441 -38.72,-79.672 -25.82,-22.207 -64.01,-33.316 -114.58,-33.316 -45.91,0 -82.26,9.308 -109.02,27.929 -26.76,18.61 -44.27,43.911 -52.52,75.86"
         style="fill:#ffffff;fill-opacity:1;fill-rule:nonzero;stroke:none"
         id="path94" /><path
         d="M 7834.93,520.629 V 985.91 h 89.19 V 738.988 l 104.42,118.703 h 109.81 l -115.21,-123.152 123.47,-213.91 h -96.17 l -84.75,151.391 -41.57,-43.481 v -107.91 h -89.19"
         style="fill:#ffffff;fill-opacity:1;fill-rule:nonzero;stroke:none"
         id="path96" /><path
         d="m 8472.24,520.629 c -4.03,-2.957 -7.68,-6.399 -10.95,-10.309 -3.28,-3.922 -6.08,-8.101 -8.42,-12.539 -2.32,-4.453 -4.12,-8.941 -5.39,-13.492 -1.27,-4.551 -1.9,-8.93 -1.9,-13.168 0,-6.992 1.84,-12.851 5.55,-17.621 3.7,-4.762 9.89,-7.141 18.57,-7.141 3.81,0 8.09,0.692 12.85,2.063 4.76,1.379 9.26,2.699 13.49,3.969 v -53 c -17.78,-8.461 -33.75,-12.7 -47.92,-12.7 -11.86,0 -22.11,1.59 -30.8,4.758 -8.67,3.18 -15.91,7.52 -21.73,13.02 -5.82,5.5 -10.16,11.902 -13.01,19.203 -2.86,7.297 -4.29,15.066 -4.29,23.328 0,12.27 3.7,25.07 11.1,38.391 7.42,13.339 17.36,25.078 29.85,35.238 z m -86.65,161.859 c -11.43,-3.797 -29.52,-8.359 -54.27,-13.636 -24.76,-5.293 -40.95,-10.481 -48.57,-15.563 -11.63,-8.25 -17.45,-18.719 -17.45,-31.41 0,-12.488 4.65,-23.277 13.97,-32.379 9.3,-9.102 21.15,-13.648 35.54,-13.648 16.08,0 31.42,5.289 46.03,15.867 10.78,8.043 17.87,17.883 21.26,29.511 2.32,7.622 3.49,22.11 3.49,43.489 z m -119.34,72.371 -80.93,14.602 c 9.09,32.578 24.76,56.699 46.97,72.359 22.22,15.649 55.23,23.489 99.03,23.489 39.77,0 69.39,-4.707 88.87,-14.118 19.46,-9.429 33.16,-21.382 41.1,-35.871 7.93,-14.5 11.89,-41.101 11.89,-79.832 l -0.94,-104.097 c 0,-29.621 1.42,-51.461 4.28,-65.539 2.86,-14.071 8.2,-29.153 16.03,-45.223 h -88.23 c -2.34,5.922 -5.19,14.711 -8.58,26.351 -1.47,5.282 -2.54,8.77 -3.16,10.469 -15.24,-14.82 -31.54,-25.918 -48.89,-33.328 -17.34,-7.41 -35.86,-11.109 -55.54,-11.109 -34.7,0 -62.05,9.418 -82.04,28.238 -20,18.84 -30,42.641 -30,71.422 0,19.039 4.55,36.027 13.66,50.937 9.09,14.922 21.84,26.352 38.24,34.27 16.39,7.941 40.04,14.871 70.94,20.801 41.68,7.82 70.56,15.121 86.64,21.89 v 8.891 c 0,17.148 -4.23,29.359 -12.7,36.66 -8.46,7.301 -24.43,10.949 -47.92,10.949 -15.87,0 -28.25,-3.121 -37.14,-9.359 -8.88,-6.25 -16.07,-17.199 -21.58,-32.852"
         style="fill:#ffffff;fill-opacity:1;fill-rule:nonzero;stroke:none"
         id="path98" /></g></g></svg>
