<?xml version="1.0" encoding="UTF-8" standalone="no"?>
<!-- Created with Inkscape (http://www.inkscape.org/) -->

<svg
   version="1.1"
   id="svg2"
   xml:space="preserve"
   width="1358.7333"
   height="284.66666"
   viewBox="0 0 1358.7333 284.66666"
   sodipodi:docname="RO Finanțat de Uniunea Europeană_NEG.eps"
   xmlns:inkscape="http://www.inkscape.org/namespaces/inkscape"
   xmlns:sodipodi="http://sodipodi.sourceforge.net/DTD/sodipodi-0.dtd"
   xmlns="http://www.w3.org/2000/svg"
   xmlns:svg="http://www.w3.org/2000/svg"><defs
     id="defs6" /><sodipodi:namedview
     id="namedview4"
     pagecolor="#ffffff"
     bordercolor="#666666"
     borderopacity="1.0"
     inkscape:pageshadow="2"
     inkscape:pageopacity="0.0"
     inkscape:pagecheckerboard="0" /><g
     id="g8"
     inkscape:groupmode="layer"
     inkscape:label="ink_ext_XXXXXX"
     transform="matrix(1.3333333,0,0,-1.3333333,0,284.66667)"><g
       id="g10"
       transform="scale(0.1)"><path
         d="M 164.473,71.0586 H 3113.93 V 2073.9 H 164.473 V 71.0586"
         style="fill:#ffffff;fill-opacity:1;fill-rule:nonzero;stroke:none"
         id="path12" /><path
         d="M 221.191,128.281 H 3057.22 V 2018.97 H 221.191 V 128.281"
         style="fill:#264ca4;fill-opacity:1;fill-rule:nonzero;stroke:none"
         id="path14" /><path
         d="m 1578.78,1607.02 59.83,43.67 59.86,-43.67 -22.79,70.63 60.79,43.67 h -74.93 l -22.93,71.48 -22.93,-71.56 -74.88,0.08 60.74,-43.67 -22.76,-70.63"
         style="fill:#f5f014;fill-opacity:1;fill-rule:nonzero;stroke:none"
         id="path16" /><path
         d="m 1269.08,1523.82 59.85,43.67 59.81,-43.67 -22.74,70.63 60.75,43.68 h -74.93 l -22.92,71.55 -22.93,-71.64 -74.9,0.09 60.75,-43.68 -22.74,-70.63"
         style="fill:#f5f014;fill-opacity:1;fill-rule:nonzero;stroke:none"
         id="path18" /><path
         d="m 1102.32,1482.57 -22.93,-71.64 -74.88,0.09 60.74,-43.68 -22.76,-70.63 59.83,43.68 59.85,-43.68 -22.78,70.63 60.75,43.68 h -74.89 l -22.93,71.55"
         style="fill:#f5f014;fill-opacity:1;fill-rule:nonzero;stroke:none"
         id="path20" /><path
         d="m 1019.21,1031.08 59.8,-43.658 -22.73,70.608 60.73,43.68 h -74.87 l -22.93,71.56 -22.933,-71.72 -74.922,0.16 60.786,-43.68 -22.778,-70.608 59.847,43.658"
         style="fill:#f5f014;fill-opacity:1;fill-rule:nonzero;stroke:none"
         id="path22" /><path
         d="m 1125.25,791.48 -22.93,71.559 -22.93,-71.641 -74.88,0.082 60.74,-43.66 -22.76,-70.64 59.83,43.75 59.85,-43.75 -22.78,70.64 60.75,43.66 h -74.89"
         style="fill:#f5f014;fill-opacity:1;fill-rule:nonzero;stroke:none"
         id="path24" /><path
         d="m 1352.29,564.461 -22.93,71.469 -22.9,-71.559 -74.92,0.09 60.75,-43.68 -22.73,-70.633 59.83,43.672 59.81,-43.672 -22.74,70.633 60.75,43.68 h -74.92"
         style="fill:#f5f014;fill-opacity:1;fill-rule:nonzero;stroke:none"
         id="path26" /><path
         d="m 1661.58,482.18 -22.93,71.558 -22.89,-71.636 -74.91,0.078 60.73,-43.668 -22.72,-70.633 59.83,43.68 59.81,-43.68 -22.78,70.633 60.78,43.668 h -74.92"
         style="fill:#f5f014;fill-opacity:1;fill-rule:nonzero;stroke:none"
         id="path28" /><path
         d="m 1970.89,564.461 -22.89,71.469 -22.97,-71.559 -74.84,0.09 60.7,-43.68 -22.74,-70.633 59.85,43.672 59.83,-43.672 -22.8,70.633 60.78,43.68 h -74.92"
         style="fill:#f5f014;fill-opacity:1;fill-rule:nonzero;stroke:none"
         id="path30" /><path
         d="m 2198,791.48 -22.97,71.559 -22.97,-71.641 -74.84,0.082 60.78,-43.66 -22.81,-70.64 59.84,43.75 59.83,-43.75 -22.8,70.64 60.77,43.66 H 2198"
         style="fill:#f5f014;fill-opacity:1;fill-rule:nonzero;stroke:none"
         id="path32" /><path
         d="m 2355.11,1102.57 h -74.92 l -22.97,71.57 -22.89,-71.65 -74.93,0.08 60.79,-43.67 -22.75,-70.619 59.78,43.749 59.84,-43.749 -22.73,70.619 60.78,43.67"
         style="fill:#f5f014;fill-opacity:1;fill-rule:nonzero;stroke:none"
         id="path34" /><path
         d="m 2115.18,1297.66 59.84,43.66 59.84,-43.66 -22.8,70.63 60.77,43.59 h -74.84 l -22.97,71.55 -22.96,-71.64 -74.85,0.09 60.78,-43.59 -22.81,-70.63"
         style="fill:#f5f014;fill-opacity:1;fill-rule:nonzero;stroke:none"
         id="path36" /><path
         d="m 1948.86,1709.6 -22.89,-71.64 -74.93,0.17 60.71,-43.75 -22.74,-70.64 59.93,43.75 59.75,-43.75 -22.72,70.64 60.78,43.75 h -75 l -22.89,71.47"
         style="fill:#f5f014;fill-opacity:1;fill-rule:nonzero;stroke:none"
         id="path38" /><path
         d="m 3479.02,1290.63 v 465.28 h 318.97 v -78.71 h -225.02 v -110.13 h 194.24 v -78.71 h -194.24 v -197.73 h -93.95"
         style="fill:#ffffff;fill-opacity:1;fill-rule:nonzero;stroke:none"
         id="path40" /><path
         d="m 3874.8,1290.63 v 337.05 h 89.18 v -337.05 z m 0,382.76 v 82.52 h 89.18 v -82.52 h -89.18"
         style="fill:#ffffff;fill-opacity:1;fill-rule:nonzero;stroke:none"
         id="path42" /><path
         d="m 4361.97,1290.63 h -89.18 v 172.01 c 0,36.39 -1.9,59.94 -5.71,70.62 -3.81,10.69 -10,18.99 -18.56,24.92 -8.58,5.92 -18.89,8.89 -30.95,8.89 -15.45,0 -29.31,-4.24 -41.57,-12.69 -12.28,-8.47 -20.7,-19.69 -25.24,-33.66 -4.55,-13.96 -6.82,-39.77 -6.82,-77.44 v -152.65 h -89.19 v 337.05 h 82.84 v -49.51 c 29.4,38.09 66.43,57.13 111.08,57.13 19.68,0 37.66,-3.54 53.96,-10.63 16.29,-7.09 28.61,-16.13 36.97,-27.13 8.36,-11.01 14.18,-23.5 17.46,-37.46 3.27,-13.97 4.91,-33.96 4.91,-59.98 v -209.47"
         style="fill:#ffffff;fill-opacity:1;fill-rule:nonzero;stroke:none"
         id="path44" /><path
         d="m 4638.42,1452.49 c -11.43,-3.81 -29.51,-8.36 -54.27,-13.64 -24.76,-5.3 -40.95,-10.48 -48.56,-15.56 -11.63,-8.25 -17.46,-18.72 -17.46,-31.41 0,-12.5 4.65,-23.29 13.97,-32.39 9.31,-9.09 21.15,-13.64 35.55,-13.64 16.07,0 31.41,5.28 46.02,15.87 10.78,8.03 17.87,17.88 21.26,29.51 2.33,7.62 3.49,22.11 3.49,43.48 z m -119.34,72.36 -80.93,14.6 c 9.1,32.58 24.76,56.7 46.98,72.37 22.21,15.65 55.22,23.48 99.02,23.48 39.78,0 69.39,-4.71 88.87,-14.12 19.46,-9.42 33.16,-21.38 41.1,-35.87 7.93,-14.49 11.9,-41.09 11.9,-79.82 l -0.95,-104.1 c 0,-29.62 1.42,-51.47 4.29,-65.54 2.85,-14.07 8.19,-29.15 16.02,-45.22 h -88.23 c -2.34,5.91 -5.19,14.7 -8.58,26.34 -1.47,5.28 -2.53,8.77 -3.16,10.47 -15.23,-14.81 -31.53,-25.92 -48.89,-33.32 -17.34,-7.41 -35.86,-11.11 -55.53,-11.11 -34.71,0 -62.05,9.41 -82.04,28.24 -20,18.84 -30,42.64 -30,71.41 0,19.05 4.55,36.03 13.65,50.94 9.09,14.92 21.84,26.35 38.24,34.28 16.4,7.94 40.04,14.86 70.94,20.79 41.68,7.82 70.56,15.13 86.64,21.9 v 8.88 c 0,17.15 -4.23,29.37 -12.7,36.66 -8.45,7.31 -24.43,10.96 -47.92,10.96 -15.87,0 -28.25,-3.12 -37.14,-9.37 -8.88,-6.25 -16.07,-17.19 -21.58,-32.85"
         style="fill:#ffffff;fill-opacity:1;fill-rule:nonzero;stroke:none"
         id="path46" /><path
         d="m 5120.52,1290.63 h -89.18 v 172.01 c 0,36.39 -1.91,59.94 -5.71,70.62 -3.81,10.69 -10,18.99 -18.57,24.92 -8.57,5.92 -18.89,8.89 -30.95,8.89 -15.45,0 -29.3,-4.24 -41.57,-12.69 -12.27,-8.47 -20.69,-19.69 -25.23,-33.66 -4.55,-13.96 -6.83,-39.77 -6.83,-77.44 v -152.65 h -89.19 v 337.05 h 82.84 v -49.51 c 29.41,38.09 66.44,57.13 111.09,57.13 19.67,0 37.65,-3.54 53.95,-10.63 16.29,-7.09 28.62,-16.13 36.97,-27.13 8.36,-11.01 14.18,-23.5 17.47,-37.46 3.27,-13.97 4.91,-33.96 4.91,-59.98 v -209.47"
         style="fill:#ffffff;fill-opacity:1;fill-rule:nonzero;stroke:none"
         id="path48" /><path
         d="m 5247.15,1254.77 h 94.59 v -28.58 c 0,-24.74 -2.23,-43.58 -6.67,-56.48 -4.44,-12.91 -12.96,-24.45 -25.55,-34.6 -12.6,-10.16 -29.78,-18.2 -51.57,-24.12 l -11.75,42.21 c 28.57,7.82 42.84,22.33 42.84,43.48 h -41.89 z m 118.39,372.91 v -71.09 h -60.94 v -135.84 c 0,-27.51 0.58,-43.54 1.75,-48.09 1.16,-4.55 3.81,-8.3 7.93,-11.25 4.13,-2.97 9.15,-4.46 15.08,-4.46 8.25,0 20.2,2.86 35.85,8.58 l 7.62,-69.19 c -20.73,-8.89 -44.22,-13.33 -70.45,-13.33 -16.08,0 -30.58,2.69 -43.48,8.09 -12.91,5.39 -22.38,12.38 -28.41,20.95 -6.03,8.56 -10.21,20.16 -12.54,34.75 -1.9,10.37 -2.85,31.31 -2.85,62.85 v 146.94 h -40.94 v 71.09 h 40.94 v 66.97 l 89.5,52.05 v -119.02 h 60.94"
         style="fill:#ffffff;fill-opacity:1;fill-rule:nonzero;stroke:none"
         id="path50" /><path
         d="m 5613.42,1452.49 c -11.43,-3.81 -29.51,-8.36 -54.27,-13.64 -24.76,-5.3 -40.95,-10.48 -48.56,-15.56 -11.63,-8.25 -17.46,-18.72 -17.46,-31.41 0,-12.5 4.65,-23.29 13.97,-32.39 9.31,-9.09 21.15,-13.64 35.55,-13.64 16.07,0 31.41,5.28 46.02,15.87 10.78,8.03 17.87,17.88 21.26,29.51 2.33,7.62 3.49,22.11 3.49,43.48 z m -119.34,72.36 -80.93,14.6 c 9.1,32.58 24.76,56.7 46.98,72.37 22.21,15.65 55.22,23.48 99.02,23.48 39.78,0 69.39,-4.71 88.87,-14.12 19.46,-9.42 33.16,-21.38 41.1,-35.87 7.93,-14.49 11.9,-41.09 11.9,-79.82 l -0.95,-104.1 c 0,-29.62 1.42,-51.47 4.29,-65.54 2.85,-14.07 8.19,-29.15 16.02,-45.22 h -88.23 c -2.34,5.91 -5.19,14.7 -8.58,26.34 -1.47,5.28 -2.53,8.77 -3.16,10.47 -15.23,-14.81 -31.53,-25.92 -48.89,-33.32 -17.34,-7.41 -35.86,-11.11 -55.53,-11.11 -34.71,0 -62.05,9.41 -82.04,28.24 -20,18.84 -30,42.64 -30,71.41 0,19.05 4.55,36.03 13.65,50.94 9.09,14.92 21.84,26.35 38.24,34.28 16.4,7.94 40.04,14.86 70.94,20.79 41.68,7.82 70.56,15.13 86.64,21.9 v 8.88 c 0,17.15 -4.23,29.37 -12.7,36.66 -8.45,7.31 -24.43,10.96 -47.92,10.96 -15.87,0 -28.25,-3.12 -37.14,-9.37 -8.88,-6.25 -16.07,-17.19 -21.58,-32.85"
         style="fill:#ffffff;fill-opacity:1;fill-rule:nonzero;stroke:none"
         id="path52" /><path
         d="m 5943.5,1627.68 v -71.09 h -60.94 v -135.84 c 0,-27.51 0.57,-43.54 1.75,-48.09 1.16,-4.55 3.81,-8.3 7.93,-11.25 4.13,-2.97 9.15,-4.46 15.07,-4.46 8.26,0 20.21,2.86 35.86,8.58 l 7.62,-69.19 c -20.73,-8.89 -44.22,-13.33 -70.45,-13.33 -16.08,0 -30.58,2.69 -43.48,8.09 -12.91,5.39 -22.38,12.38 -28.41,20.95 -6.03,8.56 -10.21,20.16 -12.54,34.75 -1.9,10.37 -2.85,31.31 -2.85,62.85 v 146.94 h -40.94 v 71.09 h 40.94 v 66.97 l 89.5,52.05 v -119.02 h 60.94"
         style="fill:#ffffff;fill-opacity:1;fill-rule:nonzero;stroke:none"
         id="path54" /><path
         d="m 6257.07,1466.45 c 0,-35.97 4.96,-62 14.91,-78.07 14.39,-23.28 34.48,-34.92 60.31,-34.92 20.51,0 37.97,8.74 52.36,26.19 14.39,17.46 21.58,43.53 21.58,78.24 0,38.71 -6.97,66.59 -20.94,83.62 -13.96,17.03 -31.85,25.56 -53.64,25.56 -21.16,0 -38.88,-8.42 -53.16,-25.23 -14.28,-16.83 -21.42,-41.96 -21.42,-75.39 z m 238.03,-175.82 h -82.83 v 49.51 c -13.76,-19.26 -29.99,-33.6 -48.73,-43.01 -18.72,-9.42 -37.6,-14.12 -56.65,-14.12 -38.72,0 -71.88,15.6 -99.5,46.81 -27.6,31.2 -41.41,74.75 -41.41,130.61 0,57.13 13.43,100.55 40.31,130.28 26.86,29.73 60.82,44.59 101.87,44.59 37.66,0 70.25,-15.66 97.76,-46.97 v 167.58 h 89.18 v -465.28"
         style="fill:#ffffff;fill-opacity:1;fill-rule:nonzero;stroke:none"
         id="path56" /><path
         d="m 6783.29,1488.04 c -0.63,25.81 -7.29,45.44 -19.99,58.87 -12.69,13.43 -28.14,20.16 -46.35,20.16 -19.46,0 -35.54,-7.1 -48.24,-21.27 -12.69,-14.18 -18.93,-33.44 -18.72,-57.76 z m -5.08,-90.14 88.87,-14.91 c -11.43,-32.59 -29.46,-57.4 -54.11,-74.44 -24.66,-17.03 -55.5,-25.54 -92.52,-25.54 -58.61,0 -101.99,19.15 -130.13,57.44 -22.21,30.68 -33.33,69.4 -33.33,116.17 0,55.86 14.61,99.6 43.81,131.23 29.2,31.63 66.11,47.45 110.76,47.45 50.15,0 89.71,-16.56 118.7,-49.67 28.99,-33.11 42.85,-83.84 41.58,-152.18 H 6648.4 c 0.64,-26.46 7.83,-47.04 21.58,-61.73 13.76,-14.71 30.9,-22.06 51.43,-22.06 13.96,0 25.7,3.8 35.22,11.42 9.52,7.62 16.71,19.88 21.58,36.82"
         style="fill:#ffffff;fill-opacity:1;fill-rule:nonzero;stroke:none"
         id="path58" /><path
         d="m 3477.75,975.91 h 93.95 v -252 c 0,-39.988 1.15,-65.91 3.49,-77.75 4.01,-19.051 13.59,-34.34 28.72,-45.871 15.12,-11.539 35.81,-17.301 62.05,-17.301 26.66,0 46.75,5.453 60.3,16.352 13.53,10.89 21.69,24.281 24.44,40.148 2.75,15.871 4.12,42.211 4.12,79.032 v 257.39 h 93.95 V 731.531 c 0,-55.859 -2.54,-95.332 -7.62,-118.383 -5.08,-23.07 -14.44,-42.539 -28.08,-58.398 -13.66,-15.879 -31.9,-28.52 -54.75,-37.93 -22.85,-9.41 -52.69,-14.121 -89.51,-14.121 -44.43,0 -78.13,5.129 -101.09,15.391 -22.95,10.25 -41.1,23.582 -54.42,39.992 -13.34,16.398 -22.12,33.578 -26.35,51.566 -6.14,26.661 -9.2,66.024 -9.2,118.071 V 975.91"
         style="fill:#ffffff;fill-opacity:1;fill-rule:nonzero;stroke:none"
         id="path60" /><path
         d="m 4253.75,510.629 h -89.18 v 172.019 c 0,36.391 -1.9,59.93 -5.71,70.622 -3.81,10.679 -10,18.992 -18.57,24.921 -8.57,5.918 -18.88,8.879 -30.94,8.879 -15.45,0 -29.31,-4.23 -41.58,-12.691 -12.27,-8.469 -20.69,-19.688 -25.23,-33.649 -4.55,-13.968 -6.83,-39.781 -6.83,-77.441 v -152.66 h -89.19 v 337.062 h 82.85 V 798.18 c 29.4,38.082 66.43,57.129 111.08,57.129 19.68,0 37.66,-3.547 53.95,-10.637 16.29,-7.094 28.62,-16.133 36.98,-27.133 8.36,-11 14.18,-23.488 17.46,-37.461 3.27,-13.957 4.91,-33.949 4.91,-59.976 V 510.629"
         style="fill:#ffffff;fill-opacity:1;fill-rule:nonzero;stroke:none"
         id="path62" /><path
         d="m 4344.21,510.629 v 337.062 h 89.18 V 510.629 Z m 0,382.762 v 82.519 h 89.18 v -82.519 h -89.18"
         style="fill:#ffffff;fill-opacity:1;fill-rule:nonzero;stroke:none"
         id="path64" /><path
         d="m 4746.65,510.629 v 50.473 c -12.27,-17.993 -28.41,-32.172 -48.4,-42.543 -20,-10.36 -41.1,-15.547 -63.32,-15.547 -22.64,0 -42.96,4.968 -60.94,14.918 -17.98,9.941 -30.99,23.91 -39.03,41.898 -8.05,17.981 -12.07,42.844 -12.07,74.582 v 213.281 h 89.19 V 692.809 c 0,-47.411 1.64,-76.438 4.92,-87.118 3.27,-10.703 9.25,-19.152 17.93,-25.39 8.67,-6.25 19.68,-9.371 33.01,-9.371 15.23,0 28.88,4.179 40.95,12.539 12.05,8.351 20.31,18.722 24.74,31.101 4.46,12.379 6.67,42.692 6.67,90.93 v 142.191 h 89.19 V 510.629 h -82.84"
         style="fill:#ffffff;fill-opacity:1;fill-rule:nonzero;stroke:none"
         id="path66" /><path
         d="m 5228.43,510.629 h -89.18 v 172.019 c 0,36.391 -1.91,59.93 -5.71,70.622 -3.81,10.679 -10,18.992 -18.57,24.921 -8.57,5.918 -18.89,8.879 -30.95,8.879 -15.45,0 -29.3,-4.23 -41.57,-12.691 -12.27,-8.469 -20.69,-19.688 -25.23,-33.649 -4.55,-13.968 -6.83,-39.781 -6.83,-77.441 v -152.66 h -89.19 v 337.062 h 82.84 V 798.18 c 29.41,38.082 66.44,57.129 111.09,57.129 19.67,0 37.65,-3.547 53.95,-10.637 16.29,-7.094 28.62,-16.133 36.97,-27.133 8.36,-11 14.18,-23.488 17.47,-37.461 3.27,-13.957 4.91,-33.949 4.91,-59.976 V 510.629"
         style="fill:#ffffff;fill-opacity:1;fill-rule:nonzero;stroke:none"
         id="path68" /><path
         d="m 5519.15,708.039 c -0.63,25.813 -7.29,45.441 -19.99,58.883 -12.7,13.43 -28.14,20.148 -46.35,20.148 -19.46,0 -35.54,-7.101 -48.24,-21.269 -12.69,-14.18 -18.94,-33.43 -18.72,-57.762 z m -5.08,-90.141 88.87,-14.91 c -11.43,-32.59 -29.46,-57.398 -54.11,-74.429 -24.66,-17.028 -55.5,-25.547 -92.52,-25.547 -58.61,0 -101.99,19.148 -130.13,57.437 -22.22,30.692 -33.33,69.41 -33.33,116.172 0,55.859 14.61,99.598 43.81,131.238 29.2,31.629 66.11,47.45 110.76,47.45 50.15,0 89.71,-16.571 118.7,-49.668 28.99,-33.121 42.84,-83.852 41.58,-152.192 h -223.44 c 0.64,-26.449 7.83,-47.027 21.58,-61.73 13.76,-14.699 30.9,-22.059 51.43,-22.059 13.96,0 25.7,3.809 35.22,11.43 9.52,7.609 16.71,19.879 21.58,36.808"
         style="fill:#ffffff;fill-opacity:1;fill-rule:nonzero;stroke:none"
         id="path70" /><path
         d="m 5866.37,672.488 c -11.43,-3.797 -29.51,-8.359 -54.27,-13.636 -24.76,-5.293 -40.95,-10.481 -48.56,-15.563 -11.64,-8.25 -17.46,-18.719 -17.46,-31.41 0,-12.488 4.65,-23.277 13.97,-32.379 9.31,-9.102 21.15,-13.648 35.55,-13.648 16.07,0 31.41,5.289 46.02,15.867 10.78,8.043 17.87,17.883 21.26,29.511 2.33,7.622 3.49,22.11 3.49,43.489 z m -119.34,72.371 -80.93,14.602 c 9.1,32.578 24.76,56.699 46.98,72.359 22.21,15.649 55.22,23.489 99.02,23.489 39.78,0 69.39,-4.707 88.87,-14.118 19.46,-9.429 33.16,-21.382 41.1,-35.871 7.93,-14.5 11.89,-41.101 11.89,-79.832 l -0.94,-104.097 c 0,-29.621 1.42,-51.461 4.28,-65.539 2.86,-14.071 8.2,-29.153 16.03,-45.223 h -88.23 c -2.34,5.922 -5.19,14.711 -8.58,26.351 -1.47,5.282 -2.54,8.77 -3.16,10.469 -15.23,-14.82 -31.53,-25.918 -48.89,-33.328 -17.34,-7.41 -35.86,-11.109 -55.53,-11.109 -34.71,0 -62.06,9.418 -82.05,28.238 -20,18.84 -30,42.641 -30,71.422 0,19.039 4.56,36.027 13.66,50.937 9.09,14.922 21.84,26.352 38.24,34.27 16.4,7.941 40.04,14.871 70.94,20.801 41.68,7.82 70.56,15.121 86.64,21.89 v 8.891 c 0,17.148 -4.23,29.359 -12.7,36.66 -8.46,7.301 -24.43,10.949 -47.92,10.949 -15.87,0 -28.25,-3.121 -37.14,-9.359 -8.88,-6.25 -16.07,-17.199 -21.58,-32.852"
         style="fill:#ffffff;fill-opacity:1;fill-rule:nonzero;stroke:none"
         id="path72" /><path
         d="M 6223.11,510.629 V 975.91 h 345 V 897.199 H 6317.05 V 794.051 h 233.59 V 715.66 H 6317.05 V 589.031 h 259.94 v -78.402 h -353.88"
         style="fill:#ffffff;fill-opacity:1;fill-rule:nonzero;stroke:none"
         id="path74" /><path
         d="m 6877.87,510.629 v 50.473 c -12.27,-17.993 -28.41,-32.172 -48.4,-42.543 -20,-10.36 -41.1,-15.547 -63.32,-15.547 -22.64,0 -42.96,4.968 -60.94,14.918 -17.98,9.941 -30.99,23.91 -39.03,41.898 -8.05,17.981 -12.07,42.844 -12.07,74.582 v 213.281 h 89.19 V 692.809 c 0,-47.411 1.64,-76.438 4.92,-87.118 3.27,-10.703 9.25,-19.152 17.93,-25.39 8.67,-6.25 19.68,-9.371 33.01,-9.371 15.23,0 28.88,4.179 40.95,12.539 12.05,8.351 20.31,18.722 24.74,31.101 4.46,12.379 6.67,42.692 6.67,90.93 v 142.191 h 89.19 V 510.629 h -82.84"
         style="fill:#ffffff;fill-opacity:1;fill-rule:nonzero;stroke:none"
         id="path76" /><path
         d="m 7138.44,510.629 h -89.18 v 337.062 h 82.83 V 799.77 c 14.17,22.64 26.92,37.55 38.24,44.75 11.32,7.179 24.17,10.789 38.57,10.789 20.31,0 39.88,-5.61 58.72,-16.829 L 7240,760.73 c -15.03,9.719 -28.99,14.598 -41.89,14.598 -12.49,0 -23.07,-3.437 -31.74,-10.316 -8.68,-6.883 -15.5,-19.313 -20.47,-37.293 -4.98,-17.989 -7.46,-55.66 -7.46,-112.989 V 510.629"
         style="fill:#ffffff;fill-opacity:1;fill-rule:nonzero;stroke:none"
         id="path78" /><path
         d="m 7376.8,679.16 c 0,-33.43 7.94,-59.039 23.8,-76.808 15.87,-17.782 35.44,-26.661 58.72,-26.661 23.27,0 42.79,8.879 58.55,26.661 15.76,17.769 23.64,43.589 23.64,77.437 0,33.012 -7.88,58.402 -23.64,76.172 -15.76,17.769 -35.28,26.66 -58.55,26.66 -23.28,0 -42.85,-8.891 -58.72,-26.66 -15.86,-17.77 -23.8,-43.371 -23.8,-76.801 z m -91.41,4.762 c 0,29.617 7.3,58.289 21.9,86.008 14.59,27.718 35.28,48.879 62.05,63.468 26.76,14.614 56.65,21.911 89.65,21.911 51,0 92.79,-16.571 125.38,-49.668 32.57,-33.121 48.87,-74.961 48.87,-125.532 0,-50.988 -16.45,-93.257 -49.35,-126.8 -32.9,-33.528 -74.32,-50.297 -124.25,-50.297 -30.9,0 -60.36,6.976 -88.4,20.949 -28.04,13.961 -49.36,34.43 -63.95,61.41 -14.6,26.981 -21.9,59.828 -21.9,98.551"
         style="fill:#ffffff;fill-opacity:1;fill-rule:nonzero;stroke:none"
         id="path80" /><path
         d="m 7788.75,684.871 c 0,-37.871 7.51,-65.851 22.54,-83.949 15.02,-18.082 33.32,-27.133 54.9,-27.133 20.74,0 37.98,8.301 51.74,24.91 13.75,16.61 20.62,43.852 20.62,81.731 0,35.34 -7.09,61.57 -21.26,78.711 -14.17,17.129 -31.73,25.711 -52.68,25.711 -21.8,0 -39.88,-8.411 -54.28,-25.243 -14.38,-16.808 -21.58,-41.738 -21.58,-74.738 z m -88.22,162.82 h 83.14 V 798.18 c 10.8,16.922 25.39,30.672 43.81,41.261 18.4,10.571 38.82,15.868 61.25,15.868 39.14,0 72.36,-15.348 99.66,-46.028 27.29,-30.672 40.95,-73.422 40.95,-128.222 0,-56.278 -13.76,-100.028 -41.27,-131.231 -27.5,-31.207 -60.83,-46.816 -99.97,-46.816 -18.63,0 -35.5,3.699 -50.63,11.109 -15.13,7.41 -31.05,20.098 -47.76,38.09 V 382.41 h -89.18 v 465.281"
         style="fill:#ffffff;fill-opacity:1;fill-rule:nonzero;stroke:none"
         id="path82" /><path
         d="m 8300.38,708.039 c -0.63,25.813 -7.29,45.441 -19.99,58.883 -12.69,13.43 -28.14,20.148 -46.35,20.148 -19.46,0 -35.54,-7.101 -48.24,-21.269 -12.69,-14.18 -18.93,-33.43 -18.72,-57.762 z m -5.08,-90.141 88.87,-14.91 c -11.43,-32.59 -29.46,-57.398 -54.11,-74.429 -24.66,-17.028 -55.5,-25.547 -92.52,-25.547 -58.61,0 -101.99,19.148 -130.13,57.437 -22.21,30.692 -33.33,69.41 -33.33,116.172 0,55.859 14.61,99.598 43.81,131.238 29.2,31.629 66.11,47.45 110.76,47.45 50.15,0 89.71,-16.571 118.7,-49.668 28.99,-33.121 42.85,-83.852 41.58,-152.192 h -223.44 c 0.64,-26.449 7.83,-47.027 21.58,-61.73 13.76,-14.699 30.9,-22.059 51.43,-22.059 13.96,0 25.7,3.809 35.22,11.43 9.52,7.609 16.71,19.879 21.58,36.808"
         style="fill:#ffffff;fill-opacity:1;fill-rule:nonzero;stroke:none"
         id="path84" /><path
         d="m 8647.6,672.488 c -11.43,-3.797 -29.51,-8.359 -54.27,-13.636 -24.76,-5.293 -40.95,-10.481 -48.56,-15.563 -11.64,-8.25 -17.46,-18.719 -17.46,-31.41 0,-12.488 4.65,-23.277 13.97,-32.379 9.31,-9.102 21.15,-13.648 35.55,-13.648 16.07,0 31.41,5.289 46.02,15.867 10.78,8.043 17.87,17.883 21.26,29.511 2.33,7.622 3.49,22.11 3.49,43.489 z m -119.34,72.371 -80.93,14.602 c 9.1,32.578 24.76,56.699 46.98,72.359 22.21,15.649 55.22,23.489 99.02,23.489 39.78,0 69.39,-4.707 88.87,-14.118 19.46,-9.429 33.16,-21.382 41.1,-35.871 7.93,-14.5 11.9,-41.101 11.9,-79.832 l -0.95,-104.097 c 0,-29.621 1.42,-51.461 4.29,-65.539 2.85,-14.071 8.19,-29.153 16.02,-45.223 h -88.23 c -2.34,5.922 -5.19,14.711 -8.58,26.351 -1.47,5.282 -2.54,8.77 -3.16,10.469 -15.23,-14.82 -31.53,-25.918 -48.89,-33.328 -17.34,-7.41 -35.86,-11.109 -55.53,-11.109 -34.71,0 -62.05,9.418 -82.04,28.238 -20,18.84 -30,42.641 -30,71.422 0,19.039 4.55,36.027 13.65,50.937 9.09,14.922 21.84,26.352 38.24,34.27 16.4,7.941 40.04,14.871 70.94,20.801 41.68,7.82 70.56,15.121 86.64,21.89 v 8.891 c 0,17.148 -4.23,29.359 -12.7,36.66 -8.45,7.301 -24.43,10.949 -47.92,10.949 -15.87,0 -28.25,-3.121 -37.14,-9.359 -8.88,-6.25 -16.07,-17.199 -21.58,-32.852"
         style="fill:#ffffff;fill-opacity:1;fill-rule:nonzero;stroke:none"
         id="path86" /><path
         d="m 9129.7,510.629 h -89.18 v 172.019 c 0,36.391 -1.91,59.93 -5.72,70.622 -3.8,10.679 -10,18.992 -18.56,24.921 -8.57,5.918 -18.89,8.879 -30.95,8.879 -15.45,0 -29.3,-4.23 -41.57,-12.691 -12.27,-8.469 -20.69,-19.688 -25.23,-33.649 -4.55,-13.968 -6.83,-39.781 -6.83,-77.441 v -152.66 h -89.19 v 337.062 h 82.84 V 798.18 c 29.41,38.082 66.44,57.129 111.09,57.129 19.67,0 37.65,-3.547 53.95,-10.637 16.29,-7.094 28.61,-16.133 36.97,-27.133 8.36,-11 14.18,-23.488 17.47,-37.461 3.27,-13.957 4.91,-33.949 4.91,-59.976 V 510.629"
         style="fill:#ffffff;fill-opacity:1;fill-rule:nonzero;stroke:none"
         id="path88" /><path
         d="m 9406.13,672.488 c -11.42,-3.797 -29.51,-8.359 -54.26,-13.636 -24.76,-5.293 -40.95,-10.481 -48.57,-15.563 -11.63,-8.25 -17.45,-18.719 -17.45,-31.41 0,-12.488 4.65,-23.277 13.96,-32.379 9.31,-9.102 21.16,-13.648 35.55,-13.648 16.08,0 31.42,5.289 46.03,15.867 10.78,8.043 17.87,17.883 21.26,29.511 2.32,7.622 3.48,22.11 3.48,43.489 z m 3.19,311.364 h 43.47 c -2.54,-28.782 -12.64,-51.372 -30.31,-67.762 -17.67,-16.41 -40.58,-24.602 -68.71,-24.602 -28.14,0 -51.05,8.192 -68.71,24.602 -17.68,16.39 -27.77,38.98 -30.31,67.762 h 43.47 c 1.49,-15.032 6.78,-26.403 15.88,-34.122 9.09,-7.718 22.32,-11.582 39.67,-11.582 17.34,0 30.58,3.864 39.67,11.582 9.1,7.719 14.39,19.09 15.88,34.122 z m -122.52,-238.993 -80.93,14.602 c 9.09,32.578 24.76,56.699 46.97,72.359 22.22,15.649 55.23,23.489 99.03,23.489 39.77,0 69.39,-4.707 88.86,-14.118 19.47,-9.429 33.17,-21.382 41.11,-35.871 7.93,-14.5 11.89,-41.101 11.89,-79.832 l -0.95,-104.097 c 0,-29.621 1.43,-51.461 4.29,-65.539 2.85,-14.071 8.19,-29.153 16.03,-45.223 h -88.24 c -2.33,5.922 -5.18,14.711 -8.57,26.351 -1.48,5.282 -2.54,8.77 -3.16,10.469 -15.24,-14.82 -31.54,-25.918 -48.89,-33.328 -17.35,-7.41 -35.86,-11.109 -55.54,-11.109 -34.71,0 -62.05,9.418 -82.04,28.238 -20,18.84 -30,42.641 -30,71.422 0,19.039 4.55,36.027 13.65,50.937 9.09,14.922 21.85,26.352 38.24,34.27 16.4,7.941 40.04,14.871 70.94,20.801 41.68,7.82 70.57,15.121 86.64,21.89 v 8.891 c 0,17.148 -4.23,29.359 -12.69,36.66 -8.46,7.301 -24.44,10.949 -47.92,10.949 -15.87,0 -28.25,-3.121 -37.14,-9.359 -8.89,-6.25 -16.08,-17.199 -21.58,-32.852"
         style="fill:#ffffff;fill-opacity:1;fill-rule:nonzero;stroke:none"
         id="path90" /></g></g></svg>
