<?xml version="1.0" encoding="UTF-8" standalone="no"?>
<!-- Created with Inkscape (http://www.inkscape.org/) -->

<svg
   version="1.1"
   id="svg2"
   xml:space="preserve"
   width="1358.7333"
   height="284.66666"
   viewBox="0 0 1358.7333 284.66666"
   sodipodi:docname="SL Financira Evropska unija_NEG.eps"
   xmlns:inkscape="http://www.inkscape.org/namespaces/inkscape"
   xmlns:sodipodi="http://sodipodi.sourceforge.net/DTD/sodipodi-0.dtd"
   xmlns="http://www.w3.org/2000/svg"
   xmlns:svg="http://www.w3.org/2000/svg"><defs
     id="defs6" /><sodipodi:namedview
     id="namedview4"
     pagecolor="#ffffff"
     bordercolor="#666666"
     borderopacity="1.0"
     inkscape:pageshadow="2"
     inkscape:pageopacity="0.0"
     inkscape:pagecheckerboard="0" /><g
     id="g8"
     inkscape:groupmode="layer"
     inkscape:label="ink_ext_XXXXXX"
     transform="matrix(1.3333333,0,0,-1.3333333,0,284.66667)"><g
       id="g10"
       transform="scale(0.1)"><path
         d="M 164.473,71.0586 H 3113.93 V 2073.9 H 164.473 V 71.0586"
         style="fill:#ffffff;fill-opacity:1;fill-rule:nonzero;stroke:none"
         id="path12" /><path
         d="M 221.191,128.281 H 3057.22 V 2018.97 H 221.191 V 128.281"
         style="fill:#264ca4;fill-opacity:1;fill-rule:nonzero;stroke:none"
         id="path14" /><path
         d="m 1578.78,1607.02 59.83,43.67 59.86,-43.67 -22.79,70.63 60.79,43.67 h -74.93 l -22.93,71.48 -22.93,-71.56 -74.88,0.08 60.74,-43.67 -22.76,-70.63"
         style="fill:#f5f014;fill-opacity:1;fill-rule:nonzero;stroke:none"
         id="path16" /><path
         d="m 1269.08,1523.82 59.85,43.67 59.81,-43.67 -22.74,70.63 60.75,43.68 h -74.93 l -22.92,71.55 -22.93,-71.64 -74.9,0.09 60.75,-43.68 -22.74,-70.63"
         style="fill:#f5f014;fill-opacity:1;fill-rule:nonzero;stroke:none"
         id="path18" /><path
         d="m 1102.32,1482.57 -22.93,-71.64 -74.88,0.09 60.74,-43.68 -22.76,-70.63 59.83,43.68 59.85,-43.68 -22.78,70.63 60.75,43.68 h -74.89 l -22.93,71.55"
         style="fill:#f5f014;fill-opacity:1;fill-rule:nonzero;stroke:none"
         id="path20" /><path
         d="m 1019.21,1031.08 59.8,-43.658 -22.73,70.608 60.73,43.68 h -74.87 l -22.93,71.56 -22.933,-71.72 -74.922,0.16 60.786,-43.68 -22.778,-70.608 59.847,43.658"
         style="fill:#f5f014;fill-opacity:1;fill-rule:nonzero;stroke:none"
         id="path22" /><path
         d="m 1125.25,791.48 -22.93,71.559 -22.93,-71.641 -74.88,0.082 60.74,-43.66 -22.76,-70.64 59.83,43.75 59.85,-43.75 -22.78,70.64 60.75,43.66 h -74.89"
         style="fill:#f5f014;fill-opacity:1;fill-rule:nonzero;stroke:none"
         id="path24" /><path
         d="m 1352.29,564.461 -22.93,71.469 -22.9,-71.559 -74.92,0.09 60.75,-43.68 -22.73,-70.633 59.83,43.672 59.81,-43.672 -22.74,70.633 60.75,43.68 h -74.92"
         style="fill:#f5f014;fill-opacity:1;fill-rule:nonzero;stroke:none"
         id="path26" /><path
         d="m 1661.58,482.18 -22.93,71.558 -22.89,-71.636 -74.91,0.078 60.73,-43.668 -22.72,-70.633 59.83,43.68 59.81,-43.68 -22.78,70.633 60.78,43.668 h -74.92"
         style="fill:#f5f014;fill-opacity:1;fill-rule:nonzero;stroke:none"
         id="path28" /><path
         d="m 1970.89,564.461 -22.89,71.469 -22.97,-71.559 -74.84,0.09 60.7,-43.68 -22.74,-70.633 59.85,43.672 59.83,-43.672 -22.8,70.633 60.78,43.68 h -74.92"
         style="fill:#f5f014;fill-opacity:1;fill-rule:nonzero;stroke:none"
         id="path30" /><path
         d="m 2198,791.48 -22.97,71.559 -22.97,-71.641 -74.84,0.082 60.78,-43.66 -22.81,-70.64 59.84,43.75 59.83,-43.75 -22.8,70.64 60.77,43.66 H 2198"
         style="fill:#f5f014;fill-opacity:1;fill-rule:nonzero;stroke:none"
         id="path32" /><path
         d="m 2355.11,1102.57 h -74.92 l -22.97,71.57 -22.89,-71.65 -74.93,0.08 60.79,-43.67 -22.75,-70.619 59.78,43.749 59.84,-43.749 -22.73,70.619 60.78,43.67"
         style="fill:#f5f014;fill-opacity:1;fill-rule:nonzero;stroke:none"
         id="path34" /><path
         d="m 2115.18,1297.66 59.84,43.66 59.84,-43.66 -22.8,70.63 60.77,43.59 h -74.84 l -22.97,71.55 -22.96,-71.64 -74.85,0.09 60.78,-43.59 -22.81,-70.63"
         style="fill:#f5f014;fill-opacity:1;fill-rule:nonzero;stroke:none"
         id="path36" /><path
         d="m 1948.86,1709.6 -22.89,-71.64 -74.93,0.17 60.71,-43.75 -22.74,-70.64 59.93,43.75 59.75,-43.75 -22.72,70.64 60.78,43.75 h -75 l -22.89,71.47"
         style="fill:#f5f014;fill-opacity:1;fill-rule:nonzero;stroke:none"
         id="path38" /><path
         d="m 3469.02,1290.63 v 465.28 h 318.97 v -78.71 h -225.02 v -110.13 h 194.24 v -78.71 h -194.24 v -197.73 h -93.95"
         style="fill:#ffffff;fill-opacity:1;fill-rule:nonzero;stroke:none"
         id="path40" /><path
         d="m 3864.8,1290.63 v 337.05 h 89.18 v -337.05 z m 0,382.76 v 82.52 h 89.18 v -82.52 h -89.18"
         style="fill:#ffffff;fill-opacity:1;fill-rule:nonzero;stroke:none"
         id="path42" /><path
         d="m 4351.97,1290.63 h -89.18 v 172.01 c 0,36.39 -1.9,59.94 -5.71,70.62 -3.81,10.69 -10,18.99 -18.56,24.92 -8.58,5.92 -18.89,8.89 -30.95,8.89 -15.45,0 -29.31,-4.24 -41.57,-12.69 -12.28,-8.47 -20.7,-19.69 -25.24,-33.66 -4.55,-13.96 -6.82,-39.77 -6.82,-77.44 v -152.65 h -89.19 v 337.05 h 82.84 v -49.51 c 29.4,38.09 66.43,57.13 111.08,57.13 19.68,0 37.66,-3.54 53.96,-10.63 16.29,-7.09 28.61,-16.13 36.97,-27.13 8.36,-11.01 14.18,-23.5 17.46,-37.46 3.27,-13.97 4.91,-33.96 4.91,-59.98 v -209.47"
         style="fill:#ffffff;fill-opacity:1;fill-rule:nonzero;stroke:none"
         id="path44" /><path
         d="m 4628.42,1452.49 c -11.43,-3.81 -29.51,-8.36 -54.27,-13.64 -24.76,-5.3 -40.95,-10.48 -48.56,-15.56 -11.63,-8.25 -17.46,-18.72 -17.46,-31.41 0,-12.5 4.65,-23.29 13.97,-32.39 9.31,-9.09 21.15,-13.64 35.55,-13.64 16.07,0 31.41,5.28 46.02,15.87 10.78,8.03 17.87,17.88 21.26,29.51 2.33,7.62 3.49,22.11 3.49,43.48 z m -119.34,72.36 -80.93,14.6 c 9.1,32.58 24.76,56.7 46.98,72.37 22.21,15.65 55.22,23.48 99.02,23.48 39.78,0 69.39,-4.71 88.87,-14.12 19.46,-9.42 33.16,-21.38 41.1,-35.87 7.93,-14.49 11.9,-41.09 11.9,-79.82 l -0.95,-104.1 c 0,-29.62 1.42,-51.47 4.29,-65.54 2.85,-14.07 8.19,-29.15 16.02,-45.22 h -88.23 c -2.34,5.91 -5.19,14.7 -8.58,26.34 -1.47,5.28 -2.53,8.77 -3.16,10.47 -15.23,-14.81 -31.53,-25.92 -48.89,-33.32 -17.34,-7.41 -35.86,-11.11 -55.53,-11.11 -34.71,0 -62.05,9.41 -82.04,28.24 -20,18.84 -30,42.64 -30,71.41 0,19.05 4.55,36.03 13.65,50.94 9.09,14.92 21.84,26.35 38.24,34.28 16.4,7.94 40.04,14.86 70.94,20.79 41.68,7.82 70.56,15.13 86.64,21.9 v 8.88 c 0,17.15 -4.23,29.37 -12.7,36.66 -8.45,7.31 -24.43,10.96 -47.92,10.96 -15.87,0 -28.25,-3.12 -37.14,-9.37 -8.88,-6.25 -16.07,-17.19 -21.58,-32.85"
         style="fill:#ffffff;fill-opacity:1;fill-rule:nonzero;stroke:none"
         id="path46" /><path
         d="m 5110.52,1290.63 h -89.18 v 172.01 c 0,36.39 -1.91,59.94 -5.71,70.62 -3.81,10.69 -10,18.99 -18.57,24.92 -8.57,5.92 -18.89,8.89 -30.95,8.89 -15.45,0 -29.3,-4.24 -41.57,-12.69 -12.27,-8.47 -20.69,-19.69 -25.23,-33.66 -4.55,-13.96 -6.83,-39.77 -6.83,-77.44 v -152.65 h -89.19 v 337.05 h 82.84 v -49.51 c 29.41,38.09 66.44,57.13 111.09,57.13 19.67,0 37.65,-3.54 53.95,-10.63 16.29,-7.09 28.62,-16.13 36.97,-27.13 8.36,-11.01 14.18,-23.5 17.47,-37.46 3.27,-13.97 4.91,-33.96 4.91,-59.98 v -209.47"
         style="fill:#ffffff;fill-opacity:1;fill-rule:nonzero;stroke:none"
         id="path48" /><path
         d="m 5494.86,1528.03 -87.91,-15.87 c -2.97,17.55 -9.67,30.79 -20.15,39.68 -10.47,8.88 -24.08,13.32 -40.78,13.32 -22.22,0 -39.95,-7.67 -53.17,-23.01 -13.22,-15.35 -19.83,-41 -19.83,-76.97 0,-39.98 6.72,-68.23 20.15,-84.73 13.43,-16.5 31.47,-24.77 54.12,-24.77 16.92,0 30.78,4.82 41.58,14.45 10.78,9.62 18.4,26.18 22.85,49.67 l 87.6,-14.92 c -9.11,-40.2 -26.57,-70.56 -52.38,-91.09 -25.82,-20.52 -60.41,-30.78 -103.78,-30.78 -49.3,0 -88.61,15.54 -117.91,46.66 -29.3,31.09 -43.96,74.15 -43.96,129.17 0,55.64 14.71,98.96 44.12,129.97 29.4,30.99 69.19,46.49 119.34,46.49 41.04,0 73.68,-8.84 97.91,-26.5 24.22,-17.67 41.63,-44.59 52.2,-80.77"
         style="fill:#ffffff;fill-opacity:1;fill-rule:nonzero;stroke:none"
         id="path50" /><path
         d="m 5562.48,1290.63 v 337.05 h 89.18 v -337.05 z m 0,382.76 v 82.52 h 89.18 v -82.52 h -89.18"
         style="fill:#ffffff;fill-opacity:1;fill-rule:nonzero;stroke:none"
         id="path52" /><path
         d="m 5828.44,1290.63 h -89.18 v 337.05 h 82.83 v -47.91 c 14.17,22.63 26.92,37.54 38.24,44.74 11.32,7.19 24.17,10.79 38.57,10.79 20.31,0 39.88,-5.6 58.72,-16.82 L 5930,1540.72 c -15.03,9.73 -28.99,14.6 -41.89,14.6 -12.49,0 -23.07,-3.44 -31.74,-10.31 -8.68,-6.88 -15.5,-19.32 -20.47,-37.3 -4.98,-17.98 -7.46,-55.65 -7.46,-112.98 v -104.1"
         style="fill:#ffffff;fill-opacity:1;fill-rule:nonzero;stroke:none"
         id="path54" /><path
         d="m 6182,1452.49 c -11.42,-3.81 -29.51,-8.36 -54.27,-13.64 -24.75,-5.3 -40.94,-10.48 -48.56,-15.56 -11.63,-8.25 -17.45,-18.72 -17.45,-31.41 0,-12.5 4.65,-23.29 13.96,-32.39 9.31,-9.09 21.16,-13.64 35.55,-13.64 16.07,0 31.42,5.28 46.03,15.87 10.78,8.03 17.87,17.88 21.26,29.51 2.32,7.62 3.48,22.11 3.48,43.48 z m -119.33,72.36 -80.93,14.6 c 9.09,32.58 24.75,56.7 46.97,72.37 22.22,15.65 55.23,23.48 99.02,23.48 39.78,0 69.4,-4.71 88.87,-14.12 19.46,-9.42 33.17,-21.38 41.11,-35.87 7.92,-14.49 11.89,-41.09 11.89,-79.82 l -0.95,-104.1 c 0,-29.62 1.43,-51.47 4.29,-65.54 2.85,-14.07 8.19,-29.15 16.02,-45.22 h -88.23 c -2.33,5.91 -5.18,14.7 -8.57,26.34 -1.48,5.28 -2.54,8.77 -3.17,10.47 -15.23,-14.81 -31.53,-25.92 -48.88,-33.32 -17.35,-7.41 -35.86,-11.11 -55.54,-11.11 -34.71,0 -62.05,9.41 -82.04,28.24 -20,18.84 -30,42.64 -30,71.41 0,19.05 4.55,36.03 13.65,50.94 9.09,14.92 21.85,26.35 38.24,34.28 16.4,7.94 40.04,14.86 70.94,20.79 41.68,7.82 70.57,15.13 86.64,21.9 v 8.88 c 0,17.15 -4.23,29.37 -12.69,36.66 -8.46,7.31 -24.44,10.96 -47.92,10.96 -15.87,0 -28.26,-3.12 -37.14,-9.37 -8.89,-6.25 -16.08,-17.19 -21.58,-32.85"
         style="fill:#ffffff;fill-opacity:1;fill-rule:nonzero;stroke:none"
         id="path56" /><path
         d="M 3468.38,510.629 V 975.91 h 345 V 897.199 H 3562.32 V 794.051 h 233.6 V 715.66 h -233.6 V 589.031 h 259.95 v -78.402 h -353.89"
         style="fill:#ffffff;fill-opacity:1;fill-rule:nonzero;stroke:none"
         id="path58" /><path
         d="m 3993.97,510.629 -135.84,337.062 h 93.63 l 63.47,-172.019 18.41,-57.442 c 4.87,14.59 7.93,24.219 9.2,28.872 2.97,9.519 6.14,19.046 9.53,28.57 l 64.1,172.019 h 91.73 L 4074.27,510.629 h -80.3"
         style="fill:#ffffff;fill-opacity:1;fill-rule:nonzero;stroke:none"
         id="path60" /><path
         d="m 4348.16,510.629 h -89.18 v 337.062 h 82.84 V 799.77 c 14.17,22.64 26.92,37.55 38.24,44.75 11.32,7.179 24.17,10.789 38.56,10.789 20.32,0 39.89,-5.61 58.72,-16.829 l -27.61,-77.75 c -15.03,9.719 -29,14.598 -41.9,14.598 -12.49,0 -23.06,-3.437 -31.74,-10.316 -8.68,-6.883 -15.49,-19.313 -20.46,-37.293 -4.99,-17.989 -7.47,-55.66 -7.47,-112.989 V 510.629"
         style="fill:#ffffff;fill-opacity:1;fill-rule:nonzero;stroke:none"
         id="path62" /><path
         d="m 4586.52,679.16 c 0,-33.43 7.94,-59.039 23.8,-76.808 15.88,-17.782 35.44,-26.661 58.72,-26.661 23.27,0 42.8,8.879 58.56,26.661 15.76,17.769 23.64,43.589 23.64,77.437 0,33.012 -7.88,58.402 -23.64,76.172 -15.76,17.769 -35.29,26.66 -58.56,26.66 -23.28,0 -42.84,-8.891 -58.72,-26.66 -15.86,-17.77 -23.8,-43.371 -23.8,-76.801 z m -91.4,4.762 c 0,29.617 7.29,58.289 21.9,86.008 14.59,27.718 35.27,48.879 62.04,63.468 26.77,14.614 56.65,21.911 89.66,21.911 51,0 92.78,-16.571 125.37,-49.668 32.58,-33.121 48.88,-74.961 48.88,-125.532 0,-50.988 -16.46,-93.257 -49.36,-126.8 -32.9,-33.528 -74.31,-50.297 -124.24,-50.297 -30.9,0 -60.37,6.976 -88.4,20.949 -28.04,13.961 -49.36,34.43 -63.95,61.41 -14.61,26.981 -21.9,59.828 -21.9,98.551"
         style="fill:#ffffff;fill-opacity:1;fill-rule:nonzero;stroke:none"
         id="path64" /><path
         d="m 4998.48,684.871 c 0,-37.871 7.51,-65.851 22.54,-83.949 15.02,-18.082 33.32,-27.133 54.9,-27.133 20.74,0 37.98,8.301 51.74,24.91 13.75,16.61 20.62,43.852 20.62,81.731 0,35.34 -7.09,61.57 -21.26,78.711 -14.18,17.129 -31.74,25.711 -52.68,25.711 -21.8,0 -39.89,-8.411 -54.28,-25.243 -14.39,-16.808 -21.58,-41.738 -21.58,-74.738 z m -88.23,162.82 h 83.15 V 798.18 c 10.8,16.922 25.39,30.672 43.81,41.261 18.4,10.571 38.82,15.868 61.25,15.868 39.14,0 72.36,-15.348 99.66,-46.028 27.29,-30.672 40.94,-73.422 40.94,-128.222 0,-56.278 -13.76,-100.028 -41.27,-131.231 -27.5,-31.207 -60.83,-46.816 -99.97,-46.816 -18.62,0 -35.5,3.699 -50.62,11.109 -15.13,7.41 -31.06,20.098 -47.77,38.09 V 382.41 h -89.18 v 465.281"
         style="fill:#ffffff;fill-opacity:1;fill-rule:nonzero;stroke:none"
         id="path66" /><path
         d="m 5278.42,606.801 89.5,13.64 c 3.81,-17.351 11.53,-30.519 23.17,-39.511 11.63,-8.989 27.93,-13.481 48.87,-13.481 23.07,0 40.42,4.223 52.05,12.692 7.83,5.918 11.75,13.847 11.75,23.8 0,6.77 -2.12,12.368 -6.35,16.829 -4.44,4.218 -14.39,8.128 -29.83,11.73 -71.95,15.871 -117.54,30.371 -136.8,43.48 -26.66,18.2 -39.98,43.489 -39.98,75.86 0,29.199 11.52,53.742 34.59,73.629 23.06,19.89 58.82,29.84 107.28,29.84 46.12,0 80.4,-7.508 102.83,-22.528 22.42,-15.031 37.87,-37.25 46.34,-66.66 l -84.11,-15.551 c -3.6,13.121 -10.43,23.16 -20.47,30.16 -10.05,6.969 -24.39,10.469 -43,10.469 -23.5,0 -40.31,-3.289 -50.47,-9.847 -6.78,-4.653 -10.16,-10.68 -10.16,-18.082 0,-6.348 2.96,-11.739 8.89,-16.2 8.04,-5.91 35.81,-14.269 83.31,-25.058 47.5,-10.801 80.66,-24.024 99.5,-39.684 18.62,-15.859 27.93,-37.976 27.93,-66.328 0,-30.898 -12.91,-57.441 -38.72,-79.672 -25.82,-22.207 -64,-33.316 -114.58,-33.316 -45.91,0 -82.25,9.308 -109.01,27.929 -26.77,18.61 -44.28,43.911 -52.53,75.86"
         style="fill:#ffffff;fill-opacity:1;fill-rule:nonzero;stroke:none"
         id="path68" /><path
         d="M 5668.16,510.629 V 975.91 h 89.19 V 728.988 l 104.43,118.703 h 109.8 l -115.2,-123.152 123.46,-213.91 h -96.17 l -84.74,151.391 -41.58,-43.481 v -107.91 h -89.19"
         style="fill:#ffffff;fill-opacity:1;fill-rule:nonzero;stroke:none"
         id="path70" /><path
         d="m 6218.82,672.488 c -11.43,-3.797 -29.51,-8.359 -54.27,-13.636 -24.76,-5.293 -40.95,-10.481 -48.56,-15.563 -11.63,-8.25 -17.45,-18.719 -17.45,-31.41 0,-12.488 4.64,-23.277 13.96,-32.379 9.31,-9.102 21.15,-13.648 35.55,-13.648 16.07,0 31.41,5.289 46.02,15.867 10.78,8.043 17.87,17.883 21.26,29.511 2.33,7.622 3.49,22.11 3.49,43.489 z m -119.34,72.371 -80.93,14.602 c 9.1,32.578 24.76,56.699 46.98,72.359 22.21,15.649 55.22,23.489 99.02,23.489 39.78,0 69.4,-4.707 88.87,-14.118 19.46,-9.429 33.16,-21.382 41.1,-35.871 7.93,-14.5 11.9,-41.101 11.9,-79.832 l -0.95,-104.097 c 0,-29.621 1.42,-51.461 4.29,-65.539 2.85,-14.071 8.19,-29.153 16.02,-45.223 h -88.23 c -2.34,5.922 -5.19,14.711 -8.58,26.351 -1.47,5.282 -2.53,8.77 -3.16,10.469 -15.23,-14.82 -31.53,-25.918 -48.89,-33.328 -17.34,-7.41 -35.86,-11.109 -55.53,-11.109 -34.71,0 -62.05,9.418 -82.04,28.238 -20,18.84 -30,42.641 -30,71.422 0,19.039 4.55,36.027 13.65,50.937 9.09,14.922 21.84,26.352 38.24,34.27 16.4,7.941 40.04,14.871 70.94,20.801 41.68,7.82 70.56,15.121 86.64,21.89 v 8.891 c 0,17.148 -4.23,29.359 -12.7,36.66 -8.45,7.301 -24.43,10.949 -47.92,10.949 -15.87,0 -28.25,-3.121 -37.14,-9.359 -8.88,-6.25 -16.07,-17.199 -21.58,-32.852"
         style="fill:#ffffff;fill-opacity:1;fill-rule:nonzero;stroke:none"
         id="path72" /><path
         d="m 6796.78,510.629 v 50.473 c -12.28,-17.993 -28.41,-32.172 -48.4,-42.543 -20,-10.36 -41.1,-15.547 -63.32,-15.547 -22.65,0 -42.96,4.968 -60.94,14.918 -17.99,9.941 -30.99,23.91 -39.03,41.898 -8.05,17.981 -12.07,42.844 -12.07,74.582 v 213.281 h 89.19 V 692.809 c 0,-47.411 1.64,-76.438 4.92,-87.118 3.27,-10.703 9.25,-19.152 17.93,-25.39 8.67,-6.25 19.68,-9.371 33.01,-9.371 15.23,0 28.87,4.179 40.94,12.539 12.05,8.351 20.32,18.722 24.75,31.101 4.45,12.379 6.67,42.692 6.67,90.93 v 142.191 h 89.19 V 510.629 h -82.84"
         style="fill:#ffffff;fill-opacity:1;fill-rule:nonzero;stroke:none"
         id="path74" /><path
         d="m 7278.55,510.629 h -89.17 v 172.019 c 0,36.391 -1.91,59.93 -5.72,70.622 -3.81,10.679 -10,18.992 -18.56,24.921 -8.58,5.918 -18.89,8.879 -30.95,8.879 -15.45,0 -29.31,-4.23 -41.57,-12.691 -12.28,-8.469 -20.7,-19.688 -25.24,-33.649 -4.55,-13.968 -6.82,-39.781 -6.82,-77.441 v -152.66 h -89.19 v 337.062 h 82.84 V 798.18 c 29.4,38.082 66.44,57.129 111.08,57.129 19.68,0 37.66,-3.547 53.96,-10.637 16.29,-7.094 28.61,-16.133 36.97,-27.133 8.36,-11 14.18,-23.488 17.46,-37.461 3.27,-13.957 4.91,-33.949 4.91,-59.976 V 510.629"
         style="fill:#ffffff;fill-opacity:1;fill-rule:nonzero;stroke:none"
         id="path76" /><path
         d="m 7369.02,510.629 v 337.062 h 89.18 V 510.629 Z m 0,382.762 v 82.519 h 89.18 v -82.519 h -89.18"
         style="fill:#ffffff;fill-opacity:1;fill-rule:nonzero;stroke:none"
         id="path78" /><path
         d="m 7547.7,893.391 v 82.519 h 89.18 v -82.519 z m 89.18,-45.7 V 521.102 c 0,-42.954 -2.8,-73.25 -8.4,-90.93 -5.62,-17.672 -16.41,-31.473 -32.38,-41.422 -15.97,-9.941 -36.33,-14.922 -61.1,-14.922 -8.89,0 -18.46,0.801 -28.72,2.383 -10.25,1.598 -21.31,3.969 -33.16,7.148 l 15.55,76.172 c 4.23,-0.84 8.2,-1.531 11.9,-2.07 3.7,-0.52 7.14,-0.789 10.31,-0.789 9.1,0 16.56,1.969 22.38,5.867 5.81,3.922 9.68,8.633 11.58,14.121 1.91,5.512 2.86,22.02 2.86,49.52 v 321.511 h 89.18"
         style="fill:#ffffff;fill-opacity:1;fill-rule:nonzero;stroke:none"
         id="path80" /><path
         d="m 7916.18,672.488 c -11.42,-3.797 -29.51,-8.359 -54.27,-13.636 -24.75,-5.293 -40.94,-10.481 -48.56,-15.563 -11.63,-8.25 -17.45,-18.719 -17.45,-31.41 0,-12.488 4.65,-23.277 13.96,-32.379 9.31,-9.102 21.16,-13.648 35.55,-13.648 16.07,0 31.42,5.289 46.03,15.867 10.78,8.043 17.87,17.883 21.26,29.511 2.32,7.622 3.48,22.11 3.48,43.489 z m -119.33,72.371 -80.93,14.602 c 9.09,32.578 24.75,56.699 46.97,72.359 22.22,15.649 55.23,23.489 99.02,23.489 39.78,0 69.4,-4.707 88.87,-14.118 19.46,-9.429 33.17,-21.382 41.1,-35.871 7.93,-14.5 11.9,-41.101 11.9,-79.832 l -0.95,-104.097 c 0,-29.621 1.43,-51.461 4.29,-65.539 2.85,-14.071 8.19,-29.153 16.02,-45.223 h -88.23 c -2.33,5.922 -5.18,14.711 -8.57,26.351 -1.48,5.282 -2.54,8.77 -3.17,10.469 -15.23,-14.82 -31.53,-25.918 -48.88,-33.328 -17.35,-7.41 -35.86,-11.109 -55.54,-11.109 -34.71,0 -62.05,9.418 -82.04,28.238 -20,18.84 -30,42.641 -30,71.422 0,19.039 4.55,36.027 13.65,50.937 9.09,14.922 21.85,26.352 38.24,34.27 16.4,7.941 40.04,14.871 70.94,20.801 41.68,7.82 70.57,15.121 86.64,21.89 v 8.891 c 0,17.148 -4.23,29.359 -12.69,36.66 -8.46,7.301 -24.44,10.949 -47.92,10.949 -15.87,0 -28.26,-3.121 -37.14,-9.359 -8.89,-6.25 -16.08,-17.199 -21.58,-32.852"
         style="fill:#ffffff;fill-opacity:1;fill-rule:nonzero;stroke:none"
         id="path82" /></g></g></svg>
