<svg width="207" height="32" viewBox="0 0 207 32" fill="none" xmlns="http://www.w3.org/2000/svg">
<g id="productlogo-apis 1">
<path id="Vector" d="M166.576 20.504C166.074 20.504 165.572 20.2179 165.413 19.5915C165.096 18.3407 164.752 17.0628 164.382 15.8371H156.818C156.475 17.0628 156.129 18.3407 155.786 19.5915C155.627 20.2179 155.151 20.504 154.676 20.504C154.016 20.504 153.327 19.9569 153.539 19.0695C155.047 13.0996 156.924 7.65177 159.118 2.30624C159.567 1.23713 160.097 1.02832 160.626 1.02832C161.156 1.02832 161.711 1.23713 162.187 2.30624C164.382 7.64968 166.233 13.0996 167.741 19.0695C167.953 19.9569 167.265 20.504 166.578 20.504H166.576ZM160.601 4.80987C159.438 7.70397 158.379 10.6231 157.428 13.6989H163.774C162.823 10.6231 161.764 7.70397 160.601 4.80987Z" fill="#0A72CC"/>
<path id="Vector_2" d="M176.811 12.7341H172.685V19.3304C172.685 19.9819 172.155 20.5039 171.495 20.5039C170.834 20.5039 170.304 19.9819 170.304 19.3304V2.43767C170.304 1.81124 170.834 1.26416 171.495 1.26416H176.546C181.069 1.26416 182.628 3.92231 182.628 6.39879V7.72891C182.628 10.6752 180.486 12.7341 176.809 12.7341H176.811ZM180.277 6.42594C180.277 5.07076 179.429 3.47963 176.39 3.47963H172.687V10.5959H176.733C179.22 10.5959 180.277 9.24069 180.277 7.67671V6.42594Z" fill="#0A72CC"/>
<path id="Vector_3" d="M187.099 20.504C186.438 20.504 185.909 19.982 185.909 19.3305V2.20183C185.909 1.5754 186.438 1.02832 187.099 1.02832C187.76 1.02832 188.29 1.5754 188.29 2.20183V19.3305C188.29 19.982 187.76 20.504 187.099 20.504Z" fill="#0A72CC"/>
<path id="Vector_4" d="M195.851 20.4245C194.106 20.4245 193.102 20.2157 192.096 19.8502C191.541 19.6686 191.354 19.0672 191.513 18.5723C191.698 18.0252 192.28 17.7642 192.835 17.973C193.655 18.2863 194.422 18.4679 195.877 18.4679C197.806 18.4679 198.679 17.6598 198.679 16.4863C198.679 14.843 196.802 14.7657 194.951 14.3481C193.206 13.9576 191.541 13.3061 191.541 10.8297C191.541 8.35318 193.523 6.9458 196.063 6.9458C197.544 6.9458 198.497 7.12747 199.501 7.52003C200.056 7.70169 200.268 8.27592 200.083 8.79794C199.899 9.29282 199.37 9.58098 198.815 9.39723C197.914 9.05896 197.201 8.8752 196.169 8.8752C194.555 8.8752 193.735 9.65824 193.735 10.7253C193.735 12.1848 195.349 12.3686 197.095 12.7319C198.946 13.0973 200.903 13.6716 200.903 16.407C200.903 19.1424 198.734 20.4224 195.851 20.4224V20.4245Z" fill="#0A72CC"/>
<path id="Vector_5" d="M26.3326 11.5794C26.3135 11.3038 26.2796 11.0365 26.2691 10.7609C26.2182 10.5604 26.1886 10.2284 26.1335 10.0509C26.0572 9.80455 26.0551 9.71476 26.0043 9.5498C25.9513 9.37023 25.9471 9.38067 25.837 8.97975C25.6315 8.22804 25.2756 7.47632 24.9071 6.76846C24.6677 6.30699 24.3627 5.93531 24.0683 5.53022C24.0047 5.44252 23.8311 5.23997 23.7781 5.1648C23.668 5.00402 22.9817 4.22724 22.7656 4.05184C22.5474 3.87644 22.3589 3.67599 22.1365 3.50685C21.9078 3.33354 21.6832 3.15396 21.4524 2.98274C21.2638 2.84075 21.0647 2.76349 20.8741 2.64447C19.8298 2.00342 18.6754 1.5148 17.4744 1.23917C13.4775 0.3225 8.78786 1.66515 6.19099 4.89335C5.91986 5.23162 5.17003 6.26105 5.06201 6.43227C4.82265 6.81857 4.62778 7.1819 4.43927 7.59534C3.70426 9.20527 3.26368 11.1326 3.40348 12.9805C3.47974 13.9912 3.6852 15.0373 4.03681 15.9916C4.14696 16.2902 4.25075 16.595 4.39055 16.8811C4.48798 17.0795 4.73793 17.5284 4.75911 17.566C2.624 18.5015 1.13281 20.6084 1.13281 23.0598C1.13281 26.382 3.86313 29.0735 7.23312 29.0735C7.96177 29.0735 8.65865 28.9399 9.30681 28.7102C9.31528 28.7352 9.32799 28.7519 9.33858 28.7707C9.67536 30.0779 10.8721 31.0468 12.3019 31.0468C13.9922 31.0468 15.3626 29.6958 15.3626 28.0295C15.3626 26.5929 14.3438 25.3943 12.9797 25.0894C12.9882 25.056 12.9988 25.0247 13.0072 24.9913C13.0496 24.8702 13.0856 24.7449 13.1195 24.6196C13.1682 24.463 13.2148 24.3064 13.2402 24.1435C13.2529 24.06 13.2657 23.9514 13.2762 23.8491C13.2911 23.7322 13.3038 23.6152 13.3123 23.4983C13.3419 23.4795 13.3822 23.4983 13.4415 23.5004C14.1087 23.5275 14.7717 23.6361 15.441 23.6006C16.6865 23.5359 18.0273 23.2916 19.1732 22.7925C20.3679 22.2726 21.5074 21.6044 22.4945 20.7587C22.9647 20.3557 23.4011 19.9109 23.776 19.4161C23.956 19.178 24.1636 18.9797 24.3267 18.727C24.4644 18.514 24.619 18.3156 24.7397 18.0922C24.8245 17.9356 24.8456 17.8625 24.9283 17.7038C24.9791 17.6057 25.0426 17.5201 25.0786 17.4157C25.1591 17.1922 25.1994 16.9521 25.2057 16.7162C25.2227 16.2526 25.0765 15.7828 24.8139 15.3986C24.5894 15.0707 24.0873 14.7575 23.6913 14.651C23.2231 14.5237 22.6957 14.5487 22.2424 14.7241C21.7468 14.9141 21.4058 15.3359 21.141 15.7744C20.8487 16.263 20.5712 16.7015 20.1603 17.1066C19.3999 17.8563 18.5717 18.4576 17.5698 18.8606C13.7316 20.4037 9.26444 18.3073 7.99566 14.4318C7.40681 12.6297 7.57415 10.598 8.50826 8.92546C8.99967 8.04429 9.65418 7.26542 10.4548 6.64108C10.8806 6.30908 11.3635 5.99377 11.8613 5.78705C12.3104 5.60121 12.7636 5.49889 13.2233 5.34438C13.5834 5.22327 14.0684 5.19194 14.4518 5.1648C14.8564 5.13557 15.2758 5.12512 15.6782 5.18986C16.5022 5.32349 17.3537 5.50933 18.1035 5.88728C18.5123 6.094 18.9593 6.37798 19.3278 6.66614C19.6943 6.95221 20.0861 7.31554 20.3827 7.69557C20.6178 7.99208 20.7618 8.20924 20.9821 8.52455C21.213 8.88161 21.554 9.27 21.5816 9.72312C20.6305 9.72312 19.6604 9.72938 18.7072 9.72938C17.754 9.72938 16.7882 9.52683 15.9282 9.95072C15.0343 10.3913 14.3523 11.6755 14.9072 12.6089C15.1762 13.0599 15.3118 13.419 15.8202 13.6675C16.3243 13.9139 16.7797 13.9536 17.3346 13.9411C18.6479 13.9118 19.9654 13.9411 21.2808 13.9411H23.3269C23.9094 13.9411 24.4707 13.9766 25.0215 13.7678C25.9492 13.417 26.394 12.5274 26.3284 11.5773M10.2007 28.0399C10.2007 26.8873 11.1475 25.9539 12.3167 25.9539C13.4859 25.9539 14.4349 26.8873 14.4349 28.0399C14.4349 29.1925 13.4859 30.128 12.3167 30.128C11.1475 30.128 10.2007 29.1925 10.2007 28.0399ZM7.231 19.0193C9.48897 19.0193 11.3212 20.8234 11.3212 23.0514C11.3212 25.2794 9.49109 27.0836 7.231 27.0836C4.97092 27.0836 3.14083 25.2794 3.14083 23.0514C3.14083 20.8234 4.97092 19.0193 7.231 19.0193Z" fill="#231F20"/>
<path id="Vector_6" d="M42.7865 13.49C42.7865 14.0371 42.3904 14.3754 41.9138 14.3754H34.6951V15.0791C34.6951 17.1379 35.6208 18.4952 37.7368 18.4952C38.8743 18.4952 39.5881 18.3135 40.0901 18.1298C40.698 17.921 41.0157 17.66 41.4394 17.66C41.9689 17.66 42.3121 18.0504 42.3121 18.5975C42.3121 19.1446 41.7571 19.5622 40.9628 19.8754C40.0372 20.2409 38.7684 20.4225 37.6034 20.4225C33.7949 20.4225 32.3927 17.8667 32.3927 14.8953V12.471C32.3927 9.52474 33.9008 6.94385 37.6034 6.94385C41.3059 6.94385 42.7865 9.39527 42.7865 12.471V13.4879V13.49ZM37.6309 8.79808C35.5678 8.79808 34.6951 10.1282 34.6951 12.1349V12.5775H40.5392V12.1077C40.5392 10.1011 39.7978 8.79599 37.6309 8.79599V8.79808Z" fill="black"/>
<path id="Vector_7" d="M56.3533 20.4245C55.9297 20.4245 55.3493 20.2157 54.9511 19.8774C54.608 19.5913 54.4216 19.251 54.2903 18.9127C53.3646 19.8774 52.0429 20.4245 50.217 20.4245C46.9381 20.4245 45.879 18.3656 45.879 15.6803V8.09425C45.879 7.44277 46.4086 6.94789 47.0165 6.94789C47.6773 6.94789 48.1794 7.44277 48.1794 8.09425V15.4464C48.1794 17.167 48.6559 18.2612 50.6915 18.2612C52.278 18.2612 53.335 17.5575 53.892 16.5135V8.09217C53.892 7.44068 54.4216 6.9458 55.0549 6.9458C55.6882 6.9458 56.2178 7.46783 56.2178 8.09217V17.0334C56.2178 18.1025 56.508 18.3886 57.0375 18.6496C57.3277 18.8313 57.5141 19.0923 57.5141 19.4326C57.5141 20.1113 56.9846 20.4224 56.3512 20.4224L56.3533 20.4245Z" fill="black"/>
<path id="Vector_8" d="M67.355 9.34544C66.906 9.34544 66.6666 9.16378 65.741 9.16378C64.6311 9.16378 63.2288 9.50205 62.7798 11.5108V19.2806C62.7798 19.9321 62.2778 20.427 61.6423 20.427C61.0069 20.427 60.4795 19.9321 60.4795 19.2806V10.496C60.4795 9.45402 60.1617 9.14081 59.6597 8.85265C59.3696 8.69604 59.2107 8.43503 59.2107 8.09676C59.2107 7.47033 59.6343 7.107 60.3736 7.107C61.3776 7.107 62.1719 7.9151 62.4896 8.72319C63.6271 7.1592 65.186 6.97754 66.1392 6.97754C67.2237 6.97754 68.4671 7.31581 68.4671 8.20325C68.4671 8.82968 68.071 9.34962 67.3571 9.34962L67.355 9.34544Z" fill="black"/>
<path id="Vector_9" d="M74.6818 20.4248C70.9263 20.4248 69.3673 18.0005 69.3673 15.0292V12.3439C69.3673 9.37252 70.9284 6.94824 74.6818 6.94824C78.4352 6.94824 79.9963 9.37252 79.9963 12.3439V15.0292C79.9963 18.0005 78.4627 20.4248 74.6818 20.4248ZM77.6959 12.3689C77.6959 10.3351 76.8232 9.05722 74.6818 9.05722C72.5403 9.05722 71.693 10.3351 71.693 12.3689V15.0271C71.693 17.0609 72.5657 18.3388 74.6818 18.3388C76.7978 18.3388 77.6959 17.0609 77.6959 15.0271V12.3689Z" fill="black"/>
<path id="Vector_10" d="M89.0408 20.4245C88.0622 20.4245 86.8718 20.1384 85.8932 19.4076V23.8907C85.8932 24.5422 85.3912 25.0371 84.7303 25.0371C84.0695 25.0371 83.5929 24.5422 83.5929 23.8907V10.3348C83.5929 9.29282 83.3556 8.97961 82.8515 8.69145C82.5613 8.53484 82.4025 8.27383 82.4025 7.93556C82.4025 7.25693 82.8791 6.9458 83.5399 6.9458C83.9636 6.9458 84.491 7.12747 84.9421 7.49288C85.1264 7.67455 85.2853 7.88336 85.4187 8.11931C86.4757 7.33628 87.7191 6.9458 88.8819 6.9458C92.3727 6.9458 93.8003 8.84806 93.8003 12.212V14.5841C93.8003 18.0775 92.5315 20.4245 89.0408 20.4245ZM91.4746 12.0825C91.4746 9.99651 90.7078 8.92741 88.5663 8.92741C87.772 8.92741 86.7955 9.26568 85.8953 9.99651V17.2443C86.7426 18.1317 87.8779 18.4429 88.6447 18.4429C90.6548 18.4429 91.4746 17.1399 91.4746 14.9244V12.0825Z" fill="black"/>
<path id="Vector_11" d="M107.024 13.49C107.024 14.0371 106.628 14.3754 106.151 14.3754H98.9327V15.0791C98.9327 17.1379 99.8583 18.4952 101.974 18.4952C103.112 18.4952 103.826 18.3135 104.328 18.1298C104.936 17.921 105.253 17.66 105.677 17.66C106.206 17.66 106.55 18.0504 106.55 18.5975C106.55 19.1446 105.995 19.5622 105.2 19.8754C104.275 20.2409 103.006 20.4225 101.841 20.4225C98.0325 20.4225 96.6302 17.8667 96.6302 14.8953V12.471C96.6302 9.52474 98.1384 6.94385 101.841 6.94385C105.543 6.94385 107.024 9.39527 107.024 12.471V13.4879V13.49ZM101.866 8.79808C99.8033 8.79808 98.9306 10.1282 98.9306 12.1349V12.5775H104.775V12.1077C104.775 10.1011 104.033 8.79599 101.866 8.79599V8.79808Z" fill="black"/>
<path id="Vector_12" d="M119.295 20.4248C118.871 20.4248 118.447 20.2954 118.104 20.0344C117.814 19.8005 117.549 19.4601 117.416 19.0968C116.437 20.1659 114.876 20.4269 113.713 20.4269C110.46 20.4269 109.085 18.7314 109.085 16.5681V16.3864C109.085 14.2232 110.593 12.607 113.978 12.607H116.967V11.9555C116.967 9.89664 116.465 8.85259 114.243 8.85259C113.317 8.85259 112.709 8.98205 112.207 9.19086C111.625 9.42473 111.334 9.63354 110.964 9.63354C110.409 9.63354 110.013 9.21592 110.013 8.72104C110.013 8.17396 110.542 7.75634 111.281 7.47027C112.233 7.07979 113.398 6.94824 114.402 6.94824C118.157 6.94824 119.267 8.74609 119.267 12.1622V17.0379C119.267 18.0799 119.504 18.3931 120.008 18.6541C120.299 18.8358 120.457 19.0968 120.457 19.4372C120.457 20.1158 119.981 20.4269 119.295 20.4269V20.4248ZM116.967 14.3777H114.19C111.968 14.3777 111.387 15.3424 111.387 16.4115V16.5932C111.387 17.7145 112.023 18.652 114.111 18.652C115.882 18.652 116.967 17.7646 116.967 15.9145V14.3756V14.3777Z" fill="black"/>
<path id="Vector_13" d="M132.624 20.4247C131.989 20.4247 131.461 19.9298 131.461 19.2783V11.9261C131.461 10.2828 131.012 9.11138 128.975 9.11138C127.467 9.11138 126.384 9.76286 125.749 10.7547V19.2804C125.749 19.9319 125.247 20.4268 124.611 20.4268C123.976 20.4268 123.448 19.9319 123.448 19.2804V10.4958C123.448 9.45382 123.131 9.14061 122.629 8.85245C122.338 8.69584 122.18 8.43483 122.18 8.09656C122.18 7.41793 122.656 7.1068 123.317 7.1068C123.741 7.1068 124.321 7.31561 124.745 7.65388C125.009 7.9149 125.221 8.20097 125.327 8.51418C126.253 7.52442 127.602 6.9502 129.479 6.9502C132.811 6.9502 133.789 8.984 133.789 11.7215L133.815 19.2825C133.815 19.934 133.285 20.4289 132.624 20.4289V20.4247Z" fill="black"/>
<path id="Vector_14" d="M146.824 20.4248C146.401 20.4248 145.977 20.2954 145.634 20.0344C145.344 19.8005 145.079 19.4601 144.945 19.0968C143.967 20.1659 142.406 20.4269 141.243 20.4269C137.989 20.4269 136.615 18.7314 136.615 16.5681V16.3864C136.615 14.2232 138.123 12.607 141.508 12.607H144.496V11.9555C144.496 9.89664 143.994 8.85259 141.772 8.85259C140.847 8.85259 140.239 8.98205 139.737 9.19086C139.154 9.42473 138.864 9.63354 138.494 9.63354C137.939 9.63354 137.543 9.21592 137.543 8.72104C137.543 8.17396 138.072 7.75634 138.811 7.47027C139.762 7.07979 140.927 6.94824 141.931 6.94824C145.687 6.94824 146.797 8.74609 146.797 12.1622V17.0379C146.797 18.0799 147.034 18.3931 147.538 18.6541C147.828 18.8358 147.987 19.0968 147.987 19.4372C147.987 20.1158 147.511 20.4269 146.824 20.4269V20.4248ZM144.499 14.3777H141.722C139.5 14.3777 138.919 15.3424 138.919 16.4115V16.5932C138.919 17.7145 139.555 18.652 141.643 18.652C143.414 18.652 144.499 17.7646 144.499 15.9145V14.3756V14.3777Z" fill="black"/>
</g>
</svg>
