<?xml version="1.0" encoding="UTF-8" standalone="no"?>
<!-- Created with Inkscape (http://www.inkscape.org/) -->

<svg
   version="1.1"
   id="svg2"
   xml:space="preserve"
   width="1120"
   height="284.66666"
   viewBox="0 0 1120 284.66666"
   sodipodi:docname="CS-Funded by the EU_NEG.eps"
   xmlns:inkscape="http://www.inkscape.org/namespaces/inkscape"
   xmlns:sodipodi="http://sodipodi.sourceforge.net/DTD/sodipodi-0.dtd"
   xmlns="http://www.w3.org/2000/svg"
   xmlns:svg="http://www.w3.org/2000/svg"><defs
     id="defs6" /><sodipodi:namedview
     id="namedview4"
     pagecolor="#ffffff"
     bordercolor="#666666"
     borderopacity="1.0"
     inkscape:pageshadow="2"
     inkscape:pageopacity="0.0"
     inkscape:pagecheckerboard="0" /><g
     id="g8"
     inkscape:groupmode="layer"
     inkscape:label="ink_ext_XXXXXX"
     transform="matrix(1.3333333,0,0,-1.3333333,0,284.66667)"><g
       id="g10"
       transform="scale(0.1)"><path
         d="M 209.242,71.0586 H 3158.7 V 2073.9 H 209.242 V 71.0586"
         style="fill:#ffffff;fill-opacity:1;fill-rule:nonzero;stroke:none"
         id="path12" /><path
         d="M 265.961,128.281 H 3101.99 V 2018.97 H 265.961 V 128.281"
         style="fill:#264ca4;fill-opacity:1;fill-rule:nonzero;stroke:none"
         id="path14" /><path
         d="m 1623.55,1607.02 59.83,43.67 59.86,-43.67 -22.79,70.63 60.79,43.67 h -74.93 l -22.93,71.48 -22.93,-71.56 -74.88,0.08 60.74,-43.67 -22.76,-70.63"
         style="fill:#f5f014;fill-opacity:1;fill-rule:nonzero;stroke:none"
         id="path16" /><path
         d="m 1313.85,1523.82 59.85,43.67 59.81,-43.67 -22.74,70.63 60.75,43.68 h -74.93 l -22.92,71.55 -22.93,-71.64 -74.9,0.09 60.75,-43.68 -22.74,-70.63"
         style="fill:#f5f014;fill-opacity:1;fill-rule:nonzero;stroke:none"
         id="path18" /><path
         d="m 1147.09,1482.57 -22.93,-71.64 -74.88,0.09 60.74,-43.68 -22.76,-70.63 59.83,43.68 59.85,-43.68 -22.78,70.63 60.75,43.68 h -74.89 l -22.93,71.55"
         style="fill:#f5f014;fill-opacity:1;fill-rule:nonzero;stroke:none"
         id="path20" /><path
         d="m 1063.98,1031.08 59.8,-43.658 -22.73,70.608 60.73,43.68 h -74.87 l -22.93,71.56 -22.93,-71.72 -74.921,0.16 60.781,-43.68 -22.78,-70.608 59.85,43.658"
         style="fill:#f5f014;fill-opacity:1;fill-rule:nonzero;stroke:none"
         id="path22" /><path
         d="m 1170.02,791.48 -22.93,71.559 -22.93,-71.641 -74.88,0.082 60.74,-43.66 -22.76,-70.64 59.83,43.75 59.85,-43.75 -22.78,70.64 60.75,43.66 h -74.89"
         style="fill:#f5f014;fill-opacity:1;fill-rule:nonzero;stroke:none"
         id="path24" /><path
         d="m 1397.05,564.461 -22.93,71.469 -22.89,-71.559 -74.92,0.09 60.74,-43.68 -22.72,-70.633 59.83,43.672 59.81,-43.672 -22.74,70.633 60.75,43.68 h -74.93"
         style="fill:#f5f014;fill-opacity:1;fill-rule:nonzero;stroke:none"
         id="path26" /><path
         d="m 1706.35,482.18 -22.93,71.558 -22.89,-71.636 -74.91,0.078 60.73,-43.668 -22.72,-70.633 59.83,43.68 59.81,-43.68 -22.78,70.633 60.78,43.668 h -74.92"
         style="fill:#f5f014;fill-opacity:1;fill-rule:nonzero;stroke:none"
         id="path28" /><path
         d="m 2015.66,564.461 -22.89,71.469 -22.97,-71.559 -74.85,0.09 60.71,-43.68 -22.74,-70.633 59.85,43.672 59.83,-43.672 -22.8,70.633 60.78,43.68 h -74.92"
         style="fill:#f5f014;fill-opacity:1;fill-rule:nonzero;stroke:none"
         id="path30" /><path
         d="m 2242.77,791.48 -22.97,71.559 -22.97,-71.641 -74.84,0.082 60.78,-43.66 -22.82,-70.64 59.85,43.75 59.83,-43.75 -22.8,70.64 60.77,43.66 h -74.83"
         style="fill:#f5f014;fill-opacity:1;fill-rule:nonzero;stroke:none"
         id="path32" /><path
         d="m 2399.88,1102.57 h -74.93 l -22.96,71.57 -22.89,-71.65 -74.93,0.08 60.78,-43.67 -22.74,-70.619 59.78,43.749 59.84,-43.749 -22.73,70.619 60.78,43.67"
         style="fill:#f5f014;fill-opacity:1;fill-rule:nonzero;stroke:none"
         id="path34" /><path
         d="m 2159.95,1297.66 59.84,43.66 59.84,-43.66 -22.8,70.63 60.77,43.59 h -74.84 l -22.97,71.55 -22.96,-71.64 -74.85,0.09 60.78,-43.59 -22.81,-70.63"
         style="fill:#f5f014;fill-opacity:1;fill-rule:nonzero;stroke:none"
         id="path36" /><path
         d="m 1993.63,1709.6 -22.89,-71.64 -74.93,0.17 60.71,-43.75 -22.74,-70.64 59.92,43.75 59.76,-43.75 -22.72,70.64 60.78,43.75 h -75 l -22.89,71.47"
         style="fill:#f5f014;fill-opacity:1;fill-rule:nonzero;stroke:none"
         id="path38" /><path
         d="m 3513.79,1300.63 v 465.28 h 318.97 v -78.71 h -225.02 v -110.13 h 194.24 v -78.71 h -194.24 v -197.73 h -93.95"
         style="fill:#ffffff;fill-opacity:1;fill-rule:nonzero;stroke:none"
         id="path40" /><path
         d="m 3909.57,1300.63 v 337.05 h 89.18 v -337.05 z m 0,382.76 v 82.52 h 89.18 v -82.52 h -89.18"
         style="fill:#ffffff;fill-opacity:1;fill-rule:nonzero;stroke:none"
         id="path42" /><path
         d="m 4396.74,1300.63 h -89.18 v 172.01 c 0,36.39 -1.9,59.94 -5.71,70.62 -3.81,10.69 -10,18.99 -18.57,24.92 -8.57,5.92 -18.88,8.89 -30.94,8.89 -15.45,0 -29.31,-4.24 -41.57,-12.69 -12.28,-8.47 -20.7,-19.69 -25.24,-33.66 -4.55,-13.96 -6.83,-39.77 -6.83,-77.44 v -152.65 h -89.18 v 337.05 h 82.84 v -49.51 c 29.4,38.09 66.43,57.13 111.08,57.13 19.68,0 37.66,-3.54 53.96,-10.63 16.29,-7.09 28.61,-16.13 36.97,-27.13 8.36,-11.01 14.18,-23.5 17.46,-37.46 3.27,-13.97 4.91,-33.96 4.91,-59.98 v -209.47"
         style="fill:#ffffff;fill-opacity:1;fill-rule:nonzero;stroke:none"
         id="path44" /><path
         d="m 4673.19,1462.49 c -11.43,-3.81 -29.51,-8.36 -54.27,-13.64 -24.76,-5.3 -40.95,-10.48 -48.56,-15.56 -11.64,-8.25 -17.46,-18.72 -17.46,-31.41 0,-12.5 4.65,-23.29 13.97,-32.39 9.31,-9.09 21.15,-13.64 35.55,-13.64 16.07,0 31.41,5.28 46.02,15.87 10.78,8.03 17.87,17.88 21.26,29.51 2.33,7.62 3.49,22.11 3.49,43.48 z m -119.34,72.36 -80.93,14.6 c 9.1,32.58 24.76,56.7 46.98,72.37 22.21,15.65 55.22,23.48 99.02,23.48 39.78,0 69.39,-4.71 88.87,-14.12 19.46,-9.42 33.16,-21.38 41.1,-35.87 7.93,-14.49 11.89,-41.09 11.89,-79.82 l -0.94,-104.1 c 0,-29.62 1.42,-51.47 4.28,-65.54 2.86,-14.07 8.2,-29.15 16.03,-45.22 h -88.23 c -2.34,5.91 -5.19,14.7 -8.58,26.34 -1.47,5.28 -2.54,8.77 -3.16,10.47 -15.23,-14.81 -31.53,-25.92 -48.89,-33.32 -17.34,-7.41 -35.86,-11.11 -55.53,-11.11 -34.71,0 -62.06,9.41 -82.05,28.24 -20,18.84 -30,42.64 -30,71.41 0,19.05 4.56,36.03 13.66,50.94 9.09,14.92 21.84,26.35 38.24,34.28 16.4,7.94 40.04,14.86 70.94,20.79 41.68,7.82 70.56,15.13 86.64,21.9 v 8.88 c 0,17.15 -4.23,29.37 -12.7,36.66 -8.46,7.31 -24.43,10.96 -47.92,10.96 -15.87,0 -28.25,-3.12 -37.14,-9.37 -8.88,-6.25 -16.07,-17.19 -21.58,-32.85"
         style="fill:#ffffff;fill-opacity:1;fill-rule:nonzero;stroke:none"
         id="path46" /><path
         d="m 5155.29,1300.63 h -89.18 v 172.01 c 0,36.39 -1.91,59.94 -5.72,70.62 -3.8,10.69 -10,18.99 -18.56,24.92 -8.57,5.92 -18.89,8.89 -30.95,8.89 -15.45,0 -29.3,-4.24 -41.57,-12.69 -12.28,-8.47 -20.69,-19.69 -25.23,-33.66 -4.55,-13.96 -6.83,-39.77 -6.83,-77.44 v -152.65 h -89.19 v 337.05 h 82.84 v -49.51 c 29.41,38.09 66.44,57.13 111.09,57.13 19.67,0 37.65,-3.54 53.95,-10.63 16.29,-7.09 28.61,-16.13 36.97,-27.13 8.36,-11.01 14.18,-23.5 17.46,-37.46 3.28,-13.97 4.92,-33.96 4.92,-59.98 v -209.47"
         style="fill:#ffffff;fill-opacity:1;fill-rule:nonzero;stroke:none"
         id="path48" /><path
         d="m 5539.63,1538.03 -87.91,-15.87 c -2.97,17.55 -9.68,30.79 -20.15,39.68 -10.47,8.88 -24.08,13.32 -40.79,13.32 -22.21,0 -39.94,-7.67 -53.16,-23.01 -13.22,-15.35 -19.83,-41 -19.83,-76.97 0,-39.98 6.72,-68.23 20.15,-84.73 13.43,-16.5 31.47,-24.77 54.11,-24.77 16.93,0 30.79,4.82 41.59,14.45 10.78,9.62 18.39,26.18 22.85,49.67 l 87.6,-14.92 c -9.11,-40.2 -26.57,-70.56 -52.38,-91.09 -25.82,-20.52 -60.41,-30.78 -103.78,-30.78 -49.3,0 -88.61,15.54 -117.91,46.66 -29.3,31.09 -43.96,74.15 -43.96,129.17 0,55.64 14.71,98.96 44.12,129.97 29.4,30.99 69.19,46.49 119.34,46.49 41.04,0 73.68,-8.84 97.91,-26.5 24.22,-17.67 41.63,-44.59 52.2,-80.77"
         style="fill:#ffffff;fill-opacity:1;fill-rule:nonzero;stroke:none"
         id="path50" /><path
         d="m 5678.02,1469.16 c 0,-33.44 7.94,-59.04 23.8,-76.82 15.88,-17.77 35.44,-26.66 58.72,-26.66 23.27,0 42.79,8.89 58.56,26.66 15.76,17.78 23.64,43.6 23.64,77.45 0,33 -7.88,58.39 -23.64,76.17 -15.77,17.77 -35.29,26.66 -58.56,26.66 -23.28,0 -42.84,-8.89 -58.72,-26.66 -15.86,-17.78 -23.8,-43.37 -23.8,-76.8 z m -91.41,4.75 c 0,29.63 7.3,58.3 21.91,86.01 14.59,27.72 35.27,48.89 62.04,63.48 26.77,14.61 56.65,21.9 89.66,21.9 50.99,0 92.78,-16.56 125.37,-49.67 32.58,-33.11 48.88,-74.96 48.88,-125.52 0,-51 -16.46,-93.27 -49.36,-126.8 -32.9,-33.54 -74.32,-50.3 -124.25,-50.3 -30.9,0 -60.36,6.98 -88.4,20.94 -28.03,13.97 -49.35,34.44 -63.94,61.42 -14.61,26.97 -21.91,59.83 -21.91,98.54"
         style="fill:#ffffff;fill-opacity:1;fill-rule:nonzero;stroke:none"
         id="path52" /><path
         d="m 6096.98,1300.63 -135.84,337.05 h 93.62 l 63.48,-172.02 18.4,-57.44 c 4.87,14.59 7.93,24.22 9.2,28.88 2.97,9.52 6.15,19.04 9.53,28.56 l 64.11,172.02 h 91.72 l -133.93,-337.05 h -80.29"
         style="fill:#ffffff;fill-opacity:1;fill-rule:nonzero;stroke:none"
         id="path54" /><path
         d="m 6455.29,1678.95 43.81,94.9 h 99.97 l -87.28,-94.9 z m 96.48,-216.46 c -11.42,-3.81 -29.51,-8.36 -54.27,-13.64 -24.75,-5.3 -40.94,-10.48 -48.56,-15.56 -11.63,-8.25 -17.45,-18.72 -17.45,-31.41 0,-12.5 4.65,-23.29 13.96,-32.39 9.31,-9.09 21.16,-13.64 35.55,-13.64 16.07,0 31.42,5.28 46.03,15.87 10.78,8.03 17.87,17.88 21.25,29.51 2.33,7.62 3.49,22.11 3.49,43.48 z m -119.33,72.36 -80.93,14.6 c 9.09,32.58 24.75,56.7 46.97,72.37 22.22,15.65 55.22,23.48 99.02,23.48 39.78,0 69.4,-4.71 88.87,-14.12 19.46,-9.42 33.16,-21.38 41.1,-35.87 7.93,-14.49 11.9,-41.09 11.9,-79.82 l -0.95,-104.1 c 0,-29.62 1.43,-51.47 4.29,-65.54 2.85,-14.07 8.19,-29.15 16.02,-45.22 h -88.23 c -2.33,5.91 -5.18,14.7 -8.57,26.34 -1.48,5.28 -2.54,8.77 -3.17,10.47 -15.23,-14.81 -31.53,-25.92 -48.88,-33.32 -17.35,-7.41 -35.86,-11.11 -55.54,-11.11 -34.71,0 -62.05,9.41 -82.04,28.24 -20,18.84 -30,42.64 -30,71.41 0,19.05 4.55,36.03 13.65,50.94 9.09,14.92 21.85,26.35 38.24,34.28 16.4,7.94 40.04,14.86 70.94,20.79 41.68,7.82 70.57,15.13 86.64,21.9 v 8.88 c 0,17.15 -4.23,29.37 -12.69,36.66 -8.46,7.31 -24.44,10.96 -47.92,10.96 -15.87,0 -28.26,-3.12 -37.14,-9.37 -8.89,-6.25 -16.08,-17.19 -21.58,-32.85"
         style="fill:#ffffff;fill-opacity:1;fill-rule:nonzero;stroke:none"
         id="path56" /><path
         d="m 7033.87,1300.63 h -89.18 v 172.01 c 0,36.39 -1.9,59.94 -5.71,70.62 -3.81,10.69 -10,18.99 -18.57,24.92 -8.57,5.92 -18.88,8.89 -30.94,8.89 -15.45,0 -29.31,-4.24 -41.58,-12.69 -12.27,-8.47 -20.69,-19.69 -25.23,-33.66 -4.55,-13.96 -6.83,-39.77 -6.83,-77.44 v -152.65 h -89.19 v 337.05 h 82.85 v -49.51 c 29.4,38.09 66.43,57.13 111.08,57.13 19.68,0 37.66,-3.54 53.96,-10.63 16.28,-7.09 28.61,-16.13 36.97,-27.13 8.36,-11.01 14.18,-23.5 17.46,-37.46 3.27,-13.97 4.91,-33.96 4.91,-59.98 v -209.47"
         style="fill:#ffffff;fill-opacity:1;fill-rule:nonzero;stroke:none"
         id="path58" /><path
         d="m 7195.11,1469.16 c 0,-33.44 7.94,-59.04 23.8,-76.82 15.88,-17.77 35.44,-26.66 58.72,-26.66 23.27,0 42.79,8.89 58.56,26.66 15.76,17.78 23.64,43.6 23.64,77.45 0,33 -7.88,58.39 -23.64,76.17 -15.77,17.77 -35.29,26.66 -58.56,26.66 -23.28,0 -42.84,-8.89 -58.72,-26.66 -15.86,-17.78 -23.8,-43.37 -23.8,-76.8 z m -91.41,4.75 c 0,29.63 7.3,58.3 21.91,86.01 14.59,27.72 35.27,48.89 62.04,63.48 26.77,14.61 56.65,21.9 89.66,21.9 50.99,0 92.78,-16.56 125.37,-49.67 32.58,-33.11 48.88,-74.96 48.88,-125.52 0,-51 -16.46,-93.27 -49.36,-126.8 -32.9,-33.54 -74.32,-50.3 -124.25,-50.3 -30.9,0 -60.36,6.98 -88.4,20.94 -28.03,13.97 -49.35,34.44 -63.94,61.42 -14.61,26.97 -21.91,59.83 -21.91,98.54"
         style="fill:#ffffff;fill-opacity:1;fill-rule:nonzero;stroke:none"
         id="path60" /><path
         d="M 3513.15,520.629 V 985.91 h 345 V 907.199 H 3607.09 V 804.051 h 233.6 V 725.66 h -233.6 V 599.031 h 259.94 v -78.402 h -353.88"
         style="fill:#ffffff;fill-opacity:1;fill-rule:nonzero;stroke:none"
         id="path62" /><path
         d="M 4038.74,520.629 3902.9,857.691 h 93.63 L 4060,685.672 4078.41,628.23 c 4.87,14.59 7.93,24.219 9.2,28.872 2.97,9.519 6.14,19.046 9.53,28.57 l 64.1,172.019 h 91.73 L 4119.04,520.629 h -80.3"
         style="fill:#ffffff;fill-opacity:1;fill-rule:nonzero;stroke:none"
         id="path64" /><path
         d="m 4392.93,520.629 h -89.18 v 337.062 h 82.84 V 809.77 c 14.17,22.64 26.92,37.55 38.24,44.75 11.32,7.179 24.17,10.789 38.56,10.789 20.31,0 39.89,-5.61 58.72,-16.829 l -27.61,-77.75 c -15.03,9.719 -29,14.598 -41.9,14.598 -12.49,0 -23.07,-3.437 -31.74,-10.316 -8.68,-6.883 -15.5,-19.313 -20.47,-37.293 -4.98,-17.989 -7.46,-55.66 -7.46,-112.989 V 520.629"
         style="fill:#ffffff;fill-opacity:1;fill-rule:nonzero;stroke:none"
         id="path66" /><path
         d="m 4631.29,689.16 c 0,-33.43 7.94,-59.039 23.8,-76.808 15.88,-17.782 35.44,-26.661 58.72,-26.661 23.27,0 42.8,8.879 58.56,26.661 15.76,17.769 23.64,43.589 23.64,77.437 0,33.012 -7.88,58.402 -23.64,76.172 -15.76,17.769 -35.29,26.66 -58.56,26.66 -23.28,0 -42.84,-8.891 -58.72,-26.66 -15.86,-17.77 -23.8,-43.371 -23.8,-76.801 z m -91.4,4.762 c 0,29.617 7.29,58.289 21.9,86.008 14.59,27.718 35.27,48.879 62.04,63.468 26.77,14.614 56.65,21.911 89.66,21.911 51,0 92.78,-16.571 125.37,-49.668 32.58,-33.121 48.88,-74.961 48.88,-125.532 0,-50.988 -16.46,-93.257 -49.36,-126.8 -32.9,-33.528 -74.31,-50.297 -124.25,-50.297 -30.89,0 -60.36,6.976 -88.39,20.949 -28.04,13.961 -49.36,34.43 -63.95,61.41 -14.61,26.981 -21.9,59.828 -21.9,98.551"
         style="fill:#ffffff;fill-opacity:1;fill-rule:nonzero;stroke:none"
         id="path68" /><path
         d="m 5043.25,694.871 c 0,-37.871 7.51,-65.851 22.53,-83.949 15.02,-18.082 33.33,-27.133 54.91,-27.133 20.74,0 37.98,8.301 51.74,24.91 13.75,16.61 20.62,43.852 20.62,81.731 0,35.34 -7.09,61.57 -21.26,78.711 -14.18,17.129 -31.74,25.711 -52.68,25.711 -21.8,0 -39.89,-8.411 -54.28,-25.243 -14.39,-16.808 -21.58,-41.738 -21.58,-74.738 z m -88.23,162.82 h 83.15 V 808.18 c 10.8,16.922 25.39,30.672 43.81,41.261 18.39,10.571 38.81,15.868 61.25,15.868 39.14,0 72.36,-15.348 99.65,-46.028 27.3,-30.672 40.95,-73.422 40.95,-128.222 0,-56.278 -13.76,-100.028 -41.27,-131.231 -27.5,-31.207 -60.83,-46.816 -99.97,-46.816 -18.62,0 -35.5,3.699 -50.62,11.109 -15.13,7.41 -31.06,20.098 -47.77,38.09 V 392.41 h -89.18 v 465.281"
         style="fill:#ffffff;fill-opacity:1;fill-rule:nonzero;stroke:none"
         id="path70" /><path
         d="m 5323.19,616.801 89.5,13.64 c 3.81,-17.351 11.53,-30.519 23.17,-39.511 11.63,-8.989 27.93,-13.481 48.87,-13.481 23.07,0 40.42,4.223 52.05,12.692 7.83,5.918 11.75,13.847 11.75,23.8 0,6.77 -2.12,12.368 -6.35,16.829 -4.44,4.218 -14.39,8.128 -29.83,11.73 -71.95,15.871 -117.54,30.371 -136.8,43.48 -26.66,18.2 -39.98,43.489 -39.98,75.86 0,29.199 11.52,53.742 34.59,73.629 23.06,19.89 58.82,29.84 107.28,29.84 46.12,0 80.4,-7.508 102.83,-22.528 22.42,-15.031 37.87,-37.25 46.34,-66.66 L 5542.5,760.57 c -3.6,13.121 -10.43,23.16 -20.47,30.16 -10.05,6.969 -24.39,10.469 -43,10.469 -23.5,0 -40.32,-3.289 -50.47,-9.847 -6.78,-4.653 -10.16,-10.68 -10.16,-18.082 0,-6.348 2.96,-11.739 8.89,-16.2 8.04,-5.91 35.81,-14.269 83.31,-25.058 47.5,-10.801 80.66,-24.024 99.5,-39.684 18.61,-15.859 27.93,-37.976 27.93,-66.328 0,-30.898 -12.91,-57.441 -38.72,-79.672 -25.82,-22.207 -64,-33.316 -114.58,-33.316 -45.91,0 -82.26,9.308 -109.01,27.929 -26.77,18.61 -44.28,43.911 -52.53,75.86"
         style="fill:#ffffff;fill-opacity:1;fill-rule:nonzero;stroke:none"
         id="path72" /><path
         d="M 5712.93,520.629 V 985.91 h 89.19 V 738.988 l 104.43,118.703 h 109.8 l -115.2,-123.152 123.46,-213.91 h -96.17 l -84.74,151.391 -41.58,-43.481 v -107.91 h -89.19"
         style="fill:#ffffff;fill-opacity:1;fill-rule:nonzero;stroke:none"
         id="path74" /><path
         d="m 6148.38,689.16 c 0,-33.43 7.94,-59.039 23.8,-76.808 15.88,-17.782 35.44,-26.661 58.72,-26.661 23.27,0 42.8,8.879 58.56,26.661 15.76,17.769 23.64,43.589 23.64,77.437 0,33.012 -7.88,58.402 -23.64,76.172 -15.76,17.769 -35.29,26.66 -58.56,26.66 -23.28,0 -42.84,-8.891 -58.72,-26.66 -15.86,-17.77 -23.8,-43.371 -23.8,-76.801 z m -91.4,4.762 c 0,29.617 7.29,58.289 21.9,86.008 14.59,27.718 35.27,48.879 62.04,63.468 26.77,14.614 56.65,21.911 89.66,21.911 51,0 92.78,-16.571 125.37,-49.668 32.58,-33.121 48.88,-74.961 48.88,-125.532 0,-50.988 -16.46,-93.257 -49.36,-126.8 -32.9,-33.528 -74.31,-50.297 -124.25,-50.297 -30.89,0 -60.36,6.976 -88.39,20.949 -28.04,13.961 -49.36,34.43 -63.95,61.41 -14.61,26.981 -21.9,59.828 -21.9,98.551"
         style="fill:#ffffff;fill-opacity:1;fill-rule:nonzero;stroke:none"
         id="path76" /><path
         d="m 6696.5,520.629 v 50.473 c -12.28,-17.993 -28.41,-32.172 -48.4,-42.543 -20,-10.36 -41.1,-15.547 -63.32,-15.547 -22.65,0 -42.96,4.968 -60.94,14.918 -17.99,9.941 -30.99,23.91 -39.03,41.898 -8.05,17.981 -12.07,42.844 -12.07,74.582 v 213.281 h 89.19 V 702.809 c 0,-47.411 1.64,-76.438 4.92,-87.118 3.27,-10.703 9.25,-19.152 17.93,-25.39 8.67,-6.25 19.68,-9.371 33.01,-9.371 15.23,0 28.87,4.179 40.94,12.539 12.05,8.351 20.32,18.722 24.75,31.101 4.45,12.379 6.67,42.692 6.67,90.93 v 142.191 h 89.19 V 520.629 h -82.84"
         style="fill:#ffffff;fill-opacity:1;fill-rule:nonzero;stroke:none"
         id="path78" /><path
         d="m 7274.13,520.629 v 50.473 c -12.27,-17.993 -28.4,-32.172 -48.39,-42.543 -20,-10.36 -41.11,-15.547 -63.32,-15.547 -22.65,0 -42.96,4.968 -60.94,14.918 -17.99,9.941 -31,23.91 -39.03,41.898 -8.05,17.981 -12.08,42.844 -12.08,74.582 v 213.281 h 89.19 V 702.809 c 0,-47.411 1.64,-76.438 4.93,-87.118 3.27,-10.703 9.24,-19.152 17.93,-25.39 8.67,-6.25 19.67,-9.371 33,-9.371 15.24,0 28.88,4.179 40.95,12.539 12.05,8.351 20.31,18.722 24.75,31.101 4.45,12.379 6.67,42.692 6.67,90.93 v 142.191 h 89.19 V 520.629 h -82.85"
         style="fill:#ffffff;fill-opacity:1;fill-rule:nonzero;stroke:none"
         id="path80" /><path
         d="m 7755.92,520.629 h -89.18 v 172.019 c 0,36.391 -1.9,59.93 -5.71,70.622 -3.81,10.679 -10,18.992 -18.57,24.921 -8.57,5.918 -18.88,8.879 -30.94,8.879 -15.45,0 -29.31,-4.23 -41.57,-12.691 -12.28,-8.469 -20.7,-19.688 -25.24,-33.649 -4.55,-13.968 -6.83,-39.781 -6.83,-77.441 v -152.66 h -89.18 v 337.062 h 82.84 V 808.18 c 29.4,38.082 66.43,57.129 111.08,57.129 19.68,0 37.66,-3.547 53.96,-10.637 16.28,-7.094 28.61,-16.133 36.97,-27.133 8.36,-11 14.18,-23.488 17.46,-37.461 3.27,-13.957 4.91,-33.949 4.91,-59.976 V 520.629"
         style="fill:#ffffff;fill-opacity:1;fill-rule:nonzero;stroke:none"
         id="path82" /><path
         d="m 7846.39,520.629 v 337.062 h 89.18 V 520.629 Z m 0,382.762 v 82.519 h 89.18 v -82.519 h -89.18"
         style="fill:#ffffff;fill-opacity:1;fill-rule:nonzero;stroke:none"
         id="path84" /><path
         d="m 8026.98,520.629 v 337.062 h 89.18 V 520.629 Z m -6.67,378.32 43.8,94.903 h 99.98 l -87.29,-94.903 h -56.49"
         style="fill:#ffffff;fill-opacity:1;fill-rule:nonzero;stroke:none"
         id="path86" /></g></g></svg>
