<?xml version="1.0" encoding="utf-8"?>
<!-- Generator: Adobe Illustrator 13.0.2, SVG Export Plug-In . SVG Version: 6.00 Build 14948)  -->
<!DOCTYPE svg PUBLIC "-//W3C//DTD SVG 1.0//EN" "http://www.w3.org/TR/2001/REC-SVG-20010904/DTD/svg10.dtd">
<svg version="1.0" id="Layer_1" xmlns="http://www.w3.org/2000/svg" xmlns:xlink="http://www.w3.org/1999/xlink" x="0px" y="0px"
   width="64px" height="64px" viewBox="5.5 -3.5 64 64" enable-background="new 5.5 -3.5 64 64" xml:space="preserve">
<g>
  <g>
    <path classs="path1" d="M105.76,52.38 C105.76,66.2720397 100.241409,79.5950977 90.4182532,89.4182532 C80.5950977,99.2414087 67.2720397,104.76 53.38,104.76 L0.96,104.76 L0.96,52.38 C0.96,38.4879603 6.4785913,25.1649023 16.3017468,15.3417468 C26.1249023,5.5185913 39.4479603,4.54747351e-13 53.34,4.54747351e-13 L105.72,4.54747351e-13 L105.76,52.38 Z M24.54,52.9 C24.3533888,45.2324978 27.3808208,37.836137 32.89,32.5 C38.335571,27.1234207 45.7294048,24.1860948 53.38,24.36 C58.7676508,24.2682009 64.0726608,25.6923414 68.69,28.47 L79.04,18.12 C62.0121136,5.31153596 38.1534437,6.99021723 23.0868304,22.0568304 C8.02021723,37.1234437 6.34153596,60.9821136 19.15,78.01 L28.82,68.34 C25.8935469,63.7317426 24.4037268,58.3572515 24.54,52.9 L24.54,52.9 Z M45.37,67.74 C47.7075392,69.0754503 50.3580012,69.7656748 53.05,69.74 C58.845559,69.8519485 64.3456157,67.187394 67.85,62.57 L75.7,70.67 C69.4666667,77.67 62.1166667,81.1766667 53.65,81.19 C47.6605117,81.3453997 41.7635043,79.6899159 36.73,76.44 L27.06,86.11 C34.5601214,92.0337249 43.8426979,95.2477377 53.4,95.23 C69.7954687,95.2594184 84.765543,85.9157637 91.9415467,71.1740802 C99.1175503,56.4323967 97.2370261,38.8861539 87.1,26 L45.37,67.74 Z M37.18,52.73 C37.1421193,54.8733609 37.4562954,57.0084072 38.11,59.05 L60.04,37.12 C58.0848993,36.3974554 56.0142301,36.0382231 53.93,36.06 C49.5511748,35.9625277 45.30703,37.576953 42.1,40.56 C38.83,43.56 37.18,47.63 37.18,52.72 L37.18,52.73 Z"/>
  </g>
</g>
</svg>