<svg width="177" height="37" xmlns="http://www.w3.org/2000/svg"><g fill="#1A1A1A" fill-rule="evenodd"><path d="M24.411 11.243h.036-.036M7.476 22.326c2.667 0 4.829 2.152 4.829 4.807 0 2.654-2.162 4.806-4.829 4.806-2.666 0-4.828-2.152-4.828-4.806 0-2.655 2.162-4.807 4.828-4.807m3.496 10.76a2.486 2.486 0 0 1 2.486-2.474 2.486 2.486 0 0 1 2.486 2.475 2.486 2.486 0 0 1-2.486 2.475 2.486 2.486 0 0 1-2.486-2.475m19.06-19.62a8.755 8.755 0 0 1-.072-.969c-.072-.25-.108-.645-.144-.86-.108-.287-.108-.395-.144-.61-.072-.215-.072-.215-.18-.682-.252-.896-.649-1.793-1.081-2.654-.288-.538-.649-1.004-1.01-1.47a4.56 4.56 0 0 0-.36-.431c-.144-.18-.936-1.112-1.188-1.327-.253-.215-.469-.43-.757-.646-.252-.215-.54-.43-.793-.61-.216-.179-.468-.25-.684-.394-1.225-.753-2.595-1.363-4-1.686C14.9.052 9.35 1.63 6.287 5.468c-.324.395-.648.79-.972 1.22-.145.18-.217.43-.36.645a10.27 10.27 0 0 0-.721 1.4c-.865 1.9-1.406 4.232-1.225 6.42.108 1.22.324 2.439.756 3.586.144.36.252.718.433 1.077.108.25.396.753.432.824a7.166 7.166 0 0 0-4.288 6.564c0 3.946 3.243 7.174 7.207 7.174a6.9 6.9 0 0 0 2.45-.43c0 .035.036.035.036.071.396 1.543 1.801 2.726 3.495 2.726 1.982 0 3.603-1.614 3.603-3.587a3.585 3.585 0 0 0-2.81-3.515c0-.035.036-.071.036-.107.036-.144.108-.287.144-.43.072-.18.108-.36.144-.575 0-.107.036-.215.036-.358.036-.144.036-.287.036-.43.036-.036.072 0 .144 0 .793.035 1.585.179 2.378.107 1.477-.072 3.063-.359 4.396-.968 1.405-.61 2.774-1.4 3.927-2.44.54-.466 1.081-1.004 1.514-1.614.216-.287.468-.538.648-.825.144-.25.36-.502.505-.753.108-.18.108-.287.216-.466a1.12 1.12 0 0 0 .18-.359c.108-.25.144-.538.144-.825.036-.538-.144-1.112-.468-1.578-.253-.394-.865-.753-1.333-.897-.54-.143-1.19-.107-1.73.072-.576.215-.973.717-1.297 1.256-.36.573-.685 1.111-1.153 1.578-.9.896-1.874 1.614-3.063 2.08-4.54 1.83-9.8-.646-11.314-5.273-.684-2.152-.504-4.555.613-6.563a9.316 9.316 0 0 1 2.306-2.726 7.852 7.852 0 0 1 1.657-1.005c.54-.215 1.081-.358 1.622-.538.432-.143 1.009-.18 1.441-.215a6.46 6.46 0 0 1 1.441.036c.973.143 1.982.394 2.883.825.468.25 1.009.574 1.441.932.432.36.9.79 1.261 1.22.288.359.433.61.72.968.289.43.685.897.721 1.435h-3.387c-1.08 0-2.27-.25-3.278.251-1.045.538-1.874 2.045-1.19 3.157.325.538.469.968 1.081 1.255.613.287 1.117.323 1.802.323 1.55-.036 3.099 0 4.648 0h2.414c.685 0 1.37.036 2.018-.215.973-.323 1.513-1.363 1.405-2.511M51.131 20.675c0 .73-.33 1.13-1.055 1.13h-8.778v.864c0 2.792 1.188 4.188 3.63 4.188 1.518 0 2.904-.333 4.026-.93.132-.067.33-.134.462-.134.33 0 .594.133.791.4.198.265.33.53.33.863 0 .466-.198.798-.66 1.064-1.451.798-3.167 1.196-5.081 1.196-2.178 0-3.828-.664-4.884-2.06-.99-1.197-1.452-2.792-1.452-4.853v-2.991c0-2.061.462-3.657 1.452-4.853 1.122-1.33 2.706-2.06 4.884-2.06 2.244 0 3.828.664 4.95 2.06.923 1.13 1.385 2.725 1.385 4.786v1.33zm-2.771-1.662c0-2.726-1.188-4.122-3.498-4.122-2.376 0-3.63 1.396-3.63 4.122v.532h7.128v-.532zM67.61 29.316a2.64 2.64 0 0 1-1.756-.664c-.338-.266-.54-.665-.81-1.197-1.216 1.263-2.904 1.861-5.132 1.861-3.579 0-5.402-1.994-5.402-5.916v-9.44c0-.398.135-.73.405-.996s.608-.4 1.013-.4c.405 0 .743.134 1.013.4.27.265.405.598.405.997v9.173c0 1.13.203 1.994.608 2.526.473.599 1.35.93 2.498.93 1.89 0 3.241-.73 3.984-2.193V13.894c0-.399.135-.731.405-.997s.608-.399 1.013-.399c.405 0 .742.133 1.013.4.27.265.405.597.405.996v11.102c0 .997.337 1.728 1.012 2.06.406.2.54.532.54.93.203.932-.27 1.33-1.215 1.33zM79.744 15.49c-.193 0-.321-.067-.514-.067s-.385-.066-.578-.066h-.45c-1.926 0-3.082.997-3.467 2.925v9.638c0 .4-.129.732-.386.998a1.284 1.284 0 0 1-.963.398c-.385 0-.706-.133-.963-.398-.257-.266-.386-.599-.386-.998V17.02c0-.998-.32-1.729-.963-2.061-.385-.2-.514-.532-.514-.93 0-.799.45-1.264 1.349-1.264h.45c1.027.266 1.733.93 2.119 1.994 1.027-1.462 2.44-2.26 4.303-2.26.834 0 1.54.133 2.119.4.45.265.642.597.642 1.13 0 .398-.128.73-.385.996a1.247 1.247 0 0 1-.9.4c-.192.066-.32.066-.513.066zM95.17 27.314c-1.167 1.335-2.882 2.002-5.215 2.002-2.264 0-3.98-.667-5.146-2.002-1.029-1.201-1.578-2.803-1.578-4.738v-3.337c0-2.002.55-3.537 1.578-4.739 1.167-1.334 2.882-2.002 5.146-2.002 2.333 0 4.048.668 5.214 2.002 1.03 1.202 1.578 2.803 1.578 4.739v3.337c0 2.002-.549 3.537-1.578 4.738zm-1.373-8.075c0-2.736-1.303-4.071-3.842-4.071-2.538 0-3.773 1.335-3.773 4.07v3.338c0 2.736 1.235 4.138 3.773 4.138 2.539 0 3.842-1.402 3.842-4.138v-3.337zM106.78 28.815c-1.505 0-2.804-.387-3.967-1.225v5.417c0 .387-.137.71-.41.968-.274.258-.616.387-1.026.387-.41 0-.752-.13-1.026-.387a1.275 1.275 0 0 1-.41-.968V16.626c0-1.032-.342-1.677-.957-2-.41-.193-.547-.515-.547-.902 0-.774.478-1.226 1.436-1.226.615 0 1.23.194 1.778.645.205.194.41.452.615.71 1.368-.903 2.804-1.355 4.377-1.355 4.103 0 6.154 2.129 6.154 6.385v2.838c0 4.773-2.051 7.094-6.018 7.094zm3.077-10.06c0-2.516-1.231-3.806-3.693-3.806-1.163 0-2.325.451-3.35 1.29v8.707c1.025.967 2.187 1.419 3.487 1.419 2.393 0 3.556-1.42 3.556-4.257v-3.354zM128.002 20.675c0 .73-.33 1.13-1.055 1.13h-8.778v.864c0 2.792 1.188 4.188 3.63 4.188 1.518 0 2.904-.333 4.026-.93.132-.067.33-.134.462-.134.33 0 .594.133.792.4.198.265.33.53.33.863 0 .466-.198.798-.66 1.064-1.452.798-3.168 1.196-5.082 1.196-2.178 0-3.828-.664-4.884-2.06-.99-1.197-1.452-2.792-1.452-4.853v-2.991c0-2.061.462-3.657 1.452-4.853 1.122-1.33 2.706-2.06 4.884-2.06 2.244 0 3.828.664 4.95 2.06.924 1.13 1.385 2.725 1.385 4.786v1.33zm-2.705-1.662c0-2.726-1.188-4.122-3.498-4.122-2.376 0-3.63 1.396-3.63 4.122v.532h7.128v-.532zM142.694 29.316c-.646 0-1.228-.199-1.616-.664-.259-.2-.453-.532-.647-.997-.97 1.13-2.457 1.661-4.397 1.661-1.876 0-3.299-.465-4.204-1.33-.84-.863-1.293-1.993-1.293-3.39v-.265c0-1.396.452-2.526 1.358-3.39 1.034-.865 2.522-1.33 4.397-1.33h3.622v-.798c0-1.396-.194-2.326-.647-2.925-.453-.664-1.358-.997-2.651-.997-1.164 0-2.264.266-3.234.798-.259.133-.453.2-.647.2-.323 0-.646-.134-.84-.4-.194-.265-.324-.531-.324-.864 0-.398.194-.73.582-.997 1.164-.73 2.717-1.13 4.657-1.13 2.134 0 3.686.532 4.591 1.662.84.997 1.229 2.66 1.229 4.853v6.049c0 .997.323 1.728.905 2.06.388.267.517.533.517.931 0 .865-.452 1.263-1.358 1.263zm-2.845-7.511h-3.298c-2.199 0-3.363.864-3.363 2.526v.266c0 1.662 1.1 2.526 3.234 2.526 2.263 0 3.427-1.13 3.427-3.39v-1.928zM160.41 28.916a1.37 1.37 0 0 1-1.006.4 1.37 1.37 0 0 1-1.41-1.401v-9.21c0-1.135-.2-2.002-.603-2.536-.47-.668-1.342-1.001-2.483-1.001-1.88 0-3.154.667-3.96 2.069v10.678a1.37 1.37 0 0 1-1.41 1.402 1.37 1.37 0 0 1-1.408-1.402V16.97c0-1.001-.335-1.735-1.006-2.07-.403-.2-.537-.533-.537-.934 0-.8.47-1.268 1.409-1.268.604 0 1.208.2 1.745.668.335.334.536.667.738 1.068 1.208-1.335 2.885-1.936 5.1-1.936 3.556 0 5.368 2.002 5.368 5.94v9.477c-.134.4-.268.734-.537 1.001zM174.794 29.316c-.646 0-1.228-.199-1.616-.664-.259-.2-.453-.532-.647-.997-.97 1.13-2.457 1.661-4.397 1.661-1.876 0-3.299-.465-4.204-1.33-.84-.863-1.293-1.993-1.293-3.39v-.265c0-1.396.452-2.526 1.358-3.39 1.034-.865 2.522-1.33 4.397-1.33h3.622v-.798c0-1.396-.194-2.326-.647-2.925-.453-.664-1.358-.997-2.651-.997-1.164 0-2.264.266-3.234.798-.259.133-.453.2-.647.2-.323 0-.646-.134-.84-.4-.194-.265-.324-.531-.324-.864 0-.398.194-.73.582-.997 1.164-.73 2.717-1.13 4.657-1.13 2.134 0 3.686.532 4.591 1.662.84.997 1.229 2.66 1.229 4.853v6.049c0 .997.323 1.728.905 2.06.388.267.517.533.517.931 0 .865-.452 1.263-1.358 1.263zm-2.78-7.511h-3.298c-2.2 0-3.363.864-3.363 2.526v.266c0 1.662 1.1 2.526 3.233 2.526 2.264 0 3.428-1.13 3.428-3.39v-1.928z"/></g></svg>