<?xml version="1.0" encoding="UTF-8" standalone="no"?>
<!-- Created with Inkscape (http://www.inkscape.org/) -->

<svg
   version="1.1"
   id="svg2"
   xml:space="preserve"
   width="1420"
   height="284.66666"
   viewBox="0 0 1420 284.66666"
   sodipodi:docname="DA-Funded by the EU_NEG.eps"
   xmlns:inkscape="http://www.inkscape.org/namespaces/inkscape"
   xmlns:sodipodi="http://sodipodi.sourceforge.net/DTD/sodipodi-0.dtd"
   xmlns="http://www.w3.org/2000/svg"
   xmlns:svg="http://www.w3.org/2000/svg"><defs
     id="defs6" /><sodipodi:namedview
     id="namedview4"
     pagecolor="#ffffff"
     bordercolor="#666666"
     borderopacity="1.0"
     inkscape:pageshadow="2"
     inkscape:pageopacity="0.0"
     inkscape:pagecheckerboard="0" /><g
     id="g8"
     inkscape:groupmode="layer"
     inkscape:label="ink_ext_XXXXXX"
     transform="matrix(1.3333333,0,0,-1.3333333,0,284.66667)"><g
       id="g10"
       transform="scale(0.1)"><path
         d="M 154.242,71.0586 H 3103.7 V 2073.9 H 154.242 V 71.0586"
         style="fill:#ffffff;fill-opacity:1;fill-rule:nonzero;stroke:none"
         id="path12" /><path
         d="M 210.961,128.281 H 3046.99 V 2018.97 H 210.961 V 128.281"
         style="fill:#264ca4;fill-opacity:1;fill-rule:nonzero;stroke:none"
         id="path14" /><path
         d="m 1568.55,1607.02 59.83,43.67 59.86,-43.67 -22.79,70.63 60.79,43.67 h -74.93 l -22.93,71.48 -22.93,-71.56 -74.88,0.08 60.74,-43.67 -22.76,-70.63"
         style="fill:#f5f014;fill-opacity:1;fill-rule:nonzero;stroke:none"
         id="path16" /><path
         d="m 1258.85,1523.82 59.85,43.67 59.81,-43.67 -22.74,70.63 60.75,43.68 h -74.93 l -22.92,71.55 -22.93,-71.64 -74.9,0.09 60.75,-43.68 -22.74,-70.63"
         style="fill:#f5f014;fill-opacity:1;fill-rule:nonzero;stroke:none"
         id="path18" /><path
         d="m 1092.09,1482.57 -22.93,-71.64 -74.879,0.09 60.739,-43.68 -22.76,-70.63 59.83,43.68 59.85,-43.68 -22.78,70.63 60.75,43.68 h -74.89 l -22.93,71.55"
         style="fill:#f5f014;fill-opacity:1;fill-rule:nonzero;stroke:none"
         id="path20" /><path
         d="m 1008.98,1031.08 59.8,-43.658 -22.73,70.608 60.73,43.68 h -74.87 l -22.93,71.56 -22.929,-71.72 -74.922,0.16 60.777,-43.68 -22.769,-70.608 59.843,43.658"
         style="fill:#f5f014;fill-opacity:1;fill-rule:nonzero;stroke:none"
         id="path22" /><path
         d="m 1115.02,791.48 -22.93,71.559 -22.93,-71.641 -74.879,0.082 60.739,-43.66 -22.76,-70.64 59.83,43.75 59.85,-43.75 -22.78,70.64 60.75,43.66 h -74.89"
         style="fill:#f5f014;fill-opacity:1;fill-rule:nonzero;stroke:none"
         id="path24" /><path
         d="m 1342.05,564.461 -22.93,71.469 -22.89,-71.559 -74.92,0.09 60.74,-43.68 -22.72,-70.633 59.83,43.672 59.81,-43.672 -22.74,70.633 60.75,43.68 h -74.93"
         style="fill:#f5f014;fill-opacity:1;fill-rule:nonzero;stroke:none"
         id="path26" /><path
         d="m 1651.35,482.18 -22.93,71.558 -22.89,-71.636 -74.91,0.078 60.73,-43.668 -22.72,-70.633 59.83,43.68 59.81,-43.68 -22.78,70.633 60.78,43.668 h -74.92"
         style="fill:#f5f014;fill-opacity:1;fill-rule:nonzero;stroke:none"
         id="path28" /><path
         d="m 1960.66,564.461 -22.89,71.469 -22.97,-71.559 -74.85,0.09 60.71,-43.68 -22.74,-70.633 59.85,43.672 59.83,-43.672 -22.8,70.633 60.78,43.68 h -74.92"
         style="fill:#f5f014;fill-opacity:1;fill-rule:nonzero;stroke:none"
         id="path30" /><path
         d="m 2187.77,791.48 -22.97,71.559 -22.97,-71.641 -74.84,0.082 60.78,-43.66 -22.82,-70.64 59.85,43.75 59.83,-43.75 -22.8,70.64 60.77,43.66 h -74.83"
         style="fill:#f5f014;fill-opacity:1;fill-rule:nonzero;stroke:none"
         id="path32" /><path
         d="m 2344.88,1102.57 h -74.93 l -22.96,71.57 -22.89,-71.65 -74.93,0.08 60.78,-43.67 -22.74,-70.619 59.78,43.749 59.84,-43.749 -22.73,70.619 60.78,43.67"
         style="fill:#f5f014;fill-opacity:1;fill-rule:nonzero;stroke:none"
         id="path34" /><path
         d="m 2104.95,1297.66 59.84,43.66 59.84,-43.66 -22.8,70.63 60.77,43.59 h -74.84 l -22.97,71.55 -22.96,-71.64 -74.85,0.09 60.78,-43.59 -22.81,-70.63"
         style="fill:#f5f014;fill-opacity:1;fill-rule:nonzero;stroke:none"
         id="path36" /><path
         d="m 1938.63,1709.6 -22.89,-71.64 -74.93,0.17 60.71,-43.75 -22.74,-70.64 59.92,43.75 59.76,-43.75 -22.72,70.64 60.78,43.75 h -75 l -22.89,71.47"
         style="fill:#f5f014;fill-opacity:1;fill-rule:nonzero;stroke:none"
         id="path38" /><path
         d="m 3458.79,1300.63 v 465.28 h 318.97 v -78.71 h -225.02 v -110.13 h 194.24 v -78.71 h -194.24 v -197.73 h -93.95"
         style="fill:#ffffff;fill-opacity:1;fill-rule:nonzero;stroke:none"
         id="path40" /><path
         d="m 3854.57,1300.63 v 337.05 h 89.18 v -337.05 z m 0,382.76 v 82.52 h 89.18 v -82.52 h -89.18"
         style="fill:#ffffff;fill-opacity:1;fill-rule:nonzero;stroke:none"
         id="path42" /><path
         d="m 4341.74,1300.63 h -89.18 v 172.01 c 0,36.39 -1.9,59.94 -5.71,70.62 -3.81,10.69 -10,18.99 -18.57,24.92 -8.57,5.92 -18.88,8.89 -30.94,8.89 -15.45,0 -29.31,-4.24 -41.57,-12.69 -12.28,-8.47 -20.7,-19.69 -25.24,-33.66 -4.55,-13.96 -6.83,-39.77 -6.83,-77.44 v -152.65 h -89.18 v 337.05 h 82.84 v -49.51 c 29.4,38.09 66.43,57.13 111.08,57.13 19.68,0 37.66,-3.54 53.96,-10.63 16.29,-7.09 28.61,-16.13 36.97,-27.13 8.36,-11.01 14.18,-23.5 17.46,-37.46 3.27,-13.97 4.91,-33.96 4.91,-59.98 v -209.47"
         style="fill:#ffffff;fill-opacity:1;fill-rule:nonzero;stroke:none"
         id="path44" /><path
         d="m 4618.19,1462.49 c -11.43,-3.81 -29.51,-8.36 -54.27,-13.64 -24.76,-5.3 -40.95,-10.48 -48.56,-15.56 -11.64,-8.25 -17.46,-18.72 -17.46,-31.41 0,-12.5 4.65,-23.29 13.97,-32.39 9.31,-9.09 21.15,-13.64 35.55,-13.64 16.07,0 31.41,5.28 46.02,15.87 10.78,8.03 17.87,17.88 21.26,29.51 2.33,7.62 3.49,22.11 3.49,43.48 z m -119.34,72.36 -80.93,14.6 c 9.1,32.58 24.76,56.7 46.98,72.37 22.21,15.65 55.22,23.48 99.02,23.48 39.78,0 69.39,-4.71 88.87,-14.12 19.46,-9.42 33.16,-21.38 41.1,-35.87 7.93,-14.49 11.89,-41.09 11.89,-79.82 l -0.94,-104.1 c 0,-29.62 1.42,-51.47 4.28,-65.54 2.86,-14.07 8.2,-29.15 16.03,-45.22 h -88.23 c -2.34,5.91 -5.19,14.7 -8.58,26.34 -1.47,5.28 -2.54,8.77 -3.16,10.47 -15.23,-14.81 -31.53,-25.92 -48.89,-33.32 -17.34,-7.41 -35.86,-11.11 -55.53,-11.11 -34.71,0 -62.06,9.41 -82.05,28.24 -20,18.84 -30,42.64 -30,71.41 0,19.05 4.56,36.03 13.66,50.94 9.09,14.92 21.84,26.35 38.24,34.28 16.4,7.94 40.04,14.86 70.94,20.79 41.68,7.82 70.56,15.13 86.64,21.9 v 8.88 c 0,17.15 -4.23,29.37 -12.7,36.66 -8.46,7.31 -24.43,10.96 -47.92,10.96 -15.87,0 -28.25,-3.12 -37.14,-9.37 -8.88,-6.25 -16.07,-17.19 -21.58,-32.85"
         style="fill:#ffffff;fill-opacity:1;fill-rule:nonzero;stroke:none"
         id="path46" /><path
         d="m 5100.29,1300.63 h -89.18 v 172.01 c 0,36.39 -1.91,59.94 -5.72,70.62 -3.8,10.69 -10,18.99 -18.56,24.92 -8.57,5.92 -18.89,8.89 -30.95,8.89 -15.45,0 -29.3,-4.24 -41.57,-12.69 -12.28,-8.47 -20.69,-19.69 -25.23,-33.66 -4.55,-13.96 -6.83,-39.77 -6.83,-77.44 v -152.65 h -89.19 v 337.05 h 82.84 v -49.51 c 29.41,38.09 66.44,57.13 111.09,57.13 19.67,0 37.65,-3.54 53.95,-10.63 16.29,-7.09 28.61,-16.13 36.97,-27.13 8.36,-11.01 14.18,-23.5 17.46,-37.46 3.28,-13.97 4.92,-33.96 4.92,-59.98 v -209.47"
         style="fill:#ffffff;fill-opacity:1;fill-rule:nonzero;stroke:none"
         id="path48" /><path
         d="m 5159.32,1396.8 89.5,13.64 c 3.81,-17.35 11.54,-30.53 23.18,-39.51 11.63,-9 27.93,-13.49 48.86,-13.49 23.07,0 40.42,4.23 52.05,12.7 7.84,5.91 11.75,13.84 11.75,23.79 0,6.77 -2.12,12.38 -6.35,16.83 -4.44,4.23 -14.39,8.13 -29.83,11.74 -71.94,15.87 -117.54,30.36 -136.8,43.48 -26.66,18.2 -39.98,43.48 -39.98,75.86 0,29.2 11.53,53.73 34.59,73.63 23.06,19.88 58.82,29.83 107.28,29.83 46.12,0 80.4,-7.51 102.83,-22.53 22.42,-15.03 37.87,-37.24 46.34,-66.66 l -84.1,-15.54 c -3.61,13.11 -10.43,23.16 -20.48,30.15 -10.05,6.98 -24.39,10.47 -43,10.47 -23.5,0 -40.31,-3.28 -50.47,-9.84 -6.78,-4.65 -10.16,-10.69 -10.16,-18.09 0,-6.35 2.96,-11.74 8.89,-16.19 8.04,-5.92 35.81,-14.28 83.31,-25.07 47.5,-10.79 80.67,-24.01 99.5,-39.68 18.62,-15.86 27.93,-37.98 27.93,-66.32 0,-30.9 -12.91,-57.45 -38.72,-79.67 -25.82,-22.21 -64,-33.32 -114.58,-33.32 -45.91,0 -82.25,9.3 -109.01,27.93 -26.77,18.61 -44.28,43.9 -52.53,75.86"
         style="fill:#ffffff;fill-opacity:1;fill-rule:nonzero;stroke:none"
         id="path50" /><path
         d="m 5552.25,1300.63 v 337.05 h 89.18 v -337.05 z m 0,382.76 v 82.52 h 89.18 v -82.52 h -89.18"
         style="fill:#ffffff;fill-opacity:1;fill-rule:nonzero;stroke:none"
         id="path52" /><path
         d="m 5933.1,1498.04 c -0.64,25.81 -7.3,45.44 -19.99,58.87 -12.7,13.43 -28.15,20.16 -46.35,20.16 -19.46,0 -35.55,-7.1 -48.24,-21.27 -12.7,-14.18 -18.94,-33.44 -18.72,-57.76 z m -5.08,-90.14 88.87,-14.91 c -11.43,-32.59 -29.46,-57.4 -54.11,-74.44 -24.66,-17.03 -55.5,-25.54 -92.52,-25.54 -58.62,0 -101.99,19.15 -130.13,57.44 -22.22,30.68 -33.33,69.4 -33.33,116.17 0,55.86 14.61,99.6 43.81,131.23 29.2,31.63 66.11,47.45 110.76,47.45 50.15,0 89.71,-16.56 118.7,-49.67 28.99,-33.11 42.84,-83.84 41.57,-152.18 h -223.43 c 0.64,-26.46 7.83,-47.04 21.58,-61.73 13.76,-14.71 30.9,-22.06 51.42,-22.06 13.97,0 25.71,3.8 35.23,11.42 9.52,7.62 16.71,19.88 21.58,36.82"
         style="fill:#ffffff;fill-opacity:1;fill-rule:nonzero;stroke:none"
         id="path54" /><path
         d="m 6179.71,1300.63 h -89.18 v 337.05 h 82.83 v -47.91 c 14.17,22.63 26.93,37.54 38.25,44.74 11.31,7.19 24.17,10.79 38.56,10.79 20.31,0 39.88,-5.6 58.72,-16.82 l -27.62,-77.76 c -15.03,9.73 -28.99,14.6 -41.89,14.6 -12.49,0 -23.07,-3.44 -31.74,-10.31 -8.68,-6.88 -15.5,-19.32 -20.47,-37.3 -4.98,-17.98 -7.46,-55.65 -7.46,-112.98 v -104.1"
         style="fill:#ffffff;fill-opacity:1;fill-rule:nonzero;stroke:none"
         id="path56" /><path
         d="m 6547.55,1498.04 c -0.63,25.81 -7.29,45.44 -19.99,58.87 -12.69,13.43 -28.14,20.16 -46.35,20.16 -19.46,0 -35.54,-7.1 -48.24,-21.27 -12.69,-14.18 -18.93,-33.44 -18.72,-57.76 z m -5.08,-90.14 88.87,-14.91 c -11.42,-32.59 -29.46,-57.4 -54.11,-74.44 -24.66,-17.03 -55.5,-25.54 -92.52,-25.54 -58.61,0 -101.99,19.15 -130.13,57.44 -22.21,30.68 -33.33,69.4 -33.33,116.17 0,55.86 14.61,99.6 43.81,131.23 29.2,31.63 66.12,47.45 110.76,47.45 50.15,0 89.71,-16.56 118.71,-49.67 28.98,-33.11 42.84,-83.84 41.57,-152.18 h -223.44 c 0.64,-26.46 7.83,-47.04 21.58,-61.73 13.76,-14.71 30.9,-22.06 51.43,-22.06 13.96,0 25.7,3.8 35.22,11.42 9.52,7.62 16.71,19.88 21.58,36.82"
         style="fill:#ffffff;fill-opacity:1;fill-rule:nonzero;stroke:none"
         id="path58" /><path
         d="m 6863.35,1637.68 v -71.09 h -60.93 v -135.84 c 0,-27.51 0.57,-43.54 1.74,-48.09 1.17,-4.55 3.81,-8.3 7.93,-11.25 4.13,-2.97 9.15,-4.46 15.08,-4.46 8.25,0 20.21,2.86 35.86,8.58 l 7.62,-69.19 c -20.73,-8.89 -44.22,-13.33 -70.45,-13.33 -16.09,0 -30.59,2.69 -43.49,8.09 -12.91,5.39 -22.37,12.38 -28.41,20.95 -6.02,8.56 -10.2,20.16 -12.53,34.75 -1.9,10.37 -2.86,31.31 -2.86,62.85 v 146.94 h -40.93 v 71.09 h 40.93 v 66.97 l 89.51,52.05 v -119.02 h 60.93"
         style="fill:#ffffff;fill-opacity:1;fill-rule:nonzero;stroke:none"
         id="path60" /><path
         d="m 7291.82,1462.49 c -11.43,-3.81 -29.51,-8.36 -54.27,-13.64 -24.75,-5.3 -40.94,-10.48 -48.56,-15.56 -11.63,-8.25 -17.45,-18.72 -17.45,-31.41 0,-12.5 4.65,-23.29 13.96,-32.39 9.31,-9.09 21.15,-13.64 35.55,-13.64 16.07,0 31.41,5.28 46.02,15.87 10.79,8.03 17.88,17.88 21.26,29.51 2.33,7.62 3.49,22.11 3.49,43.48 z m -119.34,72.36 -80.92,14.6 c 9.09,32.58 24.75,56.7 46.97,72.37 22.22,15.65 55.22,23.48 99.02,23.48 39.78,0 69.4,-4.71 88.87,-14.12 19.46,-9.42 33.16,-21.38 41.1,-35.87 7.93,-14.49 11.9,-41.09 11.9,-79.82 l -0.95,-104.1 c 0,-29.62 1.43,-51.47 4.29,-65.54 2.85,-14.07 8.19,-29.15 16.02,-45.22 h -88.23 c -2.33,5.91 -5.19,14.7 -8.57,26.34 -1.48,5.28 -2.54,8.77 -3.17,10.47 -15.23,-14.81 -31.53,-25.92 -48.88,-33.32 -17.35,-7.41 -35.86,-11.11 -55.54,-11.11 -34.71,0 -62.05,9.41 -82.04,28.24 -20,18.84 -30,42.64 -30,71.41 0,19.05 4.55,36.03 13.65,50.94 9.09,14.92 21.85,26.35 38.24,34.28 16.4,7.94 40.04,14.86 70.94,20.79 41.68,7.82 70.57,15.13 86.64,21.9 v 8.88 c 0,17.15 -4.23,29.37 -12.7,36.66 -8.45,7.31 -24.43,10.96 -47.92,10.96 -15.86,0 -28.25,-3.12 -37.13,-9.37 -8.89,-6.25 -16.08,-17.19 -21.59,-32.85"
         style="fill:#ffffff;fill-opacity:1;fill-rule:nonzero;stroke:none"
         id="path62" /><path
         d="m 7428.29,1637.68 h 49.52 v 25.39 c 0,28.36 3.01,49.52 9.04,63.48 6.03,13.97 17.14,25.33 33.33,34.12 16.18,8.78 36.65,13.18 61.42,13.18 25.39,0 50.24,-3.81 74.58,-11.43 l -12.07,-62.21 c -14.17,3.38 -27.82,5.08 -40.93,5.08 -12.91,0 -22.17,-3.02 -27.78,-9.05 -5.61,-6.03 -8.41,-17.61 -8.41,-34.76 v -23.8 h 66.66 v -70.14 h -66.66 v -266.91 h -89.18 v 266.91 h -49.52 v 70.14"
         style="fill:#ffffff;fill-opacity:1;fill-rule:nonzero;stroke:none"
         id="path64" /><path
         d="M 3551.78,907.199 V 599.031 h 70.14 c 26.24,0 45.17,1.469 56.81,4.43 15.24,3.809 27.88,10.258 37.93,19.367 10.05,9.094 18.25,24.063 24.59,44.91 6.35,20.84 9.53,49.242 9.53,85.211 0,35.973 -3.18,63.59 -9.53,82.84 -6.34,19.25 -15.23,34.27 -26.66,45.07 -11.42,10.782 -25.91,18.09 -43.47,21.903 -13.13,2.957 -38.83,4.437 -77.13,4.437 z m -93.94,78.711 h 171.69 c 38.74,0 68.25,-2.969 88.56,-8.879 27.29,-8.051 50.67,-22.332 70.14,-42.851 19.47,-20.52 34.27,-45.649 44.43,-75.379 10.16,-29.731 15.23,-66.379 15.23,-109.973 0,-38.297 -4.75,-71.308 -14.27,-99.019 -11.64,-33.86 -28.25,-61.258 -49.83,-82.207 -16.3,-15.872 -38.3,-28.243 -66.01,-37.133 -20.75,-6.559 -48.46,-9.84 -83.17,-9.84 H 3457.84 V 985.91"
         style="fill:#ffffff;fill-opacity:1;fill-rule:nonzero;stroke:none"
         id="path66" /><path
         d="m 4127.2,718.039 c -0.63,25.813 -7.29,45.441 -19.99,58.883 -12.69,13.43 -28.14,20.148 -46.35,20.148 -19.46,0 -35.54,-7.101 -48.24,-21.269 -12.69,-14.18 -18.93,-33.43 -18.72,-57.762 z m -5.08,-90.141 88.87,-14.91 c -11.43,-32.59 -29.46,-57.398 -54.11,-74.429 -24.66,-17.028 -55.5,-25.547 -92.52,-25.547 -58.61,0 -101.99,19.148 -130.13,57.437 -22.21,30.692 -33.33,69.41 -33.33,116.172 0,55.859 14.61,99.598 43.81,131.238 29.2,31.629 66.11,47.45 110.76,47.45 50.15,0 89.71,-16.571 118.7,-49.668 28.99,-33.121 42.85,-83.852 41.58,-152.192 h -223.44 c 0.64,-26.449 7.83,-47.027 21.58,-61.73 13.76,-14.699 30.9,-22.059 51.43,-22.059 13.96,0 25.7,3.809 35.22,11.43 9.52,7.609 16.71,19.879 21.58,36.808"
         style="fill:#ffffff;fill-opacity:1;fill-rule:nonzero;stroke:none"
         id="path68" /><path
         d="m 4595.01,520.629 h -89.18 v 172.019 c 0,36.391 -1.9,59.93 -5.71,70.622 -3.81,10.679 -10,18.992 -18.56,24.921 -8.58,5.918 -18.89,8.879 -30.95,8.879 -15.45,0 -29.31,-4.23 -41.57,-12.691 -12.28,-8.469 -20.7,-19.688 -25.24,-33.649 -4.55,-13.968 -6.82,-39.781 -6.82,-77.441 v -152.66 h -89.19 v 337.062 h 82.84 V 808.18 c 29.4,38.082 66.43,57.129 111.08,57.129 19.68,0 37.66,-3.547 53.96,-10.637 16.29,-7.094 28.61,-16.133 36.97,-27.133 8.36,-11 14.18,-23.488 17.46,-37.461 3.27,-13.957 4.91,-33.949 4.91,-59.976 V 520.629"
         style="fill:#ffffff;fill-opacity:1;fill-rule:nonzero;stroke:none"
         id="path70" /><path
         d="M 4866.69,520.629 V 985.91 h 345 V 907.199 H 4960.64 V 804.051 h 233.59 V 725.66 H 4960.64 V 599.031 h 259.94 v -78.402 h -353.89"
         style="fill:#ffffff;fill-opacity:1;fill-rule:nonzero;stroke:none"
         id="path72" /><path
         d="m 5521.46,520.629 v 50.473 c -12.28,-17.993 -28.41,-32.172 -48.4,-42.543 -20,-10.36 -41.1,-15.547 -63.32,-15.547 -22.65,0 -42.96,4.968 -60.94,14.918 -17.99,9.941 -30.99,23.91 -39.03,41.898 -8.05,17.981 -12.07,42.844 -12.07,74.582 v 213.281 h 89.19 V 702.809 c 0,-47.411 1.64,-76.438 4.92,-87.118 3.27,-10.703 9.25,-19.152 17.93,-25.39 8.67,-6.25 19.68,-9.371 33.01,-9.371 15.23,0 28.87,4.179 40.95,12.539 12.05,8.351 20.31,18.722 24.74,31.101 4.45,12.379 6.67,42.692 6.67,90.93 v 142.191 h 89.19 V 520.629 h -82.84"
         style="fill:#ffffff;fill-opacity:1;fill-rule:nonzero;stroke:none"
         id="path74" /><path
         d="m 5782.03,520.629 h -89.17 v 337.062 h 82.83 V 809.77 c 14.17,22.64 26.92,37.55 38.24,44.75 11.32,7.179 24.17,10.789 38.56,10.789 20.32,0 39.89,-5.61 58.72,-16.829 l -27.61,-77.75 c -15.03,9.719 -29,14.598 -41.9,14.598 -12.49,0 -23.06,-3.437 -31.74,-10.316 -8.68,-6.883 -15.49,-19.313 -20.46,-37.293 -4.98,-17.989 -7.47,-55.66 -7.47,-112.989 V 520.629"
         style="fill:#ffffff;fill-opacity:1;fill-rule:nonzero;stroke:none"
         id="path76" /><path
         d="m 6020.38,689.16 c 0,-33.43 7.94,-59.039 23.8,-76.808 15.88,-17.782 35.44,-26.661 58.72,-26.661 23.28,0 42.8,8.879 58.56,26.661 15.76,17.769 23.64,43.589 23.64,77.437 0,33.012 -7.88,58.402 -23.64,76.172 -15.76,17.769 -35.28,26.66 -58.56,26.66 -23.28,0 -42.84,-8.891 -58.72,-26.66 -15.86,-17.77 -23.8,-43.371 -23.8,-76.801 z m -91.4,4.762 c 0,29.617 7.29,58.289 21.9,86.008 14.59,27.718 35.28,48.879 62.04,63.468 26.77,14.614 56.65,21.911 89.66,21.911 51,0 92.78,-16.571 125.37,-49.668 32.58,-33.121 48.88,-74.961 48.88,-125.532 0,-50.988 -16.46,-93.257 -49.36,-126.8 -32.9,-33.528 -74.31,-50.297 -124.24,-50.297 -30.9,0 -60.37,6.976 -88.4,20.949 -28.04,13.961 -49.36,34.43 -63.95,61.41 -14.61,26.981 -21.9,59.828 -21.9,98.551"
         style="fill:#ffffff;fill-opacity:1;fill-rule:nonzero;stroke:none"
         id="path78" /><path
         d="m 6432.35,694.871 c 0,-37.871 7.51,-65.851 22.54,-83.949 15.02,-18.082 33.32,-27.133 54.9,-27.133 20.74,0 37.98,8.301 51.74,24.91 13.75,16.61 20.62,43.852 20.62,81.731 0,35.34 -7.09,61.57 -21.26,78.711 -14.18,17.129 -31.74,25.711 -52.68,25.711 -21.8,0 -39.89,-8.411 -54.28,-25.243 -14.39,-16.808 -21.58,-41.738 -21.58,-74.738 z m -88.23,162.82 h 83.15 V 808.18 c 10.8,16.922 25.39,30.672 43.81,41.261 18.4,10.571 38.82,15.868 61.25,15.868 39.14,0 72.36,-15.348 99.66,-46.028 27.29,-30.672 40.94,-73.422 40.94,-128.222 0,-56.278 -13.76,-100.028 -41.27,-131.231 -27.5,-31.207 -60.83,-46.816 -99.97,-46.816 -18.62,0 -35.49,3.699 -50.62,11.109 -15.13,7.41 -31.06,20.098 -47.77,38.09 V 392.41 h -89.18 v 465.281"
         style="fill:#ffffff;fill-opacity:1;fill-rule:nonzero;stroke:none"
         id="path80" /><path
         d="m 7156.3,718.68 c -1.27,18.609 -3.81,32.05 -7.61,40.308 -5.3,11.84 -13.29,21.153 -23.97,27.934 -10.69,6.769 -23.22,10.148 -37.62,10.148 -12.48,0 -23.42,-2.922 -32.84,-8.73 -9.42,-5.82 -16.87,-14.551 -22.37,-26.192 -7.41,-15.437 -10.8,-29.937 -10.16,-43.468 z m -224.39,-36.821 c -48.88,-12.91 -75.43,-20.109 -79.67,-21.578 -14.17,-4.66 -24.06,-10.269 -29.67,-16.82 -5.61,-6.563 -8.42,-14.289 -8.42,-23.172 0,-12.277 4.61,-22.75 13.81,-31.418 9.21,-8.68 21.21,-13.019 36.03,-13.019 15.65,0 30.36,4.968 44.11,14.918 10.16,7.41 16.67,16.671 19.52,27.769 2.86,11.109 4.29,32.223 4.29,63.32 z m 220.9,-53.629 87.28,-15.558 c -12.07,-33.223 -30.37,-58.141 -54.91,-74.75 -24.55,-16.613 -55.86,-24.91 -93.95,-24.91 -23.7,0 -45.59,3.867 -65.69,11.578 -20.11,7.73 -38.3,19.308 -54.59,34.762 -15.03,-12.911 -34.44,-23.864 -58.24,-32.852 -23.81,-8.988 -48.3,-13.488 -73.48,-13.488 -35.97,0 -64,9.367 -84.1,28.09 -20.11,18.726 -30.16,42.367 -30.16,70.929 0,17.141 3.55,32.379 10.64,45.707 7.08,13.332 15.65,23.75 25.7,31.262 10.05,7.512 24.07,14.012 42.06,19.52 8.46,2.742 33.64,8.46 75.53,17.14 20.96,4.442 38.83,9.09 53.64,13.961 v 8.891 c 0,16.289 -4.44,28.457 -13.33,36.488 -8.88,8.051 -22.96,12.07 -42.2,12.07 -16.94,0 -30.38,-3.441 -40.32,-10.32 -9.95,-6.871 -17.03,-17.512 -21.27,-31.891 l -80.92,15.551 c 10.57,32.578 27.23,56.551 49.99,71.891 22.74,15.328 57.39,23.008 103.94,23.008 22,0 41.62,-2.598 58.87,-7.778 17.24,-5.179 32,-12.972 44.28,-23.332 12.9,10.36 27.03,18.153 42.37,23.332 15.33,5.18 31.79,7.778 49.34,7.778 33.86,0 62.48,-7.137 85.86,-21.43 23.38,-14.277 41.79,-35.328 55.23,-63.149 13.43,-27.839 20.04,-67.128 19.83,-117.91 h -224.07 c 3.59,-28.781 11.63,-49.621 24.12,-62.519 12.48,-12.91 27.82,-19.371 46.03,-19.371 15.02,0 27.81,3.859 38.4,11.582 10.57,7.726 18.61,19.629 24.12,35.718"
         style="fill:#ffffff;fill-opacity:1;fill-rule:nonzero;stroke:none"
         id="path82" /><path
         d="m 7321.66,520.629 v 337.062 h 89.18 V 520.629 Z m 0,382.762 v 82.519 h 89.18 v -82.519 h -89.18"
         style="fill:#ffffff;fill-opacity:1;fill-rule:nonzero;stroke:none"
         id="path84" /><path
         d="m 7470.82,616.801 89.51,13.64 c 3.8,-17.351 11.53,-30.519 23.17,-39.511 11.63,-8.989 27.93,-13.481 48.87,-13.481 23.06,0 40.42,4.223 52.05,12.692 7.83,5.918 11.75,13.847 11.75,23.8 0,6.77 -2.12,12.368 -6.35,16.829 -4.45,4.218 -14.4,8.128 -29.84,11.73 -71.94,15.871 -117.53,30.371 -136.79,43.48 -26.66,18.2 -39.98,43.489 -39.98,75.86 0,29.199 11.52,53.742 34.59,73.629 23.05,19.89 58.81,29.84 107.27,29.84 46.13,0 80.4,-7.508 102.83,-22.528 22.43,-15.031 37.88,-37.25 46.34,-66.66 l -84.1,-15.551 c -3.6,13.121 -10.43,23.16 -20.48,30.16 -10.05,6.969 -24.38,10.469 -43,10.469 -23.49,0 -40.31,-3.289 -50.46,-9.847 -6.78,-4.653 -10.16,-10.68 -10.16,-18.082 0,-6.348 2.96,-11.739 8.89,-16.2 8.03,-5.91 35.81,-14.269 83.31,-25.058 47.5,-10.801 80.66,-24.024 99.5,-39.684 18.61,-15.859 27.93,-37.976 27.93,-66.328 0,-30.898 -12.91,-57.441 -38.72,-79.672 -25.82,-22.207 -64.01,-33.316 -114.58,-33.316 -45.91,0 -82.26,9.308 -109.02,27.929 -26.76,18.61 -44.27,43.911 -52.53,75.86"
         style="fill:#ffffff;fill-opacity:1;fill-rule:nonzero;stroke:none"
         id="path86" /><path
         d="M 7860.57,520.629 V 985.91 h 89.19 V 738.988 l 104.42,118.703 h 109.81 l -115.21,-123.152 123.47,-213.91 h -96.17 l -84.75,151.391 -41.57,-43.481 v -107.91 h -89.19"
         style="fill:#ffffff;fill-opacity:1;fill-rule:nonzero;stroke:none"
         id="path88" /><path
         d="m 8425.51,718.039 c -0.63,25.813 -7.29,45.441 -19.99,58.883 -12.69,13.43 -28.14,20.148 -46.35,20.148 -19.46,0 -35.54,-7.101 -48.24,-21.269 -12.69,-14.18 -18.93,-33.43 -18.72,-57.762 z m -5.08,-90.141 88.87,-14.91 c -11.43,-32.59 -29.46,-57.398 -54.11,-74.429 -24.66,-17.028 -55.5,-25.547 -92.52,-25.547 -58.61,0 -101.99,19.148 -130.13,57.437 -22.21,30.692 -33.33,69.41 -33.33,116.172 0,55.859 14.61,99.598 43.81,131.238 29.2,31.629 66.11,47.45 110.76,47.45 50.15,0 89.71,-16.571 118.7,-49.668 28.99,-33.121 42.85,-83.852 41.58,-152.192 h -223.44 c 0.64,-26.449 7.83,-47.027 21.58,-61.73 13.76,-14.699 30.9,-22.059 51.43,-22.059 13.96,0 25.7,3.809 35.22,11.43 9.52,7.609 16.71,19.879 21.58,36.808"
         style="fill:#ffffff;fill-opacity:1;fill-rule:nonzero;stroke:none"
         id="path90" /><path
         d="m 8767.34,985.91 h 93.94 v -252 c 0,-39.988 1.16,-65.91 3.49,-77.75 4.01,-19.051 13.59,-34.34 28.72,-45.871 15.13,-11.539 35.81,-17.301 62.05,-17.301 26.66,0 46.76,5.453 60.3,16.352 13.54,10.89 21.69,24.281 24.45,40.148 2.74,15.871 4.12,42.211 4.12,79.032 v 257.39 h 93.94 V 741.531 c 0,-55.859 -2.54,-95.332 -7.61,-118.383 -5.08,-23.07 -14.45,-42.539 -28.09,-58.398 -13.65,-15.879 -31.89,-28.52 -54.75,-37.93 -22.85,-9.41 -52.69,-14.121 -89.51,-14.121 -44.43,0 -78.12,5.129 -101.08,15.391 -22.96,10.25 -41.11,23.582 -54.43,39.992 -13.34,16.398 -22.11,33.578 -26.34,51.566 -6.15,26.661 -9.2,66.024 -9.2,118.071 V 985.91"
         style="fill:#ffffff;fill-opacity:1;fill-rule:nonzero;stroke:none"
         id="path92" /><path
         d="m 9543.32,520.629 h -89.18 v 172.019 c 0,36.391 -1.9,59.93 -5.71,70.622 -3.81,10.679 -10,18.992 -18.56,24.921 -8.58,5.918 -18.89,8.879 -30.95,8.879 -15.45,0 -29.31,-4.23 -41.57,-12.691 -12.28,-8.469 -20.7,-19.688 -25.24,-33.649 -4.55,-13.968 -6.82,-39.781 -6.82,-77.441 v -152.66 h -89.19 v 337.062 h 82.84 V 808.18 c 29.4,38.082 66.43,57.129 111.08,57.129 19.68,0 37.66,-3.547 53.96,-10.637 16.29,-7.094 28.61,-16.133 36.97,-27.133 8.36,-11 14.18,-23.488 17.46,-37.461 3.27,-13.957 4.91,-33.949 4.91,-59.976 V 520.629"
         style="fill:#ffffff;fill-opacity:1;fill-rule:nonzero;stroke:none"
         id="path94" /><path
         d="m 9633.79,520.629 v 337.062 h 89.18 V 520.629 Z m 0,382.762 v 82.519 h 89.18 v -82.519 h -89.18"
         style="fill:#ffffff;fill-opacity:1;fill-rule:nonzero;stroke:none"
         id="path96" /><path
         d="m 9885.15,689.16 c 0,-33.43 7.94,-59.039 23.8,-76.808 15.88,-17.782 35.44,-26.661 58.72,-26.661 23.27,0 42.83,8.879 58.53,26.661 15.8,17.769 23.7,43.589 23.7,77.437 0,33.012 -7.9,58.402 -23.7,76.172 -15.7,17.769 -35.26,26.66 -58.53,26.66 -23.28,0 -42.84,-8.891 -58.72,-26.66 -15.86,-17.77 -23.8,-43.371 -23.8,-76.801 z m -91.41,4.762 c 0,29.617 7.3,58.289 21.91,86.008 14.59,27.718 35.27,48.879 62.04,63.468 26.77,14.614 56.65,21.911 89.66,21.911 50.95,0 92.75,-16.571 125.35,-49.668 32.6,-33.121 48.9,-74.961 48.9,-125.532 0,-50.988 -16.5,-93.257 -49.4,-126.8 -32.9,-33.528 -74.3,-50.297 -124.21,-50.297 -30.9,0 -60.36,6.976 -88.4,20.949 -28.03,13.961 -49.35,34.43 -63.94,61.41 -14.61,26.981 -21.91,59.828 -21.91,98.551"
         style="fill:#ffffff;fill-opacity:1;fill-rule:nonzero;stroke:none"
         id="path98" /><path
         d="m 10518,520.629 h -89.2 v 172.019 c 0,36.391 -1.9,59.93 -5.7,70.622 -3.8,10.679 -10,18.992 -18.5,24.921 -8.6,5.918 -18.9,8.879 -31,8.879 -15.4,0 -29.3,-4.23 -41.6,-12.691 -12.2,-8.469 -20.7,-19.688 -25.2,-33.649 -4.6,-13.968 -6.8,-39.781 -6.8,-77.441 v -152.66 h -89.2 v 337.062 h 82.8 V 808.18 c 29.4,38.082 66.5,57.129 111.1,57.129 19.7,0 37.7,-3.547 54,-10.637 16.3,-7.094 28.6,-16.133 36.9,-27.133 8.4,-11 14.2,-23.488 17.5,-37.461 3.3,-13.957 4.9,-33.949 4.9,-59.976 V 520.629"
         style="fill:#ffffff;fill-opacity:1;fill-rule:nonzero;stroke:none"
         id="path100" /></g></g></svg>
