<?xml version="1.0" encoding="UTF-8" standalone="no"?>
<!-- Created with Inkscape (http://www.inkscape.org/) -->

<svg
   version="1.1"
   id="svg2"
   xml:space="preserve"
   width="1358.7333"
   height="284.66666"
   viewBox="0 0 1358.7333 284.66666"
   sodipodi:docname="DE-Finanziert von der Europ„ischen Union NEG.eps"
   xmlns:inkscape="http://www.inkscape.org/namespaces/inkscape"
   xmlns:sodipodi="http://sodipodi.sourceforge.net/DTD/sodipodi-0.dtd"
   xmlns="http://www.w3.org/2000/svg"
   xmlns:svg="http://www.w3.org/2000/svg"><defs
     id="defs6" /><sodipodi:namedview
     id="namedview4"
     pagecolor="#ffffff"
     bordercolor="#666666"
     borderopacity="1.0"
     inkscape:pageshadow="2"
     inkscape:pageopacity="0.0"
     inkscape:pagecheckerboard="0" /><g
     id="g8"
     inkscape:groupmode="layer"
     inkscape:label="ink_ext_XXXXXX"
     transform="matrix(1.3333333,0,0,-1.3333333,0,284.66667)"><g
       id="g10"
       transform="scale(0.1)"><path
         d="M 164.473,71.0586 H 3113.93 V 2073.9 H 164.473 V 71.0586"
         style="fill:#ffffff;fill-opacity:1;fill-rule:nonzero;stroke:none"
         id="path12" /><path
         d="M 221.191,128.281 H 3057.22 V 2018.97 H 221.191 V 128.281"
         style="fill:#264ca4;fill-opacity:1;fill-rule:nonzero;stroke:none"
         id="path14" /><path
         d="m 1578.78,1607.02 59.83,43.67 59.86,-43.67 -22.79,70.63 60.79,43.67 h -74.93 l -22.93,71.48 -22.93,-71.56 -74.88,0.08 60.74,-43.67 -22.76,-70.63"
         style="fill:#f5f014;fill-opacity:1;fill-rule:nonzero;stroke:none"
         id="path16" /><path
         d="m 1269.08,1523.82 59.85,43.67 59.81,-43.67 -22.74,70.63 60.75,43.68 h -74.93 l -22.92,71.55 -22.93,-71.64 -74.9,0.09 60.75,-43.68 -22.74,-70.63"
         style="fill:#f5f014;fill-opacity:1;fill-rule:nonzero;stroke:none"
         id="path18" /><path
         d="m 1102.32,1482.57 -22.93,-71.64 -74.88,0.09 60.74,-43.68 -22.76,-70.63 59.83,43.68 59.85,-43.68 -22.78,70.63 60.75,43.68 h -74.89 l -22.93,71.55"
         style="fill:#f5f014;fill-opacity:1;fill-rule:nonzero;stroke:none"
         id="path20" /><path
         d="m 1019.21,1031.08 59.8,-43.658 -22.73,70.608 60.73,43.68 h -74.87 l -22.93,71.56 -22.933,-71.72 -74.922,0.16 60.786,-43.68 -22.778,-70.608 59.847,43.658"
         style="fill:#f5f014;fill-opacity:1;fill-rule:nonzero;stroke:none"
         id="path22" /><path
         d="m 1125.25,791.48 -22.93,71.559 -22.93,-71.641 -74.88,0.082 60.74,-43.66 -22.76,-70.64 59.83,43.75 59.85,-43.75 -22.78,70.64 60.75,43.66 h -74.89"
         style="fill:#f5f014;fill-opacity:1;fill-rule:nonzero;stroke:none"
         id="path24" /><path
         d="m 1352.29,564.461 -22.93,71.469 -22.9,-71.559 -74.92,0.09 60.75,-43.68 -22.73,-70.633 59.83,43.672 59.81,-43.672 -22.74,70.633 60.75,43.68 h -74.92"
         style="fill:#f5f014;fill-opacity:1;fill-rule:nonzero;stroke:none"
         id="path26" /><path
         d="m 1661.58,482.18 -22.93,71.558 -22.89,-71.636 -74.91,0.078 60.73,-43.668 -22.72,-70.633 59.83,43.68 59.81,-43.68 -22.78,70.633 60.78,43.668 h -74.92"
         style="fill:#f5f014;fill-opacity:1;fill-rule:nonzero;stroke:none"
         id="path28" /><path
         d="m 1970.89,564.461 -22.89,71.469 -22.97,-71.559 -74.84,0.09 60.7,-43.68 -22.74,-70.633 59.85,43.672 59.83,-43.672 -22.8,70.633 60.78,43.68 h -74.92"
         style="fill:#f5f014;fill-opacity:1;fill-rule:nonzero;stroke:none"
         id="path30" /><path
         d="m 2198,791.48 -22.97,71.559 -22.97,-71.641 -74.84,0.082 60.78,-43.66 -22.81,-70.64 59.84,43.75 59.83,-43.75 -22.8,70.64 60.77,43.66 H 2198"
         style="fill:#f5f014;fill-opacity:1;fill-rule:nonzero;stroke:none"
         id="path32" /><path
         d="m 2355.11,1102.57 h -74.92 l -22.97,71.57 -22.89,-71.65 -74.93,0.08 60.79,-43.67 -22.75,-70.619 59.78,43.749 59.84,-43.749 -22.73,70.619 60.78,43.67"
         style="fill:#f5f014;fill-opacity:1;fill-rule:nonzero;stroke:none"
         id="path34" /><path
         d="m 2115.18,1297.66 59.84,43.66 59.84,-43.66 -22.8,70.63 60.77,43.59 h -74.84 l -22.97,71.55 -22.96,-71.64 -74.85,0.09 60.78,-43.59 -22.81,-70.63"
         style="fill:#f5f014;fill-opacity:1;fill-rule:nonzero;stroke:none"
         id="path36" /><path
         d="m 1948.86,1709.6 -22.89,-71.64 -74.93,0.17 60.71,-43.75 -22.74,-70.64 59.93,43.75 59.75,-43.75 -22.72,70.64 60.78,43.75 h -75 l -22.89,71.47"
         style="fill:#f5f014;fill-opacity:1;fill-rule:nonzero;stroke:none"
         id="path38" /><path
         d="m 3468.27,1311.64 v 465.29 h 318.97 v -78.71 h -225.02 v -110.13 h 194.24 v -78.71 h -194.24 v -197.74 h -93.95"
         style="fill:#ffffff;fill-opacity:1;fill-rule:nonzero;stroke:none"
         id="path40" /><path
         d="m 3864.05,1311.64 v 337.06 h 89.18 v -337.06 z m 0,382.77 v 82.52 h 89.18 v -82.52 h -89.18"
         style="fill:#ffffff;fill-opacity:1;fill-rule:nonzero;stroke:none"
         id="path42" /><path
         d="m 4351.22,1311.64 h -89.18 v 172.03 c 0,36.39 -1.9,59.93 -5.71,70.61 -3.81,10.68 -10,18.99 -18.57,24.92 -8.57,5.92 -18.88,8.89 -30.94,8.89 -15.45,0 -29.31,-4.24 -41.58,-12.7 -12.27,-8.47 -20.69,-19.68 -25.23,-33.64 -4.55,-13.97 -6.83,-39.78 -6.83,-77.45 v -152.66 h -89.19 v 337.06 h 82.85 v -49.51 c 29.4,38.09 66.43,57.13 111.08,57.13 19.68,0 37.66,-3.54 53.96,-10.63 16.28,-7.09 28.61,-16.14 36.97,-27.14 8.36,-11 14.18,-23.48 17.46,-37.45 3.27,-13.96 4.91,-33.96 4.91,-59.98 v -209.48"
         style="fill:#ffffff;fill-opacity:1;fill-rule:nonzero;stroke:none"
         id="path44" /><path
         d="m 4627.67,1473.51 c -11.43,-3.81 -29.52,-8.36 -54.27,-13.65 -24.76,-5.29 -40.95,-10.47 -48.57,-15.55 -11.63,-8.25 -17.45,-18.72 -17.45,-31.42 0,-12.49 4.65,-23.28 13.97,-32.37 9.3,-9.11 21.15,-13.65 35.54,-13.65 16.08,0 31.42,5.29 46.03,15.87 10.78,8.03 17.87,17.87 21.26,29.51 2.32,7.62 3.49,22.11 3.49,43.48 z m -119.34,72.37 -80.93,14.59 c 9.09,32.58 24.76,56.71 46.98,72.37 22.21,15.65 55.22,23.48 99.02,23.48 39.77,0 69.39,-4.71 88.87,-14.12 19.46,-9.42 33.16,-21.38 41.1,-35.87 7.93,-14.49 11.89,-41.1 11.89,-79.82 l -0.94,-104.1 c 0,-29.62 1.42,-51.47 4.28,-65.54 2.86,-14.07 8.2,-29.15 16.03,-45.23 h -88.23 c -2.34,5.93 -5.19,14.71 -8.58,26.35 -1.47,5.28 -2.54,8.78 -3.16,10.47 -15.24,-14.82 -31.53,-25.92 -48.89,-33.32 -17.34,-7.41 -35.86,-11.11 -55.54,-11.11 -34.7,0 -62.05,9.41 -82.04,28.24 -20,18.83 -30,42.64 -30,71.42 0,19.04 4.55,36.02 13.66,50.94 9.09,14.92 21.84,26.34 38.24,34.27 16.39,7.94 40.04,14.87 70.94,20.79 41.68,7.83 70.56,15.13 86.64,21.9 v 8.89 c 0,17.14 -4.23,29.36 -12.7,36.65 -8.46,7.31 -24.43,10.96 -47.92,10.96 -15.87,0 -28.25,-3.13 -37.14,-9.36 -8.88,-6.25 -16.07,-17.2 -21.58,-32.85"
         style="fill:#ffffff;fill-opacity:1;fill-rule:nonzero;stroke:none"
         id="path46" /><path
         d="m 5109.77,1311.64 h -89.18 v 172.03 c 0,36.39 -1.91,59.93 -5.72,70.61 -3.81,10.68 -10,18.99 -18.56,24.92 -8.58,5.92 -18.89,8.89 -30.95,8.89 -15.45,0 -29.31,-4.24 -41.57,-12.7 -12.28,-8.47 -20.69,-19.68 -25.24,-33.64 -4.55,-13.97 -6.82,-39.78 -6.82,-77.45 v -152.66 h -89.19 v 337.06 h 82.84 v -49.51 c 29.41,38.09 66.44,57.13 111.08,57.13 19.68,0 37.66,-3.54 53.96,-10.63 16.29,-7.09 28.61,-16.14 36.97,-27.14 8.36,-11 14.18,-23.48 17.46,-37.45 3.28,-13.96 4.92,-33.96 4.92,-59.98 v -209.48"
         style="fill:#ffffff;fill-opacity:1;fill-rule:nonzero;stroke:none"
         id="path48" /><path
         d="m 5164.36,1311.64 v 69.51 l 126.31,145.05 c 20.74,23.69 36.08,40.51 46.02,50.46 -10.36,-0.64 -24.01,-1.06 -40.94,-1.27 l -119.02,-0.64 v 73.95 h 278.67 v -63.15 l -128.87,-148.54 -45.38,-49.19 c 24.76,1.48 40.1,2.22 46.03,2.22 h 138.05 v -78.4 h -300.87"
         style="fill:#ffffff;fill-opacity:1;fill-rule:nonzero;stroke:none"
         id="path50" /><path
         d="m 5525.22,1311.64 v 337.06 h 89.18 v -337.06 z m 0,382.77 v 82.52 h 89.18 v -82.52 h -89.18"
         style="fill:#ffffff;fill-opacity:1;fill-rule:nonzero;stroke:none"
         id="path52" /><path
         d="m 5906.08,1509.06 c -0.63,25.81 -7.29,45.43 -19.99,58.87 -12.69,13.44 -28.14,20.16 -46.34,20.16 -19.47,0 -35.55,-7.09 -48.25,-21.27 -12.69,-14.18 -18.93,-33.43 -18.72,-57.76 z m -5.07,-90.14 88.86,-14.92 c -11.42,-32.59 -29.46,-57.39 -54.11,-74.43 -24.66,-17.03 -55.5,-25.54 -92.52,-25.54 -58.61,0 -101.99,19.14 -130.12,57.44 -22.22,30.68 -33.33,69.41 -33.33,116.17 0,55.86 14.6,99.6 43.8,131.23 29.2,31.63 66.12,47.45 110.77,47.45 50.14,0 89.7,-16.55 118.7,-49.67 28.98,-33.11 42.84,-83.84 41.57,-152.18 h -223.44 c 0.65,-26.45 7.83,-47.03 21.58,-61.73 13.76,-14.71 30.9,-22.06 51.43,-22.06 13.96,0 25.7,3.8 35.22,11.42 9.53,7.62 16.71,19.89 21.59,36.82"
         style="fill:#ffffff;fill-opacity:1;fill-rule:nonzero;stroke:none"
         id="path54" /><path
         d="m 6152.69,1311.64 h -89.18 v 337.06 h 82.83 v -47.92 c 14.17,22.64 26.92,37.56 38.24,44.75 11.32,7.19 24.17,10.79 38.56,10.79 20.32,0 39.89,-5.61 58.73,-16.82 l -27.62,-77.76 c -15.03,9.73 -29,14.6 -41.9,14.6 -12.49,0 -23.06,-3.44 -31.73,-10.31 -8.69,-6.88 -15.5,-19.31 -20.47,-37.3 -4.98,-17.98 -7.46,-55.64 -7.46,-112.98 v -104.11"
         style="fill:#ffffff;fill-opacity:1;fill-rule:nonzero;stroke:none"
         id="path56" /><path
         d="m 6474.83,1648.7 v -71.09 h -60.93 v -135.84 c 0,-27.51 0.57,-43.54 1.74,-48.08 1.17,-4.55 3.81,-8.31 7.93,-11.27 4.14,-2.96 9.15,-4.44 15.08,-4.44 8.25,0 20.21,2.86 35.86,8.57 l 7.62,-69.19 c -20.73,-8.89 -44.22,-13.33 -70.45,-13.33 -16.08,0 -30.59,2.69 -43.49,8.1 -12.91,5.39 -22.37,12.37 -28.4,20.94 -6.03,8.57 -10.21,20.15 -12.54,34.75 -1.9,10.37 -2.86,31.32 -2.86,62.84 v 146.95 h -40.93 v 71.09 h 40.93 v 66.97 l 89.51,52.05 V 1648.7 h 60.93"
         style="fill:#ffffff;fill-opacity:1;fill-rule:nonzero;stroke:none"
         id="path58" /><path
         d="m 6809.99,1311.64 -135.84,337.06 h 93.62 l 63.48,-172.02 18.41,-57.44 c 4.86,14.6 7.93,24.22 9.2,28.88 2.97,9.52 6.14,19.04 9.53,28.56 l 64.1,172.02 h 91.73 l -133.94,-337.06 h -80.29"
         style="fill:#ffffff;fill-opacity:1;fill-rule:nonzero;stroke:none"
         id="path60" /><path
         d="m 7149.59,1480.18 c 0,-33.44 7.94,-59.04 23.8,-76.81 15.88,-17.78 35.44,-26.66 58.72,-26.66 23.27,0 42.79,8.88 58.55,26.66 15.77,17.77 23.65,43.58 23.65,77.44 0,33.01 -7.88,58.4 -23.65,76.17 -15.76,17.77 -35.28,26.66 -58.55,26.66 -23.28,0 -42.84,-8.89 -58.72,-26.66 -15.86,-17.77 -23.8,-43.38 -23.8,-76.8 z m -91.41,4.76 c 0,29.61 7.3,58.29 21.91,86.01 14.59,27.71 35.27,48.87 62.04,63.47 26.77,14.6 56.65,21.9 89.66,21.9 50.99,0 92.78,-16.55 125.37,-49.67 32.58,-33.11 48.88,-74.96 48.88,-125.52 0,-51 -16.46,-93.27 -49.36,-126.8 -32.9,-33.53 -74.32,-50.3 -124.25,-50.3 -30.9,0 -60.36,6.98 -88.4,20.95 -28.03,13.96 -49.35,34.43 -63.94,61.41 -14.61,26.97 -21.91,59.82 -21.91,98.55"
         style="fill:#ffffff;fill-opacity:1;fill-rule:nonzero;stroke:none"
         id="path62" /><path
         d="m 7782.45,1311.64 h -89.18 v 172.03 c 0,36.39 -1.9,59.93 -5.71,70.61 -3.81,10.68 -10,18.99 -18.57,24.92 -8.57,5.92 -18.88,8.89 -30.94,8.89 -15.45,0 -29.31,-4.24 -41.58,-12.7 -12.27,-8.47 -20.69,-19.68 -25.23,-33.64 -4.55,-13.97 -6.83,-39.78 -6.83,-77.45 v -152.66 h -89.19 v 337.06 h 82.85 v -49.51 c 29.4,38.09 66.43,57.13 111.08,57.13 19.68,0 37.66,-3.54 53.96,-10.63 16.28,-7.09 28.61,-16.14 36.97,-27.14 8.36,-11 14.18,-23.48 17.46,-37.45 3.27,-13.96 4.91,-33.96 4.91,-59.98 v -209.48"
         style="fill:#ffffff;fill-opacity:1;fill-rule:nonzero;stroke:none"
         id="path64" /><path
         d="m 8124.6,1487.48 c 0,-35.98 4.96,-62 14.91,-78.08 14.39,-23.28 34.48,-34.92 60.3,-34.92 20.52,0 37.98,8.74 52.37,26.19 14.39,17.46 21.58,43.53 21.58,78.24 0,38.72 -6.97,66.59 -20.94,83.62 -13.96,17.03 -31.85,25.56 -53.64,25.56 -21.16,0 -38.88,-8.42 -53.16,-25.23 -14.28,-16.83 -21.42,-41.96 -21.42,-75.38 z m 238.03,-175.84 h -82.84 v 49.52 c -13.75,-19.26 -29.99,-33.6 -48.72,-43.01 -18.72,-9.41 -37.6,-14.12 -56.65,-14.12 -38.72,0 -71.88,15.6 -99.5,46.81 -27.61,31.21 -41.41,74.75 -41.41,130.61 0,57.12 13.43,100.55 40.31,130.28 26.86,29.72 60.82,44.59 101.87,44.59 37.66,0 70.25,-15.66 97.76,-46.97 v 167.58 h 89.18 v -465.29"
         style="fill:#ffffff;fill-opacity:1;fill-rule:nonzero;stroke:none"
         id="path66" /><path
         d="m 8650.81,1509.06 c -0.63,25.81 -7.29,45.43 -19.99,58.87 -12.69,13.44 -28.14,20.16 -46.35,20.16 -19.46,0 -35.54,-7.09 -48.24,-21.27 -12.69,-14.18 -18.94,-33.43 -18.72,-57.76 z m -5.08,-90.14 88.87,-14.92 c -11.43,-32.59 -29.46,-57.39 -54.11,-74.43 -24.66,-17.03 -55.5,-25.54 -92.52,-25.54 -58.61,0 -101.99,19.14 -130.13,57.44 -22.21,30.68 -33.33,69.41 -33.33,116.17 0,55.86 14.61,99.6 43.81,131.23 29.2,31.63 66.11,47.45 110.76,47.45 50.15,0 89.71,-16.55 118.7,-49.67 28.99,-33.11 42.85,-83.84 41.58,-152.18 h -223.44 c 0.64,-26.45 7.83,-47.03 21.58,-61.73 13.76,-14.71 30.9,-22.06 51.43,-22.06 13.96,0 25.7,3.8 35.22,11.42 9.52,7.62 16.71,19.89 21.58,36.82"
         style="fill:#ffffff;fill-opacity:1;fill-rule:nonzero;stroke:none"
         id="path68" /><path
         d="m 8897.41,1311.64 h -89.18 v 337.06 h 82.83 v -47.92 c 14.17,22.64 26.93,37.56 38.25,44.75 11.32,7.19 24.17,10.79 38.56,10.79 20.31,0 39.88,-5.61 58.72,-16.82 l -27.62,-77.76 c -15.02,9.73 -28.99,14.6 -41.89,14.6 -12.49,0 -23.07,-3.44 -31.74,-10.31 -8.68,-6.88 -15.5,-19.31 -20.47,-37.3 -4.98,-17.98 -7.46,-55.64 -7.46,-112.98 v -104.11"
         style="fill:#ffffff;fill-opacity:1;fill-rule:nonzero;stroke:none"
         id="path70" /><path
         d="M 3467.63,531.641 V 996.93 h 345 V 918.219 H 3561.57 V 815.07 h 233.6 v -78.398 h -233.6 V 610.039 h 259.94 v -78.398 h -353.88"
         style="fill:#ffffff;fill-opacity:1;fill-rule:nonzero;stroke:none"
         id="path72" /><path
         d="m 4122.39,531.641 v 50.468 c -12.27,-17.988 -28.41,-32.16 -48.4,-42.531 -20,-10.367 -41.1,-15.547 -63.32,-15.547 -22.64,0 -42.96,4.981 -60.93,14.918 -17.99,9.942 -31,23.91 -39.04,41.891 -8.04,17.98 -12.07,42.851 -12.07,74.582 v 213.289 h 89.19 V 713.82 c 0,-47.39 1.64,-76.429 4.92,-87.121 3.28,-10.679 9.25,-19.148 17.93,-25.39 8.68,-6.239 19.68,-9.36 33.01,-9.36 15.24,0 28.88,4.18 40.95,12.539 12.05,8.364 20.31,18.723 24.75,31.102 4.45,12.371 6.66,42.691 6.66,90.93 v 142.191 h 89.19 v -337.07 h -82.84"
         style="fill:#ffffff;fill-opacity:1;fill-rule:nonzero;stroke:none"
         id="path74" /><path
         d="m 4382.96,531.641 h -89.18 v 337.07 h 82.83 v -47.922 c 14.17,22.633 26.93,37.539 38.24,44.742 11.32,7.199 24.17,10.789 38.57,10.789 20.31,0 39.88,-5.601 58.72,-16.808 l -27.62,-77.774 c -15.03,9.742 -28.99,14.602 -41.89,14.602 -12.49,0 -23.07,-3.442 -31.74,-10.309 -8.68,-6.883 -15.5,-19.312 -20.47,-37.301 -4.98,-17.98 -7.46,-55.64 -7.46,-112.98 V 531.641"
         style="fill:#ffffff;fill-opacity:1;fill-rule:nonzero;stroke:none"
         id="path76" /><path
         d="m 4621.32,700.18 c 0,-33.442 7.94,-59.032 23.8,-76.809 15.88,-17.769 35.44,-26.66 58.72,-26.66 23.27,0 42.79,8.891 58.55,26.66 15.76,17.777 23.65,43.59 23.65,77.438 0,33.011 -7.89,58.402 -23.65,76.179 -15.76,17.774 -35.28,26.66 -58.55,26.66 -23.28,0 -42.84,-8.886 -58.72,-26.66 -15.86,-17.777 -23.8,-43.379 -23.8,-76.808 z m -91.41,4.761 c 0,29.61 7.3,58.289 21.91,86.008 14.59,27.723 35.27,48.879 62.04,63.481 26.77,14.601 56.65,21.89 89.66,21.89 50.99,0 92.78,-16.55 125.37,-49.672 32.57,-33.109 48.87,-74.957 48.87,-125.519 0,-51 -16.45,-93.258 -49.35,-126.797 -32.9,-33.543 -74.32,-50.301 -124.25,-50.301 -30.9,0 -60.36,6.981 -88.4,20.938 -28.04,13.972 -49.35,34.441 -63.94,61.422 -14.61,26.968 -21.91,59.82 -21.91,98.55"
         style="fill:#ffffff;fill-opacity:1;fill-rule:nonzero;stroke:none"
         id="path78" /><path
         d="m 5033.27,705.891 c 0,-37.879 7.51,-65.86 22.54,-83.95 15.02,-18.089 33.32,-27.132 54.9,-27.132 20.75,0 37.98,8.3 51.74,24.91 13.75,16.609 20.63,43.851 20.63,81.73 0,35.332 -7.09,61.571 -21.26,78.711 -14.18,17.141 -31.74,25.699 -52.69,25.699 -21.8,0 -39.88,-8.398 -54.28,-25.23 -14.38,-16.82 -21.58,-41.731 -21.58,-74.738 z m -88.22,162.82 h 83.14 v -49.52 c 10.8,16.93 25.39,30.688 43.81,41.258 18.4,10.582 38.82,15.871 61.25,15.871 39.14,0 72.37,-15.34 99.66,-46.011 27.3,-30.688 40.95,-73.43 40.95,-128.231 0,-56.289 -13.76,-100.027 -41.27,-131.238 -27.5,-31.211 -60.83,-46.809 -99.97,-46.809 -18.63,0 -35.5,3.707 -50.63,11.11 -15.12,7.398 -31.05,20.097 -47.76,38.089 V 403.422 h -89.18 v 465.289"
         style="fill:#ffffff;fill-opacity:1;fill-rule:nonzero;stroke:none"
         id="path80" /><path
         d="m 5509.36,928.371 v 76.499 h 76.8 v -76.499 z m 21.26,-234.859 c -11.43,-3.813 -29.52,-8.364 -54.27,-13.641 -24.76,-5.301 -40.95,-10.48 -48.57,-15.562 -11.63,-8.25 -17.45,-18.719 -17.45,-31.418 0,-12.493 4.65,-23.282 13.97,-32.371 9.3,-9.098 21.15,-13.649 35.54,-13.649 16.08,0 31.42,5.289 46.03,15.867 10.78,8.043 17.87,17.883 21.26,29.524 2.32,7.617 3.49,22.109 3.49,43.476 z m -157.74,234.859 v 76.499 h 76.49 v -76.499 z m 38.4,-162.5 -80.93,14.598 c 9.09,32.59 24.76,56.711 46.97,72.371 22.22,15.648 55.23,23.48 99.03,23.48 39.77,0 69.39,-4.699 88.86,-14.121 19.47,-9.41 33.17,-21.379 41.11,-35.871 7.93,-14.488 11.89,-41.09 11.89,-79.808 l -0.94,-104.098 c 0,-29.633 1.42,-51.481 4.28,-65.551 2.85,-14.07 8.2,-29.141 16.03,-45.23 h -88.23 c -2.34,5.929 -5.19,14.711 -8.58,26.347 -1.47,5.293 -2.54,8.782 -3.16,10.473 -15.24,-14.813 -31.54,-25.922 -48.89,-33.32 -17.34,-7.403 -35.86,-11.11 -55.54,-11.11 -34.7,0 -62.05,9.41 -82.04,28.25 -20,18.828 -30,42.629 -30,71.41 0,19.039 4.55,36.02 13.65,50.93 9.1,14.918 21.85,26.348 38.25,34.277 16.39,7.942 40.04,14.864 70.93,20.793 41.68,7.829 70.57,15.129 86.65,21.911 v 8.878 c 0,17.141 -4.23,29.36 -12.7,36.649 -8.46,7.312 -24.43,10.961 -47.92,10.961 -15.87,0 -28.25,-3.129 -37.14,-9.371 -8.89,-6.239 -16.07,-17.188 -21.58,-32.848"
         style="fill:#ffffff;fill-opacity:1;fill-rule:nonzero;stroke:none"
         id="path82" /><path
         d="m 5706.14,531.641 v 337.07 h 89.18 v -337.07 z m 0,382.769 v 82.52 h 89.18 v -82.52 h -89.18"
         style="fill:#ffffff;fill-opacity:1;fill-rule:nonzero;stroke:none"
         id="path84" /><path
         d="m 5855.3,627.82 89.5,13.641 c 3.81,-17.352 11.54,-30.52 23.18,-39.512 11.63,-9 27.93,-13.488 48.87,-13.488 23.06,0 40.42,4.23 52.05,12.699 7.83,5.91 11.74,13.852 11.74,23.789 0,6.77 -2.11,12.391 -6.34,16.832 -4.45,4.231 -14.4,8.149 -29.84,11.739 -71.94,15.871 -117.54,30.359 -136.79,43.492 -26.66,18.187 -39.98,43.468 -39.98,75.847 0,29.192 11.52,53.743 34.59,73.629 23.05,19.891 58.81,29.832 107.27,29.832 46.12,0 80.4,-7.511 102.83,-22.531 22.42,-15.027 37.87,-37.238 46.34,-66.648 l -84.1,-15.551 c -3.6,13.109 -10.43,23.172 -20.48,30.148 -10.05,6.981 -24.38,10.473 -43,10.473 -23.49,0 -40.31,-3.281 -50.47,-9.832 -6.77,-4.66 -10.15,-10.699 -10.15,-18.098 0,-6.351 2.96,-11.742 8.88,-16.179 8.04,-5.93 35.81,-14.293 83.31,-25.082 47.5,-10.79 80.67,-24.008 99.51,-39.668 18.61,-15.872 27.93,-37.981 27.93,-66.332 0,-30.891 -12.91,-57.45 -38.72,-79.661 -25.82,-22.218 -64.01,-33.328 -114.58,-33.328 -45.91,0 -82.26,9.297 -109.02,27.93 -26.77,18.621 -44.28,43.898 -52.53,75.859"
         style="fill:#ffffff;fill-opacity:1;fill-rule:nonzero;stroke:none"
         id="path86" /><path
         d="m 6542.12,769.051 -87.91,-15.871 c -2.97,17.558 -9.68,30.789 -20.16,39.679 -10.47,8.879 -24.07,13.332 -40.78,13.332 -22.22,0 -39.94,-7.679 -53.16,-23.019 -13.23,-15.344 -19.84,-41 -19.84,-76.961 0,-40 6.72,-68.242 20.16,-84.742 13.43,-16.508 31.46,-24.758 54.11,-24.758 16.92,0 30.78,4.809 41.58,14.437 10.78,9.633 18.4,26.192 22.85,49.672 l 87.6,-14.922 c -9.1,-40.199 -26.56,-70.558 -52.37,-91.078 -25.82,-20.531 -60.41,-30.789 -103.78,-30.789 -49.31,0 -88.61,15.547 -117.91,46.66 -29.31,31.098 -43.97,74.161 -43.97,129.168 0,55.641 14.71,98.969 44.13,129.969 29.4,30.992 69.19,46.492 119.33,46.492 41.05,0 73.68,-8.84 97.91,-26.5 24.23,-17.672 41.63,-44.59 52.21,-80.769"
         style="fill:#ffffff;fill-opacity:1;fill-rule:nonzero;stroke:none"
         id="path88" /><path
         d="M 6698.59,996.93 V 825.859 c 28.77,33.653 63.16,50.461 103.15,50.461 20.52,0 39.04,-3.808 55.55,-11.422 16.5,-7.617 28.92,-17.359 37.28,-29.199 8.36,-11.847 14.07,-24.969 17.14,-39.359 3.07,-14.379 4.6,-36.711 4.6,-66.961 V 531.641 h -89.18 v 178.058 c 0,35.332 -1.7,57.762 -5.08,67.289 -3.39,9.524 -9.36,17.082 -17.93,22.684 -8.57,5.609 -19.32,8.418 -32.22,8.418 -14.81,0 -28.03,-3.602 -39.67,-10.789 -11.63,-7.199 -20.15,-18.051 -25.55,-32.539 -5.39,-14.492 -8.09,-35.922 -8.09,-64.274 V 531.641 H 6609.4 V 996.93 h 89.19"
         style="fill:#ffffff;fill-opacity:1;fill-rule:nonzero;stroke:none"
         id="path90" /><path
         d="m 7207.03,729.059 c -0.63,25.812 -7.29,45.441 -19.99,58.871 -12.69,13.441 -28.14,20.16 -46.35,20.16 -19.46,0 -35.54,-7.09 -48.24,-21.27 -12.69,-14.179 -18.93,-33.429 -18.72,-57.761 z m -5.08,-90.137 88.87,-14.91 c -11.43,-32.59 -29.46,-57.403 -54.11,-74.442 -24.66,-17.031 -55.5,-25.539 -92.52,-25.539 -58.61,0 -101.99,19.149 -130.13,57.449 -22.21,30.668 -33.33,69.391 -33.33,116.161 0,55.859 14.61,99.597 43.81,131.23 29.2,31.629 66.11,47.449 110.76,47.449 50.15,0 89.71,-16.55 118.7,-49.672 28.99,-33.109 42.85,-83.839 41.58,-152.179 h -223.44 c 0.64,-26.449 7.83,-47.02 21.58,-61.731 13.76,-14.707 30.9,-22.058 51.43,-22.058 13.96,0 25.7,3.808 35.22,11.422 9.52,7.617 16.71,19.898 21.58,36.82"
         style="fill:#ffffff;fill-opacity:1;fill-rule:nonzero;stroke:none"
         id="path92" /><path
         d="m 7674.85,531.641 h -89.18 v 172.031 c 0,36.387 -1.9,59.93 -5.71,70.609 -3.81,10.68 -10,19 -18.56,24.918 -8.58,5.922 -18.89,8.891 -30.95,8.891 -15.45,0 -29.31,-4.238 -41.57,-12.699 -12.28,-8.461 -20.7,-19.672 -25.24,-33.641 -4.55,-13.961 -6.82,-39.781 -6.82,-77.441 V 531.641 h -89.19 v 337.07 h 82.84 v -49.52 c 29.4,38.09 66.43,57.129 111.08,57.129 19.68,0 37.66,-3.539 53.96,-10.629 16.29,-7.089 28.61,-16.14 36.97,-27.132 8.36,-11.008 14.18,-23.489 17.46,-37.45 3.27,-13.968 4.91,-33.968 4.91,-59.988 v -209.48"
         style="fill:#ffffff;fill-opacity:1;fill-rule:nonzero;stroke:none"
         id="path94" /><path
         d="m 7945.91,996.93 h 93.94 v -252 c 0,-39.989 1.16,-65.91 3.49,-77.758 4.01,-19.043 13.59,-34.332 28.72,-45.871 15.13,-11.531 35.81,-17.289 62.05,-17.289 26.66,0 46.76,5.449 60.3,16.347 13.54,10.891 21.69,24.27 24.45,40.141 2.74,15.871 4.12,42.219 4.12,79.039 V 996.93 h 93.94 V 752.539 c 0,-55.859 -2.54,-95.32 -7.61,-118.379 -5.08,-23.058 -14.45,-42.531 -28.09,-58.39 -13.65,-15.872 -31.89,-28.52 -54.75,-37.93 -22.85,-9.418 -52.69,-14.129 -89.51,-14.129 -44.43,0 -78.12,5.129 -101.08,15.398 -22.96,10.262 -41.1,23.59 -54.42,39.993 -13.34,16.386 -22.12,33.578 -26.35,51.57 -6.15,26.656 -9.2,66.008 -9.2,118.058 v 248.2"
         style="fill:#ffffff;fill-opacity:1;fill-rule:nonzero;stroke:none"
         id="path96" /><path
         d="m 8721.9,531.641 h -89.18 v 172.031 c 0,36.387 -1.9,59.93 -5.71,70.609 -3.81,10.68 -10,19 -18.56,24.918 -8.58,5.922 -18.89,8.891 -30.95,8.891 -15.45,0 -29.31,-4.238 -41.57,-12.699 -12.28,-8.461 -20.7,-19.672 -25.24,-33.641 -4.55,-13.961 -6.82,-39.781 -6.82,-77.441 V 531.641 h -89.19 v 337.07 h 82.84 v -49.52 c 29.4,38.09 66.44,57.129 111.08,57.129 19.68,0 37.66,-3.539 53.96,-10.629 16.29,-7.089 28.61,-16.14 36.97,-27.132 8.36,-11.008 14.18,-23.489 17.46,-37.45 3.27,-13.968 4.91,-33.968 4.91,-59.988 v -209.48"
         style="fill:#ffffff;fill-opacity:1;fill-rule:nonzero;stroke:none"
         id="path98" /><path
         d="m 8812.36,531.641 v 337.07 h 89.18 v -337.07 z m 0,382.769 v 82.52 h 89.18 v -82.52 h -89.18"
         style="fill:#ffffff;fill-opacity:1;fill-rule:nonzero;stroke:none"
         id="path100" /><path
         d="m 9063.73,700.18 c 0,-33.442 7.94,-59.032 23.8,-76.809 15.88,-17.769 35.44,-26.66 58.72,-26.66 23.27,0 42.79,8.891 58.55,26.66 15.77,17.777 23.65,43.59 23.65,77.438 0,33.011 -7.88,58.402 -23.65,76.179 -15.76,17.774 -35.28,26.66 -58.55,26.66 -23.28,0 -42.84,-8.886 -58.72,-26.66 -15.86,-17.777 -23.8,-43.379 -23.8,-76.808 z m -91.41,4.761 c 0,29.61 7.3,58.289 21.91,86.008 14.59,27.723 35.27,48.879 62.04,63.481 26.77,14.601 56.65,21.89 89.66,21.89 50.99,0 92.78,-16.55 125.37,-49.672 32.58,-33.109 48.88,-74.957 48.88,-125.519 0,-51 -16.46,-93.258 -49.36,-126.797 -32.9,-33.543 -74.32,-50.301 -124.25,-50.301 -30.9,0 -60.36,6.981 -88.4,20.938 -28.03,13.972 -49.35,34.441 -63.94,61.422 -14.61,26.968 -21.91,59.82 -21.91,98.55"
         style="fill:#ffffff;fill-opacity:1;fill-rule:nonzero;stroke:none"
         id="path102" /><path
         d="m 9696.58,531.641 h -89.18 v 172.031 c 0,36.387 -1.9,59.93 -5.71,70.609 -3.81,10.68 -10,19 -18.56,24.918 -8.58,5.922 -18.89,8.891 -30.95,8.891 -15.45,0 -29.31,-4.238 -41.57,-12.699 -12.28,-8.461 -20.7,-19.672 -25.24,-33.641 -4.55,-13.961 -6.83,-39.781 -6.83,-77.441 V 531.641 h -89.18 v 337.07 h 82.84 v -49.52 c 29.4,38.09 66.43,57.129 111.08,57.129 19.68,0 37.66,-3.539 53.96,-10.629 16.29,-7.089 28.61,-16.14 36.97,-27.132 8.36,-11.008 14.18,-23.489 17.46,-37.45 3.27,-13.968 4.91,-33.968 4.91,-59.988 v -209.48"
         style="fill:#ffffff;fill-opacity:1;fill-rule:nonzero;stroke:none"
         id="path104" /></g></g></svg>
