<?xml version="1.0" encoding="UTF-8" standalone="no"?>
<!-- Created with Inkscape (http://www.inkscape.org/) -->

<svg
   version="1.1"
   id="svg2"
   xml:space="preserve"
   width="1358.7333"
   height="284.66666"
   viewBox="0 0 1358.7333 284.66666"
   sodipodi:docname="EN-Funded by the EU-NEG.eps"
   xmlns:inkscape="http://www.inkscape.org/namespaces/inkscape"
   xmlns:sodipodi="http://sodipodi.sourceforge.net/DTD/sodipodi-0.dtd"
   xmlns="http://www.w3.org/2000/svg"
   xmlns:svg="http://www.w3.org/2000/svg"><defs
     id="defs6" /><sodipodi:namedview
     id="namedview4"
     pagecolor="#ffffff"
     bordercolor="#666666"
     borderopacity="1.0"
     inkscape:pageshadow="2"
     inkscape:pageopacity="0.0"
     inkscape:pagecheckerboard="0" /><g
     id="g8"
     inkscape:groupmode="layer"
     inkscape:label="ink_ext_XXXXXX"
     transform="matrix(1.3333333,0,0,-1.3333333,0,284.66667)"><g
       id="g10"
       transform="scale(0.1)"><path
         d="M 164.473,71.0586 H 3113.93 V 2073.9 H 164.473 V 71.0586"
         style="fill:#ffffff;fill-opacity:1;fill-rule:nonzero;stroke:none"
         id="path12" /><path
         d="M 221.191,128.281 H 3057.22 V 2018.97 H 221.191 V 128.281"
         style="fill:#264ca4;fill-opacity:1;fill-rule:nonzero;stroke:none"
         id="path14" /><path
         d="m 1578.78,1607.02 59.83,43.67 59.86,-43.67 -22.79,70.63 60.79,43.67 h -74.93 l -22.93,71.48 -22.93,-71.56 -74.88,0.08 60.74,-43.67 -22.76,-70.63"
         style="fill:#f5f014;fill-opacity:1;fill-rule:nonzero;stroke:none"
         id="path16" /><path
         d="m 1269.08,1523.82 59.85,43.67 59.81,-43.67 -22.74,70.63 60.75,43.68 h -74.93 l -22.92,71.55 -22.93,-71.64 -74.9,0.09 60.75,-43.68 -22.74,-70.63"
         style="fill:#f5f014;fill-opacity:1;fill-rule:nonzero;stroke:none"
         id="path18" /><path
         d="m 1102.32,1482.57 -22.93,-71.64 -74.88,0.09 60.74,-43.68 -22.76,-70.63 59.83,43.68 59.85,-43.68 -22.78,70.63 60.75,43.68 h -74.89 l -22.93,71.55"
         style="fill:#f5f014;fill-opacity:1;fill-rule:nonzero;stroke:none"
         id="path20" /><path
         d="m 1019.21,1031.08 59.8,-43.658 -22.73,70.608 60.73,43.68 h -74.87 l -22.93,71.56 -22.933,-71.72 -74.922,0.16 60.786,-43.68 -22.778,-70.608 59.847,43.658"
         style="fill:#f5f014;fill-opacity:1;fill-rule:nonzero;stroke:none"
         id="path22" /><path
         d="m 1125.25,791.48 -22.93,71.559 -22.93,-71.641 -74.88,0.082 60.74,-43.66 -22.76,-70.64 59.83,43.75 59.85,-43.75 -22.78,70.64 60.75,43.66 h -74.89"
         style="fill:#f5f014;fill-opacity:1;fill-rule:nonzero;stroke:none"
         id="path24" /><path
         d="m 1352.29,564.461 -22.93,71.469 -22.9,-71.559 -74.92,0.09 60.75,-43.68 -22.73,-70.633 59.83,43.672 59.81,-43.672 -22.74,70.633 60.75,43.68 h -74.92"
         style="fill:#f5f014;fill-opacity:1;fill-rule:nonzero;stroke:none"
         id="path26" /><path
         d="m 1661.58,482.18 -22.93,71.558 -22.89,-71.636 -74.91,0.078 60.73,-43.668 -22.72,-70.633 59.83,43.68 59.81,-43.68 -22.78,70.633 60.78,43.668 h -74.92"
         style="fill:#f5f014;fill-opacity:1;fill-rule:nonzero;stroke:none"
         id="path28" /><path
         d="m 1970.89,564.461 -22.89,71.469 -22.97,-71.559 -74.84,0.09 60.7,-43.68 -22.74,-70.633 59.85,43.672 59.83,-43.672 -22.8,70.633 60.78,43.68 h -74.92"
         style="fill:#f5f014;fill-opacity:1;fill-rule:nonzero;stroke:none"
         id="path30" /><path
         d="m 2198,791.48 -22.97,71.559 -22.97,-71.641 -74.84,0.082 60.78,-43.66 -22.81,-70.64 59.84,43.75 59.83,-43.75 -22.8,70.64 60.77,43.66 H 2198"
         style="fill:#f5f014;fill-opacity:1;fill-rule:nonzero;stroke:none"
         id="path32" /><path
         d="m 2355.11,1102.57 h -74.92 l -22.97,71.57 -22.89,-71.65 -74.93,0.08 60.79,-43.67 -22.75,-70.619 59.78,43.749 59.84,-43.749 -22.73,70.619 60.78,43.67"
         style="fill:#f5f014;fill-opacity:1;fill-rule:nonzero;stroke:none"
         id="path34" /><path
         d="m 2115.18,1297.66 59.84,43.66 59.84,-43.66 -22.8,70.63 60.77,43.59 h -74.84 l -22.97,71.55 -22.96,-71.64 -74.85,0.09 60.78,-43.59 -22.81,-70.63"
         style="fill:#f5f014;fill-opacity:1;fill-rule:nonzero;stroke:none"
         id="path36" /><path
         d="m 1948.86,1709.6 -22.89,-71.64 -74.93,0.17 60.71,-43.75 -22.74,-70.64 59.93,43.75 59.75,-43.75 -22.72,70.64 60.78,43.75 h -75 l -22.89,71.47"
         style="fill:#f5f014;fill-opacity:1;fill-rule:nonzero;stroke:none"
         id="path38" /><path
         d="m 3469.07,1307.82 v 465.29 h 318.97 v -78.71 h -225.02 v -110.13 h 194.24 v -78.72 h -194.24 v -197.73 h -93.95"
         style="fill:#ffffff;fill-opacity:1;fill-rule:nonzero;stroke:none"
         id="path40" /><path
         d="m 4086.7,1307.82 v 50.47 c -12.28,-17.99 -28.41,-32.16 -48.4,-42.53 -20,-10.37 -41.1,-15.55 -63.32,-15.55 -22.65,0 -42.96,4.97 -60.94,14.92 -17.99,9.94 -30.99,23.9 -39.03,41.89 -8.05,17.98 -12.07,42.85 -12.07,74.59 v 213.28 h 89.19 V 1490 c 0,-47.39 1.64,-76.44 4.92,-87.11 3.27,-10.69 9.25,-19.16 17.93,-25.4 8.67,-6.24 19.68,-9.36 33.01,-9.36 15.23,0 28.88,4.17 40.95,12.54 12.05,8.35 20.31,18.72 24.74,31.1 4.45,12.37 6.67,42.69 6.67,90.93 v 142.19 h 89.19 v -337.07 h -82.84"
         style="fill:#ffffff;fill-opacity:1;fill-rule:nonzero;stroke:none"
         id="path42" /><path
         d="m 4568.48,1307.82 h -89.18 v 172.03 c 0,36.39 -1.91,59.93 -5.72,70.61 -3.8,10.68 -10,18.99 -18.56,24.92 -8.57,5.92 -18.89,8.89 -30.95,8.89 -15.45,0 -29.3,-4.24 -41.57,-12.7 -12.28,-8.46 -20.69,-19.68 -25.23,-33.64 -4.56,-13.97 -6.83,-39.78 -6.83,-77.44 v -152.67 h -89.19 v 337.07 h 82.84 v -49.51 c 29.41,38.08 66.44,57.12 111.09,57.12 19.67,0 37.65,-3.54 53.95,-10.63 16.29,-7.09 28.61,-16.14 36.97,-27.14 8.36,-11 14.18,-23.48 17.46,-37.44 3.28,-13.97 4.92,-33.97 4.92,-59.99 v -209.48"
         style="fill:#ffffff;fill-opacity:1;fill-rule:nonzero;stroke:none"
         id="path44" /><path
         d="m 4730.03,1483.66 c 0,-35.98 4.96,-62 14.91,-78.08 14.39,-23.28 34.48,-34.91 60.3,-34.91 20.52,0 37.98,8.73 52.37,26.18 14.39,17.46 21.58,43.54 21.58,78.24 0,38.72 -6.97,66.59 -20.94,83.62 -13.96,17.04 -31.85,25.56 -53.64,25.56 -21.16,0 -38.88,-8.42 -53.16,-25.23 -14.28,-16.83 -21.42,-41.95 -21.42,-75.38 z m 238.03,-175.84 h -82.84 v 49.52 c -13.76,-19.26 -29.99,-33.6 -48.72,-43.01 -18.72,-9.41 -37.6,-14.12 -56.65,-14.12 -38.72,0 -71.88,15.6 -99.5,46.81 -27.61,31.21 -41.41,74.75 -41.41,130.61 0,57.12 13.43,100.55 40.31,130.28 26.86,29.73 60.82,44.59 101.87,44.59 37.66,0 70.25,-15.66 97.76,-46.97 v 167.58 h 89.18 v -465.29"
         style="fill:#ffffff;fill-opacity:1;fill-rule:nonzero;stroke:none"
         id="path46" /><path
         d="m 5256.25,1505.24 c -0.63,25.81 -7.29,45.43 -19.99,58.87 -12.7,13.44 -28.14,20.16 -46.35,20.16 -19.46,0 -35.54,-7.09 -48.24,-21.27 -12.7,-14.18 -18.94,-33.43 -18.72,-57.76 z m -5.08,-90.14 88.87,-14.92 c -11.43,-32.58 -29.46,-57.39 -54.11,-74.42 -24.66,-17.03 -55.5,-25.55 -92.52,-25.55 -58.62,0 -101.99,19.15 -130.13,57.45 -22.22,30.68 -33.33,69.39 -33.33,116.16 0,55.86 14.61,99.6 43.81,131.23 29.2,31.63 66.11,47.45 110.76,47.45 50.15,0 89.71,-16.55 118.7,-49.66 28.99,-33.13 42.84,-83.85 41.57,-152.19 h -223.43 c 0.64,-26.45 7.83,-47.03 21.58,-61.73 13.76,-14.71 30.9,-22.06 51.43,-22.06 13.96,0 25.7,3.81 35.22,11.43 9.52,7.61 16.71,19.88 21.58,36.81"
         style="fill:#ffffff;fill-opacity:1;fill-rule:nonzero;stroke:none"
         id="path48" /><path
         d="m 5488.58,1483.66 c 0,-35.98 4.96,-62 14.92,-78.08 14.38,-23.28 34.48,-34.91 60.3,-34.91 20.52,0 37.98,8.73 52.36,26.18 14.4,17.46 21.58,43.54 21.58,78.24 0,38.72 -6.97,66.59 -20.93,83.62 -13.97,17.04 -31.86,25.56 -53.65,25.56 -21.16,0 -38.87,-8.42 -53.16,-25.23 -14.28,-16.83 -21.42,-41.95 -21.42,-75.38 z m 238.03,-175.84 h -82.83 v 49.52 c -13.76,-19.26 -29.99,-33.6 -48.72,-43.01 -18.72,-9.41 -37.61,-14.12 -56.65,-14.12 -38.72,0 -71.89,15.6 -99.5,46.81 -27.61,31.21 -41.42,74.75 -41.42,130.61 0,57.12 13.44,100.55 40.31,130.28 26.87,29.73 60.82,44.59 101.88,44.59 37.65,0 70.24,-15.66 97.75,-46.97 v 167.58 h 89.18 v -465.29"
         style="fill:#ffffff;fill-opacity:1;fill-rule:nonzero;stroke:none"
         id="path50" /><path
         d="m 6079.86,1483.66 c 0,-34.92 5.5,-60.73 16.51,-77.45 15.44,-23.69 35.96,-35.54 61.57,-35.54 19.68,0 36.44,8.4 50.3,25.23 13.86,16.82 20.79,43.32 20.79,79.5 0,38.51 -6.98,66.28 -20.94,83.31 -13.97,17.04 -31.85,25.56 -53.65,25.56 -21.36,0 -39.14,-8.31 -53.32,-24.92 -14.17,-16.61 -21.26,-41.84 -21.26,-75.69 z m -88.54,-175.84 v 465.29 h 89.18 v -167.58 c 27.5,31.31 60.09,46.97 97.75,46.97 41.05,0 75.01,-14.86 101.88,-44.59 26.87,-29.73 40.31,-72.42 40.31,-128.06 0,-57.56 -13.7,-101.88 -41.1,-132.99 -27.41,-31.1 -60.68,-46.65 -99.82,-46.65 -19.26,0 -38.24,4.81 -56.97,14.44 -18.72,9.63 -34.86,23.85 -48.4,42.69 v -49.52 h -82.83"
         style="fill:#ffffff;fill-opacity:1;fill-rule:nonzero;stroke:none"
         id="path52" /><path
         d="m 6349.95,1644.89 h 94.89 l 80.63,-239.31 78.71,239.31 h 92.35 l -119.01,-324.37 -21.27,-58.72 c -7.83,-19.67 -15.29,-34.69 -22.37,-45.06 -7.09,-10.37 -15.24,-18.78 -24.45,-25.23 -9.2,-6.46 -20.52,-11.48 -33.95,-15.08 -13.44,-3.59 -28.62,-5.39 -45.55,-5.39 -17.14,0 -33.95,1.8 -50.46,5.39 l -7.94,69.82 c 13.97,-2.75 26.56,-4.12 37.77,-4.12 20.74,0 36.07,6.08 46.02,18.25 9.94,12.17 17.56,27.67 22.85,46.5 l -128.22,338.01"
         style="fill:#ffffff;fill-opacity:1;fill-rule:nonzero;stroke:none"
         id="path54" /><path
         d="m 3622.36,864.891 v -71.102 h -60.93 v -135.84 c 0,-27.508 0.57,-43.527 1.74,-48.078 1.17,-4.551 3.81,-8.301 7.93,-11.262 4.13,-2.968 9.15,-4.461 15.08,-4.461 8.25,0 20.21,2.872 35.86,8.582 l 7.62,-69.191 c -20.73,-8.891 -44.22,-13.328 -70.45,-13.328 -16.08,0 -30.59,2.687 -43.49,8.09 -12.91,5.398 -22.37,12.379 -28.41,20.949 -6.02,8.57 -10.2,20.16 -12.53,34.75 -1.9,10.371 -2.86,31.32 -2.86,62.852 v 146.937 h -40.93 v 71.102 h 40.93 v 66.961 l 89.51,52.046 V 864.891 h 60.93"
         style="fill:#ffffff;fill-opacity:1;fill-rule:nonzero;stroke:none"
         id="path56" /><path
         d="m 3773.13,993.109 v -171.07 c 28.76,33.641 63.15,50.461 103.14,50.461 20.52,0 39.04,-3.801 55.55,-11.422 16.5,-7.617 28.92,-17.359 37.28,-29.199 8.36,-11.859 14.07,-24.969 17.14,-39.359 3.07,-14.391 4.6,-36.711 4.6,-66.961 V 527.828 h -89.18 v 178.043 c 0,35.34 -1.7,57.777 -5.08,67.289 -3.39,9.531 -9.36,17.09 -17.93,22.692 -8.57,5.609 -19.31,8.418 -32.21,8.418 -14.82,0 -28.04,-3.598 -39.68,-10.801 -11.63,-7.188 -20.15,-18.039 -25.55,-32.528 -5.39,-14.492 -8.08,-35.921 -8.08,-64.269 V 527.828 h -89.19 v 465.281 h 89.19"
         style="fill:#ffffff;fill-opacity:1;fill-rule:nonzero;stroke:none"
         id="path58" /><path
         d="m 4281.56,725.238 c -0.63,25.813 -7.29,45.442 -19.99,58.883 -12.69,13.418 -28.14,20.149 -46.35,20.149 -19.46,0 -35.54,-7.098 -48.24,-21.27 -12.69,-14.18 -18.93,-33.441 -18.72,-57.762 z m -5.08,-90.136 88.87,-14.911 c -11.42,-32.589 -29.46,-57.402 -54.11,-74.429 -24.66,-17.043 -55.5,-25.551 -92.52,-25.551 -58.61,0 -101.99,19.148 -130.13,57.437 -22.21,30.68 -33.33,69.403 -33.33,116.172 0,55.86 14.61,99.602 43.81,131.231 29.2,31.629 66.12,47.449 110.76,47.449 50.15,0 89.71,-16.559 118.71,-49.66 28.98,-33.121 42.84,-83.852 41.57,-152.192 h -223.44 c 0.64,-26.457 7.83,-47.027 21.58,-61.726 13.76,-14.711 30.9,-22.063 51.43,-22.063 13.96,0 25.7,3.813 35.22,11.422 9.52,7.617 16.71,19.891 21.58,36.821"
         style="fill:#ffffff;fill-opacity:1;fill-rule:nonzero;stroke:none"
         id="path60" /><path
         d="m 4624.01,527.828 v 465.281 h 345 v -78.711 h -251.05 v -103.16 h 233.59 v -78.379 h -233.59 v -126.64 h 259.94 v -78.391 h -353.89"
         style="fill:#ffffff;fill-opacity:1;fill-rule:nonzero;stroke:none"
         id="path62" /><path
         d="m 5278.79,527.828 v 50.461 c -12.28,-17.98 -28.41,-32.16 -48.4,-42.527 -20,-10.371 -41.1,-15.551 -63.32,-15.551 -22.65,0 -42.96,4.969 -60.94,14.918 -17.99,9.941 -30.99,23.91 -39.03,41.902 -8.05,17.969 -12.07,42.84 -12.07,74.578 v 213.282 h 89.19 V 710 c 0,-47.398 1.64,-76.43 4.92,-87.121 3.27,-10.688 9.25,-19.149 17.93,-25.391 8.67,-6.25 19.68,-9.359 33.01,-9.359 15.23,0 28.88,4.18 40.95,12.543 12.05,8.348 20.31,18.719 24.74,31.098 4.45,12.371 6.67,42.691 6.67,90.929 v 142.192 h 89.19 V 527.828 h -82.84"
         style="fill:#ffffff;fill-opacity:1;fill-rule:nonzero;stroke:none"
         id="path64" /><path
         d="m 5539.36,527.828 h -89.18 v 337.063 h 82.83 v -47.922 c 14.17,22.633 26.92,37.551 38.24,44.742 11.32,7.187 24.17,10.789 38.56,10.789 20.32,0 39.89,-5.602 58.73,-16.82 l -27.62,-77.758 c -15.03,9.726 -29,14.598 -41.9,14.598 -12.49,0 -23.06,-3.43 -31.73,-10.309 -8.69,-6.883 -15.5,-19.32 -20.47,-37.289 -4.98,-17.992 -7.46,-55.66 -7.46,-112.992 V 527.828"
         style="fill:#ffffff;fill-opacity:1;fill-rule:nonzero;stroke:none"
         id="path66" /><path
         d="m 5777.71,696.359 c 0,-33.437 7.94,-59.039 23.8,-76.82 15.88,-17.769 35.44,-26.66 58.72,-26.66 23.28,0 42.8,8.891 58.56,26.66 15.76,17.781 23.64,43.602 23.64,77.449 0,33 -7.88,58.391 -23.64,76.172 -15.76,17.77 -35.28,26.66 -58.56,26.66 -23.28,0 -42.84,-8.89 -58.72,-26.66 -15.86,-17.781 -23.8,-43.371 -23.8,-76.801 z m -91.4,4.762 c 0,29.617 7.29,58.289 21.9,86 14.59,27.731 35.28,48.891 62.04,63.481 26.77,14.609 56.65,21.898 89.66,21.898 51,0 92.79,-16.559 125.37,-49.66 32.58,-33.121 48.88,-74.969 48.88,-125.531 0,-51 -16.45,-93.258 -49.36,-126.797 -32.9,-33.532 -74.31,-50.301 -124.24,-50.301 -30.9,0 -60.36,6.98 -88.4,20.949 -28.04,13.961 -49.36,34.43 -63.95,61.41 -14.61,26.969 -21.9,59.828 -21.9,98.551"
         style="fill:#ffffff;fill-opacity:1;fill-rule:nonzero;stroke:none"
         id="path68" /><path
         d="m 6189.67,702.059 c 0,-37.868 7.51,-65.848 22.54,-83.938 15.02,-18.09 33.32,-27.133 54.9,-27.133 20.74,0 37.98,8.301 51.74,24.91 13.75,16.602 20.62,43.852 20.62,81.731 0,35.332 -7.09,61.562 -21.26,78.711 -14.18,17.129 -31.74,25.699 -52.68,25.699 -21.8,0 -39.89,-8.398 -54.28,-25.23 -14.38,-16.821 -21.58,-41.739 -21.58,-74.75 z m -88.22,162.832 h 83.14 v -49.52 c 10.8,16.93 25.39,30.68 43.81,41.258 18.4,10.582 38.82,15.871 61.25,15.871 39.14,0 72.36,-15.34 99.66,-46.02 27.29,-30.679 40.94,-73.421 40.94,-128.218 0,-56.282 -13.76,-100.032 -41.27,-131.231 -27.5,-31.222 -60.83,-46.82 -99.97,-46.82 -18.62,0 -35.49,3.699 -50.62,11.109 -15.13,7.399 -31.06,20.102 -47.76,38.09 V 399.602 h -89.18 v 465.289"
         style="fill:#ffffff;fill-opacity:1;fill-rule:nonzero;stroke:none"
         id="path70" /><path
         d="m 6701.29,725.238 c -0.64,25.813 -7.3,45.442 -19.99,58.883 -12.7,13.418 -28.15,20.149 -46.35,20.149 -19.46,0 -35.55,-7.098 -48.24,-21.27 -12.7,-14.18 -18.94,-33.441 -18.72,-57.762 z m -5.08,-90.136 88.87,-14.911 c -11.43,-32.589 -29.46,-57.402 -54.11,-74.429 -24.66,-17.043 -55.5,-25.551 -92.52,-25.551 -58.62,0 -101.99,19.148 -130.13,57.437 -22.22,30.68 -33.33,69.403 -33.33,116.172 0,55.86 14.61,99.602 43.81,131.231 29.2,31.629 66.11,47.449 110.76,47.449 50.15,0 89.71,-16.559 118.7,-49.66 28.99,-33.121 42.84,-83.852 41.57,-152.192 H 6566.4 c 0.64,-26.457 7.83,-47.027 21.58,-61.726 13.76,-14.711 30.9,-22.063 51.42,-22.063 13.97,0 25.71,3.813 35.23,11.422 9.52,7.617 16.71,19.891 21.58,36.821"
         style="fill:#ffffff;fill-opacity:1;fill-rule:nonzero;stroke:none"
         id="path72" /><path
         d="m 7048.51,689.691 c -11.43,-3.812 -29.52,-8.363 -54.27,-13.64 -24.76,-5.289 -40.95,-10.481 -48.57,-15.563 -11.63,-8.25 -17.45,-18.718 -17.45,-31.41 0,-12.488 4.65,-23.289 13.97,-32.387 9.3,-9.089 21.15,-13.64 35.54,-13.64 16.08,0 31.42,5.277 46.03,15.871 10.78,8.039 17.87,17.879 21.26,29.508 2.32,7.621 3.49,22.109 3.49,43.492 z m -119.34,72.36 -80.93,14.597 c 9.09,32.582 24.76,56.704 46.97,72.372 22.22,15.652 55.23,23.48 99.03,23.48 39.77,0 69.39,-4.699 88.87,-14.121 19.46,-9.418 33.16,-21.367 41.1,-35.867 7.93,-14.492 11.89,-41.09 11.89,-79.821 l -0.94,-104.101 c 0,-29.621 1.42,-51.469 4.28,-65.539 2.85,-14.071 8.2,-29.153 16.03,-45.223 h -88.23 c -2.34,5.91 -5.19,14.703 -8.58,26.344 -1.47,5.289 -2.54,8.769 -3.16,10.469 -15.24,-14.813 -31.54,-25.922 -48.89,-33.321 -17.34,-7.41 -35.86,-11.109 -55.54,-11.109 -34.7,0 -62.05,9.41 -82.04,28.238 -20,18.84 -30,42.641 -30,71.422 0,19.039 4.55,36.02 13.66,50.93 9.09,14.929 21.84,26.347 38.24,34.277 16.39,7.942 40.04,14.871 70.94,20.793 41.67,7.828 70.56,15.129 86.64,21.899 v 8.878 c 0,17.153 -4.23,29.372 -12.7,36.661 -8.46,7.312 -24.43,10.961 -47.92,10.961 -15.87,0 -28.25,-3.122 -37.14,-9.36 -8.88,-6.25 -16.07,-17.199 -21.58,-32.859"
         style="fill:#ffffff;fill-opacity:1;fill-rule:nonzero;stroke:none"
         id="path74" /><path
         d="m 7530.62,527.828 h -89.18 v 172.024 c 0,36.378 -1.91,59.929 -5.72,70.609 -3.81,10.687 -10,19 -18.56,24.918 -8.58,5.922 -18.89,8.891 -30.95,8.891 -15.45,0 -29.31,-4.239 -41.57,-12.692 -12.28,-8.469 -20.69,-19.687 -25.24,-33.656 -4.55,-13.961 -6.82,-39.774 -6.82,-77.442 V 527.828 h -89.19 v 337.063 h 82.84 v -49.52 c 29.4,38.09 66.44,57.129 111.08,57.129 19.68,0 37.66,-3.539 53.96,-10.629 16.29,-7.09 28.61,-16.133 36.97,-27.133 8.36,-11.008 14.18,-23.5 17.46,-37.457 3.27,-13.972 4.92,-33.961 4.92,-59.98 V 527.828"
         style="fill:#ffffff;fill-opacity:1;fill-rule:nonzero;stroke:none"
         id="path76" /><path
         d="m 7801.67,993.109 h 93.95 v -252 c 0,-39.988 1.15,-65.91 3.48,-77.757 4.02,-19.043 13.6,-34.332 28.72,-45.872 15.13,-11.531 35.81,-17.289 62.05,-17.289 26.66,0 46.76,5.45 60.31,16.348 13.53,10.891 21.69,24.27 24.44,40.141 2.74,15.871 4.12,42.218 4.12,79.039 v 257.39 h 93.95 v -244.39 c 0,-55.848 -2.54,-95.321 -7.62,-118.367 -5.08,-23.071 -14.44,-42.543 -28.09,-58.403 -13.65,-15.879 -31.89,-28.519 -54.74,-37.929 -22.86,-9.418 -52.7,-14.122 -89.52,-14.122 -44.43,0 -78.12,5.122 -101.08,15.391 -22.96,10.25 -41.1,23.582 -54.42,39.992 -13.34,16.391 -22.12,33.578 -26.35,51.571 -6.14,26.66 -9.2,66.019 -9.2,118.07 v 248.187"
         style="fill:#ffffff;fill-opacity:1;fill-rule:nonzero;stroke:none"
         id="path78" /><path
         d="m 8577.66,527.828 h -89.18 v 172.024 c 0,36.378 -1.91,59.929 -5.72,70.609 -3.8,10.687 -10,19 -18.56,24.918 -8.57,5.922 -18.89,8.891 -30.95,8.891 -15.45,0 -29.3,-4.239 -41.57,-12.692 -12.28,-8.469 -20.69,-19.687 -25.23,-33.656 -4.56,-13.961 -6.83,-39.774 -6.83,-77.442 V 527.828 h -89.19 v 337.063 h 82.84 v -49.52 c 29.41,38.09 66.44,57.129 111.09,57.129 19.67,0 37.65,-3.539 53.95,-10.629 16.29,-7.09 28.61,-16.133 36.97,-27.133 8.36,-11.008 14.18,-23.5 17.46,-37.457 3.28,-13.972 4.92,-33.961 4.92,-59.98 V 527.828"
         style="fill:#ffffff;fill-opacity:1;fill-rule:nonzero;stroke:none"
         id="path80" /><path
         d="m 8668.12,527.828 v 337.063 h 89.17 V 527.828 Z m 0,382.762 v 82.519 h 89.17 V 910.59 h -89.17"
         style="fill:#ffffff;fill-opacity:1;fill-rule:nonzero;stroke:none"
         id="path82" /><path
         d="m 8919.48,696.359 c 0,-33.437 7.94,-59.039 23.8,-76.82 15.88,-17.769 35.44,-26.66 58.72,-26.66 23.27,0 42.79,8.891 58.56,26.66 15.76,17.781 23.64,43.602 23.64,77.449 0,33 -7.88,58.391 -23.64,76.172 -15.77,17.77 -35.29,26.66 -58.56,26.66 -23.28,0 -42.84,-8.89 -58.72,-26.66 -15.86,-17.781 -23.8,-43.371 -23.8,-76.801 z m -91.4,4.762 c 0,29.617 7.29,58.289 21.9,86 14.59,27.731 35.27,48.891 62.04,63.481 26.77,14.609 56.65,21.898 89.66,21.898 51,0 92.78,-16.559 125.37,-49.66 32.58,-33.121 48.88,-74.969 48.88,-125.531 0,-51 -16.46,-93.258 -49.36,-126.797 -32.9,-33.532 -74.31,-50.301 -124.25,-50.301 -30.89,0 -60.36,6.98 -88.39,20.949 -28.04,13.961 -49.36,34.43 -63.95,61.41 -14.61,26.969 -21.9,59.828 -21.9,98.551"
         style="fill:#ffffff;fill-opacity:1;fill-rule:nonzero;stroke:none"
         id="path84" /><path
         d="m 9552.33,527.828 h -89.18 v 172.024 c 0,36.378 -1.9,59.929 -5.71,70.609 -3.81,10.687 -10,19 -18.56,24.918 -8.58,5.922 -18.89,8.891 -30.95,8.891 -15.45,0 -29.31,-4.239 -41.57,-12.692 -12.28,-8.469 -20.7,-19.687 -25.24,-33.656 -4.55,-13.961 -6.82,-39.774 -6.82,-77.442 V 527.828 h -89.19 v 337.063 h 82.84 v -49.52 c 29.4,38.09 66.43,57.129 111.08,57.129 19.68,0 37.66,-3.539 53.96,-10.629 16.29,-7.09 28.61,-16.133 36.97,-27.133 8.36,-11.008 14.18,-23.5 17.46,-37.457 3.27,-13.972 4.91,-33.961 4.91,-59.98 V 527.828"
         style="fill:#ffffff;fill-opacity:1;fill-rule:nonzero;stroke:none"
         id="path86" /></g></g></svg>
