<?xml version="1.0" encoding="UTF-8" standalone="no"?>
<!-- Created with Inkscape (http://www.inkscape.org/) -->

<svg
   version="1.1"
   id="svg2"
   xml:space="preserve"
   width="1358.7333"
   height="284.66666"
   viewBox="0 0 1358.7333 284.66666"
   sodipodi:docname="FR-Financé par l’Union européenne NEG.eps"
   xmlns:inkscape="http://www.inkscape.org/namespaces/inkscape"
   xmlns:sodipodi="http://sodipodi.sourceforge.net/DTD/sodipodi-0.dtd"
   xmlns="http://www.w3.org/2000/svg"
   xmlns:svg="http://www.w3.org/2000/svg"><defs
     id="defs6" /><sodipodi:namedview
     id="namedview4"
     pagecolor="#ffffff"
     bordercolor="#666666"
     borderopacity="1.0"
     inkscape:pageshadow="2"
     inkscape:pageopacity="0.0"
     inkscape:pagecheckerboard="0" /><g
     id="g8"
     inkscape:groupmode="layer"
     inkscape:label="ink_ext_XXXXXX"
     transform="matrix(1.3333333,0,0,-1.3333333,0,284.66667)"><g
       id="g10"
       transform="scale(0.1)"><path
         d="M 164.473,71.0586 H 3113.93 V 2073.9 H 164.473 V 71.0586"
         style="fill:#ffffff;fill-opacity:1;fill-rule:nonzero;stroke:none"
         id="path12" /><path
         d="M 221.191,128.281 H 3057.22 V 2018.97 H 221.191 V 128.281"
         style="fill:#264ca4;fill-opacity:1;fill-rule:nonzero;stroke:none"
         id="path14" /><path
         d="m 1578.78,1607.02 59.83,43.67 59.86,-43.67 -22.79,70.63 60.79,43.67 h -74.93 l -22.93,71.48 -22.93,-71.56 -74.88,0.08 60.74,-43.67 -22.76,-70.63"
         style="fill:#f5f014;fill-opacity:1;fill-rule:nonzero;stroke:none"
         id="path16" /><path
         d="m 1269.08,1523.82 59.85,43.67 59.81,-43.67 -22.74,70.63 60.75,43.68 h -74.93 l -22.92,71.55 -22.93,-71.64 -74.9,0.09 60.75,-43.68 -22.74,-70.63"
         style="fill:#f5f014;fill-opacity:1;fill-rule:nonzero;stroke:none"
         id="path18" /><path
         d="m 1102.32,1482.57 -22.93,-71.64 -74.88,0.09 60.74,-43.68 -22.76,-70.63 59.83,43.68 59.85,-43.68 -22.78,70.63 60.75,43.68 h -74.89 l -22.93,71.55"
         style="fill:#f5f014;fill-opacity:1;fill-rule:nonzero;stroke:none"
         id="path20" /><path
         d="m 1019.21,1031.08 59.8,-43.658 -22.73,70.608 60.73,43.68 h -74.87 l -22.93,71.56 -22.933,-71.72 -74.922,0.16 60.786,-43.68 -22.778,-70.608 59.847,43.658"
         style="fill:#f5f014;fill-opacity:1;fill-rule:nonzero;stroke:none"
         id="path22" /><path
         d="m 1125.25,791.48 -22.93,71.559 -22.93,-71.641 -74.88,0.082 60.74,-43.66 -22.76,-70.64 59.83,43.75 59.85,-43.75 -22.78,70.64 60.75,43.66 h -74.89"
         style="fill:#f5f014;fill-opacity:1;fill-rule:nonzero;stroke:none"
         id="path24" /><path
         d="m 1352.29,564.461 -22.93,71.469 -22.9,-71.559 -74.92,0.09 60.75,-43.68 -22.73,-70.633 59.83,43.672 59.81,-43.672 -22.74,70.633 60.75,43.68 h -74.92"
         style="fill:#f5f014;fill-opacity:1;fill-rule:nonzero;stroke:none"
         id="path26" /><path
         d="m 1661.58,482.18 -22.93,71.558 -22.89,-71.636 -74.91,0.078 60.73,-43.668 -22.72,-70.633 59.83,43.68 59.81,-43.68 -22.78,70.633 60.78,43.668 h -74.92"
         style="fill:#f5f014;fill-opacity:1;fill-rule:nonzero;stroke:none"
         id="path28" /><path
         d="m 1970.89,564.461 -22.89,71.469 -22.97,-71.559 -74.84,0.09 60.7,-43.68 -22.74,-70.633 59.85,43.672 59.83,-43.672 -22.8,70.633 60.78,43.68 h -74.92"
         style="fill:#f5f014;fill-opacity:1;fill-rule:nonzero;stroke:none"
         id="path30" /><path
         d="m 2198,791.48 -22.97,71.559 -22.97,-71.641 -74.84,0.082 60.78,-43.66 -22.81,-70.64 59.84,43.75 59.83,-43.75 -22.8,70.64 60.77,43.66 H 2198"
         style="fill:#f5f014;fill-opacity:1;fill-rule:nonzero;stroke:none"
         id="path32" /><path
         d="m 2355.11,1102.57 h -74.92 l -22.97,71.57 -22.89,-71.65 -74.93,0.08 60.79,-43.67 -22.75,-70.619 59.78,43.749 59.84,-43.749 -22.73,70.619 60.78,43.67"
         style="fill:#f5f014;fill-opacity:1;fill-rule:nonzero;stroke:none"
         id="path34" /><path
         d="m 2115.18,1297.66 59.84,43.66 59.84,-43.66 -22.8,70.63 60.77,43.59 h -74.84 l -22.97,71.55 -22.96,-71.64 -74.85,0.09 60.78,-43.59 -22.81,-70.63"
         style="fill:#f5f014;fill-opacity:1;fill-rule:nonzero;stroke:none"
         id="path36" /><path
         d="m 1948.86,1709.6 -22.89,-71.64 -74.93,0.17 60.71,-43.75 -22.74,-70.64 59.93,43.75 59.75,-43.75 -22.72,70.64 60.78,43.75 h -75 l -22.89,71.47"
         style="fill:#f5f014;fill-opacity:1;fill-rule:nonzero;stroke:none"
         id="path38" /><path
         d="m 3471.27,1313.79 v 465.28 h 318.96 v -78.71 h -225.02 v -110.13 h 194.24 v -78.71 h -194.24 v -197.73 h -93.94"
         style="fill:#ffffff;fill-opacity:1;fill-rule:nonzero;stroke:none"
         id="path40" /><path
         d="m 3867.04,1313.79 v 337.06 h 89.18 v -337.06 z m 0,382.77 v 82.51 h 89.18 v -82.51 h -89.18"
         style="fill:#ffffff;fill-opacity:1;fill-rule:nonzero;stroke:none"
         id="path42" /><path
         d="m 4354.22,1313.79 h -89.18 v 172.02 c 0,36.4 -1.91,59.94 -5.71,70.62 -3.81,10.68 -10,18.99 -18.57,24.92 -8.57,5.92 -18.88,8.88 -30.95,8.88 -15.44,0 -29.3,-4.23 -41.57,-12.69 -12.27,-8.47 -20.69,-19.68 -25.23,-33.65 -4.55,-13.96 -6.83,-39.78 -6.83,-77.44 v -152.66 h -89.19 v 337.06 h 82.84 v -49.51 c 29.41,38.09 66.44,57.13 111.09,57.13 19.68,0 37.65,-3.54 53.95,-10.63 16.29,-7.09 28.62,-16.14 36.98,-27.14 8.36,-11 14.18,-23.49 17.46,-37.45 3.27,-13.96 4.91,-33.96 4.91,-59.98 v -209.48"
         style="fill:#ffffff;fill-opacity:1;fill-rule:nonzero;stroke:none"
         id="path44" /><path
         d="m 4630.65,1475.66 c -11.42,-3.81 -29.51,-8.36 -54.26,-13.65 -24.76,-5.29 -40.95,-10.47 -48.57,-15.55 -11.63,-8.25 -17.45,-18.73 -17.45,-31.42 0,-12.49 4.65,-23.28 13.97,-32.38 9.3,-9.1 21.15,-13.64 35.54,-13.64 16.08,0 31.42,5.28 46.03,15.87 10.78,8.04 17.87,17.87 21.26,29.51 2.32,7.62 3.48,22.11 3.48,43.49 z m -119.33,72.36 -80.93,14.6 c 9.09,32.58 24.76,56.7 46.97,72.36 22.22,15.66 55.23,23.49 99.03,23.49 39.77,0 69.39,-4.71 88.86,-14.12 19.47,-9.42 33.17,-21.38 41.11,-35.87 7.93,-14.49 11.89,-41.1 11.89,-79.82 l -0.95,-104.1 c 0,-29.62 1.43,-51.47 4.29,-65.54 2.85,-14.07 8.2,-29.15 16.03,-45.23 h -88.24 c -2.33,5.92 -5.18,14.71 -8.57,26.35 -1.47,5.29 -2.54,8.77 -3.16,10.47 -15.24,-14.81 -31.54,-25.92 -48.89,-33.32 -17.34,-7.41 -35.86,-11.11 -55.54,-11.11 -34.7,0 -62.05,9.41 -82.04,28.24 -20,18.83 -30,42.63 -30,71.42 0,19.04 4.55,36.02 13.65,50.93 9.1,14.92 21.85,26.35 38.25,34.28 16.39,7.94 40.04,14.86 70.93,20.79 41.68,7.83 70.57,15.13 86.64,21.9 v 8.89 c 0,17.14 -4.22,29.35 -12.69,36.65 -8.46,7.31 -24.43,10.95 -47.92,10.95 -15.87,0 -28.25,-3.12 -37.14,-9.35 -8.89,-6.25 -16.07,-17.2 -21.58,-32.86"
         style="fill:#ffffff;fill-opacity:1;fill-rule:nonzero;stroke:none"
         id="path46" /><path
         d="m 5112.76,1313.79 h -89.18 v 172.02 c 0,36.4 -1.9,59.94 -5.71,70.62 -3.81,10.68 -10,18.99 -18.56,24.92 -8.58,5.92 -18.89,8.88 -30.95,8.88 -15.45,0 -29.31,-4.23 -41.57,-12.69 -12.28,-8.47 -20.7,-19.68 -25.24,-33.65 -4.55,-13.96 -6.82,-39.78 -6.82,-77.44 v -152.66 h -89.19 v 337.06 h 82.84 v -49.51 c 29.4,38.09 66.43,57.13 111.08,57.13 19.68,0 37.66,-3.54 53.96,-10.63 16.29,-7.09 28.61,-16.14 36.97,-27.14 8.36,-11 14.18,-23.49 17.46,-37.45 3.27,-13.96 4.91,-33.96 4.91,-59.98 v -209.48"
         style="fill:#ffffff;fill-opacity:1;fill-rule:nonzero;stroke:none"
         id="path48" /><path
         d="m 5497.12,1551.2 -87.91,-15.88 c -2.97,17.57 -9.68,30.79 -20.16,39.68 -10.47,8.89 -24.07,13.33 -40.78,13.33 -22.22,0 -39.94,-7.67 -53.16,-23.01 -13.23,-15.34 -19.84,-41 -19.84,-76.97 0,-39.99 6.72,-68.23 20.16,-84.74 13.43,-16.5 31.46,-24.75 54.11,-24.75 16.92,0 30.78,4.81 41.58,14.44 10.78,9.63 18.4,26.18 22.85,49.67 l 87.6,-14.92 c -9.1,-40.2 -26.56,-70.57 -52.37,-91.09 -25.82,-20.53 -60.41,-30.78 -103.78,-30.78 -49.31,0 -88.61,15.55 -117.91,46.65 -29.31,31.1 -43.97,74.16 -43.97,129.18 0,55.64 14.71,98.97 44.13,129.97 29.4,30.99 69.19,46.49 119.33,46.49 41.05,0 73.68,-8.84 97.91,-26.5 24.23,-17.67 41.63,-44.59 52.21,-80.77"
         style="fill:#ffffff;fill-opacity:1;fill-rule:nonzero;stroke:none"
         id="path50" /><path
         d="m 5651.05,1692.11 43.79,94.9 h 99.98 l -87.28,-94.9 z m 113.94,-180.91 c -0.63,25.82 -7.29,45.44 -19.99,58.88 -12.7,13.44 -28.14,20.15 -46.35,20.15 -19.46,0 -35.54,-7.09 -48.24,-21.26 -12.7,-14.18 -18.94,-33.43 -18.72,-57.77 z m -5.08,-90.13 88.87,-14.92 c -11.43,-32.59 -29.46,-57.4 -54.11,-74.43 -24.66,-17.03 -55.5,-25.54 -92.52,-25.54 -58.61,0 -101.99,19.14 -130.13,57.44 -22.22,30.68 -33.33,69.4 -33.33,116.17 0,55.85 14.61,99.6 43.81,131.23 29.2,31.63 66.11,47.45 110.76,47.45 50.15,0 89.71,-16.56 118.7,-49.67 28.99,-33.12 42.84,-83.85 41.58,-152.19 H 5630.1 c 0.64,-26.45 7.83,-47.02 21.58,-61.72 13.76,-14.71 30.9,-22.07 51.43,-22.07 13.96,0 25.7,3.82 35.22,11.43 9.52,7.62 16.71,19.89 21.58,36.82"
         style="fill:#ffffff;fill-opacity:1;fill-rule:nonzero;stroke:none"
         id="path52" /><path
         d="m 6192.5,1488.04 c 0,-37.88 7.51,-65.86 22.54,-83.95 15.02,-18.09 33.32,-27.14 54.9,-27.14 20.74,0 37.98,8.3 51.74,24.92 13.75,16.61 20.62,43.85 20.62,81.72 0,35.34 -7.09,61.57 -21.26,78.71 -14.17,17.14 -31.73,25.71 -52.68,25.71 -21.8,0 -39.88,-8.41 -54.28,-25.23 -14.38,-16.82 -21.58,-41.74 -21.58,-74.74 z m -88.22,162.81 h 83.14 v -49.51 c 10.8,16.93 25.39,30.68 43.81,41.26 18.4,10.58 38.82,15.87 61.25,15.87 39.14,0 72.36,-15.34 99.66,-46.02 27.29,-30.68 40.95,-73.42 40.95,-128.22 0,-56.29 -13.76,-100.03 -41.27,-131.24 -27.5,-31.21 -60.83,-46.81 -99.97,-46.81 -18.63,0 -35.5,3.7 -50.63,11.11 -15.13,7.4 -31.05,20.09 -47.76,38.08 v -169.8 h -89.18 v 465.28"
         style="fill:#ffffff;fill-opacity:1;fill-rule:nonzero;stroke:none"
         id="path54" /><path
         d="m 6689.83,1475.66 c -11.42,-3.81 -29.51,-8.36 -54.26,-13.65 -24.76,-5.29 -40.95,-10.47 -48.57,-15.55 -11.63,-8.25 -17.45,-18.73 -17.45,-31.42 0,-12.49 4.65,-23.28 13.97,-32.38 9.3,-9.1 21.15,-13.64 35.54,-13.64 16.08,0 31.42,5.28 46.03,15.87 10.78,8.04 17.87,17.87 21.26,29.51 2.32,7.62 3.48,22.11 3.48,43.49 z m -119.33,72.36 -80.93,14.6 c 9.09,32.58 24.76,56.7 46.97,72.36 22.22,15.66 55.23,23.49 99.03,23.49 39.77,0 69.39,-4.71 88.86,-14.12 19.47,-9.42 33.17,-21.38 41.11,-35.87 7.93,-14.49 11.89,-41.1 11.89,-79.82 l -0.95,-104.1 c 0,-29.62 1.43,-51.47 4.29,-65.54 2.85,-14.07 8.19,-29.15 16.03,-45.23 h -88.24 c -2.33,5.92 -5.18,14.71 -8.57,26.35 -1.47,5.29 -2.54,8.77 -3.16,10.47 -15.24,-14.81 -31.54,-25.92 -48.89,-33.32 -17.34,-7.41 -35.86,-11.11 -55.54,-11.11 -34.7,0 -62.05,9.41 -82.04,28.24 -20,18.83 -30,42.63 -30,71.42 0,19.04 4.55,36.02 13.65,50.93 9.1,14.92 21.85,26.35 38.25,34.28 16.39,7.94 40.03,14.86 70.93,20.79 41.68,7.83 70.57,15.13 86.64,21.9 v 8.89 c 0,17.14 -4.22,29.35 -12.69,36.65 -8.46,7.31 -24.43,10.95 -47.92,10.95 -15.87,0 -28.25,-3.12 -37.14,-9.35 -8.89,-6.25 -16.07,-17.2 -21.58,-32.86"
         style="fill:#ffffff;fill-opacity:1;fill-rule:nonzero;stroke:none"
         id="path56" /><path
         d="m 6950.73,1313.79 h -89.18 v 337.06 h 82.83 v -47.92 c 14.17,22.64 26.93,37.55 38.25,44.75 11.32,7.19 24.17,10.79 38.56,10.79 20.31,0 39.88,-5.61 58.72,-16.82 l -27.62,-77.76 c -15.02,9.73 -28.99,14.6 -41.89,14.6 -12.49,0 -23.07,-3.44 -31.74,-10.31 -8.68,-6.88 -15.5,-19.31 -20.47,-37.3 -4.98,-17.99 -7.46,-55.65 -7.46,-112.99 v -104.1"
         style="fill:#ffffff;fill-opacity:1;fill-rule:nonzero;stroke:none"
         id="path58" /><path
         d="m 3470,533.789 v 465.289 h 89.18 V 533.789 H 3470"
         style="fill:#ffffff;fill-opacity:1;fill-rule:nonzero;stroke:none"
         id="path60" /><path
         d="m 3648.37,997.809 h 89.18 V 934.02 c 0,-25.821 -2.22,-46.18 -6.66,-61.11 -4.44,-14.91 -12.85,-28.301 -25.24,-40.14 -12.37,-11.848 -28.08,-21.161 -47.12,-27.93 l -17.47,36.808 c 17.99,5.93 30.8,14.082 38.41,24.454 7.62,10.359 11.63,24.539 12.06,42.527 h -43.16 v 89.18"
         style="fill:#ffffff;fill-opacity:1;fill-rule:nonzero;stroke:none"
         id="path62" /><path
         d="m 3831.18,999.078 h 93.95 V 747.07 c 0,-39.992 1.15,-65.898 3.48,-77.75 4.02,-19.039 13.6,-34.34 28.72,-45.871 15.13,-11.527 35.81,-17.289 62.05,-17.289 26.66,0 46.76,5.449 60.31,16.34 13.53,10.898 21.69,24.281 24.44,40.148 2.75,15.872 4.12,42.223 4.12,79.032 v 257.398 h 93.95 V 754.691 c 0,-55.863 -2.54,-95.32 -7.62,-118.382 -5.08,-23.059 -14.44,-42.528 -28.09,-58.399 -13.65,-15.871 -31.89,-28.512 -54.74,-37.93 -22.85,-9.41 -52.7,-14.121 -89.51,-14.121 -44.44,0 -78.13,5.129 -101.09,15.391 -22.96,10.27 -41.1,23.602 -54.42,39.988 -13.34,16.403 -22.12,33.59 -26.35,51.582 -6.14,26.66 -9.2,66.008 -9.2,118.059 v 248.199"
         style="fill:#ffffff;fill-opacity:1;fill-rule:nonzero;stroke:none"
         id="path64" /><path
         d="M 4607.18,533.789 H 4518 v 172.02 c 0,36.402 -1.91,59.941 -5.71,70.621 -3.81,10.679 -10,18.992 -18.57,24.922 -8.57,5.918 -18.89,8.886 -30.95,8.886 -15.45,0 -29.3,-4.238 -41.57,-12.699 -12.27,-8.461 -20.69,-19.668 -25.23,-33.641 -4.55,-13.957 -6.83,-39.777 -6.83,-77.437 V 533.789 h -89.19 v 337.063 h 82.84 V 821.34 c 29.41,38.09 66.44,57.129 111.09,57.129 19.67,0 37.65,-3.539 53.95,-10.629 16.29,-7.09 28.62,-16.141 36.97,-27.129 8.36,-11.012 14.18,-23.492 17.47,-37.449 3.27,-13.973 4.91,-33.973 4.91,-59.992 V 533.789"
         style="fill:#ffffff;fill-opacity:1;fill-rule:nonzero;stroke:none"
         id="path66" /><path
         d="m 4697.64,533.789 v 337.063 h 89.18 V 533.789 Z m 0,382.77 v 82.519 h 89.18 v -82.519 h -89.18"
         style="fill:#ffffff;fill-opacity:1;fill-rule:nonzero;stroke:none"
         id="path68" /><path
         d="m 4949,702.328 c 0,-33.437 7.94,-59.039 23.8,-76.808 15.88,-17.77 35.44,-26.661 58.72,-26.661 23.27,0 42.8,8.891 58.56,26.661 15.76,17.769 23.64,43.589 23.64,77.441 0,33.008 -7.88,58.398 -23.64,76.168 -15.76,17.781 -35.29,26.66 -58.56,26.66 -23.28,0 -42.84,-8.879 -58.72,-26.66 -15.86,-17.77 -23.8,-43.367 -23.8,-76.801 z m -91.4,4.75 c 0,29.621 7.29,58.293 21.9,86.024 14.59,27.707 35.28,48.878 62.04,63.476 26.77,14.602 56.65,21.891 89.66,21.891 51,0 92.78,-16.547 125.37,-49.668 32.58,-33.11 48.88,-74.961 48.88,-125.52 0,-51 -16.46,-93.269 -49.36,-126.801 -32.9,-33.539 -74.31,-50.3 -124.24,-50.3 -30.9,0 -60.37,6.98 -88.4,20.941 -28.04,13.969 -49.36,34.438 -63.95,61.418 -14.61,26.973 -21.9,59.82 -21.9,98.539"
         style="fill:#ffffff;fill-opacity:1;fill-rule:nonzero;stroke:none"
         id="path70" /><path
         d="m 5581.86,533.789 h -89.18 v 172.02 c 0,36.402 -1.91,59.941 -5.72,70.621 -3.81,10.679 -10,18.992 -18.56,24.922 -8.58,5.918 -18.89,8.886 -30.95,8.886 -15.45,0 -29.31,-4.238 -41.57,-12.699 -12.28,-8.461 -20.69,-19.668 -25.24,-33.641 -4.55,-13.957 -6.82,-39.777 -6.82,-77.437 V 533.789 h -89.19 v 337.063 h 82.84 V 821.34 c 29.41,38.09 66.44,57.129 111.08,57.129 19.68,0 37.66,-3.539 53.96,-10.629 16.29,-7.09 28.61,-16.141 36.97,-27.129 8.36,-11.012 14.18,-23.492 17.46,-37.449 3.27,-13.973 4.92,-33.973 4.92,-59.992 V 533.789"
         style="fill:#ffffff;fill-opacity:1;fill-rule:nonzero;stroke:none"
         id="path72" /><path
         d="m 6053.17,731.211 c -0.63,25.809 -7.29,45.43 -19.99,58.867 -12.69,13.442 -28.14,20.16 -46.34,20.16 -19.47,0 -35.55,-7.09 -48.25,-21.269 -12.69,-14.18 -18.93,-33.43 -18.72,-57.758 z m -5.07,-90.141 88.86,-14.91 c -11.42,-32.59 -29.46,-57.41 -54.11,-74.441 -24.66,-17.028 -55.5,-25.539 -92.52,-25.539 -58.61,0 -101.99,19.148 -130.12,57.449 -22.22,30.672 -33.33,69.391 -33.33,116.16 0,55.859 14.6,99.602 43.8,131.231 29.2,31.628 66.12,47.449 110.77,47.449 50.14,0 89.7,-16.547 118.7,-49.668 28.98,-33.11 42.84,-83.84 41.57,-152.18 h -223.44 c 0.65,-26.449 7.83,-47.031 21.58,-61.73 13.76,-14.711 30.9,-22.063 51.43,-22.063 13.96,0 25.7,3.801 35.22,11.422 9.53,7.621 16.71,19.891 21.59,36.82"
         style="fill:#ffffff;fill-opacity:1;fill-rule:nonzero;stroke:none"
         id="path74" /><path
         d="m 6436.25,533.789 v 50.473 c -12.28,-17.992 -28.41,-32.172 -48.4,-42.532 -20,-10.371 -41.1,-15.55 -63.32,-15.55 -22.65,0 -42.96,4.98 -60.94,14.922 -17.98,9.937 -30.99,23.898 -39.03,41.886 -8.05,17.981 -12.07,42.84 -12.07,74.582 v 213.282 h 89.19 V 715.969 c 0,-47.391 1.64,-76.438 4.92,-87.117 3.27,-10.68 9.25,-19.153 17.93,-25.391 8.67,-6.242 19.68,-9.359 33.01,-9.359 15.23,0 28.88,4.179 40.95,12.527 12.05,8.359 20.31,18.73 24.74,31.109 4.46,12.371 6.67,42.684 6.67,90.934 v 142.18 h 89.19 V 533.789 h -82.84"
         style="fill:#ffffff;fill-opacity:1;fill-rule:nonzero;stroke:none"
         id="path76" /><path
         d="m 6696.83,533.789 h -89.18 v 337.063 h 82.83 V 822.93 c 14.17,22.64 26.92,37.55 38.24,44.75 11.32,7.199 24.17,10.789 38.57,10.789 20.31,0 39.88,-5.598 58.72,-16.821 l -27.62,-77.757 c -15.03,9.738 -29,14.597 -41.9,14.597 -12.49,0 -23.06,-3.437 -31.73,-10.308 -8.69,-6.879 -15.5,-19.309 -20.47,-37.301 -4.98,-17.988 -7.46,-55.641 -7.46,-112.988 V 533.789"
         style="fill:#ffffff;fill-opacity:1;fill-rule:nonzero;stroke:none"
         id="path78" /><path
         d="m 6935.18,702.328 c 0,-33.437 7.94,-59.039 23.79,-76.808 15.88,-17.77 35.44,-26.661 58.73,-26.661 23.27,0 42.79,8.891 58.55,26.661 15.76,17.769 23.64,43.589 23.64,77.441 0,33.008 -7.88,58.398 -23.64,76.168 -15.76,17.781 -35.28,26.66 -58.55,26.66 -23.29,0 -42.85,-8.879 -58.73,-26.66 -15.85,-17.77 -23.79,-43.367 -23.79,-76.801 z m -91.41,4.75 c 0,29.621 7.29,58.293 21.9,86.024 14.59,27.707 35.28,48.878 62.04,63.476 26.77,14.602 56.66,21.891 89.66,21.891 51,0 92.79,-16.547 125.37,-49.668 32.58,-33.11 48.88,-74.961 48.88,-125.52 0,-51 -16.45,-93.269 -49.35,-126.801 -32.9,-33.539 -74.32,-50.3 -124.25,-50.3 -30.9,0 -60.36,6.98 -88.4,20.941 -28.04,13.969 -49.36,34.438 -63.95,61.418 -14.61,26.973 -21.9,59.82 -21.9,98.539"
         style="fill:#ffffff;fill-opacity:1;fill-rule:nonzero;stroke:none"
         id="path80" /><path
         d="m 7347.14,708.039 c 0,-37.879 7.51,-65.859 22.54,-83.949 15.02,-18.09 33.32,-27.129 54.9,-27.129 20.74,0 37.98,8.301 51.74,24.91 13.75,16.609 20.62,43.848 20.62,81.731 0,35.328 -7.09,61.57 -21.26,78.707 -14.18,17.14 -31.73,25.703 -52.68,25.703 -21.8,0 -39.88,-8.41 -54.28,-25.231 -14.38,-16.82 -21.58,-41.73 -21.58,-74.742 z m -88.22,162.813 h 83.14 V 821.34 c 10.8,16.93 25.39,30.691 43.81,41.262 18.4,10.578 38.82,15.867 61.25,15.867 39.14,0 72.36,-15.34 99.66,-46.008 27.29,-30.691 40.94,-73.43 40.94,-128.231 0,-56.289 -13.76,-100.031 -41.26,-131.242 -27.5,-31.207 -60.83,-46.808 -99.98,-46.808 -18.62,0 -35.49,3.711 -50.62,11.109 -15.13,7.402 -31.06,20.102 -47.76,38.082 V 405.57 h -89.18 v 465.282"
         style="fill:#ffffff;fill-opacity:1;fill-rule:nonzero;stroke:none"
         id="path82" /><path
         d="m 7744.83,912.109 43.79,94.911 h 99.98 l -87.28,-94.911 z m 113.94,-180.898 c -0.64,25.809 -7.3,45.43 -19.99,58.867 -12.7,13.442 -28.15,20.16 -46.35,20.16 -19.46,0 -35.55,-7.09 -48.24,-21.269 -12.7,-14.18 -18.94,-33.43 -18.72,-57.758 z m -5.08,-90.141 88.87,-14.91 c -11.43,-32.59 -29.46,-57.41 -54.11,-74.441 -24.66,-17.028 -55.5,-25.539 -92.52,-25.539 -58.62,0 -101.99,19.148 -130.13,57.449 -22.22,30.672 -33.33,69.391 -33.33,116.16 0,55.859 14.61,99.602 43.81,131.231 29.2,31.628 66.11,47.449 110.76,47.449 50.15,0 89.71,-16.547 118.7,-49.668 28.99,-33.11 42.84,-83.84 41.57,-152.18 h -223.43 c 0.64,-26.449 7.83,-47.031 21.58,-61.73 13.76,-14.711 30.9,-22.063 51.42,-22.063 13.97,0 25.71,3.801 35.23,11.422 9.52,7.621 16.71,19.891 21.58,36.82"
         style="fill:#ffffff;fill-opacity:1;fill-rule:nonzero;stroke:none"
         id="path84" /><path
         d="m 8220.26,731.211 c -0.63,25.809 -7.29,45.43 -19.99,58.867 -12.69,13.442 -28.14,20.16 -46.34,20.16 -19.47,0 -35.55,-7.09 -48.25,-21.269 -12.69,-14.18 -18.93,-33.43 -18.72,-57.758 z m -5.07,-90.141 88.86,-14.91 c -11.42,-32.59 -29.46,-57.41 -54.11,-74.441 -24.66,-17.028 -55.5,-25.539 -92.52,-25.539 -58.61,0 -101.99,19.148 -130.13,57.449 -22.21,30.672 -33.33,69.391 -33.33,116.16 0,55.859 14.61,99.602 43.81,131.231 29.2,31.628 66.12,47.449 110.77,47.449 50.14,0 89.7,-16.547 118.7,-49.668 28.98,-33.11 42.84,-83.84 41.57,-152.18 h -223.44 c 0.65,-26.449 7.83,-47.031 21.58,-61.73 13.76,-14.711 30.9,-22.063 51.43,-22.063 13.96,0 25.7,3.801 35.22,11.422 9.53,7.621 16.71,19.891 21.59,36.82"
         style="fill:#ffffff;fill-opacity:1;fill-rule:nonzero;stroke:none"
         id="path86" /><path
         d="m 8688.08,533.789 h -89.18 v 172.02 c 0,36.402 -1.91,59.941 -5.72,70.621 -3.8,10.679 -10,18.992 -18.56,24.922 -8.58,5.918 -18.89,8.886 -30.95,8.886 -15.45,0 -29.3,-4.238 -41.57,-12.699 -12.28,-8.461 -20.69,-19.668 -25.23,-33.641 -4.56,-13.957 -6.83,-39.777 -6.83,-77.437 V 533.789 h -89.19 v 337.063 h 82.84 V 821.34 c 29.41,38.09 66.44,57.129 111.09,57.129 19.67,0 37.65,-3.539 53.95,-10.629 16.29,-7.09 28.61,-16.141 36.97,-27.129 8.36,-11.012 14.18,-23.492 17.46,-37.449 3.28,-13.973 4.92,-33.973 4.92,-59.992 V 533.789"
         style="fill:#ffffff;fill-opacity:1;fill-rule:nonzero;stroke:none"
         id="path88" /><path
         d="m 9085.13,533.789 h -89.18 v 172.02 c 0,36.402 -1.91,59.941 -5.72,70.621 -3.8,10.679 -10,18.992 -18.56,24.922 -8.57,5.918 -18.89,8.886 -30.95,8.886 -15.45,0 -29.3,-4.238 -41.57,-12.699 -12.27,-8.461 -20.69,-19.668 -25.23,-33.641 -4.55,-13.957 -6.83,-39.777 -6.83,-77.437 V 533.789 h -89.19 v 337.063 h 82.84 V 821.34 c 29.41,38.09 66.44,57.129 111.09,57.129 19.67,0 37.65,-3.539 53.95,-10.629 16.29,-7.09 28.61,-16.141 36.97,-27.129 8.36,-11.012 14.18,-23.492 17.46,-37.449 3.28,-13.973 4.92,-33.973 4.92,-59.992 V 533.789"
         style="fill:#ffffff;fill-opacity:1;fill-rule:nonzero;stroke:none"
         id="path90" /><path
         d="m 9375.86,731.211 c -0.64,25.809 -7.3,45.43 -19.99,58.867 -12.7,13.442 -28.15,20.16 -46.35,20.16 -19.46,0 -35.55,-7.09 -48.24,-21.269 -12.7,-14.18 -18.94,-33.43 -18.72,-57.758 z m -5.08,-90.141 88.87,-14.91 c -11.43,-32.59 -29.46,-57.41 -54.11,-74.441 -24.66,-17.028 -55.5,-25.539 -92.52,-25.539 -58.62,0 -101.99,19.148 -130.13,57.449 -22.22,30.672 -33.33,69.391 -33.33,116.16 0,55.859 14.61,99.602 43.81,131.231 29.2,31.628 66.11,47.449 110.76,47.449 50.15,0 89.71,-16.547 118.7,-49.668 28.99,-33.11 42.84,-83.84 41.57,-152.18 h -223.43 c 0.64,-26.449 7.83,-47.031 21.58,-61.73 13.76,-14.711 30.9,-22.063 51.42,-22.063 13.97,0 25.71,3.801 35.23,11.422 9.52,7.621 16.71,19.891 21.58,36.82"
         style="fill:#ffffff;fill-opacity:1;fill-rule:nonzero;stroke:none"
         id="path92" /></g></g></svg>
