<?xml version="1.0" encoding="UTF-8" standalone="no"?>
<!-- Created with Inkscape (http://www.inkscape.org/) -->

<svg
   version="1.1"
   id="svg2"
   xml:space="preserve"
   width="1358.7333"
   height="284.66666"
   viewBox="0 0 1358.7333 284.66666"
   sodipodi:docname="NL Gefinancierd door de Europese Unie_NEG.eps"
   xmlns:inkscape="http://www.inkscape.org/namespaces/inkscape"
   xmlns:sodipodi="http://sodipodi.sourceforge.net/DTD/sodipodi-0.dtd"
   xmlns="http://www.w3.org/2000/svg"
   xmlns:svg="http://www.w3.org/2000/svg"><defs
     id="defs6" /><sodipodi:namedview
     id="namedview4"
     pagecolor="#ffffff"
     bordercolor="#666666"
     borderopacity="1.0"
     inkscape:pageshadow="2"
     inkscape:pageopacity="0.0"
     inkscape:pagecheckerboard="0" /><g
     id="g8"
     inkscape:groupmode="layer"
     inkscape:label="ink_ext_XXXXXX"
     transform="matrix(1.3333333,0,0,-1.3333333,0,284.66667)"><g
       id="g10"
       transform="scale(0.1)"><path
         d="M 164.473,71.0586 H 3113.93 V 2073.9 H 164.473 V 71.0586"
         style="fill:#ffffff;fill-opacity:1;fill-rule:nonzero;stroke:none"
         id="path12" /><path
         d="M 221.191,128.281 H 3057.22 V 2018.97 H 221.191 V 128.281"
         style="fill:#264ca4;fill-opacity:1;fill-rule:nonzero;stroke:none"
         id="path14" /><path
         d="m 1578.78,1607.02 59.83,43.67 59.86,-43.67 -22.79,70.63 60.79,43.67 h -74.93 l -22.93,71.48 -22.93,-71.56 -74.88,0.08 60.74,-43.67 -22.76,-70.63"
         style="fill:#f5f014;fill-opacity:1;fill-rule:nonzero;stroke:none"
         id="path16" /><path
         d="m 1269.08,1523.82 59.85,43.67 59.81,-43.67 -22.74,70.63 60.75,43.68 h -74.93 l -22.92,71.55 -22.93,-71.64 -74.9,0.09 60.75,-43.68 -22.74,-70.63"
         style="fill:#f5f014;fill-opacity:1;fill-rule:nonzero;stroke:none"
         id="path18" /><path
         d="m 1102.32,1482.57 -22.93,-71.64 -74.88,0.09 60.74,-43.68 -22.76,-70.63 59.83,43.68 59.85,-43.68 -22.78,70.63 60.75,43.68 h -74.89 l -22.93,71.55"
         style="fill:#f5f014;fill-opacity:1;fill-rule:nonzero;stroke:none"
         id="path20" /><path
         d="m 1019.21,1031.08 59.8,-43.658 -22.73,70.608 60.73,43.68 h -74.87 l -22.93,71.56 -22.933,-71.72 -74.922,0.16 60.786,-43.68 -22.778,-70.608 59.847,43.658"
         style="fill:#f5f014;fill-opacity:1;fill-rule:nonzero;stroke:none"
         id="path22" /><path
         d="m 1125.25,791.48 -22.93,71.559 -22.93,-71.641 -74.88,0.082 60.74,-43.66 -22.76,-70.64 59.83,43.75 59.85,-43.75 -22.78,70.64 60.75,43.66 h -74.89"
         style="fill:#f5f014;fill-opacity:1;fill-rule:nonzero;stroke:none"
         id="path24" /><path
         d="m 1352.29,564.461 -22.93,71.469 -22.9,-71.559 -74.92,0.09 60.75,-43.68 -22.73,-70.633 59.83,43.672 59.81,-43.672 -22.74,70.633 60.75,43.68 h -74.92"
         style="fill:#f5f014;fill-opacity:1;fill-rule:nonzero;stroke:none"
         id="path26" /><path
         d="m 1661.58,482.18 -22.93,71.558 -22.89,-71.636 -74.91,0.078 60.73,-43.668 -22.72,-70.633 59.83,43.68 59.81,-43.68 -22.78,70.633 60.78,43.668 h -74.92"
         style="fill:#f5f014;fill-opacity:1;fill-rule:nonzero;stroke:none"
         id="path28" /><path
         d="m 1970.89,564.461 -22.89,71.469 -22.97,-71.559 -74.84,0.09 60.7,-43.68 -22.74,-70.633 59.85,43.672 59.83,-43.672 -22.8,70.633 60.78,43.68 h -74.92"
         style="fill:#f5f014;fill-opacity:1;fill-rule:nonzero;stroke:none"
         id="path30" /><path
         d="m 2198,791.48 -22.97,71.559 -22.97,-71.641 -74.84,0.082 60.78,-43.66 -22.81,-70.64 59.84,43.75 59.83,-43.75 -22.8,70.64 60.77,43.66 H 2198"
         style="fill:#f5f014;fill-opacity:1;fill-rule:nonzero;stroke:none"
         id="path32" /><path
         d="m 2355.11,1102.57 h -74.92 l -22.97,71.57 -22.89,-71.65 -74.93,0.08 60.79,-43.67 -22.75,-70.619 59.78,43.749 59.84,-43.749 -22.73,70.619 60.78,43.67"
         style="fill:#f5f014;fill-opacity:1;fill-rule:nonzero;stroke:none"
         id="path34" /><path
         d="m 2115.18,1297.66 59.84,43.66 59.84,-43.66 -22.8,70.63 60.77,43.59 h -74.84 l -22.97,71.55 -22.96,-71.64 -74.85,0.09 60.78,-43.59 -22.81,-70.63"
         style="fill:#f5f014;fill-opacity:1;fill-rule:nonzero;stroke:none"
         id="path36" /><path
         d="m 1948.86,1709.6 -22.89,-71.64 -74.93,0.17 60.71,-43.75 -22.74,-70.64 59.93,43.75 59.75,-43.75 -22.72,70.64 60.78,43.75 h -75 l -22.89,71.47"
         style="fill:#f5f014;fill-opacity:1;fill-rule:nonzero;stroke:none"
         id="path38" /><path
         d="m 3704.84,1461.7 v 78.39 h 202.48 v -185.36 c -19.66,-19.04 -48.18,-35.8 -85.52,-50.3 -37.36,-14.49 -75.18,-21.73 -113.47,-21.73 -48.67,0 -91.08,10.2 -127.28,30.62 -36.17,20.41 -63.36,49.61 -81.56,87.6 -18.2,37.97 -27.29,79.28 -27.29,123.93 0,48.45 10.15,91.52 30.47,129.17 20.31,37.67 50.04,66.55 89.19,86.65 29.82,15.44 66.96,23.18 111.39,23.18 57.77,0 102.88,-12.12 135.36,-36.35 32.48,-24.23 53.37,-57.71 62.69,-100.45 l -93.31,-17.46 c -6.56,22.85 -18.89,40.89 -36.97,54.12 -18.1,13.22 -40.69,19.83 -67.77,19.83 -41.05,0 -73.69,-13.01 -97.91,-39.03 -24.23,-26.03 -36.34,-64.65 -36.34,-115.85 0,-55.22 12.27,-96.64 36.82,-124.26 24.54,-27.6 56.7,-41.41 96.48,-41.41 19.67,0 39.41,3.85 59.19,11.58 19.78,7.72 36.76,17.09 50.94,28.09 v 59.04 h -107.59"
         style="fill:#ffffff;fill-opacity:1;fill-rule:nonzero;stroke:none"
         id="path40" /><path
         d="m 4193.6,1488.04 c -0.63,25.81 -7.29,45.44 -19.99,58.87 -12.69,13.43 -28.14,20.16 -46.34,20.16 -19.47,0 -35.55,-7.1 -48.25,-21.27 -12.69,-14.18 -18.93,-33.44 -18.72,-57.76 z m -5.07,-90.14 88.86,-14.91 c -11.42,-32.59 -29.46,-57.4 -54.11,-74.44 -24.66,-17.03 -55.5,-25.54 -92.52,-25.54 -58.61,0 -101.99,19.15 -130.13,57.44 -22.21,30.68 -33.33,69.4 -33.33,116.17 0,55.86 14.61,99.6 43.81,131.23 29.2,31.63 66.12,47.45 110.77,47.45 50.14,0 89.7,-16.56 118.7,-49.67 28.98,-33.11 42.84,-83.84 41.57,-152.18 h -223.44 c 0.65,-26.46 7.83,-47.04 21.58,-61.73 13.76,-14.71 30.9,-22.06 51.43,-22.06 13.96,0 25.7,3.8 35.22,11.42 9.52,7.62 16.71,19.88 21.59,36.82"
         style="fill:#ffffff;fill-opacity:1;fill-rule:nonzero;stroke:none"
         id="path42" /><path
         d="m 4568.44,1290.63 v 337.05 h 89.18 v -337.05 z m 0,382.76 v 82.52 h 89.18 v -82.52 z m -250.41,-45.71 h 49.51 v 25.39 c 0,28.36 3.01,49.52 9.04,63.48 6.03,13.97 17.14,25.33 33.32,34.12 16.19,8.78 36.66,13.18 61.42,13.18 25.39,0 50.25,-3.81 74.58,-11.43 l -12.05,-62.21 c -14.18,3.38 -27.83,5.08 -40.95,5.08 -12.91,0 -22.17,-3.02 -27.77,-9.05 -5.61,-6.03 -8.41,-17.61 -8.41,-34.76 v -23.8 h 66.65 v -70.14 h -66.65 v -266.91 h -89.18 v 266.91 h -49.51 v 70.14"
         style="fill:#ffffff;fill-opacity:1;fill-rule:nonzero;stroke:none"
         id="path44" /><path
         d="m 5058.48,1290.63 h -89.18 v 172.01 c 0,36.39 -1.91,59.94 -5.72,70.62 -3.8,10.69 -10,18.99 -18.56,24.92 -8.57,5.92 -18.89,8.89 -30.95,8.89 -15.45,0 -29.3,-4.24 -41.57,-12.69 -12.28,-8.47 -20.69,-19.69 -25.23,-33.66 -4.56,-13.96 -6.83,-39.77 -6.83,-77.44 v -152.65 h -89.19 v 337.05 h 82.84 v -49.51 c 29.41,38.09 66.44,57.13 111.09,57.13 19.67,0 37.65,-3.54 53.95,-10.63 16.29,-7.09 28.61,-16.13 36.97,-27.13 8.36,-11.01 14.18,-23.5 17.46,-37.46 3.28,-13.97 4.92,-33.96 4.92,-59.98 v -209.47"
         style="fill:#ffffff;fill-opacity:1;fill-rule:nonzero;stroke:none"
         id="path46" /><path
         d="m 5334.91,1452.49 c -11.42,-3.81 -29.51,-8.36 -54.27,-13.64 -24.75,-5.3 -40.94,-10.48 -48.56,-15.56 -11.63,-8.25 -17.45,-18.72 -17.45,-31.41 0,-12.5 4.65,-23.29 13.96,-32.39 9.31,-9.09 21.16,-13.64 35.55,-13.64 16.07,0 31.42,5.28 46.03,15.87 10.78,8.03 17.87,17.88 21.26,29.51 2.32,7.62 3.48,22.11 3.48,43.48 z m -119.33,72.36 -80.93,14.6 c 9.09,32.58 24.75,56.7 46.97,72.37 22.22,15.65 55.23,23.48 99.02,23.48 39.78,0 69.4,-4.71 88.87,-14.12 19.46,-9.42 33.17,-21.38 41.11,-35.87 7.92,-14.49 11.89,-41.09 11.89,-79.82 l -0.95,-104.1 c 0,-29.62 1.43,-51.47 4.29,-65.54 2.85,-14.07 8.19,-29.15 16.03,-45.22 h -88.24 c -2.33,5.91 -5.18,14.7 -8.57,26.34 -1.48,5.28 -2.54,8.77 -3.17,10.47 -15.23,-14.81 -31.53,-25.92 -48.88,-33.32 -17.35,-7.41 -35.86,-11.11 -55.54,-11.11 -34.71,0 -62.05,9.41 -82.04,28.24 -20,18.84 -30,42.64 -30,71.41 0,19.05 4.55,36.03 13.65,50.94 9.09,14.92 21.85,26.35 38.24,34.28 16.4,7.94 40.04,14.86 70.94,20.79 41.68,7.82 70.57,15.13 86.64,21.9 v 8.88 c 0,17.15 -4.23,29.37 -12.69,36.66 -8.46,7.31 -24.44,10.96 -47.92,10.96 -15.87,0 -28.26,-3.12 -37.14,-9.37 -8.89,-6.25 -16.08,-17.19 -21.58,-32.85"
         style="fill:#ffffff;fill-opacity:1;fill-rule:nonzero;stroke:none"
         id="path48" /><path
         d="m 5817.01,1290.63 h -89.18 v 172.01 c 0,36.39 -1.9,59.94 -5.71,70.62 -3.81,10.69 -10,18.99 -18.57,24.92 -8.57,5.92 -18.88,8.89 -30.94,8.89 -15.45,0 -29.31,-4.24 -41.57,-12.69 -12.28,-8.47 -20.7,-19.69 -25.24,-33.66 -4.55,-13.96 -6.83,-39.77 -6.83,-77.44 v -152.65 h -89.18 v 337.05 h 82.84 v -49.51 c 29.4,38.09 66.43,57.13 111.08,57.13 19.68,0 37.66,-3.54 53.96,-10.63 16.29,-7.09 28.61,-16.13 36.97,-27.13 8.36,-11.01 14.18,-23.5 17.46,-37.46 3.27,-13.97 4.91,-33.96 4.91,-59.98 v -209.47"
         style="fill:#ffffff;fill-opacity:1;fill-rule:nonzero;stroke:none"
         id="path50" /><path
         d="m 6201.37,1528.03 -87.91,-15.87 c -2.97,17.55 -9.68,30.79 -20.16,39.68 -10.47,8.88 -24.07,13.32 -40.78,13.32 -22.22,0 -39.94,-7.67 -53.16,-23.01 -13.23,-15.35 -19.84,-41 -19.84,-76.97 0,-39.98 6.72,-68.23 20.16,-84.73 13.43,-16.5 31.46,-24.77 54.11,-24.77 16.92,0 30.78,4.82 41.58,14.45 10.78,9.62 18.4,26.18 22.85,49.67 l 87.6,-14.92 c -9.1,-40.2 -26.56,-70.56 -52.37,-91.09 -25.82,-20.52 -60.41,-30.78 -103.78,-30.78 -49.31,0 -88.62,15.54 -117.91,46.66 -29.31,31.09 -43.97,74.15 -43.97,129.17 0,55.64 14.71,98.96 44.12,129.97 29.41,30.99 69.19,46.49 119.34,46.49 41.04,0 73.68,-8.84 97.91,-26.5 24.23,-17.67 41.63,-44.59 52.21,-80.77"
         style="fill:#ffffff;fill-opacity:1;fill-rule:nonzero;stroke:none"
         id="path52" /><path
         d="m 6268.98,1290.63 v 337.05 h 89.18 v -337.05 z m 0,382.76 v 82.52 h 89.18 v -82.52 h -89.18"
         style="fill:#ffffff;fill-opacity:1;fill-rule:nonzero;stroke:none"
         id="path54" /><path
         d="m 6649.83,1488.04 c -0.63,25.81 -7.29,45.44 -19.99,58.87 -12.69,13.43 -28.14,20.16 -46.34,20.16 -19.47,0 -35.55,-7.1 -48.25,-21.27 -12.69,-14.18 -18.93,-33.44 -18.72,-57.76 z m -5.07,-90.14 88.86,-14.91 c -11.42,-32.59 -29.46,-57.4 -54.11,-74.44 -24.66,-17.03 -55.5,-25.54 -92.52,-25.54 -58.61,0 -101.99,19.15 -130.12,57.44 -22.22,30.68 -33.33,69.4 -33.33,116.17 0,55.86 14.6,99.6 43.8,131.23 29.2,31.63 66.12,47.45 110.77,47.45 50.14,0 89.7,-16.56 118.7,-49.67 28.98,-33.11 42.84,-83.84 41.57,-152.18 h -223.44 c 0.65,-26.46 7.83,-47.04 21.58,-61.73 13.76,-14.71 30.9,-22.06 51.43,-22.06 13.96,0 25.7,3.8 35.22,11.42 9.53,7.62 16.71,19.88 21.59,36.82"
         style="fill:#ffffff;fill-opacity:1;fill-rule:nonzero;stroke:none"
         id="path56" /><path
         d="m 6896.45,1290.63 h -89.18 v 337.05 h 82.83 v -47.91 c 14.17,22.63 26.92,37.54 38.24,44.74 11.32,7.19 24.17,10.79 38.56,10.79 20.32,0 39.89,-5.6 58.73,-16.82 l -27.62,-77.76 c -15.03,9.73 -29,14.6 -41.9,14.6 -12.49,0 -23.06,-3.44 -31.73,-10.31 -8.69,-6.88 -15.5,-19.32 -20.47,-37.3 -4.98,-17.98 -7.46,-55.65 -7.46,-112.98 v -104.1"
         style="fill:#ffffff;fill-opacity:1;fill-rule:nonzero;stroke:none"
         id="path58" /><path
         d="m 7135.12,1466.45 c 0,-35.97 4.96,-62 14.91,-78.07 14.38,-23.28 34.48,-34.92 60.3,-34.92 20.52,0 37.98,8.74 52.37,26.19 14.39,17.46 21.58,43.53 21.58,78.24 0,38.71 -6.98,66.59 -20.94,83.62 -13.96,17.03 -31.86,25.56 -53.64,25.56 -21.16,0 -38.88,-8.42 -53.17,-25.23 -14.27,-16.83 -21.41,-41.96 -21.41,-75.39 z m 238.02,-175.82 h -82.83 v 49.51 c -13.76,-19.26 -29.99,-33.6 -48.72,-43.01 -18.72,-9.42 -37.61,-14.12 -56.65,-14.12 -38.72,0 -71.88,15.6 -99.5,46.81 -27.61,31.2 -41.42,74.75 -41.42,130.61 0,57.13 13.44,100.55 40.32,130.28 26.86,29.73 60.82,44.59 101.87,44.59 37.66,0 70.25,-15.66 97.75,-46.97 v 167.58 h 89.18 v -465.28"
         style="fill:#ffffff;fill-opacity:1;fill-rule:nonzero;stroke:none"
         id="path60" /><path
         d="m 7712.75,1466.45 c 0,-35.97 4.96,-62 14.92,-78.07 14.38,-23.28 34.48,-34.92 60.3,-34.92 20.52,0 37.98,8.74 52.36,26.19 14.4,17.46 21.58,43.53 21.58,78.24 0,38.71 -6.97,66.59 -20.93,83.62 -13.97,17.03 -31.86,25.56 -53.65,25.56 -21.16,0 -38.87,-8.42 -53.16,-25.23 -14.28,-16.83 -21.42,-41.96 -21.42,-75.39 z m 238.03,-175.82 h -82.83 v 49.51 c -13.76,-19.26 -29.99,-33.6 -48.72,-43.01 -18.72,-9.42 -37.61,-14.12 -56.65,-14.12 -38.72,0 -71.89,15.6 -99.5,46.81 -27.61,31.2 -41.42,74.75 -41.42,130.61 0,57.13 13.44,100.55 40.31,130.28 26.87,29.73 60.82,44.59 101.88,44.59 37.65,0 70.24,-15.66 97.75,-46.97 v 167.58 h 89.18 v -465.28"
         style="fill:#ffffff;fill-opacity:1;fill-rule:nonzero;stroke:none"
         id="path62" /><path
         d="m 8109.48,1459.16 c 0,-33.44 7.94,-59.04 23.8,-76.82 15.88,-17.77 35.44,-26.66 58.72,-26.66 23.27,0 42.79,8.89 58.56,26.66 15.76,17.78 23.64,43.6 23.64,77.45 0,33 -7.88,58.39 -23.64,76.17 -15.77,17.77 -35.29,26.66 -58.56,26.66 -23.28,0 -42.84,-8.89 -58.72,-26.66 -15.86,-17.78 -23.8,-43.37 -23.8,-76.8 z m -91.4,4.75 c 0,29.63 7.29,58.3 21.9,86.01 14.59,27.72 35.27,48.89 62.04,63.48 26.77,14.61 56.65,21.9 89.66,21.9 51,0 92.78,-16.56 125.37,-49.67 32.58,-33.11 48.88,-74.96 48.88,-125.52 0,-51 -16.46,-93.27 -49.36,-126.8 -32.9,-33.54 -74.31,-50.3 -124.25,-50.3 -30.89,0 -60.36,6.98 -88.39,20.94 -28.04,13.97 -49.36,34.44 -63.95,61.42 -14.61,26.97 -21.9,59.83 -21.9,98.54"
         style="fill:#ffffff;fill-opacity:1;fill-rule:nonzero;stroke:none"
         id="path64" /><path
         d="m 8506.52,1459.16 c 0,-33.44 7.94,-59.04 23.8,-76.82 15.88,-17.77 35.44,-26.66 58.72,-26.66 23.27,0 42.8,8.89 58.56,26.66 15.76,17.78 23.64,43.6 23.64,77.45 0,33 -7.88,58.39 -23.64,76.17 -15.76,17.77 -35.29,26.66 -58.56,26.66 -23.28,0 -42.84,-8.89 -58.72,-26.66 -15.86,-17.78 -23.8,-43.37 -23.8,-76.8 z m -91.4,4.75 c 0,29.63 7.29,58.3 21.9,86.01 14.59,27.72 35.27,48.89 62.04,63.48 26.77,14.61 56.65,21.9 89.66,21.9 51,0 92.78,-16.56 125.37,-49.67 32.58,-33.11 48.88,-74.96 48.88,-125.52 0,-51 -16.46,-93.27 -49.36,-126.8 -32.9,-33.54 -74.31,-50.3 -124.24,-50.3 -30.9,0 -60.37,6.98 -88.4,20.94 -28.04,13.97 -49.36,34.44 -63.95,61.42 -14.61,26.97 -21.9,59.83 -21.9,98.54"
         style="fill:#ffffff;fill-opacity:1;fill-rule:nonzero;stroke:none"
         id="path66" /><path
         d="m 8918.16,1290.63 h -89.18 v 337.05 h 82.84 v -47.91 c 14.17,22.63 26.92,37.54 38.24,44.74 11.32,7.19 24.17,10.79 38.56,10.79 20.32,0 39.89,-5.6 58.72,-16.82 l -27.61,-77.76 c -15.03,9.73 -29,14.6 -41.9,14.6 -12.49,0 -23.06,-3.44 -31.74,-10.31 -8.68,-6.88 -15.49,-19.32 -20.46,-37.3 -4.99,-17.98 -7.47,-55.65 -7.47,-112.98 v -104.1"
         style="fill:#ffffff;fill-opacity:1;fill-rule:nonzero;stroke:none"
         id="path68" /><path
         d="m 3558.85,686.461 c 0,-35.981 4.96,-62 14.91,-78.082 14.38,-23.277 34.48,-34.91 60.3,-34.91 20.52,0 37.98,8.73 52.37,26.179 14.39,17.461 21.58,43.543 21.58,78.243 0,38.718 -6.97,66.597 -20.94,83.629 -13.96,17.031 -31.86,25.55 -53.64,25.55 -21.16,0 -38.88,-8.41 -53.17,-25.23 -14.27,-16.828 -21.41,-41.949 -21.41,-75.379 z m 238.03,-175.832 h -82.84 v 49.512 c -13.76,-19.262 -29.99,-33.59 -48.72,-43.012 -18.72,-9.41 -37.61,-14.117 -56.65,-14.117 -38.72,0 -71.88,15.609 -99.5,46.816 -27.61,31.203 -41.42,74.742 -41.42,130.602 0,57.129 13.44,100.55 40.32,130.289 26.86,29.722 60.82,44.59 101.87,44.59 37.66,0 70.25,-15.668 97.76,-46.981 V 975.91 h 89.18 V 510.629"
         style="fill:#ffffff;fill-opacity:1;fill-rule:nonzero;stroke:none"
         id="path70" /><path
         d="m 4085.07,708.039 c -0.64,25.813 -7.3,45.441 -19.99,58.883 -12.7,13.43 -28.15,20.148 -46.35,20.148 -19.46,0 -35.55,-7.101 -48.24,-21.269 -12.7,-14.18 -18.94,-33.43 -18.72,-57.762 z m -5.08,-90.141 88.87,-14.91 c -11.43,-32.59 -29.47,-57.398 -54.11,-74.429 -24.66,-17.028 -55.5,-25.547 -92.52,-25.547 -58.62,0 -102,19.148 -130.13,57.437 -22.22,30.692 -33.33,69.41 -33.33,116.172 0,55.859 14.61,99.598 43.81,131.238 29.2,31.629 66.11,47.45 110.76,47.45 50.15,0 89.71,-16.571 118.7,-49.668 28.99,-33.121 42.84,-83.852 41.57,-152.192 h -223.43 c 0.64,-26.449 7.83,-47.027 21.58,-61.73 13.76,-14.699 30.9,-22.059 51.42,-22.059 13.97,0 25.71,3.809 35.23,11.43 9.52,7.609 16.71,19.879 21.58,36.808"
         style="fill:#ffffff;fill-opacity:1;fill-rule:nonzero;stroke:none"
         id="path72" /><path
         d="M 4427.52,510.629 V 975.91 h 345 V 897.199 H 4521.46 V 794.051 h 233.6 V 715.66 h -233.6 V 589.031 h 259.95 v -78.402 h -353.89"
         style="fill:#ffffff;fill-opacity:1;fill-rule:nonzero;stroke:none"
         id="path74" /><path
         d="m 5082.28,510.629 v 50.473 c -12.28,-17.993 -28.41,-32.172 -48.4,-42.543 -20,-10.36 -41.11,-15.547 -63.32,-15.547 -22.65,0 -42.96,4.968 -60.94,14.918 -17.99,9.941 -31,23.91 -39.03,41.898 -8.05,17.981 -12.07,42.844 -12.07,74.582 v 213.281 h 89.19 V 692.809 c 0,-47.411 1.64,-76.438 4.92,-87.118 3.27,-10.703 9.25,-19.152 17.93,-25.39 8.67,-6.25 19.67,-9.371 33,-9.371 15.24,0 28.88,4.179 40.95,12.539 12.05,8.351 20.31,18.722 24.75,31.101 4.45,12.379 6.67,42.692 6.67,90.93 v 142.191 h 89.19 V 510.629 h -82.84"
         style="fill:#ffffff;fill-opacity:1;fill-rule:nonzero;stroke:none"
         id="path76" /><path
         d="m 5342.85,510.629 h -89.18 v 337.062 h 82.83 V 799.77 c 14.17,22.64 26.93,37.55 38.25,44.75 11.31,7.179 24.17,10.789 38.56,10.789 20.31,0 39.88,-5.61 58.72,-16.829 l -27.62,-77.75 c -15.03,9.719 -28.99,14.598 -41.89,14.598 -12.49,0 -23.07,-3.437 -31.74,-10.316 -8.68,-6.883 -15.5,-19.313 -20.47,-37.293 -4.98,-17.989 -7.46,-55.66 -7.46,-112.989 V 510.629"
         style="fill:#ffffff;fill-opacity:1;fill-rule:nonzero;stroke:none"
         id="path78" /><path
         d="m 5581.2,679.16 c 0,-33.43 7.94,-59.039 23.8,-76.808 15.88,-17.782 35.44,-26.661 58.72,-26.661 23.27,0 42.79,8.879 58.56,26.661 15.76,17.769 23.64,43.589 23.64,77.437 0,33.012 -7.88,58.402 -23.64,76.172 -15.77,17.769 -35.29,26.66 -58.56,26.66 -23.28,0 -42.84,-8.891 -58.72,-26.66 -15.86,-17.77 -23.8,-43.371 -23.8,-76.801 z m -91.41,4.762 c 0,29.617 7.3,58.289 21.91,86.008 14.59,27.718 35.27,48.879 62.04,63.468 26.77,14.614 56.65,21.911 89.66,21.911 50.99,0 92.78,-16.571 125.37,-49.668 32.58,-33.121 48.88,-74.961 48.88,-125.532 0,-50.988 -16.46,-93.257 -49.36,-126.8 -32.9,-33.528 -74.32,-50.297 -124.25,-50.297 -30.9,0 -60.36,6.976 -88.4,20.949 -28.03,13.961 -49.35,34.43 -63.94,61.41 -14.61,26.981 -21.91,59.828 -21.91,98.551"
         style="fill:#ffffff;fill-opacity:1;fill-rule:nonzero;stroke:none"
         id="path80" /><path
         d="m 5993.16,684.871 c 0,-37.871 7.51,-65.851 22.54,-83.949 15.02,-18.082 33.32,-27.133 54.91,-27.133 20.74,0 37.97,8.301 51.73,24.91 13.75,16.61 20.63,43.852 20.63,81.731 0,35.34 -7.09,61.57 -21.26,78.711 -14.18,17.129 -31.74,25.711 -52.69,25.711 -21.79,0 -39.88,-8.411 -54.27,-25.243 -14.39,-16.808 -21.59,-41.738 -21.59,-74.738 z m -88.22,162.82 h 83.15 V 798.18 c 10.8,16.922 25.39,30.672 43.8,41.261 18.4,10.571 38.82,15.868 61.25,15.868 39.15,0 72.37,-15.348 99.66,-46.028 27.3,-30.672 40.95,-73.422 40.95,-128.222 0,-56.278 -13.76,-100.028 -41.27,-131.231 -27.5,-31.207 -60.83,-46.816 -99.97,-46.816 -18.62,0 -35.5,3.699 -50.63,11.109 -15.12,7.41 -31.05,20.098 -47.76,38.09 V 382.41 h -89.18 v 465.281"
         style="fill:#ffffff;fill-opacity:1;fill-rule:nonzero;stroke:none"
         id="path82" /><path
         d="m 6504.79,708.039 c -0.63,25.813 -7.29,45.441 -19.99,58.883 -12.69,13.43 -28.14,20.148 -46.34,20.148 -19.47,0 -35.55,-7.101 -48.25,-21.269 -12.69,-14.18 -18.93,-33.43 -18.72,-57.762 z m -5.07,-90.141 88.86,-14.91 c -11.42,-32.59 -29.46,-57.398 -54.11,-74.429 -24.66,-17.028 -55.5,-25.547 -92.52,-25.547 -58.61,0 -101.99,19.148 -130.12,57.437 -22.22,30.692 -33.33,69.41 -33.33,116.172 0,55.859 14.61,99.598 43.8,131.238 29.2,31.629 66.12,47.45 110.77,47.45 50.14,0 89.7,-16.571 118.7,-49.668 28.98,-33.121 42.84,-83.852 41.57,-152.192 H 6369.9 c 0.65,-26.449 7.83,-47.027 21.58,-61.73 13.76,-14.699 30.9,-22.059 51.43,-22.059 13.97,0 25.7,3.809 35.22,11.43 9.53,7.609 16.71,19.879 21.59,36.808"
         style="fill:#ffffff;fill-opacity:1;fill-rule:nonzero;stroke:none"
         id="path84" /><path
         d="m 6634.6,606.801 89.5,13.64 c 3.81,-17.351 11.53,-30.519 23.18,-39.511 11.63,-8.989 27.93,-13.481 48.86,-13.481 23.07,0 40.42,4.223 52.05,12.692 7.84,5.918 11.75,13.847 11.75,23.8 0,6.77 -2.12,12.368 -6.35,16.829 -4.44,4.218 -14.39,8.128 -29.83,11.73 -71.94,15.871 -117.54,30.371 -136.8,43.48 -26.66,18.2 -39.98,43.489 -39.98,75.86 0,29.199 11.53,53.742 34.59,73.629 23.06,19.89 58.82,29.84 107.28,29.84 46.12,0 80.4,-7.508 102.83,-22.528 22.42,-15.031 37.87,-37.25 46.34,-66.66 l -84.1,-15.551 c -3.61,13.121 -10.43,23.16 -20.48,30.16 -10.05,6.969 -24.39,10.469 -43,10.469 -23.5,0 -40.31,-3.289 -50.47,-9.847 -6.78,-4.653 -10.16,-10.68 -10.16,-18.082 0,-6.348 2.96,-11.739 8.89,-16.2 8.04,-5.91 35.81,-14.269 83.31,-25.058 47.5,-10.801 80.67,-24.024 99.5,-39.684 18.62,-15.859 27.93,-37.976 27.93,-66.328 0,-30.898 -12.91,-57.441 -38.72,-79.672 -25.82,-22.207 -64,-33.316 -114.58,-33.316 -45.91,0 -82.25,9.308 -109.01,27.929 -26.77,18.61 -44.28,43.911 -52.53,75.86"
         style="fill:#ffffff;fill-opacity:1;fill-rule:nonzero;stroke:none"
         id="path86" /><path
         d="m 7227.78,708.039 c -0.63,25.813 -7.29,45.441 -19.99,58.883 -12.69,13.43 -28.14,20.148 -46.34,20.148 -19.47,0 -35.55,-7.101 -48.25,-21.269 -12.69,-14.18 -18.93,-33.43 -18.72,-57.762 z m -5.07,-90.141 88.86,-14.91 c -11.42,-32.59 -29.46,-57.398 -54.11,-74.429 -24.66,-17.028 -55.5,-25.547 -92.52,-25.547 -58.61,0 -101.99,19.148 -130.13,57.437 -22.21,30.692 -33.33,69.41 -33.33,116.172 0,55.859 14.61,99.598 43.81,131.238 29.2,31.629 66.12,47.45 110.76,47.45 50.15,0 89.71,-16.571 118.71,-49.668 28.98,-33.121 42.84,-83.852 41.57,-152.192 h -223.44 c 0.65,-26.449 7.83,-47.027 21.58,-61.73 13.76,-14.699 30.9,-22.059 51.43,-22.059 13.96,0 25.7,3.809 35.22,11.43 9.52,7.609 16.71,19.879 21.59,36.808"
         style="fill:#ffffff;fill-opacity:1;fill-rule:nonzero;stroke:none"
         id="path88" /><path
         d="m 7569.61,975.91 h 93.94 v -252 c 0,-39.988 1.16,-65.91 3.49,-77.75 4.01,-19.051 13.59,-34.34 28.72,-45.871 15.13,-11.539 35.81,-17.301 62.05,-17.301 26.66,0 46.76,5.453 60.31,16.352 13.53,10.89 21.68,24.281 24.44,40.148 2.74,15.871 4.12,42.211 4.12,79.032 v 257.39 h 93.95 V 731.531 c 0,-55.859 -2.54,-95.332 -7.62,-118.383 -5.08,-23.07 -14.45,-42.539 -28.09,-58.398 -13.65,-15.879 -31.89,-28.52 -54.74,-37.93 -22.86,-9.41 -52.7,-14.121 -89.52,-14.121 -44.43,0 -78.12,5.129 -101.08,15.391 -22.96,10.25 -41.1,23.582 -54.42,39.992 -13.34,16.398 -22.12,33.578 -26.35,51.566 -6.14,26.661 -9.2,66.024 -9.2,118.071 V 975.91"
         style="fill:#ffffff;fill-opacity:1;fill-rule:nonzero;stroke:none"
         id="path90" /><path
         d="m 8345.61,510.629 h -89.18 v 172.019 c 0,36.391 -1.91,59.93 -5.72,70.622 -3.81,10.679 -10,18.992 -18.56,24.921 -8.58,5.918 -18.89,8.879 -30.95,8.879 -15.45,0 -29.31,-4.23 -41.57,-12.691 -12.28,-8.469 -20.69,-19.688 -25.24,-33.649 -4.55,-13.968 -6.82,-39.781 -6.82,-77.441 v -152.66 h -89.19 v 337.062 h 82.84 V 798.18 c 29.41,38.082 66.44,57.129 111.08,57.129 19.68,0 37.66,-3.547 53.96,-10.637 16.29,-7.094 28.61,-16.133 36.97,-27.133 8.36,-11 14.18,-23.488 17.46,-37.461 3.27,-13.957 4.92,-33.949 4.92,-59.976 V 510.629"
         style="fill:#ffffff;fill-opacity:1;fill-rule:nonzero;stroke:none"
         id="path92" /><path
         d="m 8436.07,510.629 v 337.062 h 89.18 V 510.629 Z m 0,382.762 v 82.519 h 89.18 v -82.519 h -89.18"
         style="fill:#ffffff;fill-opacity:1;fill-rule:nonzero;stroke:none"
         id="path94" /><path
         d="m 8816.92,708.039 c -0.63,25.813 -7.29,45.441 -19.99,58.883 -12.69,13.43 -28.14,20.148 -46.34,20.148 -19.47,0 -35.55,-7.101 -48.25,-21.269 -12.69,-14.18 -18.93,-33.43 -18.72,-57.762 z m -5.07,-90.141 88.86,-14.91 c -11.42,-32.59 -29.46,-57.398 -54.11,-74.429 -24.66,-17.028 -55.5,-25.547 -92.52,-25.547 -58.61,0 -101.99,19.148 -130.12,57.437 -22.22,30.692 -33.33,69.41 -33.33,116.172 0,55.859 14.6,99.598 43.8,131.238 29.2,31.629 66.12,47.45 110.77,47.45 50.14,0 89.7,-16.571 118.7,-49.668 28.98,-33.121 42.84,-83.852 41.57,-152.192 h -223.44 c 0.65,-26.449 7.83,-47.027 21.58,-61.73 13.76,-14.699 30.9,-22.059 51.43,-22.059 13.96,0 25.7,3.809 35.22,11.43 9.53,7.609 16.71,19.879 21.59,36.808"
         style="fill:#ffffff;fill-opacity:1;fill-rule:nonzero;stroke:none"
         id="path96" /></g></g></svg>
