<svg width="162" height="64" viewBox="0 0 162 64" fill="none" xmlns="http://www.w3.org/2000/svg">
<g id="commoneuropeandataspaceforculturalheritage_landscape_b 2">
<g id="Group">
<path id="Vector" d="M21.8946 23.1025C21.3636 23.3809 20.6616 23.6193 19.7069 23.6193C18.1557 23.6193 17.2153 23.0897 16.4717 22.3857C15.4514 21.4049 15.0532 20.3041 15.0532 19.0033C15.0532 17.3985 15.7153 16.2449 16.4717 15.5425C17.3593 14.7073 18.4595 14.3745 19.7197 14.3745C20.3434 14.3745 21.0854 14.4801 21.893 14.9185V16.9345C21.0838 16.0065 20.0763 15.9393 19.7581 15.9393C17.9813 15.9393 16.8283 17.3985 16.8283 19.0289C16.8283 20.9921 18.3396 22.0529 19.8236 22.0529C20.6456 22.0529 21.3748 21.6945 21.8914 21.0849V23.1009L21.8946 23.1025Z" fill="white"/>
<path id="Vector_2" d="M32.5756 19.005C32.5756 21.6978 30.6406 23.621 27.8564 23.621C25.0722 23.621 23.1371 21.6978 23.1371 19.005C23.1371 16.3122 25.0722 14.3762 27.8564 14.3762C30.6406 14.3762 32.5756 16.3122 32.5756 19.005ZM30.8005 19.005C30.8005 17.2146 29.5803 15.941 27.858 15.941C26.1356 15.941 24.9155 17.2146 24.9155 19.005C24.9155 20.7954 26.1356 22.0546 27.858 22.0546C29.5803 22.0546 30.8005 20.7954 30.8005 19.005Z" fill="white"/>
<path id="Vector_3" d="M35.4382 14.5762H36.6839L39.03 20.1986L41.4831 14.5762H42.7289L44.2129 23.4226H42.4634L41.6686 17.9714L39.2954 23.4226H38.7117L36.4457 17.9714L35.5437 23.4226H33.7942L35.4382 14.5762Z" fill="white"/>
<path id="Vector_4" d="M47.0483 14.5762H48.2941L50.6401 20.1986L53.0933 14.5762H54.3391L55.8231 23.4226H54.0736L53.2788 17.9714L50.9056 23.4226H50.3219L48.0558 17.9714L47.1539 23.4226H45.4044L47.0483 14.5762Z" fill="white"/>
<path id="Vector_5" d="M66.4785 19.005C66.4785 21.6978 64.5435 23.621 61.7593 23.621C58.9751 23.621 57.0401 21.6978 57.0401 19.005C57.0401 16.3122 58.9751 14.3762 61.7593 14.3762C64.5435 14.3762 66.4785 16.3122 66.4785 19.005ZM64.7018 19.005C64.7018 17.2146 63.4817 15.941 61.7593 15.941C60.037 15.941 58.8168 17.2146 58.8168 19.005C58.8168 20.7954 60.037 22.0546 61.7593 22.0546C63.4817 22.0546 64.7018 20.7954 64.7018 19.005Z" fill="white"/>
<path id="Vector_6" d="M68.1465 23.4209V14.5745H69.3395L74.7208 20.4769V14.5745H76.4447V23.4209H75.2517L69.8688 17.5057V23.4209H68.1449H68.1465Z" fill="white"/>
<path id="Vector_7" d="M86.6092 16.0609H83.4284V18.0369H86.4781V19.5217H83.4284V21.9361H86.6092V23.4209H81.7045V14.5745H86.6092V16.0593V16.0609Z" fill="white"/>
<path id="Vector_8" d="M90.081 14.5762V20.133C90.081 20.8098 90.3065 21.221 90.5048 21.4466C90.7559 21.7522 91.2212 22.0562 91.9105 22.0562C92.5997 22.0562 93.0635 21.7506 93.3162 21.4466C93.5145 21.221 93.74 20.8098 93.74 20.133V14.5762H95.4639V19.9874C95.4639 20.8226 95.3312 21.6722 94.8018 22.349C94.1654 23.1842 93.0523 23.6226 91.9121 23.6226C90.7719 23.6226 89.6588 23.1858 89.0223 22.349C88.4914 21.6722 88.3603 20.8242 88.3603 19.9874V14.5762H90.0842H90.081Z" fill="white"/>
<path id="Vector_9" d="M100.114 14.5762C101.335 14.5762 101.957 14.8946 102.368 15.2386C103.044 15.8082 103.242 16.565 103.242 17.2274C103.242 18.0898 102.897 18.845 102.208 19.309C101.982 19.4674 101.664 19.6146 101.24 19.693L103.997 23.4194H101.85L99.4891 19.8658H99.2764V23.4194H97.5525V14.573H100.111L100.114 14.5762ZM99.2796 18.6466H99.7706C100.102 18.6466 101.467 18.6066 101.467 17.3074C101.467 16.0082 100.114 15.981 99.7978 15.981H99.2812V18.6466H99.2796Z" fill="white"/>
<path id="Vector_10" d="M114.256 19.005C114.256 21.6978 112.321 23.621 109.537 23.621C106.753 23.621 104.818 21.6978 104.818 19.005C104.818 16.3122 106.753 14.3762 109.537 14.3762C112.321 14.3762 114.256 16.3122 114.256 19.005ZM112.481 19.005C112.481 17.2146 111.261 15.941 109.538 15.941C107.816 15.941 106.596 17.2146 106.596 19.005C106.596 20.7954 107.816 22.0546 109.538 22.0546C111.261 22.0546 112.481 20.7954 112.481 19.005Z" fill="white"/>
<path id="Vector_11" d="M118.497 14.5762C119.492 14.5762 120.181 14.6818 120.83 15.253C121.547 15.8898 121.732 16.7522 121.732 17.389C121.732 17.733 121.68 18.6882 121.003 19.365C120.512 19.8562 119.783 20.1474 118.763 20.1474H117.65V23.4226H115.926V14.5762H118.497ZM117.648 18.6594H118.35C118.681 18.6594 119.105 18.6594 119.477 18.381C119.796 18.1298 119.954 17.7314 119.954 17.3458C119.954 16.8546 119.716 16.5234 119.463 16.3378C119.105 16.085 118.654 16.0594 118.243 16.0594H117.646V18.6594H117.648Z" fill="white"/>
<path id="Vector_12" d="M127.987 16.0609H124.806V18.0369H127.856V19.5217H124.806V21.9361H127.987V23.4209H123.082V14.5745H127.987V16.0593V16.0609Z" fill="white"/>
<path id="Vector_13" d="M134.97 21.5649H131.404L130.622 23.4209H128.753L132.557 14.5745H133.909L137.607 23.4209H135.752L134.97 21.5649ZM134.467 20.1585L133.207 16.9761L131.948 20.1585H134.467Z" fill="white"/>
<path id="Vector_14" d="M138.721 23.4209V14.5745H139.914L145.295 20.4769V14.5745H147.019V23.4209H145.826L140.443 17.5057V23.4209H138.719H138.721Z" fill="white"/>
</g>
<g id="Group_2">
<path id="Vector_15" d="M50.9967 27.3584C52.2297 27.3584 53.3028 27.4912 54.2847 28.2208C55.3577 29.0304 55.9814 30.3168 55.9814 31.7888C55.9814 33.2608 55.3721 34.5344 54.2047 35.3568C53.17 36.0864 52.2025 36.2064 50.9695 36.2064H48.6891V27.36H50.9951L50.9967 27.3584ZM50.413 34.7184H50.944C51.3805 34.7184 52.3353 34.6912 53.1045 34.1344C53.8065 33.6304 54.2047 32.728 54.2047 31.7872C54.2047 30.8464 53.8209 29.9568 53.1173 29.4256C52.4024 28.8944 51.5261 28.8416 50.944 28.8416H50.413V34.7168V34.7184Z" fill="white"/>
<path id="Vector_16" d="M62.6069 34.3473H59.0407L58.2587 36.2033H56.3892L60.1937 27.3569H61.545L65.244 36.2033H63.3889L62.6069 34.3473ZM62.1031 32.9425L60.843 29.7601L59.5844 32.9425H62.1031Z" fill="white"/>
<path id="Vector_17" d="M68.6886 28.8432V36.2048H66.9647V28.8432H64.9769V27.3584H70.6764V28.8432H68.6886Z" fill="white"/>
<path id="Vector_18" d="M76.5615 34.3473H72.9953L72.2133 36.2033H70.3438L74.1483 27.3569H75.4996L79.1985 36.2033H77.3435L76.5615 34.3473ZM76.0593 32.9425L74.7992 29.7601L73.5406 32.9425H76.0593Z" fill="white"/>
<path id="Vector_19" d="M87.8278 29.3746C87.3112 28.685 86.7003 28.6194 86.3837 28.6194C85.4562 28.6194 85.1635 29.2034 85.1635 29.6546C85.1635 29.8674 85.2291 30.0658 85.4418 30.2514C85.6545 30.4498 85.9455 30.557 86.502 30.7554C87.1913 30.9938 87.8405 31.2322 88.2915 31.6434C88.6897 32.0018 89.0463 32.5986 89.0463 33.4994C89.0463 35.2242 87.8006 36.4034 85.9711 36.4034C84.3399 36.4034 83.3868 35.4082 82.923 34.733L84.0505 33.6594C84.4743 34.5218 85.2834 34.8402 85.9055 34.8402C86.6875 34.8402 87.2712 34.3634 87.2712 33.6194C87.2712 33.301 87.1657 33.0498 86.9258 32.8242C86.5948 32.5186 86.0639 32.3474 85.5601 32.1746C85.0963 32.0162 84.5398 31.8034 84.0888 31.405C83.7978 31.1538 83.3868 30.6626 83.3868 29.7602C83.3868 28.461 84.2616 27.1602 86.2238 27.1602C86.7803 27.1602 87.8278 27.2658 88.7297 28.1954L87.8278 29.3762V29.3746Z" fill="white"/>
<path id="Vector_20" d="M93.2075 27.3584C94.2022 27.3584 94.8914 27.464 95.5407 28.0352C96.2572 28.672 96.4427 29.5344 96.4427 30.1712C96.4427 30.5152 96.3899 31.4704 95.7134 32.1472C95.2225 32.6384 94.4932 32.9296 93.473 32.9296H92.3599V36.2048H90.636V27.3584H93.2075ZM92.3599 31.4432H93.062C93.393 31.4432 93.8168 31.4432 94.1894 31.1648C94.5076 30.9136 94.666 30.5152 94.666 30.1296C94.666 29.6384 94.4277 29.3072 94.175 29.1216C93.8168 28.8688 93.3658 28.8432 92.9548 28.8432H92.3583V31.4432H92.3599Z" fill="white"/>
<path id="Vector_21" d="M102.233 34.3473H98.6671L97.8851 36.2033H96.0156L99.8201 27.3569H101.171L104.87 36.2033H103.015L102.233 34.3473ZM101.73 32.9425L100.469 29.7601L99.2108 32.9425H101.73Z" fill="white"/>
<path id="Vector_22" d="M112.121 35.8864C111.59 36.1648 110.888 36.4032 109.933 36.4032C108.382 36.4032 107.442 35.8736 106.698 35.1696C105.678 34.1888 105.28 33.088 105.28 31.7872C105.28 30.1824 105.942 29.0288 106.698 28.3264C107.586 27.4912 108.686 27.1584 109.946 27.1584C110.57 27.1584 111.312 27.264 112.12 27.7024V29.7184C111.31 28.7904 110.303 28.7232 109.985 28.7232C108.208 28.7232 107.055 30.1824 107.055 31.8128C107.055 33.776 108.566 34.8368 110.05 34.8368C110.872 34.8368 111.601 34.4784 112.118 33.8688V35.8848L112.121 35.8864Z" fill="white"/>
<path id="Vector_23" d="M118.694 28.8433H115.513V30.8193H118.563V32.3041H115.513V34.7185H118.694V36.2033H113.789V27.3569H118.694V28.8417V28.8433Z" fill="white"/>
<path id="Vector_24" d="M128.303 28.8433H125.334V30.8193H128.118V32.3041H125.334V36.2033H123.61V27.3569H128.302V28.8417L128.303 28.8433Z" fill="white"/>
<path id="Vector_25" d="M138.88 31.789C138.88 34.4818 136.945 36.405 134.161 36.405C131.377 36.405 129.442 34.4818 129.442 31.789C129.442 29.0962 131.377 27.1602 134.161 27.1602C136.945 27.1602 138.88 29.0962 138.88 31.789ZM137.104 31.789C137.104 29.9986 135.884 28.725 134.161 28.725C132.439 28.725 131.219 29.9986 131.219 31.789C131.219 33.5794 132.439 34.8386 134.161 34.8386C135.884 34.8386 137.104 33.5794 137.104 31.789Z" fill="white"/>
<path id="Vector_26" d="M143.106 27.3584C144.326 27.3584 144.948 27.6768 145.359 28.0208C146.035 28.5904 146.234 29.3472 146.234 30.0096C146.234 30.872 145.888 31.6272 145.199 32.0912C144.973 32.2496 144.655 32.3968 144.231 32.4752L146.988 36.2016H144.841L142.48 32.648H142.268V36.2016H140.544V27.3552H143.102L143.106 27.3584ZM142.271 31.4304H142.762C143.093 31.4304 144.458 31.3904 144.458 30.0912C144.458 28.792 143.106 28.7648 142.789 28.7648H142.272V31.4304H142.271Z" fill="white"/>
</g>
<g id="Group_3">
<path id="Vector_27" d="M33.412 48.6833C32.881 48.9617 32.179 49.2001 31.2243 49.2001C29.6731 49.2001 28.7327 48.6705 27.9891 47.9665C26.9688 46.9857 26.5706 45.8849 26.5706 44.5841C26.5706 42.9793 27.2327 41.8257 27.9891 41.1233C28.8767 40.2881 29.9769 39.9553 31.2371 39.9553C31.8608 39.9553 32.6028 40.0609 33.4104 40.4993V42.5153C32.6012 41.5873 31.5937 41.5201 31.2754 41.5201C29.4987 41.5201 28.3457 42.9793 28.3457 44.6097C28.3457 46.5729 29.857 47.6337 31.341 47.6337C32.163 47.6337 32.8922 47.2753 33.4088 46.6657V48.6817L33.412 48.6833Z" fill="white"/>
<path id="Vector_28" d="M36.8039 40.1553V45.7121C36.8039 46.3889 37.0293 46.8001 37.2276 47.0257C37.4787 47.3313 37.9441 47.6353 38.6333 47.6353C39.3226 47.6353 39.7864 47.3297 40.039 47.0257C40.2373 46.8001 40.4628 46.3889 40.4628 45.7121V40.1553H42.1867V45.5665C42.1867 46.4017 42.054 47.2513 41.5247 47.9281C40.8882 48.7633 39.7752 49.2017 38.6349 49.2017C37.4947 49.2017 36.3817 48.7649 35.7452 47.9281C35.2143 47.2513 35.0831 46.4033 35.0831 45.5665V40.1553H36.8071H36.8039Z" fill="white"/>
<path id="Vector_29" d="M46.0008 40.1552V47.5152H48.7323V49H44.2785V40.1536H46.0024L46.0008 40.1552Z" fill="white"/>
<path id="Vector_30" d="M52.5496 41.6401V49.0017H50.8256V41.6401H48.8378V40.1553H54.5374V41.6401H52.5496Z" fill="white"/>
<path id="Vector_31" d="M57.4254 40.1553V45.7121C57.4254 46.3889 57.6509 46.8001 57.8492 47.0257C58.1003 47.3313 58.5657 47.6353 59.2549 47.6353C59.9442 47.6353 60.4079 47.3297 60.6606 47.0257C60.8589 46.8001 61.0844 46.3889 61.0844 45.7121V40.1553H62.8083V45.5665C62.8083 46.4017 62.6756 47.2513 62.1463 47.9281C61.5098 48.7633 60.3968 49.2017 59.2565 49.2017C58.1163 49.2017 57.0033 48.7649 56.3668 47.9281C55.8358 47.2513 55.7047 46.4033 55.7047 45.5665V40.1553H57.4286H57.4254Z" fill="white"/>
<path id="Vector_32" d="M67.4588 40.1553C68.679 40.1553 69.3011 40.4737 69.7121 40.8177C70.3885 41.3873 70.5868 42.1441 70.5868 42.8065C70.5868 43.6689 70.2414 44.4241 69.5522 44.8881C69.3267 45.0465 69.0084 45.1937 68.5847 45.2721L71.3417 48.9985H69.1939L66.8335 45.4449H66.6208V48.9985H64.8969V40.1521H67.4556L67.4588 40.1553ZM66.624 44.2257H67.115C67.446 44.2257 68.8117 44.1857 68.8117 42.8865C68.8117 41.5873 67.4588 41.5601 67.1422 41.5601H66.6256V44.2257H66.624Z" fill="white"/>
<path id="Vector_33" d="M77.8232 47.144H74.257L73.475 49H71.6055L75.41 40.1536H76.7613L80.4603 49H78.6052L77.8232 47.144ZM77.3194 45.7376L76.0593 42.5552L74.8007 45.7376H77.3194Z" fill="white"/>
<path id="Vector_34" d="M83.2956 40.1552V47.5152H86.0271V49H81.5733V40.1536H83.2972L83.2956 40.1552Z" fill="white"/>
<path id="Vector_35" d="M92.1888 43.576H95.9277V40.1536H97.6516V49H95.9277V45.0608H92.1888V49H90.4648V40.1536H92.1888V43.576Z" fill="white"/>
<path id="Vector_36" d="M104.648 41.64H101.467V43.616H104.517V45.1008H101.467V47.5152H104.648V49H99.7433V40.1536H104.648V41.6384V41.64Z" fill="white"/>
<path id="Vector_37" d="M108.955 40.1553C110.175 40.1553 110.797 40.4737 111.208 40.8177C111.884 41.3873 112.083 42.1441 112.083 42.8065C112.083 43.6689 111.737 44.4241 111.048 44.8881C110.823 45.0465 110.504 45.1937 110.081 45.2721L112.838 48.9985H110.69L108.329 45.4449H108.117V48.9985H106.393V40.1521H108.952L108.955 40.1553ZM108.12 44.2257H108.611C108.942 44.2257 110.308 44.1857 110.308 42.8865C110.308 41.5873 108.955 41.5601 108.638 41.5601H108.122V44.2257H108.12Z" fill="white"/>
<path id="Vector_38" d="M115.806 40.1553V49.0017H114.082V40.1553H115.806Z" fill="white"/>
<path id="Vector_39" d="M120.683 41.6401V49.0017H118.959V41.6401H116.971V40.1553H122.671V41.6401H120.683Z" fill="white"/>
<path id="Vector_40" d="M128.558 47.144H124.991L124.209 49H122.34L126.144 40.1536H127.496L131.195 49H129.34L128.558 47.144ZM128.054 45.7376L126.794 42.5552L125.535 45.7376H128.054Z" fill="white"/>
<path id="Vector_41" d="M136.389 44.2656H140.446V44.3712C140.446 44.968 140.366 46.824 139.148 48.032C138.233 48.9472 137.105 49.1984 136.005 49.1984C134.905 49.1984 133.765 48.9728 132.797 48.0048C132.492 47.6992 131.484 46.5856 131.484 44.5968C131.484 42.8864 132.253 41.8384 132.783 41.3072C133.445 40.6304 134.559 39.9536 136.269 39.9536C136.931 39.9536 137.635 40.0592 138.311 40.4176C138.88 40.7088 139.504 41.24 139.968 42.0352L138.469 42.8448C138.164 42.248 137.715 41.9424 137.435 41.7968C137.064 41.6112 136.6 41.5184 136.189 41.5184C135.487 41.5184 134.691 41.7696 134.148 42.3008C133.645 42.792 133.261 43.64 133.261 44.6352C133.261 45.816 133.765 46.5184 134.136 46.8768C134.534 47.2608 135.156 47.632 136.098 47.632C136.682 47.632 137.344 47.4736 137.835 47.1024C138.18 46.8368 138.524 46.3856 138.669 45.7488H136.389V44.264V44.2656Z" fill="white"/>
<path id="Vector_42" d="M147.019 41.64H143.838V43.616H146.888V45.1008H143.838V47.5152H147.019V49H142.114V40.1536H147.019V41.6384V41.64Z" fill="white"/>
</g>
<path id="Vector_43" d="M7.4986 17.2383V6.86548H17.7526V10.6159H11.2471V17.2383H7.4986Z" fill="#FFAC01"/>
<path id="Vector_44" d="M154.503 46.1377V56.5105H144.247V52.7601H150.753V46.1377H154.503Z" fill="#FFAC01"/>
</g>
</svg>
