<svg width="162" height="64" viewBox="0 0 162 64" fill="none" xmlns="http://www.w3.org/2000/svg">
<path d="M21.8941 23.1024C21.3632 23.3808 20.6611 23.6192 19.7064 23.6192C18.1552 23.6192 17.2148 23.0896 16.4712 22.3856C15.4509 21.4048 15.0527 20.304 15.0527 19.0032C15.0527 17.3984 15.7148 16.2448 16.4712 15.5424C17.3588 14.7072 18.459 14.3744 19.7192 14.3744C20.3429 14.3744 21.0849 14.48 21.8925 14.9184V16.9344C21.0833 16.0064 20.0758 15.9392 19.7576 15.9392C17.9809 15.9392 16.8278 17.3984 16.8278 19.0288C16.8278 20.992 18.3391 22.0528 19.8231 22.0528C20.6451 22.0528 21.3744 21.6944 21.8909 21.0848V23.1008L21.8941 23.1024Z" fill="white"/>
<path d="M32.5751 19.0048C32.5751 21.6976 30.6401 23.6208 27.8559 23.6208C25.0717 23.6208 23.1367 21.6976 23.1367 19.0048C23.1367 16.312 25.0717 14.376 27.8559 14.376C30.6401 14.376 32.5751 16.312 32.5751 19.0048ZM30.8 19.0048C30.8 17.2144 29.5798 15.9408 27.8575 15.9408C26.1351 15.9408 24.915 17.2144 24.915 19.0048C24.915 20.7952 26.1351 22.0544 27.8575 22.0544C29.5798 22.0544 30.8 20.7952 30.8 19.0048Z" fill="white"/>
<path d="M35.4369 14.576H36.6827L39.0287 20.1984L41.4819 14.576H42.7277L44.2117 23.4224H42.4622L41.6674 17.9712L39.2942 23.4224H38.7105L36.4444 17.9712L35.5425 23.4224H33.793L35.4369 14.576Z" fill="white"/>
<path d="M47.0483 14.576H48.294L50.6401 20.1984L53.0932 14.576H54.339L55.823 23.4224H54.0735L53.2787 17.9712L50.9055 23.4224H50.3218L48.0558 17.9712L47.1538 23.4224H45.4043L47.0483 14.576Z" fill="white"/>
<path d="M66.4775 19.0048C66.4775 21.6976 64.5425 23.6208 61.7583 23.6208C58.9741 23.6208 57.0391 21.6976 57.0391 19.0048C57.0391 16.312 58.9741 14.376 61.7583 14.376C64.5425 14.376 66.4775 16.312 66.4775 19.0048ZM64.7008 19.0048C64.7008 17.2144 63.4806 15.9408 61.7583 15.9408C60.036 15.9408 58.8158 17.2144 58.8158 19.0048C58.8158 20.7952 60.036 22.0544 61.7583 22.0544C63.4806 22.0544 64.7008 20.7952 64.7008 19.0048Z" fill="white"/>
<path d="M68.146 23.4208V14.5744H69.339L74.7203 20.4768V14.5744H76.4442V23.4208H75.2512L69.8683 17.5056V23.4208H68.1444H68.146Z" fill="white"/>
<path d="M86.6079 16.0608H83.4271V18.0368H86.4767V19.5216H83.4271V21.936H86.6079V23.4208H81.7031V14.5744H86.6079V16.0592V16.0608Z" fill="white"/>
<path d="M90.0801 14.576V20.1328C90.0801 20.8096 90.3056 21.2208 90.5039 21.4464C90.755 21.752 91.2203 22.056 91.9096 22.056C92.5988 22.056 93.0626 21.7504 93.3153 21.4464C93.5136 21.2208 93.7391 20.8096 93.7391 20.1328V14.576H95.463V19.9872C95.463 20.8224 95.3303 21.672 94.8009 22.3488C94.1644 23.184 93.0514 23.6224 91.9112 23.6224C90.771 23.6224 89.6579 23.1856 89.0214 22.3488C88.4905 21.672 88.3594 20.824 88.3594 19.9872V14.576H90.0833H90.0801Z" fill="white"/>
<path d="M100.115 14.576C101.335 14.576 101.957 14.8944 102.368 15.2384C103.044 15.808 103.243 16.5648 103.243 17.2272C103.243 18.0896 102.897 18.8448 102.208 19.3088C101.983 19.4672 101.664 19.6144 101.24 19.6928L103.997 23.4192H101.85L99.4894 19.8656H99.2767V23.4192H97.5527V14.5728H100.111L100.115 14.576ZM99.2799 18.6464H99.7708C100.102 18.6464 101.468 18.6064 101.468 17.3072C101.468 16.008 100.115 15.9808 99.798 15.9808H99.2815V18.6464H99.2799Z" fill="white"/>
<path d="M114.255 19.0048C114.255 21.6976 112.32 23.6208 109.536 23.6208C106.751 23.6208 104.816 21.6976 104.816 19.0048C104.816 16.312 106.751 14.376 109.536 14.376C112.32 14.376 114.255 16.312 114.255 19.0048ZM112.48 19.0048C112.48 17.2144 111.26 15.9408 109.537 15.9408C107.815 15.9408 106.595 17.2144 106.595 19.0048C106.595 20.7952 107.815 22.0544 109.537 22.0544C111.26 22.0544 112.48 20.7952 112.48 19.0048Z" fill="white"/>
<path d="M118.497 14.576C119.492 14.576 120.181 14.6816 120.831 15.2528C121.547 15.8896 121.732 16.752 121.732 17.3888C121.732 17.7328 121.68 18.688 121.003 19.3648C120.512 19.856 119.783 20.1472 118.763 20.1472H117.65V23.4224H115.926V14.576H118.497ZM117.648 18.6592H118.35C118.681 18.6592 119.105 18.6592 119.478 18.3808C119.796 18.1296 119.954 17.7312 119.954 17.3456C119.954 16.8544 119.716 16.5232 119.463 16.3376C119.105 16.0848 118.654 16.0592 118.243 16.0592H117.647V18.6592H117.648Z" fill="white"/>
<path d="M127.987 16.0608H124.806V18.0368H127.856V19.5216H124.806V21.936H127.987V23.4208H123.082V14.5744H127.987V16.0592V16.0608Z" fill="white"/>
<path d="M134.97 21.5648H131.403L130.621 23.4208H128.752L132.556 14.5744H133.908L137.607 23.4208H135.752L134.97 21.5648ZM134.466 20.1584L133.206 16.976L131.947 20.1584H134.466Z" fill="white"/>
<path d="M138.72 23.4208V14.5744H139.913L145.295 20.4768V14.5744H147.019V23.4208H145.826L140.443 17.5056V23.4208H138.719H138.72Z" fill="white"/>
<path d="M50.9971 27.3584C52.2301 27.3584 53.3031 27.4912 54.285 28.2208C55.3581 29.0304 55.9818 30.3168 55.9818 31.7888C55.9818 33.2608 55.3725 34.5344 54.2051 35.3568C53.1704 36.0864 52.2029 36.2064 50.9699 36.2064H48.6895V27.36H50.9955L50.9971 27.3584ZM50.4134 34.7184H50.9443C51.3809 34.7184 52.3356 34.6912 53.1048 34.1344C53.8069 33.6304 54.2051 32.728 54.2051 31.7872C54.2051 30.8464 53.8213 29.9568 53.1176 29.4256C52.4028 28.8944 51.5264 28.8416 50.9443 28.8416H50.4134V34.7168V34.7184Z" fill="white"/>
<path d="M62.6063 34.3472H59.0401L58.2581 36.2032H56.3887L60.1932 27.3568H61.5445L65.2434 36.2032H63.3883L62.6063 34.3472ZM62.1026 32.9424L60.8424 29.76L59.5839 32.9424H62.1026Z" fill="white"/>
<path d="M68.6883 28.8432V36.2048H66.9644V28.8432H64.9766V27.3584H70.6761V28.8432H68.6883Z" fill="white"/>
<path d="M76.5614 34.3472H72.9952L72.2132 36.2032H70.3438L74.1482 27.3568H75.4996L79.1985 36.2032H77.3434L76.5614 34.3472ZM76.0593 32.9424L74.7991 29.76L73.5405 32.9424H76.0593Z" fill="white"/>
<path d="M87.8286 29.3744C87.312 28.6848 86.7011 28.6192 86.3845 28.6192C85.4569 28.6192 85.1643 29.2032 85.1643 29.6544C85.1643 29.8672 85.2299 30.0656 85.4426 30.2512C85.6553 30.4496 85.9463 30.5568 86.5028 30.7552C87.1921 30.9936 87.8413 31.232 88.2923 31.6432C88.6905 32.0016 89.0471 32.5984 89.0471 33.4992C89.0471 35.224 87.8014 36.4032 85.9719 36.4032C84.3407 36.4032 83.3876 35.408 82.9238 34.7328L84.0513 33.6592C84.475 34.5216 85.2842 34.84 85.9063 34.84C86.6883 34.84 87.272 34.3632 87.272 33.6192C87.272 33.3008 87.1665 33.0496 86.9266 32.824C86.5956 32.5184 86.0646 32.3472 85.5609 32.1744C85.0971 32.016 84.5406 31.8032 84.0896 31.4048C83.7986 31.1536 83.3876 30.6624 83.3876 29.76C83.3876 28.4608 84.2623 27.16 86.2246 27.16C86.7811 27.16 87.8286 27.2656 88.7305 28.1952L87.8286 29.376V29.3744Z" fill="white"/>
<path d="M93.2082 27.3584C94.2029 27.3584 94.8922 27.464 95.5414 28.0352C96.2579 28.672 96.4434 29.5344 96.4434 30.1712C96.4434 30.5152 96.3906 31.4704 95.7142 32.1472C95.2232 32.6384 94.494 32.9296 93.4737 32.9296H92.3606V36.2048H90.6367V27.3584H93.2082ZM92.3606 31.4432H93.0627C93.3937 31.4432 93.8175 31.4432 94.1901 31.1648C94.5084 30.9136 94.6667 30.5152 94.6667 30.1296C94.6667 29.6384 94.4284 29.3072 94.1757 29.1216C93.8175 28.8688 93.3665 28.8432 92.9556 28.8432H92.3591V31.4432H92.3606Z" fill="white"/>
<path d="M102.233 34.3472H98.6671L97.8851 36.2032H96.0156L99.8201 27.3568H101.171L104.87 36.2032H103.015L102.233 34.3472ZM101.73 32.9424L100.469 29.76L99.2108 32.9424H101.73Z" fill="white"/>
<path d="M112.121 35.8864C111.59 36.1648 110.888 36.4032 109.933 36.4032C108.382 36.4032 107.441 35.8736 106.698 35.1696C105.677 34.1888 105.279 33.088 105.279 31.7872C105.279 30.1824 105.941 29.0288 106.698 28.3264C107.585 27.4912 108.686 27.1584 109.946 27.1584C110.569 27.1584 111.311 27.264 112.119 27.7024V29.7184C111.31 28.7904 110.302 28.7232 109.984 28.7232C108.207 28.7232 107.054 30.1824 107.054 31.8128C107.054 33.776 108.566 34.8368 110.05 34.8368C110.872 34.8368 111.601 34.4784 112.117 33.8688V35.8848L112.121 35.8864Z" fill="white"/>
<path d="M118.694 28.8432H115.513V30.8192H118.563V32.304H115.513V34.7184H118.694V36.2032H113.789V27.3568H118.694V28.8416V28.8432Z" fill="white"/>
<path d="M128.303 28.8432H125.333V30.8192H128.118V32.304H125.333V36.2032H123.609V27.3568H128.301V28.8416L128.303 28.8432Z" fill="white"/>
<path d="M138.88 31.7888C138.88 34.4816 136.945 36.4048 134.161 36.4048C131.376 36.4048 129.441 34.4816 129.441 31.7888C129.441 29.096 131.376 27.16 134.161 27.16C136.945 27.16 138.88 29.096 138.88 31.7888ZM137.103 31.7888C137.103 29.9984 135.883 28.7248 134.161 28.7248C132.438 28.7248 131.218 29.9984 131.218 31.7888C131.218 33.5792 132.438 34.8384 134.161 34.8384C135.883 34.8384 137.103 33.5792 137.103 31.7888Z" fill="white"/>
<path d="M143.107 27.3584C144.327 27.3584 144.949 27.6768 145.36 28.0208C146.037 28.5904 146.235 29.3472 146.235 30.0096C146.235 30.872 145.889 31.6272 145.2 32.0912C144.975 32.2496 144.656 32.3968 144.233 32.4752L146.99 36.2016H144.842L142.482 32.648H142.269V36.2016H140.545V27.3552H143.104L143.107 27.3584ZM142.272 31.4304H142.763C143.094 31.4304 144.46 31.3904 144.46 30.0912C144.46 28.792 143.107 28.7648 142.79 28.7648H142.274V31.4304H142.272Z" fill="white"/>
<path d="M33.4117 48.6834C32.8807 48.9618 32.1787 49.2002 31.224 49.2002C29.6728 49.2002 28.7324 48.6706 27.9888 47.9666C26.9685 46.9858 26.5703 45.885 26.5703 44.5842C26.5703 42.9794 27.2324 41.8258 27.9888 41.1234C28.8764 40.2882 29.9766 39.9554 31.2368 39.9554C31.8604 39.9554 32.6025 40.061 33.4101 40.4994V42.5154C32.6009 41.5874 31.5934 41.5202 31.2751 41.5202C29.4984 41.5202 28.3454 42.9794 28.3454 44.6098C28.3454 46.573 29.8567 47.6338 31.3407 47.6338C32.1627 47.6338 32.8919 47.2754 33.4085 46.6658V48.6818L33.4117 48.6834Z" fill="white"/>
<path d="M36.8028 40.1552V45.712C36.8028 46.3888 37.0282 46.8 37.2265 47.0256C37.4776 47.3312 37.943 47.6352 38.6322 47.6352C39.3215 47.6352 39.7853 47.3296 40.0379 47.0256C40.2362 46.8 40.4617 46.3888 40.4617 45.712V40.1552H42.1856V45.5664C42.1856 46.4016 42.0529 47.2512 41.5236 47.928C40.8871 48.7632 39.7741 49.2016 38.6338 49.2016C37.4936 49.2016 36.3806 48.7648 35.7441 47.928C35.2132 47.2512 35.082 46.4032 35.082 45.5664V40.1552H36.806H36.8028Z" fill="white"/>
<path d="M45.9997 40.1552V47.5152H48.7311V49H44.2773V40.1536H46.0013L45.9997 40.1552Z" fill="white"/>
<path d="M52.5496 41.64V49.0016H50.8257V41.64H48.8379V40.1552H54.5374V41.64H52.5496Z" fill="white"/>
<path d="M57.4239 40.1552V45.712C57.4239 46.3888 57.6493 46.8 57.8476 47.0256C58.0987 47.3312 58.5641 47.6352 59.2533 47.6352C59.9426 47.6352 60.4064 47.3296 60.659 47.0256C60.8573 46.8 61.0828 46.3888 61.0828 45.712V40.1552H62.8067V45.5664C62.8067 46.4016 62.674 47.2512 62.1447 47.928C61.5082 48.7632 60.3952 49.2016 59.2549 49.2016C58.1147 49.2016 57.0017 48.7648 56.3652 47.928C55.8343 47.2512 55.7031 46.4032 55.7031 45.5664V40.1552H57.4271H57.4239Z" fill="white"/>
<path d="M67.4585 40.1552C68.6787 40.1552 69.3008 40.4736 69.7118 40.8176C70.3882 41.3872 70.5865 42.144 70.5865 42.8064C70.5865 43.6688 70.2411 44.424 69.5519 44.888C69.3264 45.0464 69.0081 45.1936 68.5843 45.272L71.3414 48.9984H69.1936L66.8332 45.4448H66.6205V48.9984H64.8966V40.152H67.4553L67.4585 40.1552ZM66.6237 44.2256H67.1147C67.4457 44.2256 68.8114 44.1856 68.8114 42.8864C68.8114 41.5872 67.4585 41.56 67.1419 41.56H66.6253V44.2256H66.6237Z" fill="white"/>
<path d="M77.8229 47.144H74.2567L73.4747 49H71.6052L75.4097 40.1536H76.761L80.46 49H78.6049L77.8229 47.144ZM77.3191 45.7376L76.059 42.5552L74.8004 45.7376H77.3191Z" fill="white"/>
<path d="M83.2946 40.1552V47.5152H86.026V49H81.5723V40.1536H83.2962L83.2946 40.1552Z" fill="white"/>
<path d="M92.1888 43.576H95.9277V40.1536H97.6516V49H95.9277V45.0608H92.1888V49H90.4648V40.1536H92.1888V43.576Z" fill="white"/>
<path d="M104.647 41.64H101.466V43.616H104.516V45.1008H101.466V47.5152H104.647V49H99.7422V40.1536H104.647V41.6384V41.64Z" fill="white"/>
<path d="M108.954 40.1552C110.175 40.1552 110.797 40.4736 111.208 40.8176C111.884 41.3872 112.082 42.144 112.082 42.8064C112.082 43.6688 111.737 44.424 111.048 44.888C110.822 45.0464 110.504 45.1936 110.08 45.272L112.837 48.9984H110.69L108.329 45.4448H108.116V48.9984H106.393V40.152H108.951L108.954 40.1552ZM108.12 44.2256H108.611C108.942 44.2256 110.307 44.1856 110.307 42.8864C110.307 41.5872 108.954 41.56 108.638 41.56H108.121V44.2256H108.12Z" fill="white"/>
<path d="M115.806 40.1552V49.0016H114.082V40.1552H115.806Z" fill="white"/>
<path d="M120.682 41.64V49.0016H118.959V41.64H116.971V40.1552H122.67V41.64H120.682Z" fill="white"/>
<path d="M128.557 47.144H124.991L124.209 49H122.34L126.144 40.1536H127.495L131.194 49H129.339L128.557 47.144ZM128.054 45.7376L126.793 42.5552L125.535 45.7376H128.054Z" fill="white"/>
<path d="M136.389 44.2656H140.446V44.3712C140.446 44.968 140.366 46.824 139.148 48.032C138.233 48.9472 137.106 49.1984 136.005 49.1984C134.905 49.1984 133.765 48.9728 132.797 48.0048C132.492 47.6992 131.484 46.5856 131.484 44.5968C131.484 42.8864 132.254 41.8384 132.783 41.3072C133.445 40.6304 134.56 39.9536 136.269 39.9536C136.931 39.9536 137.635 40.0592 138.311 40.4176C138.881 40.7088 139.504 41.24 139.968 42.0352L138.47 42.8448C138.164 42.248 137.715 41.9424 137.435 41.7968C137.064 41.6112 136.6 41.5184 136.189 41.5184C135.487 41.5184 134.691 41.7696 134.149 42.3008C133.645 42.792 133.261 43.64 133.261 44.6352C133.261 45.816 133.765 46.5184 134.136 46.8768C134.534 47.2608 135.156 47.632 136.098 47.632C136.682 47.632 137.344 47.4736 137.835 47.1024C138.18 46.8368 138.524 46.3856 138.67 45.7488H136.389V44.264V44.2656Z" fill="white"/>
<path d="M147.018 41.64H143.837V43.616H146.887V45.1008H143.837V47.5152H147.018V49H142.113V40.1536H147.018V41.6384V41.64Z" fill="white"/>
<path d="M7.5 17.2384V6.8656H17.754V10.616H11.2485V17.2384H7.5Z" fill="#FAA21B"/>
<path d="M154.502 46.1376V56.5104H144.246V52.76H150.752V46.1376H154.502Z" fill="#FAA21B"/>
</svg>
