<svg width="100" height="33" viewBox="0 0 100 33" fill="none" xmlns="http://www.w3.org/2000/svg">
<g id="Contentful logo" clip-path="url(#clip0_3260_11419)">
<path id="Vector" d="M6.12648 26.0376C5.59347 25.5061 5.17058 24.8747 4.88203 24.1795C4.59348 23.4843 4.44495 22.739 4.44495 21.9862C4.44495 21.2335 4.59348 20.4882 4.88203 19.793C5.17058 19.0978 5.59347 18.4663 6.12648 17.9349C6.5458 17.5155 6.78137 16.9468 6.78137 16.3538C6.78137 15.7608 6.5458 15.1921 6.12648 14.7728C5.91886 14.5652 5.67237 14.4005 5.4011 14.2881C5.12983 14.1758 4.83908 14.1179 4.54545 14.1179C3.95245 14.1179 3.38374 14.3535 2.96443 14.7728C1.07226 16.6979 0.00830226 19.2869 0 21.9862C0.0268427 24.6818 1.08807 27.2642 2.96443 29.1997C3.38374 29.619 3.95245 29.8546 4.54545 29.8546C4.83908 29.8546 5.12983 29.7967 5.4011 29.6844C5.67237 29.572 5.91886 29.4073 6.12648 29.1997C6.33411 28.9921 6.4988 28.7456 6.61117 28.4743C6.72353 28.203 6.78137 27.9123 6.78137 27.6187C6.78137 27.325 6.72353 27.0343 6.61117 26.763C6.4988 26.4917 6.33411 26.2452 6.12648 26.0376Z" fill="#FFD85F"/>
<path id="Vector_2" d="M6.12553 17.9348C6.65702 17.4018 7.28846 16.9789 7.98367 16.6904C8.67888 16.4018 9.4242 16.2533 10.1769 16.2533C10.9296 16.2533 11.6749 16.4018 12.3702 16.6904C13.0654 16.9789 13.6968 17.4018 14.2283 17.9348C14.6476 18.3541 15.2163 18.5897 15.8093 18.5897C16.4023 18.5897 16.971 18.3541 17.3904 17.9348C17.8097 17.5155 18.0452 16.9468 18.0452 16.3538C18.0452 15.7608 17.8097 15.1921 17.3904 14.7728C15.4652 12.8806 12.8762 11.8167 10.1769 11.8083C7.48131 11.8352 4.899 12.8964 2.96348 14.7728C2.54416 15.1921 2.30859 15.7608 2.30859 16.3538C2.30859 16.9468 2.54416 17.5155 2.96348 17.9348C3.38279 18.3541 3.9515 18.5897 4.5445 18.5897C5.1375 18.5897 5.70622 18.3541 6.12553 17.9348Z" fill="#3BB4E7"/>
<path id="Vector_3" d="M14.2283 26.0375C13.6968 26.5705 13.0654 26.9934 12.3702 27.2819C11.6749 27.5705 10.9296 27.719 10.1769 27.719C9.4242 27.719 8.67888 27.5705 7.98367 27.2819C7.28846 26.9934 6.65702 26.5705 6.12553 26.0375C5.70622 25.6181 5.1375 25.3826 4.5445 25.3826C3.9515 25.3826 3.38279 25.6181 2.96348 26.0375C2.54416 26.4568 2.30859 27.0255 2.30859 27.6185C2.30859 28.2115 2.54416 28.7802 2.96348 29.1995C4.88861 31.0917 7.47759 32.1556 10.1769 32.1639C12.8725 32.1371 15.4548 31.0759 17.3904 29.1995C17.8097 28.7802 18.0452 28.2115 18.0452 27.6185C18.0452 27.0255 17.8097 26.4568 17.3904 26.0375C16.971 25.6181 16.4023 25.3826 15.8093 25.3826C15.2163 25.3826 14.6476 25.6181 14.2283 26.0375Z" fill="#ED5C68"/>
<path id="Vector_4" d="M6.19674 17.964C7.08399 17.0762 7.08349 15.6371 6.19562 14.7499C5.30776 13.8627 3.86875 13.8632 2.9815 14.751C2.09425 15.6389 2.09476 17.0779 2.98262 17.9651C3.87049 18.8524 5.3095 18.8519 6.19674 17.964Z" fill="#308BC5"/>
<path id="Vector_5" d="M6.18503 29.2172C7.07227 28.3293 7.07177 26.8903 6.1839 26.0031C5.29604 25.1158 3.85703 25.1163 2.96978 26.0042C2.08254 26.8921 2.08304 28.3311 2.9709 29.2183C3.85877 30.1056 5.29778 30.1051 6.18503 29.2172Z" fill="#D5465F"/>
<path id="Vector_6" d="M27.4698 24.0613C28.1615 23.5672 28.1615 23.8637 28.7544 24.3577C29.0508 24.6542 29.7425 25.1482 29.2485 25.5435C28.8118 25.9491 28.2983 26.2631 27.7382 26.4668C27.1781 26.6704 26.5828 26.7597 25.9876 26.7293C24.73 26.7801 23.5037 26.3302 22.5775 25.478C21.6512 24.6259 21.1008 23.4412 21.0469 22.1838V21.5909C21.1122 20.2783 21.678 19.0406 22.6279 18.1324C23.0888 17.7391 23.6229 17.4406 24.1994 17.2541C24.7759 17.0676 25.3836 16.9967 25.9876 17.0455C26.5926 17.0474 27.1933 17.1475 27.7662 17.3419C28.1396 17.5186 28.5025 17.7165 28.8532 17.9348C29.5449 18.4289 29.2485 18.7253 28.6556 19.2194C28.5335 19.332 28.4331 19.4659 28.3591 19.6146C28.0627 19.9111 27.9639 20.1087 27.5686 19.8123C27.25 19.5669 26.8808 19.3952 26.4878 19.3098C26.0948 19.2244 25.6877 19.2272 25.2959 19.3182C22.7267 20.0099 22.9243 24.5554 25.9876 24.5554C26.52 24.5429 27.0364 24.3707 27.4698 24.0613ZM98.4184 26.6304C98.2133 26.6166 98.0202 26.5288 97.8749 26.3835C97.7295 26.2381 97.6418 26.045 97.6279 25.8399V15.7609C97.6418 15.5558 97.7295 15.3627 97.8749 15.2173C98.0202 15.072 98.2133 14.9842 98.4184 14.9704H99.2089C99.414 14.9842 99.6071 15.072 99.7525 15.2173C99.8978 15.3627 99.9856 15.5558 99.9994 15.7609V25.8399C99.9856 26.045 99.8978 26.2381 99.7525 26.3835C99.6071 26.5288 99.414 26.6166 99.2089 26.6304H98.4184ZM94.0706 25.4447C93.6838 25.8682 93.2094 26.2025 92.6805 26.4244C92.1515 26.6462 91.5806 26.7502 91.0074 26.7293C88.4382 26.7293 87.1536 24.5553 87.1536 22.1838V18.1324C87.1675 17.9273 87.2552 17.7342 87.4006 17.5889C87.5459 17.4435 87.739 17.3558 87.9441 17.3419H88.7346C88.9397 17.3558 89.1328 17.4435 89.2782 17.5889C89.4235 17.7342 89.5113 17.9273 89.5251 18.1324V22.1838C89.4791 22.4572 89.489 22.7371 89.5545 23.0066C89.6199 23.276 89.7394 23.5293 89.9058 23.7511C90.0721 23.9729 90.2818 24.1586 90.5222 24.2968C90.7625 24.4351 91.0284 24.523 91.3038 24.5554H91.6991C92.004 24.5489 92.3047 24.4825 92.584 24.3598C92.8633 24.2372 93.1157 24.0607 93.3267 23.8404C93.5378 23.6202 93.7034 23.3605 93.8141 23.0763C93.9248 22.792 93.9783 22.4888 93.9718 22.1838V18.1324C93.9857 17.9273 94.0734 17.7342 94.2187 17.5889C94.3641 17.4435 94.5572 17.3558 94.7623 17.3419H95.5528C95.7579 17.3558 95.951 17.4435 96.0964 17.5889C96.2417 17.7342 96.3294 17.9273 96.3433 18.1324V25.8399C96.3294 26.045 96.2417 26.2381 96.0964 26.3835C95.951 26.5288 95.7579 26.6166 95.5528 26.6304H94.8611C94.4659 26.6304 94.1694 26.2352 94.0706 25.8399V25.4447ZM83.9915 17.3419H85.5726C85.7777 17.3558 85.9708 17.4435 86.1161 17.5889C86.2615 17.7342 86.3492 17.9273 86.3631 18.1324V18.6265C86.3644 18.7307 86.3449 18.8341 86.3056 18.9306C86.2664 19.0271 86.2082 19.1148 86.1345 19.1884C86.0608 19.2621 85.9732 19.3203 85.8766 19.3595C85.7801 19.3988 85.6768 19.4183 85.5726 19.417H83.9915V25.7411C83.9777 25.9462 83.8899 26.1393 83.7446 26.2847C83.5992 26.43 83.4061 26.5178 83.201 26.5316H82.4105C82.2054 26.5178 82.0123 26.43 81.867 26.2847C81.7216 26.1393 81.6339 25.9462 81.62 25.7411V16.9467C81.5511 16.0577 81.8331 15.1771 82.4057 14.4937C82.9784 13.8102 83.7959 13.3783 84.6832 13.2905H86.0666C86.2717 13.3044 86.4648 13.3921 86.6102 13.5375C86.7555 13.6828 86.8433 13.876 86.8572 14.081V14.5751C86.8585 14.6793 86.8389 14.7827 86.7997 14.8792C86.7604 14.9757 86.7023 15.0634 86.6286 15.137C86.5549 15.2107 86.4672 15.2689 86.3707 15.3082C86.2742 15.3474 86.1708 15.367 86.0666 15.3656H85.3749C84.4856 15.3656 84.0904 16.0573 84.0904 16.9467L83.9915 17.3419ZM78.2603 17.3419H80.039C80.2441 17.3558 80.4372 17.4435 80.5825 17.5889C80.7279 17.7342 80.8156 17.9273 80.8295 18.1324V18.6265C80.8156 18.8316 80.7279 19.0247 80.5825 19.17C80.4372 19.3154 80.2441 19.4031 80.039 19.417H78.2603V23.2708C78.2603 24.0613 78.6556 24.4565 79.3473 24.4565H79.7425C79.9476 24.4704 80.1407 24.5581 80.2861 24.7035C80.4314 24.8489 80.5192 25.042 80.533 25.247V25.7411C80.5192 25.9462 80.4314 26.1393 80.2861 26.2847C80.1407 26.43 79.9476 26.5178 79.7425 26.5316H78.6556C76.7781 26.4328 75.8888 25.1482 75.8888 23.2708V15.7609C75.9027 15.5558 75.9904 15.3627 76.1357 15.2173C76.2811 15.072 76.4742 14.9842 76.6793 14.9704H77.4698C77.6749 14.9842 77.868 15.072 78.0134 15.2173C78.1587 15.3627 78.2464 15.5558 78.2603 15.7609V17.3419ZM52.5686 17.3419H54.3473C54.5524 17.3558 54.7455 17.4435 54.8908 17.5889C55.0362 17.7342 55.1239 17.9273 55.1378 18.1324V18.6265C55.1239 18.8316 55.0362 19.0247 54.8908 19.17C54.7455 19.3154 54.5524 19.4031 54.3473 19.417H52.5686V23.2708C52.5686 24.0613 52.9639 24.4565 53.6556 24.4565H54.0508C54.155 24.4552 54.2584 24.4747 54.3549 24.514C54.4514 24.5533 54.5391 24.6114 54.6128 24.6851C54.6864 24.7588 54.7446 24.8465 54.7839 24.943C54.8231 25.0395 54.8427 25.1429 54.8413 25.247V25.7411C54.8275 25.9462 54.7397 26.1393 54.5944 26.2847C54.449 26.43 54.2559 26.5178 54.0508 26.5316H53.5568C51.4817 26.5316 50.1971 25.6423 50.1971 23.2708V15.7609C50.2109 15.5558 50.2987 15.3627 50.444 15.2173C50.5894 15.072 50.7825 14.9842 50.9876 14.9704H51.7781C51.9832 14.9842 52.1763 15.072 52.3217 15.2173C52.467 15.3627 52.5547 15.5558 52.5686 15.7609V17.3419ZM42.1931 18.4289C42.976 17.6306 44.0397 17.1697 45.1576 17.1443C47.7267 17.1443 49.1101 19.2194 49.1101 21.6897V25.7411C49.0962 25.9462 49.0085 26.1393 48.8632 26.2847C48.7178 26.43 48.5247 26.5178 48.3196 26.5316H47.5291C47.324 26.5178 47.1309 26.43 46.9855 26.2847C46.8402 26.1393 46.7524 25.9462 46.7386 25.7411V21.6897C46.7847 21.4163 46.7747 21.1364 46.7093 20.867C46.6438 20.5976 46.5243 20.3443 46.3579 20.1224C46.1916 19.9006 45.9819 19.715 45.7416 19.5767C45.5012 19.4385 45.2353 19.3505 44.9599 19.3182H44.5647C44.2597 19.3246 43.959 19.3911 43.6797 19.5137C43.4004 19.6364 43.148 19.8129 42.937 20.0331C42.7259 20.2534 42.5603 20.513 42.4496 20.7973C42.339 21.0815 42.2854 21.3848 42.2919 21.6897V25.7411C42.2781 25.9462 42.1903 26.1393 42.045 26.2847C41.8996 26.43 41.7065 26.5178 41.5014 26.5316H40.7109C40.5058 26.5178 40.3127 26.43 40.1674 26.2847C40.022 26.1393 39.9343 25.9462 39.9204 25.7411V18.0336C39.9343 17.8285 40.022 17.6354 40.1674 17.4901C40.3127 17.3447 40.5058 17.257 40.7109 17.2431H41.4026C41.7979 17.2431 42.0943 17.6384 42.1931 18.0336V18.4289ZM67.8848 18.4289C68.6677 17.6306 69.7314 17.1697 70.8492 17.1443C73.4184 17.1443 74.8018 19.2194 74.8018 21.6897V25.7411C74.7879 25.9462 74.7002 26.1393 74.5549 26.2847C74.4095 26.43 74.2164 26.5178 74.0113 26.5316H73.2208C73.0157 26.5178 72.8226 26.43 72.6772 26.2847C72.5319 26.1393 72.4442 25.9462 72.4303 25.7411V21.6897C72.4764 21.4163 72.4664 21.1364 72.401 20.867C72.3355 20.5976 72.216 20.3443 72.0496 20.1224C71.8833 19.9006 71.6736 19.715 71.4333 19.5767C71.1929 19.4385 70.927 19.3505 70.6516 19.3182H70.2564C69.9514 19.3246 69.6507 19.3911 69.3714 19.5137C69.0921 19.6364 68.8397 19.8129 68.6287 20.0331C68.4176 20.2534 68.252 20.513 68.1413 20.7973C68.0307 21.0815 67.9771 21.3848 67.9836 21.6897V25.7411C67.9698 25.9462 67.882 26.1393 67.7367 26.2847C67.5913 26.43 67.3982 26.5178 67.1931 26.5316H66.4026C66.1975 26.5178 66.0044 26.43 65.8591 26.2847C65.7137 26.1393 65.626 25.9462 65.6121 25.7411V18.0336C65.626 17.8285 65.7137 17.6354 65.8591 17.4901C66.0044 17.3447 66.1975 17.257 66.4026 17.2431H67.0943C67.4896 17.2431 67.786 17.6384 67.8848 18.0336V18.4289ZM34.288 17.1443C33.6651 17.1312 33.0457 17.2409 32.4652 17.4672C31.8847 17.6936 31.3545 18.032 30.9049 18.4633C30.4552 18.8946 30.095 19.4103 29.8447 19.9808C29.5944 20.5514 29.4589 21.1656 29.4461 21.7886V21.9862C29.3893 23.2026 29.8136 24.3925 30.6272 25.2986C31.4408 26.2047 32.5784 26.7541 33.7939 26.8281H34.288C35.5044 26.8849 36.6943 26.4606 37.6004 25.6469C38.5065 24.8333 39.0559 23.6958 39.1299 22.4803V21.9862C39.1867 20.7697 38.7624 19.5798 37.9487 18.6738C37.1351 17.7677 35.9976 17.2183 34.7821 17.1443H34.288ZM57.707 22.7767C57.8638 23.3511 58.216 23.8529 58.703 24.1956C59.19 24.5383 59.7813 24.7005 60.3749 24.6542C60.9908 24.6657 61.6006 24.5302 62.1536 24.2589C62.2524 24.2589 62.3512 24.1601 62.45 24.1601C62.7465 23.9625 63.0429 23.8636 63.2406 24.1601L63.6358 24.5554L64.0311 24.9506C64.4263 25.4447 64.1299 25.5435 63.7346 25.8399C62.7229 26.4631 61.5629 26.8043 60.3749 26.8281C57.3117 26.8281 55.2366 24.9506 55.2366 21.8874C55.1993 21.2829 55.2826 20.677 55.4817 20.105C55.6808 19.533 55.9917 19.0064 56.3964 18.5558C56.801 18.1051 57.2913 17.7395 57.8386 17.4802C58.386 17.221 58.9794 17.0732 59.5844 17.0455H60.1773C63.1417 17.0455 64.8216 18.8241 64.9204 21.7886C64.9204 22.5791 65.0192 22.8755 64.1299 22.8755H57.707V22.7767ZM34.3868 19.3182C34.7247 19.3296 35.057 19.4079 35.3644 19.5485C35.6719 19.689 35.9484 19.8892 36.1781 20.1372C36.4078 20.3853 36.5861 20.6764 36.7026 20.9938C36.8192 21.3111 36.8717 21.6484 36.8572 21.9862C36.8826 22.6263 36.6595 23.2514 36.2344 23.7307C35.8093 24.2099 35.2152 24.5061 34.5767 24.5572C33.9381 24.6082 33.3045 24.4103 32.8087 24.0047C32.3128 23.5991 31.9931 23.0174 31.9164 22.3814V21.9862C31.8555 21.345 32.0494 20.7057 32.4563 20.2064C32.8631 19.7071 33.4501 19.388 34.0904 19.3182H34.3868ZM57.707 20.8004H62.45C62.3535 20.2851 62.0655 19.8254 61.6438 19.5138C61.2222 19.2022 60.6983 19.0617 60.1773 19.1206C59.6373 19.0857 59.1011 19.2319 58.6536 19.5362C58.2062 19.8405 57.873 20.2854 57.707 20.8004Z" fill="white"/>
<path id="Vector_7" d="M23.9727 0.118499H25.2474C25.457 0.115048 25.6662 0.138292 25.8699 0.187669C26.0446 0.230965 26.2091 0.308187 26.3541 0.414941C26.4858 0.512741 26.591 0.641786 26.6604 0.790435C26.7362 0.957896 26.7734 1.14027 26.7691 1.32403C26.7748 1.50792 26.7375 1.6906 26.6604 1.85763C26.5883 2.0074 26.4795 2.13655 26.3442 2.23312C26.1989 2.33923 26.0345 2.41639 25.86 2.4604C25.6569 2.51409 25.4476 2.54067 25.2375 2.53945H24.4371V4.59478H23.9825L23.9727 0.118499ZM24.4272 2.09478H25.198C25.4865 2.11501 25.7739 2.04228 26.0181 1.88727C26.1112 1.81587 26.1851 1.72257 26.2334 1.61569C26.2816 1.5088 26.3027 1.39164 26.2948 1.27463C26.3044 1.1564 26.2831 1.03771 26.2328 0.930264C26.1826 0.82282 26.1052 0.730346 26.0082 0.661977C25.7635 0.517764 25.4816 0.449014 25.198 0.464349H24.4272V2.09478Z" fill="#C1C1C2"/>
<path id="Vector_8" d="M33.4191 2.36173C33.4284 2.69984 33.3678 3.03622 33.2412 3.34987C33.13 3.63002 32.9633 3.88475 32.751 4.09873C32.5387 4.31271 32.2853 4.4815 32.006 4.59493C31.4094 4.83153 30.745 4.83153 30.1483 4.59493C29.8653 4.47707 29.6096 4.30219 29.3971 4.08119C29.1846 3.86018 29.0198 3.59779 28.9132 3.31035C28.7866 2.99669 28.726 2.66031 28.7353 2.32221C28.726 1.9841 28.7866 1.64772 28.9132 1.33406C29.1573 0.801609 29.6009 0.386405 30.1483 0.177937C30.745 -0.0586613 31.4094 -0.0586613 32.006 0.177937C32.2844 0.290256 32.5372 0.457524 32.7494 0.669748C32.9616 0.881971 33.1289 1.1348 33.2412 1.41311C33.3626 1.71448 33.423 2.03688 33.4191 2.36173ZM32.9349 2.36173C32.9369 2.11304 32.8968 1.86581 32.8163 1.63051C32.7359 1.4013 32.6117 1.18988 32.4507 1.00798C32.2876 0.827795 32.0892 0.683154 31.8677 0.583075C31.6211 0.477048 31.3555 0.422366 31.0871 0.422366C30.8187 0.422366 30.553 0.477048 30.3064 0.583075C30.085 0.683154 29.8865 0.827795 29.7234 1.00798C29.5622 1.18973 29.438 1.40119 29.3578 1.63051C29.1876 2.1167 29.1876 2.64629 29.3578 3.13248C29.4369 3.36235 29.5612 3.57403 29.7234 3.75501C29.8867 3.93498 30.0851 4.07959 30.3064 4.17991C30.553 4.28594 30.8187 4.34062 31.0871 4.34062C31.3555 4.34062 31.6211 4.28594 31.8677 4.17991C32.0889 4.07935 32.2873 3.93478 32.4507 3.75501C32.6128 3.57387 32.737 3.36223 32.8163 3.13248C32.9002 2.88779 32.9403 2.63023 32.9349 2.37161V2.36173Z" fill="#C1C1C2"/>
<path id="Vector_9" d="M36.7706 3.98229L37.9168 0.118652H38.4603L39.5868 3.99217L40.6935 0.118652H41.1777L39.8536 4.59494H39.32L38.1836 0.751063L37.0374 4.59494H36.5038L35.1797 0.118652H35.6639L36.7706 3.98229Z" fill="#C1C1C2"/>
<path id="Vector_10" d="M43.6381 4.20956H46.0492V4.59494H43.1836V0.118652H45.9702V0.523791H43.6381V2.06529H45.8219V2.47043H43.6381V4.20956Z" fill="#C1C1C2"/>
<path id="Vector_11" d="M48.7045 4.59496H48.25V0.118675H49.5741C49.7799 0.115834 49.9853 0.135717 50.1868 0.177963C50.3634 0.214269 50.5312 0.284762 50.6808 0.385473C50.8161 0.482047 50.9249 0.611197 50.997 0.760967C51.0804 0.936756 51.121 1.12974 51.1156 1.32421C51.1183 1.47275 51.0908 1.62029 51.0347 1.75788C50.9787 1.89546 50.8953 2.02023 50.7895 2.1246C50.6838 2.22612 50.5597 2.3066 50.4239 2.36176C50.2792 2.42398 50.126 2.46396 49.9694 2.48033L51.2737 4.59496H50.7105L49.4654 2.50998H48.7045V4.59496ZM48.7045 2.09496H49.4951C49.7915 2.11344 50.087 2.04474 50.3449 1.89733C50.4428 1.8317 50.5218 1.74145 50.5738 1.63565C50.6258 1.52984 50.6491 1.41221 50.6413 1.29456C50.647 1.16474 50.6198 1.03557 50.5622 0.91907C50.5086 0.818823 50.4304 0.733826 50.335 0.672034C50.2259 0.604523 50.1053 0.557631 49.9792 0.533694C49.8249 0.517481 49.6692 0.517481 49.5148 0.533694H48.7045V2.09496Z" fill="#C1C1C2"/>
<path id="Vector_12" d="M53.8238 4.20956H56.2349V4.59494H53.3594V0.118652H56.1558V0.523791H53.8238V2.06529H56.0076V2.47043H53.8238V4.20956Z" fill="#C1C1C2"/>
<path id="Vector_13" d="M58.4375 0.118652H59.9296C60.2152 0.119687 60.4987 0.16639 60.7695 0.256992C61.0477 0.349339 61.3059 0.493511 61.5304 0.681893C61.7621 0.874301 61.9506 1.11335 62.0837 1.38347C62.2288 1.69224 62.2999 2.03058 62.2913 2.37162C62.3002 2.71269 62.2292 3.05111 62.0837 3.35976C61.9504 3.62973 61.7618 3.86873 61.5304 4.06134C61.306 4.24992 61.0478 4.39411 60.7695 4.48624C60.4987 4.57684 60.2152 4.62355 59.9296 4.62458H58.4375V0.118652ZM58.892 4.20956H59.8011C60.1052 4.21689 60.4076 4.16313 60.6905 4.05146C60.9266 3.94803 61.1386 3.7966 61.313 3.60679C61.4769 3.44033 61.6047 3.24187 61.6885 3.02379C61.8503 2.58364 61.8503 2.1003 61.6885 1.66015C61.6047 1.44208 61.4769 1.24361 61.313 1.07715C61.1376 0.890907 60.9257 0.742888 60.6905 0.642368C60.4075 0.530953 60.1052 0.4772 59.8011 0.484265H58.892V4.20956Z" fill="#C1C1C2"/>
<path id="Vector_14" d="M67.4609 0.118692H68.8048C68.9773 0.117733 69.1495 0.134287 69.3186 0.168099C69.4833 0.202724 69.6406 0.266291 69.7831 0.355846C69.9231 0.444382 70.0386 0.566709 70.119 0.711577C70.211 0.88464 70.2553 1.07901 70.2475 1.27482C70.2485 1.5011 70.1717 1.72085 70.0301 1.89735C69.8826 2.07777 69.6761 2.20026 69.4471 2.2432C69.7208 2.28163 69.9724 2.41445 70.1586 2.61869C70.2561 2.72301 70.3318 2.84586 70.381 2.97995C70.4302 3.11404 70.452 3.25665 70.4451 3.39932C70.4475 3.57615 70.4075 3.75097 70.3284 3.90914C70.2493 4.06731 70.1335 4.20422 69.9906 4.30842C69.8326 4.4221 69.6551 4.50584 69.4669 4.55545C69.2383 4.61767 69.0021 4.64761 68.7653 4.64438H67.4609V0.118692ZM67.9155 2.09498H68.8345C68.9461 2.10762 69.0588 2.10762 69.1704 2.09498C69.2795 2.07112 69.3833 2.02759 69.4767 1.96652C69.5835 1.87895 69.6625 1.76222 69.704 1.63055C69.7659 1.51527 69.7965 1.38583 69.793 1.25506C69.7994 1.13405 69.7736 1.0135 69.718 0.90582C69.6624 0.798137 69.5791 0.707213 69.4767 0.642407C69.3801 0.596369 69.2767 0.566334 69.1704 0.553474C69.0325 0.538908 68.8934 0.538908 68.7554 0.553474H67.9649L67.9155 2.09498ZM67.9155 4.22936H68.7653C68.923 4.24583 69.0819 4.24583 69.2396 4.22936C69.3789 4.2032 69.5127 4.15304 69.6349 4.08114C69.7444 4.01135 69.8359 3.91652 69.9017 3.80446C69.9717 3.68125 70.0059 3.54094 70.0005 3.39932C70.008 3.27226 69.984 3.14529 69.9306 3.02976C69.8771 2.91424 69.7959 2.81375 69.6941 2.73727C69.4378 2.57572 69.1368 2.49961 68.8345 2.51988H67.8957L67.9155 4.22936Z" fill="#C1C1C2"/>
<path id="Vector_15" d="M74.3591 4.59494H73.9046V2.61865L72.2148 0.118652H72.788L74.1121 2.29257L75.5054 0.118652H76.0884L74.4085 2.67794L74.3591 4.59494Z" fill="#C1C1C2"/>
<path id="Vector_16" d="M90.988 2.14429H81.6797V2.56919H90.988V2.14429Z" fill="#C1C1C2"/>
<path id="Vector_17" d="M18.1911 2.14429H8.88281V2.56919H18.1911V2.14429Z" fill="#C1C1C2"/>
</g>
<defs>
<clipPath id="clip0_3260_11419">
<rect width="100" height="32.164" fill="white"/>
</clipPath>
</defs>
</svg>
