<svg width="100" height="27" viewBox="0 0 100 27" fill="none" xmlns="http://www.w3.org/2000/svg">
<g id="Lokalise logo">
<path id="Vector" d="M97.2411 16.0019C94.8386 15.9877 92.4397 15.9772 90.0372 15.963C89.7832 15.963 89.5327 15.963 89.2717 15.963C89.4093 17.3001 90.4817 18.2209 92.0199 18.3408C93.4275 18.4502 94.7116 18.1044 95.8476 17.2542C95.9746 17.159 96.1051 17.0743 96.2356 16.9932C96.2603 16.9755 96.3097 16.9932 96.3662 17.0002C96.3662 17.8469 96.3732 18.6936 96.3556 19.5403C96.3556 19.6179 96.2109 19.7167 96.1122 19.7661C94.2706 20.6833 92.3515 21.0572 90.3441 20.4258C87.6559 19.5791 86.1107 16.9085 86.6082 14.0686C87.0668 11.4545 89.374 9.65175 92.1821 9.71525C94.761 9.77522 96.5849 11.3275 97.1246 13.9169C97.1493 14.0263 97.2023 14.1321 97.2411 14.2379V16.0019ZM94.38 14.0121C94.2742 12.8233 93.3993 12.093 92.0446 12.026C90.7075 11.959 89.5469 12.795 89.3387 14.0121H94.38Z" fill="white"/>
<path id="Vector_2" d="M11.6296 25.065C11.5449 24.938 11.4814 24.7968 11.3756 24.691C10.1408 23.4527 8.9096 22.2109 7.64663 20.9974C7.44908 20.8069 7.10688 20.6834 6.82465 20.6763C5.7028 20.6411 4.39397 20.6446 3.27212 20.6693C2.85231 20.6763 2.71825 20.5282 2.73589 20.1225C2.76058 19.4769 2.75705 18.8277 2.73589 18.1822C2.7253 17.8364 2.8382 17.6883 3.20509 17.6918C4.79967 17.7059 6.58123 17.6847 8.17581 17.713C8.41217 17.7165 8.69087 17.8823 8.87432 18.0552C9.6575 18.7995 10.4125 19.5721 11.1815 20.3341C11.3332 20.4823 11.4955 20.6234 11.7495 20.8563C12.6103 19.9708 13.464 19.1347 14.2684 18.2527C14.66 17.8223 15.0868 17.6706 15.6619 17.6847C17.0413 17.72 18.4206 17.72 19.7965 17.6847C20.3327 17.6706 20.4844 17.8505 20.4491 18.3585C20.4103 18.9442 20.4209 19.5368 20.4491 20.1225C20.4668 20.5282 20.3327 20.6799 19.9129 20.6693C18.8087 20.6446 17.7045 20.634 16.6038 20.6799C16.2898 20.694 15.9053 20.8316 15.683 21.0432C14.4448 22.2215 13.2453 23.4386 12.0353 24.6487C11.9153 24.7686 11.8377 24.9238 11.7389 25.065H11.619H11.6296Z" fill="white"/>
<path id="Vector_3" d="M63.3172 10.0327H66.0301V20.4151H63.3172C63.2996 20.147 63.282 19.9001 63.2608 19.5438C61.8073 20.7644 60.1986 21.0078 58.4771 20.4786C57.2846 20.1117 56.3709 19.3568 55.7148 18.2984C54.2648 15.9736 54.7199 12.7421 56.7378 10.9923C58.6323 9.34832 61.2817 9.27071 63.2432 10.8512C63.2714 10.5548 63.2926 10.3044 63.3208 10.0363L63.3172 10.0327ZM60.5585 18.1397C62.2307 18.1326 63.416 16.9155 63.409 15.2081C63.4019 13.5076 62.1989 12.28 60.5408 12.2764C58.8792 12.2764 57.6727 13.4971 57.6586 15.1939C57.6445 16.9155 58.8545 18.1467 60.5549 18.1397H60.5585Z" fill="white"/>
<path id="Vector_4" d="M47.5665 15.8009V20.4082H44.8359V5.27734H47.5806V14.1005C47.6406 14.1463 47.7005 14.1922 47.757 14.2416C47.824 14.1075 47.8699 13.9558 47.9651 13.8465C48.9529 12.6752 49.9372 11.5004 50.9532 10.3574C51.119 10.1705 51.433 10.0258 51.687 10.0152C52.6007 9.97289 53.5179 9.99759 54.5622 9.99759C53.1475 11.6627 51.8211 13.2291 50.4558 14.8378C51.9092 16.6828 53.3451 18.5067 54.8691 20.44C53.6379 20.44 52.5478 20.4541 51.4542 20.4259C51.306 20.4223 51.1331 20.2283 51.0202 20.0837C50.036 18.8101 49.0623 17.5295 48.0815 16.2524C47.9545 16.0866 47.8205 15.9244 47.6864 15.7585C47.6441 15.7727 47.6053 15.7868 47.563 15.8009H47.5665Z" fill="white"/>
<path id="Vector_5" d="M37.5466 20.7187C34.3433 20.7187 31.8068 18.3057 31.7892 15.2365C31.7715 12.1567 34.3362 9.70836 37.5713 9.72247C40.7745 9.73658 43.3146 12.1743 43.3075 15.233C43.3005 18.2881 40.7499 20.7187 37.5501 20.7187H37.5466ZM37.5289 18.1399C39.2152 18.1434 40.4817 16.891 40.4853 15.2153C40.4853 13.5502 39.1976 12.2696 37.5289 12.2802C35.892 12.2872 34.6114 13.5537 34.5938 15.1871C34.5726 16.8452 35.8567 18.1364 37.5325 18.1399H37.5289Z" fill="white"/>
<path id="Vector_6" d="M84.7303 13.0845C84.2012 12.8093 83.8096 12.5165 83.3686 12.4001C82.7547 12.2343 82.1056 12.1284 81.4741 12.1426C81.2096 12.1461 80.7862 12.4848 80.7368 12.7317C80.6874 12.9787 80.9414 13.4161 81.1884 13.5678C81.6823 13.8747 82.2573 14.0476 82.8006 14.2734C83.0546 14.3792 83.3121 14.478 83.5626 14.5838C84.7162 15.0707 85.4077 15.8715 85.4112 17.1803C85.4112 18.5385 84.8644 19.611 83.6367 20.1931C81.7176 21.0997 79.809 20.8246 77.971 19.8791C77.8511 19.8191 77.7205 19.5969 77.7452 19.4804C77.911 18.6832 78.1192 17.8929 78.2991 17.1556C79.0364 17.4661 79.6996 17.8118 80.4052 18.0199C80.8391 18.1505 81.3577 18.161 81.7987 18.0552C82.0986 17.9846 82.4972 17.6425 82.536 17.3779C82.5748 17.1133 82.2926 16.6652 82.028 16.5171C81.4353 16.1819 80.765 15.9844 80.13 15.7268C78.4614 15.0565 77.6817 13.6948 78.1051 12.1002C78.4508 10.809 79.4068 10.1246 80.6557 9.84594C81.8728 9.57429 83.0828 9.63426 84.2294 10.1776C84.3917 10.2552 84.5892 10.4598 84.6033 10.6185C84.6774 11.3947 84.6951 12.1778 84.7374 13.081L84.7303 13.0845Z" fill="white"/>
<path id="Vector_7" d="M27.5352 5.25977H30.2728V20.4048H27.5352V5.25977Z" fill="white"/>
<path id="Vector_8" d="M70.855 20.4153H68.1562V5.25977H70.855V20.4153Z" fill="white"/>
<path id="Vector_9" d="M75.7059 10.0327V20.4116H73V10.0327H75.7059Z" fill="white"/>
<path id="Vector_10" d="M76.1018 6.84373C76.0912 7.81389 75.2974 8.57943 74.3167 8.56531C73.343 8.5512 72.5774 7.75391 72.6021 6.7767C72.6268 5.79244 73.41 5.03395 74.3837 5.05512C75.3539 5.07629 76.1123 5.86652 76.1018 6.84373Z" fill="white"/>
<path id="Vector_11" d="M20.4617 11.3311H2.73438V14.4461H20.4617V11.3311Z" fill="white"/>
<path id="Vector_12" d="M6.61852 17.7024H2.73438V20.6552H6.61852V17.7024Z" fill="white"/>
<path id="Vector_13" d="M20.4623 17.7024H16.5781V20.6552H20.4623V17.7024Z" fill="white"/>
<path id="Vector_14" d="M20.4617 5.25977H2.73438V8.37484H20.4617V5.25977Z" fill="white"/>
</g>
</svg>
