<?xml version="1.0" encoding="utf-8"?>
<!-- Generator: Adobe Illustrator 19.0.1, SVG Export Plug-In . SVG Version: 6.00 Build 0)  -->
<svg version="1.1" baseProfile="tiny" id="Layer_1" xmlns="http://www.w3.org/2000/svg" xmlns:xlink="http://www.w3.org/1999/xlink"
	 x="0px" y="0px" viewBox="-363 231 309.8 100" xml:space="preserve">
<path d="M-296,260.1h0.1H-296 M-343,291c7.4,0,13.4,6,13.4,13.4c0,7.4-6,13.4-13.4,13.4c-7.4,0-13.4-6-13.4-13.4
	C-356.4,297-350.4,291-343,291 M-333.3,321c0-3.8,3.1-6.9,6.9-6.9c3.8,0,6.9,3.1,6.9,6.9c0,3.8-3.1,6.9-6.9,6.9
	C-330.2,327.9-333.3,324.8-333.3,321 M-280.4,266.3c-0.1-0.9-0.2-1.8-0.2-2.7c-0.2-0.7-0.3-1.8-0.4-2.4c-0.3-0.8-0.3-1.1-0.4-1.7
	c-0.2-0.6-0.2-0.6-0.5-1.9c-0.7-2.5-1.8-5-3-7.4c-0.8-1.5-1.8-2.8-2.8-4.1c-0.2-0.3-0.8-1-1-1.2c-0.4-0.5-2.6-3.1-3.3-3.7
	c-0.7-0.6-1.3-1.2-2.1-1.8c-0.7-0.6-1.5-1.2-2.2-1.7c-0.6-0.5-1.3-0.7-1.9-1.1c-3.4-2.1-7.2-3.8-11.1-4.7c-13.1-3-28.5,1.4-37,12.1
	c-0.9,1.1-1.8,2.2-2.7,3.4c-0.4,0.5-0.6,1.2-1,1.8c-0.8,1.3-1.4,2.5-2,3.9c-2.4,5.3-3.9,11.8-3.4,17.9c0.3,3.4,0.9,6.8,2.1,10
	c0.4,1,0.7,2,1.2,3c0.3,0.7,1.1,2.1,1.2,2.3c-7,3.1-11.9,10.1-11.9,18.3c0,11,9,20,20,20c2.4,0,4.7-0.4,6.8-1.2
	c0,0.1,0.1,0.1,0.1,0.2c1.1,4.3,5,7.6,9.7,7.6c5.5,0,10-4.5,10-10c0-4.8-3.3-8.8-7.8-9.8c0-0.1,0.1-0.2,0.1-0.3
	c0.1-0.4,0.3-0.8,0.4-1.2c0.2-0.5,0.3-1,0.4-1.6c0-0.3,0.1-0.6,0.1-1c0.1-0.4,0.1-0.8,0.1-1.2c0.1-0.1,0.2,0,0.4,0
	c2.2,0.1,4.4,0.5,6.6,0.3c4.1-0.2,8.5-1,12.2-2.7c3.9-1.7,7.7-3.9,10.9-6.8c1.5-1.3,3-2.8,4.2-4.5c0.6-0.8,1.3-1.5,1.8-2.3
	c0.4-0.7,1-1.4,1.4-2.1c0.3-0.5,0.3-0.8,0.6-1.3c0.2-0.3,0.4-0.6,0.5-1c0.3-0.7,0.4-1.5,0.4-2.3c0.1-1.5-0.4-3.1-1.3-4.4
	c-0.7-1.1-2.4-2.1-3.7-2.5c-1.5-0.4-3.3-0.3-4.8,0.2c-1.6,0.6-2.7,2-3.6,3.5c-1,1.6-1.9,3.1-3.2,4.4c-2.5,2.5-5.2,4.5-8.5,5.8
	c-12.6,5.1-27.2-1.8-31.4-14.7c-1.9-6-1.4-12.7,1.7-18.3c1.6-2.9,3.8-5.5,6.4-7.6c1.4-1.1,3-2.1,4.6-2.8c1.5-0.6,3-1,4.5-1.5
	c1.2-0.4,2.8-0.5,4-0.6c1.3-0.1,2.7-0.1,4,0.1c2.7,0.4,5.5,1.1,8,2.3c1.3,0.7,2.8,1.6,4,2.6c1.2,1,2.5,2.2,3.5,3.4
	c0.8,1,1.2,1.7,2,2.7c0.8,1.2,1.9,2.5,2,4c-3.1,0-6.3,0-9.4,0c-3,0-6.3-0.7-9.1,0.7c-2.9,1.5-5.2,5.7-3.3,8.8c0.9,1.5,1.3,2.7,3,3.5
	c1.7,0.8,3.1,0.9,5,0.9c4.3-0.1,8.6,0,12.9,0h6.7c1.9,0,3.8,0.1,5.6-0.6C-281.6,272.4-280.1,269.5-280.4,266.3"/>
<g>
	<path d="M-252.6,264.7c0,1.1-0.5,1.7-1.6,1.7h-13.3v1.3c0,4.2,1.8,6.3,5.5,6.3c2.3,0,4.4-0.5,6.1-1.4c0.2-0.1,0.5-0.2,0.7-0.2
		c0.5,0,0.9,0.2,1.2,0.6c0.3,0.4,0.5,0.8,0.5,1.3c0,0.7-0.3,1.2-1,1.6c-2.2,1.2-4.8,1.8-7.7,1.8c-3.3,0-5.8-1-7.4-3.1
		c-1.5-1.8-2.2-4.2-2.2-7.3v-4.5c0-3.1,0.7-5.5,2.2-7.3c1.7-2,4.1-3.1,7.4-3.1c3.4,0,5.8,1,7.5,3.1c1.4,1.7,2.1,4.1,2.1,7.2V264.7z
		 M-256.8,262.2c0-4.1-1.8-6.2-5.3-6.2c-3.6,0-5.5,2.1-5.5,6.2v0.8h10.8V262.2z"/>
	<path d="M-227.5,277.7c-0.9,0-1.8-0.3-2.6-1c-0.5-0.4-0.8-1-1.2-1.8c-1.8,1.9-4.3,2.8-7.6,2.8c-5.3,0-8-3-8-8.9v-14.2
		c0-0.6,0.2-1.1,0.6-1.5c0.4-0.4,0.9-0.6,1.5-0.6c0.6,0,1.1,0.2,1.5,0.6c0.4,0.4,0.6,0.9,0.6,1.5v13.8c0,1.7,0.3,3,0.9,3.8
		c0.7,0.9,2,1.4,3.7,1.4c2.8,0,4.8-1.1,5.9-3.3v-15.8c0-0.6,0.2-1.1,0.6-1.5c0.4-0.4,0.9-0.6,1.5-0.6s1.1,0.2,1.5,0.6
		c0.4,0.4,0.6,0.9,0.6,1.5v16.7c0,1.5,0.5,2.6,1.5,3.1c0.6,0.3,0.8,0.8,0.8,1.4C-225.4,277.1-226.1,277.7-227.5,277.7z"/>
	<path d="M-207.4,256.9c-0.3,0-0.5-0.1-0.8-0.1s-0.6-0.1-0.9-0.1c-0.3,0-0.5,0-0.7,0c-3,0-4.8,1.5-5.4,4.4v14.5
		c0,0.6-0.2,1.1-0.6,1.5c-0.4,0.4-0.9,0.6-1.5,0.6c-0.6,0-1.1-0.2-1.5-0.6c-0.4-0.4-0.6-0.9-0.6-1.5v-16.4c0-1.5-0.5-2.6-1.5-3.1
		c-0.6-0.3-0.8-0.8-0.8-1.4c0-1.2,0.7-1.9,2.1-1.9c0.4,0,0.6,0,0.7,0c1.6,0.4,2.7,1.4,3.3,3c1.6-2.2,3.8-3.4,6.7-3.4
		c1.3,0,2.4,0.2,3.3,0.6c0.7,0.4,1,0.9,1,1.7c0,0.6-0.2,1.1-0.6,1.5c-0.4,0.4-0.9,0.6-1.4,0.6C-206.9,256.9-207.1,256.9-207.4,256.9
		z"/>
	<path d="M-185.9,274.7c-1.7,2-4.2,3-7.6,3c-3.3,0-5.8-1-7.5-3c-1.5-1.8-2.3-4.2-2.3-7.1v-5c0-3,0.8-5.3,2.3-7.1c1.7-2,4.2-3,7.5-3
		c3.4,0,5.9,1,7.6,3c1.5,1.8,2.3,4.2,2.3,7.1v5C-183.6,270.6-184.4,272.9-185.9,274.7z M-187.9,262.6c0-4.1-1.9-6.1-5.6-6.1
		c-3.7,0-5.5,2-5.5,6.1v5c0,4.1,1.8,6.2,5.5,6.2c3.7,0,5.6-2.1,5.6-6.2V262.6z"/>
	<path d="M-166.9,277.7c-2.2,0-4.1-0.6-5.8-1.9v8.4c0,0.6-0.2,1.1-0.6,1.5c-0.4,0.4-0.9,0.6-1.5,0.6c-0.6,0-1.1-0.2-1.5-0.6
		c-0.4-0.4-0.6-0.9-0.6-1.5v-25.4c0-1.6-0.5-2.6-1.4-3.1c-0.6-0.3-0.8-0.8-0.8-1.4c0-1.2,0.7-1.9,2.1-1.9c0.9,0,1.8,0.3,2.6,1
		c0.3,0.3,0.6,0.7,0.9,1.1c2-1.4,4.1-2.1,6.4-2.1c6,0,9,3.3,9,9.9v4.4C-158.1,274.1-161.1,277.7-166.9,277.7z M-162.4,262.1
		c0-3.9-1.8-5.9-5.4-5.9c-1.7,0-3.4,0.7-4.9,2v13.5c1.5,1.5,3.2,2.2,5.1,2.2c3.5,0,5.2-2.2,5.2-6.6V262.1z"/>
	<path d="M-133.7,264.7c0,1.1-0.5,1.7-1.6,1.7h-13.3v1.3c0,4.2,1.8,6.3,5.5,6.3c2.3,0,4.4-0.5,6.1-1.4c0.2-0.1,0.5-0.2,0.7-0.2
		c0.5,0,0.9,0.2,1.2,0.6c0.3,0.4,0.5,0.8,0.5,1.3c0,0.7-0.3,1.2-1,1.6c-2.2,1.2-4.8,1.8-7.7,1.8c-3.3,0-5.8-1-7.4-3.1
		c-1.5-1.8-2.2-4.2-2.2-7.3v-4.5c0-3.1,0.7-5.5,2.2-7.3c1.7-2,4.1-3.1,7.4-3.1c3.4,0,5.8,1,7.5,3.1c1.4,1.7,2.1,4.1,2.1,7.2V264.7z
		 M-137.8,262.2c0-4.1-1.8-6.2-5.3-6.2c-3.6,0-5.5,2.1-5.5,6.2v0.8h10.8V262.2z"/>
	<path d="M-110.9,277.7c-1,0-1.9-0.3-2.5-1c-0.4-0.3-0.7-0.8-1-1.5c-1.5,1.7-3.8,2.5-6.8,2.5c-2.9,0-5.1-0.7-6.5-2
		c-1.3-1.3-2-3-2-5.1v-0.4c0-2.1,0.7-3.8,2.1-5.1c1.6-1.3,3.9-2,6.8-2h5.6v-1.2c0-2.1-0.3-3.5-1-4.4c-0.7-1-2.1-1.5-4.1-1.5
		c-1.8,0-3.5,0.4-5,1.2c-0.4,0.2-0.7,0.3-1,0.3c-0.5,0-1-0.2-1.3-0.6c-0.3-0.4-0.5-0.8-0.5-1.3c0-0.6,0.3-1.1,0.9-1.5
		c1.8-1.1,4.2-1.7,7.2-1.7c3.3,0,5.7,0.8,7.1,2.5c1.3,1.5,1.9,4,1.9,7.3v9.1c0,1.5,0.5,2.6,1.4,3.1c0.6,0.4,0.8,0.8,0.8,1.4
		C-108.8,277.1-109.5,277.7-110.9,277.7z M-115.3,266.4h-5.1c-3.4,0-5.2,1.3-5.2,3.8v0.4c0,2.5,1.7,3.8,5,3.8c3.5,0,5.3-1.7,5.3-5.1
		V266.4z"/>
	<path d="M-84.8,277.1c-0.4,0.4-0.9,0.6-1.5,0.6c-0.6,0-1.1-0.2-1.5-0.6c-0.4-0.4-0.6-0.9-0.6-1.5v-13.8c0-1.7-0.3-3-0.9-3.8
		c-0.7-1-2-1.5-3.7-1.5c-2.8,0-4.7,1-5.9,3.1v16c0,0.6-0.2,1.1-0.6,1.5c-0.4,0.4-0.9,0.6-1.5,0.6c-0.6,0-1.1-0.2-1.5-0.6
		c-0.4-0.4-0.6-0.9-0.6-1.5v-16.4c0-1.5-0.5-2.6-1.5-3.1c-0.6-0.3-0.8-0.8-0.8-1.4c0-1.2,0.7-1.9,2.1-1.9c0.9,0,1.8,0.3,2.6,1
		c0.5,0.5,0.8,1,1.1,1.6c1.8-2,4.3-2.9,7.6-2.9c5.3,0,8,3,8,8.9v14.2C-84.2,276.2-84.4,276.7-84.8,277.1z"/>
	<path d="M-60.1,277.7c-1,0-1.9-0.3-2.5-1c-0.4-0.3-0.7-0.8-1-1.5c-1.5,1.7-3.8,2.5-6.8,2.5c-2.9,0-5.1-0.7-6.5-2
		c-1.3-1.3-2-3-2-5.1v-0.4c0-2.1,0.7-3.8,2.1-5.1c1.6-1.3,3.9-2,6.8-2h5.6v-1.2c0-2.1-0.3-3.5-1-4.4c-0.7-1-2.1-1.5-4.1-1.5
		c-1.8,0-3.5,0.4-5,1.2c-0.4,0.2-0.7,0.3-1,0.3c-0.5,0-1-0.2-1.3-0.6c-0.3-0.4-0.5-0.8-0.5-1.3c0-0.6,0.3-1.1,0.9-1.5
		c1.8-1.1,4.2-1.7,7.2-1.7c3.3,0,5.7,0.8,7.1,2.5c1.3,1.5,1.9,4,1.9,7.3v9.1c0,1.5,0.5,2.6,1.4,3.1c0.6,0.4,0.8,0.8,0.8,1.4
		C-58,277.1-58.7,277.7-60.1,277.7z M-64.4,266.4h-5.1c-3.4,0-5.2,1.3-5.2,3.8v0.4c0,2.5,1.7,3.8,5,3.8c3.5,0,5.3-1.7,5.3-5.1V266.4
		z"/>
	<path fill="#666666" d="M-258.9,313.5c-1.5,0.8-3.2,1.2-5.2,1.2c-2.7,0-4.8-0.9-6.2-2.6c-1.3-1.6-1.9-3.8-1.9-6.5v-2.8
		c0-2.7,0.7-4.8,2.1-6.5c1.4-1.8,3.4-2.7,6.1-2.7c2,0,3.7,0.4,5.1,1.2c0.5,0.3,0.8,0.8,0.8,1.3c0,0.4-0.1,0.8-0.4,1.1
		c-0.3,0.3-0.6,0.5-1,0.5c-0.2,0-0.5-0.1-0.7-0.2c-1.1-0.5-2.3-0.8-3.6-0.8c-1.5,0-2.7,0.5-3.5,1.6c-0.8,1.1-1.3,2.5-1.3,4.3v3.3
		c0,3.9,1.6,5.9,4.7,5.9c1.3,0,2.6-0.3,3.7-0.8c0.2-0.1,0.4-0.2,0.7-0.2c0.4,0,0.7,0.2,1,0.5c0.3,0.3,0.4,0.7,0.4,1.1
		C-258.1,312.7-258.4,313.2-258.9,313.5z"/>
	<path fill="#666666" d="M-240.6,312.2c-1.4,1.7-3.5,2.5-6.4,2.5c-2.8,0-4.9-0.8-6.3-2.5c-1.3-1.5-1.9-3.5-1.9-6v-4.2
		c0-2.5,0.6-4.5,1.9-6c1.4-1.7,3.5-2.5,6.3-2.5c2.8,0,4.9,0.8,6.4,2.5c1.3,1.5,1.9,3.5,1.9,6v4.2
		C-238.7,308.7-239.4,310.7-240.6,312.2z M-242.3,301.9c0-3.4-1.6-5.2-4.7-5.2c-3.1,0-4.6,1.7-4.6,5.2v4.2c0,3.5,1.5,5.2,4.6,5.2
		c3.1,0,4.7-1.7,4.7-5.2V301.9z"/>
	<path fill="#666666" d="M-229.9,314.7c-0.8,0-1.5-0.3-2.2-0.9c-1.1-0.8-1.6-2.1-1.6-3.8v-23.5c0-0.5,0.2-0.9,0.5-1.2
		c0.4-0.3,0.8-0.5,1.3-0.5s0.9,0.2,1.3,0.5c0.4,0.3,0.5,0.8,0.5,1.2v22.8c0,1.3,0.4,2.1,1.3,2.6c0.5,0.2,0.7,0.6,0.7,1.2
		C-228.2,314.1-228.8,314.7-229.9,314.7z"/>
	<path fill="#666666" d="M-220.1,314.7c-0.8,0-1.5-0.3-2.2-0.9c-1.1-0.8-1.6-2.1-1.6-3.8v-23.5c0-0.5,0.2-0.9,0.5-1.2
		c0.4-0.3,0.8-0.5,1.3-0.5s0.9,0.2,1.3,0.5c0.4,0.3,0.5,0.8,0.5,1.2v22.8c0,1.3,0.4,2.1,1.3,2.6c0.5,0.2,0.7,0.6,0.7,1.2
		C-218.3,314.1-218.9,314.7-220.1,314.7z"/>
	<path fill="#666666" d="M-198.8,303.7c0,0.9-0.5,1.4-1.4,1.4h-11.2v1.1c0,3.6,1.5,5.3,4.6,5.3c2,0,3.7-0.4,5.1-1.1
		c0.2-0.1,0.4-0.2,0.6-0.2c0.4,0,0.8,0.2,1,0.5c0.3,0.3,0.4,0.7,0.4,1.1c0,0.6-0.3,1-0.8,1.3c-1.9,1-4,1.5-6.5,1.5
		c-2.8,0-4.8-0.9-6.2-2.6c-1.2-1.5-1.8-3.5-1.8-6.1v-3.8c0-2.6,0.6-4.6,1.9-6.1c1.4-1.7,3.5-2.6,6.2-2.6c2.8,0,4.9,0.9,6.3,2.6
		c1.2,1.4,1.8,3.5,1.8,6V303.7z M-202.3,301.6c0-3.5-1.5-5.2-4.5-5.2c-3.1,0-4.6,1.7-4.6,5.2v0.7h9.1V301.6z"/>
	<path fill="#666666" d="M-181.4,313.5c-1.5,0.8-3.2,1.2-5.2,1.2c-2.7,0-4.8-0.9-6.2-2.6c-1.3-1.6-1.9-3.8-1.9-6.5v-2.8
		c0-2.7,0.7-4.8,2-6.5c1.4-1.8,3.4-2.7,6.1-2.7c2,0,3.7,0.4,5.1,1.2c0.5,0.3,0.8,0.8,0.8,1.3c0,0.4-0.1,0.8-0.4,1.1
		c-0.3,0.3-0.6,0.5-1,0.5c-0.2,0-0.5-0.1-0.7-0.2c-1.1-0.5-2.3-0.8-3.6-0.8c-1.5,0-2.7,0.5-3.5,1.6c-0.8,1.1-1.3,2.5-1.3,4.3v3.3
		c0,3.9,1.6,5.9,4.7,5.9c1.3,0,2.6-0.3,3.7-0.8c0.2-0.1,0.4-0.2,0.7-0.2c0.4,0,0.7,0.2,1,0.5c0.3,0.3,0.4,0.7,0.4,1.1
		C-180.6,312.7-180.8,313.2-181.4,313.5z"/>
	<path fill="#666666" d="M-166.5,313.9c-0.3,0.3-0.7,0.5-1.2,0.5h-1.2c-2.7,0-4.6-0.8-5.7-2.4c-1-1.4-1.4-3.6-1.4-6.4v-8.8h-1.2
		c-0.4,0-0.8-0.2-1.1-0.5c-0.3-0.3-0.5-0.7-0.5-1.1c0-0.4,0.1-0.8,0.5-1.1c0.3-0.3,0.7-0.5,1.1-0.5h1.2v-4.2c0-0.5,0.2-0.9,0.5-1.3
		c0.4-0.4,0.8-0.5,1.3-0.5s0.9,0.2,1.2,0.5c0.3,0.4,0.5,0.8,0.5,1.3v4.2h3.8c0.4,0,0.8,0.2,1.1,0.5s0.5,0.7,0.5,1.1
		c0,0.4-0.2,0.8-0.5,1.1s-0.7,0.5-1.1,0.5h-3.8v8.7c0,2.1,0.3,3.6,0.8,4.4c0.5,0.8,1.6,1.2,3.2,1.2h0.8c0.5,0,0.9,0.2,1.2,0.5
		c0.3,0.3,0.5,0.7,0.5,1.2C-166,313.2-166.2,313.6-166.5,313.9z"/>
	<path fill="#666666" d="M-159.4,288.4c-0.4,0.4-0.9,0.6-1.5,0.6c-0.6,0-1.1-0.2-1.5-0.6s-0.6-0.9-0.6-1.5c0-0.6,0.2-1.1,0.6-1.5
		c0.4-0.4,0.9-0.6,1.5-0.6c0.6,0,1.1,0.2,1.5,0.6c0.4,0.4,0.6,0.9,0.6,1.5C-158.8,287.5-159,288-159.4,288.4z M-159.6,314.1
		c-0.3,0.3-0.8,0.5-1.3,0.5c-0.5,0-0.9-0.2-1.2-0.5c-0.3-0.3-0.5-0.8-0.5-1.3v-17.6c0-0.5,0.2-0.9,0.5-1.3c0.3-0.4,0.8-0.5,1.2-0.5
		c0.5,0,0.9,0.2,1.3,0.5c0.3,0.4,0.5,0.8,0.5,1.3v17.6C-159.1,313.4-159.3,313.8-159.6,314.1z"/>
	<path fill="#666666" d="M-139.4,312.2c-1.4,1.7-3.5,2.5-6.4,2.5c-2.8,0-4.9-0.8-6.3-2.5c-1.3-1.5-1.9-3.5-1.9-6v-4.2
		c0-2.5,0.6-4.5,1.9-6c1.4-1.7,3.5-2.5,6.3-2.5c2.8,0,4.9,0.8,6.4,2.5c1.3,1.5,1.9,3.5,1.9,6v4.2
		C-137.5,308.7-138.1,310.7-139.4,312.2z M-141.1,301.9c0-3.4-1.6-5.2-4.7-5.2c-3.1,0-4.6,1.7-4.6,5.2v4.2c0,3.5,1.5,5.2,4.6,5.2
		c3.1,0,4.7-1.7,4.7-5.2V301.9z"/>
	<path fill="#666666" d="M-116.3,314.1c-0.3,0.3-0.8,0.5-1.3,0.5c-0.5,0-0.9-0.2-1.2-0.5c-0.3-0.3-0.5-0.8-0.5-1.3v-11.6
		c0-1.4-0.3-2.5-0.8-3.2c-0.6-0.8-1.7-1.2-3.1-1.2c-2.3,0-4,0.9-5,2.6v13.4c0,0.5-0.2,0.9-0.5,1.3s-0.8,0.5-1.3,0.5
		s-0.9-0.2-1.3-0.5c-0.4-0.4-0.5-0.8-0.5-1.3V299c0-1.3-0.4-2.1-1.3-2.6c-0.5-0.2-0.7-0.6-0.7-1.2c0-1,0.6-1.6,1.8-1.6
		c0.8,0,1.5,0.3,2.2,0.9c0.4,0.4,0.7,0.9,0.9,1.4c1.5-1.6,3.6-2.5,6.4-2.5c4.5,0,6.7,2.5,6.7,7.5v11.9
		C-115.8,313.4-115.9,313.8-116.3,314.1z"/>
	<path fill="#666666" d="M-98.9,313.1c-1.4,1-3.3,1.6-5.6,1.6c-2.2,0-4.1-0.3-5.8-0.9c-0.7-0.2-1-0.7-1-1.5c0-0.4,0.1-0.8,0.4-1.1
		s0.6-0.5,1.1-0.5c0.2,0,0.4,0,0.6,0.1c1.5,0.5,3,0.8,4.7,0.8c2.9,0,4.4-1.1,4.4-3.2c0-1.1-0.6-1.9-1.8-2.4c-0.1,0-0.5-0.1-1.1-0.3
		c-0.6-0.1-1.6-0.4-2.8-0.7c-1.6-0.4-2.8-0.9-3.6-1.6c-1.1-0.9-1.6-2.2-1.6-4c0-1.9,0.7-3.4,2.1-4.6c1.3-1,2.9-1.6,5-1.6
		c2,0,3.8,0.3,5.3,0.9c0.7,0.3,1.1,0.8,1.1,1.5c0,0.4-0.2,0.8-0.5,1.1s-0.7,0.5-1.1,0.5c-0.1,0-0.3,0-0.5-0.1
		c-1.4-0.5-2.8-0.8-4.1-0.8c-2.5,0-3.8,1-3.8,2.9c0,1,0.5,1.7,1.6,2.2c0.4,0.2,1.6,0.5,3.6,0.9c1.8,0.4,3.1,0.9,4,1.5
		c1.3,0.9,1.9,2.4,1.9,4.3C-96.7,310.4-97.4,312-98.9,313.1z"/>
</g>
</svg>
