<?xml version="1.0" encoding="utf-8"?>
<svg width="380" height="44" viewBox="0 0 380 44" xmlns="http://www.w3.org/2000/svg"><g fill="none" fill-rule="evenodd"><path d="M28.898 13.37h.043-.043M8.851 26.55a5.716 5.716 0 1 1-.001 11.432 5.716 5.716 0 0 1 0-11.432m4.138 12.796a2.949 2.949 0 0 1 2.943-2.943 2.949 2.949 0 0 1 2.943 2.943 2.949 2.949 0 0 1-2.943 2.944 2.949 2.949 0 0 1-2.943-2.944m22.564-23.331c-.043-.384-.085-.768-.085-1.152-.085-.299-.128-.768-.17-1.024-.129-.341-.129-.469-.171-.725-.086-.256-.086-.256-.214-.81-.298-1.067-.767-2.133-1.28-3.157-.34-.64-.767-1.194-1.194-1.749a5.417 5.417 0 0 0-.426-.511c-.17-.214-1.11-1.323-1.408-1.579-.298-.255-.554-.511-.895-.767-.3-.256-.64-.512-.939-.725-.256-.214-.554-.299-.81-.47-1.45-.895-3.071-1.62-4.735-2.004-5.588-1.28-12.156.597-15.782 5.16-.384.47-.768.94-1.152 1.451-.17.213-.255.512-.426.768a12.233 12.233 0 0 0-.853 1.663c-1.024 2.26-1.664 5.033-1.45 7.635.128 1.45.383 2.9.895 4.266.17.426.299.853.512 1.28.128.298.47.895.512.98a8.524 8.524 0 0 0-5.076 7.806c0 4.692 3.839 8.53 8.531 8.53 1.024 0 2.005-.17 2.9-.51 0 .042.043.042.043.084.47 1.835 2.133 3.242 4.138 3.242a4.278 4.278 0 0 0 4.265-4.265 4.26 4.26 0 0 0-3.327-4.18c0-.043.043-.086.043-.128.042-.171.128-.342.17-.512.086-.213.128-.427.17-.683 0-.128.043-.256.043-.426.043-.17.043-.341.043-.512.043-.043.085 0 .17 0 .94.043 1.878.213 2.816.128 1.749-.085 3.626-.427 5.204-1.152 1.663-.725 3.284-1.663 4.649-2.9.64-.555 1.28-1.195 1.792-1.92.255-.34.554-.64.767-.98.17-.3.427-.598.597-.896.128-.214.128-.342.256-.555.086-.128.171-.256.214-.427.128-.298.17-.64.17-.98.043-.64-.17-1.323-.554-1.877-.299-.47-1.024-.896-1.578-1.067-.64-.17-1.408-.128-2.048.086-.682.256-1.152.853-1.535 1.493-.427.682-.81 1.322-1.365 1.876-1.067 1.067-2.218 1.92-3.626 2.474-5.374 2.176-11.602-.768-13.393-6.27-.81-2.56-.597-5.417.725-7.806a11.066 11.066 0 0 1 2.73-3.241 9.287 9.287 0 0 1 1.962-1.195c.64-.256 1.28-.426 1.92-.64.511-.17 1.193-.213 1.705-.255a7.614 7.614 0 0 1 1.707.042c1.151.17 2.345.47 3.412.981.554.299 1.194.683 1.706 1.11.512.426 1.066.938 1.493 1.45.341.426.512.725.853 1.151.341.512.81 1.067.853 1.706h-4.01c-1.279 0-2.687-.298-3.88.299-1.238.64-2.219 2.431-1.409 3.754.384.64.555 1.151 1.28 1.492.725.342 1.322.384 2.133.384 1.834-.042 3.668 0 5.502 0H31.5c.81 0 1.62.043 2.389-.256 1.151-.383 1.791-1.62 1.663-2.985" fill="#1A1A1A"/><g fill="#1A1A1A"><path d="M60.53 24.586c0 .87-.391 1.344-1.25 1.344H48.888v1.028c0 3.32 1.406 4.98 4.297 4.98 1.797 0 3.437-.395 4.765-1.107.157-.079.39-.158.547-.158.39 0 .703.158.938.474.234.317.39.633.39 1.028 0 .553-.234.949-.781 1.265-1.719.948-3.75 1.423-6.016 1.423-2.578 0-4.53-.79-5.78-2.45-1.173-1.424-1.72-3.321-1.72-5.772v-3.557c0-2.45.547-4.348 1.72-5.77 1.327-1.582 3.202-2.451 5.78-2.451 2.657 0 4.532.79 5.86 2.45 1.094 1.344 1.64 3.241 1.64 5.692v1.581zm-3.282-1.976c0-3.241-1.406-4.901-4.14-4.901-2.813 0-4.297 1.66-4.297 4.9v.633h8.437v-.632zM80.036 34.863c-.72 0-1.439-.237-2.078-.79-.4-.317-.64-.791-.96-1.424-1.438 1.502-3.436 2.214-6.074 2.214-4.236 0-6.395-2.372-6.395-7.036V16.602c0-.474.16-.87.48-1.186.32-.316.72-.474 1.199-.474.48 0 .88.158 1.199.474.32.316.48.712.48 1.186V27.51c0 1.344.24 2.372.719 3.004.56.711 1.598 1.107 2.957 1.107 2.238 0 3.837-.87 4.716-2.61v-12.49c0-.473.16-.869.48-1.185.32-.316.72-.474 1.199-.474.48 0 .879.158 1.199.474.32.316.48.712.48 1.186v13.201c0 1.186.399 2.056 1.198 2.451.48.237.64.632.64 1.107.24 1.106-.32 1.58-1.44 1.58zM94.4 18.42c-.227 0-.38-.079-.607-.079-.229 0-.457-.079-.685-.079h-.532c-2.28 0-3.649 1.186-4.105 3.478v11.463c0 .474-.152.87-.456 1.185a1.517 1.517 0 0 1-1.14.475c-.457 0-.837-.158-1.14-.475-.305-.316-.457-.711-.457-1.185V20.238c0-1.186-.38-2.055-1.14-2.45-.457-.238-.609-.633-.609-1.107 0-.949.533-1.502 1.597-1.502h.532c1.216.316 2.053 1.107 2.509 2.371 1.216-1.739 2.889-2.687 5.093-2.687.989 0 1.825.158 2.51.474.531.316.76.712.76 1.344 0 .474-.153.87-.457 1.186a1.473 1.473 0 0 1-1.064.474c-.228.08-.38.08-.608.08zM112.661 32.482c-1.38 1.587-3.41 2.38-6.172 2.38-2.68 0-4.71-.793-6.092-2.38-1.218-1.429-1.868-3.334-1.868-5.635v-3.968c0-2.381.65-4.207 1.868-5.635 1.381-1.588 3.412-2.381 6.092-2.381 2.761 0 4.792.793 6.172 2.38 1.219 1.43 1.868 3.334 1.868 5.636v3.968c0 2.38-.65 4.206-1.868 5.635zm-1.624-9.603c0-3.254-1.543-4.842-4.548-4.842s-4.467 1.588-4.467 4.842v3.968c0 3.254 1.462 4.92 4.467 4.92s4.548-1.666 4.548-4.92v-3.968zM126.406 34.267c-1.781 0-3.32-.46-4.696-1.457v6.442c0 .46-.162.844-.485 1.15-.324.307-.729.46-1.215.46-.485 0-.89-.153-1.214-.46a1.52 1.52 0 0 1-.486-1.15v-19.48c0-1.228-.404-1.995-1.133-2.378-.486-.23-.648-.614-.648-1.074 0-.92.567-1.457 1.7-1.457.729 0 1.458.23 2.105.767.243.23.486.537.729.843 1.619-1.073 3.319-1.61 5.18-1.61 4.858 0 7.286 2.53 7.286 7.593v3.374c0 5.676-2.428 8.437-7.123 8.437zm3.642-11.965c0-2.99-1.457-4.525-4.371-4.525-1.376 0-2.752.537-3.967 1.534v10.354c1.215 1.15 2.59 1.687 4.129 1.687 2.833 0 4.21-1.687 4.21-5.062v-3.988zM151.53 24.586c0 .87-.391 1.344-1.25 1.344h-10.391v1.028c0 3.32 1.406 4.98 4.297 4.98 1.797 0 3.437-.395 4.765-1.107.157-.079.39-.158.547-.158.39 0 .703.158.938.474.234.317.39.633.39 1.028 0 .553-.234.949-.781 1.265-1.719.948-3.75 1.423-6.016 1.423-2.578 0-4.53-.79-5.78-2.45-1.173-1.424-1.72-3.321-1.72-5.772v-3.557c0-2.45.547-4.348 1.72-5.77 1.327-1.582 3.202-2.451 5.78-2.451 2.657 0 4.532.79 5.86 2.45 1.094 1.344 1.64 3.241 1.64 5.692v1.581zm-3.204-1.976c0-3.241-1.406-4.901-4.14-4.901-2.813 0-4.297 1.66-4.297 4.9v.633h8.437v-.632zM168.922 34.863c-.766 0-1.455-.237-1.914-.79-.306-.238-.536-.633-.766-1.187-1.148 1.344-2.909 1.977-5.205 1.977-2.22 0-3.905-.554-4.976-1.581-.996-1.028-1.532-2.372-1.532-4.032v-.316c0-1.66.536-3.004 1.608-4.032 1.225-1.027 2.986-1.58 5.206-1.58h4.287v-.95c0-1.66-.23-2.766-.766-3.478-.536-.79-1.607-1.185-3.138-1.185-1.378 0-2.68.316-3.828.948-.306.158-.536.237-.766.237-.382 0-.765-.158-.995-.474-.23-.316-.383-.632-.383-1.028 0-.474.23-.87.69-1.185 1.377-.87 3.215-1.344 5.511-1.344 2.527 0 4.364.632 5.436 1.976.995 1.186 1.454 3.162 1.454 5.77v7.194c0 1.186.383 2.056 1.072 2.451.46.316.612.632.612 1.107 0 1.027-.535 1.502-1.607 1.502zm-3.369-8.933h-3.904c-2.603 0-3.98 1.028-3.98 3.004v.316c0 1.976 1.3 3.004 3.827 3.004 2.68 0 4.057-1.344 4.057-4.032V25.93zM189.894 34.387c-.318.317-.715.476-1.192.476-.476 0-.874-.159-1.191-.476-.318-.318-.477-.715-.477-1.19V22.243c0-1.35-.238-2.381-.715-3.016-.556-.794-1.589-1.19-2.94-1.19-2.223 0-3.733.793-4.686 2.46v12.698c0 .476-.159.873-.477 1.19-.317.318-.715.477-1.191.477-.477 0-.874-.159-1.192-.476-.318-.318-.476-.715-.476-1.19V20.18c0-1.19-.398-2.063-1.192-2.46-.477-.238-.636-.635-.636-1.111 0-.953.556-1.508 1.669-1.508.715 0 1.43.238 2.065.793.397.397.636.794.874 1.27 1.43-1.587 3.416-2.301 6.037-2.301 4.21 0 6.355 2.38 6.355 7.063v11.27c-.158.476-.317.873-.635 1.19zM206.922 34.863c-.766 0-1.455-.237-1.914-.79-.306-.238-.536-.633-.766-1.187-1.148 1.344-2.909 1.977-5.205 1.977-2.22 0-3.905-.554-4.976-1.581-.996-1.028-1.532-2.372-1.532-4.032v-.316c0-1.66.536-3.004 1.608-4.032 1.225-1.027 2.986-1.58 5.206-1.58h4.287v-.95c0-1.66-.23-2.766-.766-3.478-.536-.79-1.607-1.185-3.138-1.185-1.378 0-2.68.316-3.828.948-.306.158-.536.237-.766.237-.382 0-.765-.158-.995-.474-.23-.316-.383-.632-.383-1.028 0-.474.23-.87.69-1.185 1.377-.87 3.215-1.344 5.511-1.344 2.527 0 4.364.632 5.436 1.976.995 1.186 1.454 3.162 1.454 5.77v7.194c0 1.186.383 2.056 1.072 2.451.46.316.612.632.612 1.107 0 1.027-.535 1.502-1.607 1.502zm-3.292-8.933h-3.904c-2.603 0-3.981 1.028-3.981 3.004v.316c0 1.976 1.301 3.004 3.827 3.004 2.68 0 4.058-1.344 4.058-4.032V25.93z"/></g><g fill="#777"><path d="M231.792 33.725c-1.383.759-2.95 1.138-4.795 1.138-2.489 0-4.425-.853-5.716-2.465-1.198-1.516-1.752-3.602-1.752-6.16v-2.655c0-2.56.646-4.55 1.937-6.161 1.29-1.706 3.134-2.56 5.624-2.56 1.844 0 3.411.38 4.702 1.138.46.285.737.758.737 1.232 0 .38-.092.759-.368 1.043-.277.284-.554.474-.922.474-.185 0-.461-.095-.646-.19a7.773 7.773 0 0 0-3.319-.758c-1.383 0-2.49.474-3.227 1.517-.737 1.042-1.198 2.37-1.198 4.076v3.128c0 3.696 1.475 5.592 4.333 5.592a8.19 8.19 0 0 0 3.411-.758c.185-.095.369-.19.646-.19.368 0 .645.19.922.474.276.284.368.664.368 1.043 0 .284-.276.758-.737 1.042zM248.687 32.504c-1.358 1.604-3.394 2.359-6.206 2.359-2.715 0-4.752-.755-6.11-2.359-1.26-1.415-1.842-3.302-1.842-5.66v-3.962c0-2.359.582-4.246 1.843-5.66 1.357-1.605 3.394-2.36 6.109-2.36s4.751.755 6.206 2.36c1.26 1.414 1.842 3.301 1.842 5.66v3.962c0 2.358-.678 4.245-1.842 5.66zm-1.648-9.717c0-3.207-1.552-4.905-4.558-4.905s-4.46 1.603-4.46 4.905v3.963c0 3.301 1.454 4.905 4.46 4.905 3.006 0 4.558-1.604 4.558-4.905v-3.963zM257.922 34.863c-.714 0-1.339-.281-1.964-.843-.982-.75-1.429-1.967-1.429-3.559V8.455c0-.469.179-.843.447-1.124.357-.281.714-.468 1.16-.468.447 0 .804.187 1.161.468.357.28.447.75.447 1.124v21.35c0 1.218.357 1.967 1.16 2.436.447.187.625.562.625 1.123-.089.937-.625 1.499-1.607 1.499zM267.922 34.863c-.714 0-1.339-.281-1.964-.843-.982-.75-1.429-1.967-1.429-3.559V8.455c0-.469.179-.843.447-1.124.357-.281.714-.468 1.16-.468.447 0 .804.187 1.161.468.357.28.447.75.447 1.124v21.35c0 1.218.357 1.967 1.16 2.436.447.187.625.562.625 1.123 0 .937-.535 1.499-1.607 1.499zM287.53 24.58c0 .849-.464 1.32-1.297 1.32h-10.37v1.038c0 3.396 1.389 5 4.259 5 1.852 0 3.426-.377 4.722-1.038.185-.094.37-.188.556-.188.37 0 .74.188.926.471.277.284.37.66.37 1.038 0 .566-.278.944-.74 1.227-1.76.943-3.704 1.415-6.02 1.415-2.592 0-4.444-.85-5.74-2.453-1.111-1.415-1.667-3.302-1.667-5.755V23.07c0-2.453.556-4.34 1.76-5.754 1.296-1.604 3.24-2.453 5.74-2.453 2.593 0 4.537.849 5.834 2.453 1.11 1.32 1.666 3.301 1.666 5.66v1.604zm-3.241-1.981c0-3.302-1.39-4.906-4.167-4.906-2.87 0-4.26 1.604-4.26 4.906v.66h8.427v-.66zM302.858 33.725c-1.39.759-2.966 1.138-4.82 1.138-2.503 0-4.45-.853-5.747-2.465-1.205-1.516-1.762-3.602-1.762-6.16v-2.655c0-2.56.65-4.55 1.854-6.161 1.298-1.706 3.152-2.56 5.655-2.56 1.854 0 3.43.38 4.727 1.138.464.285.742.758.742 1.232 0 .38-.093.759-.371 1.043-.278.284-.556.474-.927.474-.185 0-.464-.095-.649-.19a7.85 7.85 0 0 0-3.337-.758c-1.39 0-2.503.474-3.244 1.517-.742 1.042-1.205 2.37-1.205 4.076v3.128c0 3.696 1.483 5.592 4.356 5.592 1.205 0 2.41-.284 3.43-.758.185-.095.37-.19.649-.19.37 0 .649.19.927.474s.37.664.37 1.043c.093.284-.092.758-.648 1.042zM316.06 34.378a1.527 1.527 0 0 1-1.124.485h-1.125c-2.532 0-4.313-.776-5.344-2.329-.938-1.358-1.313-3.492-1.313-6.209v-8.537h-1.125c-.375 0-.75-.194-1.03-.485-.282-.291-.47-.68-.47-1.067 0-.388.094-.776.47-1.067.28-.291.655-.485 1.03-.485h1.125v-4.075c0-.485.188-.873.47-1.261.374-.388.75-.485 1.218-.485.469 0 .844.194 1.125.485.281.388.469.776.469 1.261v4.075h3.562c.375 0 .75.194 1.031.485.282.29.47.679.47 1.067 0 .388-.188.776-.47 1.067-.28.291-.656.485-1.03.485h-3.563v8.44c0 2.038.28 3.493.75 4.27.468.775 1.5 1.163 3 1.163h.75c.468 0 .843.194 1.125.485.28.291.468.68.468 1.165 0 .388-.187.776-.468 1.067zM322.958 10.245c-.381.376-.857.564-1.429.564-.571 0-1.047-.188-1.428-.564-.381-.376-.572-.845-.572-1.41 0-.563.19-1.033.572-1.408.38-.376.857-.564 1.428-.564.572 0 1.048.188 1.429.564.38.375.571.845.571 1.409 0 .564-.19 1.033-.571 1.41zm-.19 24.148c-.286.282-.762.47-1.239.47-.476 0-.857-.188-1.142-.47-.286-.282-.477-.752-.477-1.222V16.635c0-.47.19-.846.477-1.222.285-.376.761-.47 1.142-.47.477 0 .858.188 1.239.47.285.376.476.752.476 1.222V33.17c0 .564-.19.94-.476 1.222zM340.687 32.504c-1.358 1.604-3.394 2.359-6.206 2.359-2.715 0-4.752-.755-6.11-2.359-1.26-1.415-1.842-3.302-1.842-5.66v-3.962c0-2.359.582-4.246 1.843-5.66 1.357-1.605 3.394-2.36 6.109-2.36s4.751.755 6.206 2.36c1.26 1.414 1.842 3.301 1.842 5.66v3.962c0 2.358-.581 4.245-1.842 5.66zm-1.648-9.717c0-3.207-1.552-4.905-4.558-4.905s-4.46 1.603-4.46 4.905v3.963c0 3.301 1.454 4.905 4.46 4.905 3.006 0 4.558-1.604 4.558-4.905v-3.963zM362.057 34.391c-.283.283-.755.472-1.228.472-.472 0-.85-.189-1.133-.472-.283-.283-.472-.755-.472-1.226V22.22c0-1.32-.283-2.358-.756-3.019-.566-.754-1.605-1.132-2.927-1.132-2.173 0-3.778.85-4.723 2.453v12.642c0 .471-.189.849-.472 1.226s-.755.472-1.228.472c-.472 0-.85-.189-1.227-.472-.378-.377-.473-.755-.473-1.226v-13.02c0-1.226-.377-1.98-1.227-2.452-.473-.189-.662-.566-.662-1.132 0-.944.567-1.51 1.7-1.51.756 0 1.417.283 2.078.85.378.377.661.849.85 1.32 1.417-1.51 3.4-2.358 6.045-2.358 4.25 0 6.327 2.358 6.327 7.075v11.227c0 .566-.094.943-.472 1.226zM377.18 33.374c-1.315.93-3.1 1.489-5.261 1.489-2.067 0-3.853-.28-5.45-.837-.658-.187-.94-.652-.94-1.396 0-.372.094-.744.376-1.023.282-.28.564-.465 1.034-.465.188 0 .376 0 .564.093 1.409.465 2.818.744 4.416.744 2.725 0 4.134-1.023 4.134-2.977 0-1.023-.564-1.767-1.691-2.232-.094 0-.47-.093-1.034-.28-.564-.092-1.503-.371-2.63-.65-1.504-.373-2.632-.838-3.383-1.489-1.034-.837-1.504-2.046-1.504-3.72 0-1.768.658-3.164 1.973-4.28 1.222-.93 2.725-1.488 4.698-1.488 1.88 0 3.57.279 4.98.837.658.279 1.034.744 1.034 1.395 0 .372-.188.744-.47 1.024-.282.279-.658.465-1.034.465-.093 0-.281 0-.47-.093-1.315-.465-2.63-.745-3.852-.745-2.349 0-3.57.93-3.57 2.698 0 .93.47 1.582 1.503 2.047.376.186 1.504.465 3.383.837 1.691.372 2.913.837 3.758 1.395 1.222.837 1.785 2.233 1.785 4-.281 2.14-.94 3.628-2.349 4.651z"/></g></g></svg>

