<?xml version="1.0" encoding="utf-8"?>
<svg viewBox="0 0 26 30" width="15" height="15" xmlns="http://www.w3.org/2000/svg">
  <path class="path1" fill="#ffffff" fill-rule="evenodd" d="M16.364 1.636q4.061 0 6.939 2.879t2.879 6.939-2.879 6.939-6.939 2.879q-2.879 0-5.242-1.515l-7.394 7.424q-0.636 0.636-1.545 0.636t-1.545-0.636-0.636-1.545 0.636-1.545l7.424-7.394q-1.515-2.364-1.515-5.242 0-4.061 2.879-6.939t6.939-2.879zM16.364 18q2.697 0 4.621-1.924t1.924-4.621-1.924-4.621-4.621-1.924-4.621 1.924-1.924 4.621 1.924 4.621 4.621 1.924z"></path>
</svg>