<?xml version="1.0" encoding="UTF-8" standalone="no"?>
<!-- Created with Inkscape (http://www.inkscape.org/) -->

<svg
   version="1.1"
   id="svg2"
   xml:space="preserve"
   width="1200"
   height="284.66666"
   viewBox="0 0 1200 284.66666"
   sodipodi:docname="GA-Funded by the EU_NEG.eps"
   xmlns:inkscape="http://www.inkscape.org/namespaces/inkscape"
   xmlns:sodipodi="http://sodipodi.sourceforge.net/DTD/sodipodi-0.dtd"
   xmlns="http://www.w3.org/2000/svg"
   xmlns:svg="http://www.w3.org/2000/svg"><defs
     id="defs6" /><sodipodi:namedview
     id="namedview4"
     pagecolor="#ffffff"
     bordercolor="#666666"
     borderopacity="1.0"
     inkscape:pageshadow="2"
     inkscape:pageopacity="0.0"
     inkscape:pagecheckerboard="0" /><g
     id="g8"
     inkscape:groupmode="layer"
     inkscape:label="ink_ext_XXXXXX"
     transform="matrix(1.3333333,0,0,-1.3333333,0,284.66667)"><g
       id="g10"
       transform="scale(0.1)"><path
         d="M 299.242,71.0586 H 3248.7 V 2073.9 H 299.242 V 71.0586"
         style="fill:#ffffff;fill-opacity:1;fill-rule:nonzero;stroke:none"
         id="path12" /><path
         d="M 355.961,128.281 H 3191.99 V 2018.97 H 355.961 V 128.281"
         style="fill:#264ca4;fill-opacity:1;fill-rule:nonzero;stroke:none"
         id="path14" /><path
         d="m 1713.55,1607.02 59.83,43.67 59.86,-43.67 -22.79,70.63 60.79,43.67 h -74.93 l -22.93,71.48 -22.93,-71.56 -74.88,0.08 60.74,-43.67 -22.76,-70.63"
         style="fill:#f5f014;fill-opacity:1;fill-rule:nonzero;stroke:none"
         id="path16" /><path
         d="m 1403.85,1523.82 59.85,43.67 59.81,-43.67 -22.74,70.63 60.75,43.68 h -74.93 l -22.92,71.55 -22.93,-71.64 -74.9,0.09 60.75,-43.68 -22.74,-70.63"
         style="fill:#f5f014;fill-opacity:1;fill-rule:nonzero;stroke:none"
         id="path18" /><path
         d="m 1237.09,1482.57 -22.93,-71.64 -74.88,0.09 60.74,-43.68 -22.76,-70.63 59.83,43.68 59.85,-43.68 -22.78,70.63 60.75,43.68 h -74.89 l -22.93,71.55"
         style="fill:#f5f014;fill-opacity:1;fill-rule:nonzero;stroke:none"
         id="path20" /><path
         d="m 1153.98,1031.08 59.8,-43.658 -22.73,70.608 60.73,43.68 h -74.87 l -22.93,71.56 -22.93,-71.72 -74.92,0.16 60.78,-43.68 -22.78,-70.608 59.85,43.658"
         style="fill:#f5f014;fill-opacity:1;fill-rule:nonzero;stroke:none"
         id="path22" /><path
         d="m 1260.02,791.48 -22.93,71.559 -22.93,-71.641 -74.88,0.082 60.74,-43.66 -22.76,-70.64 59.83,43.75 59.85,-43.75 -22.78,70.64 60.75,43.66 h -74.89"
         style="fill:#f5f014;fill-opacity:1;fill-rule:nonzero;stroke:none"
         id="path24" /><path
         d="m 1487.05,564.461 -22.93,71.469 -22.89,-71.559 -74.92,0.09 60.74,-43.68 -22.72,-70.633 59.83,43.672 59.81,-43.672 -22.74,70.633 60.75,43.68 h -74.93"
         style="fill:#f5f014;fill-opacity:1;fill-rule:nonzero;stroke:none"
         id="path26" /><path
         d="m 1796.35,482.18 -22.93,71.558 -22.89,-71.636 -74.91,0.078 60.73,-43.668 -22.72,-70.633 59.83,43.68 59.81,-43.68 -22.78,70.633 60.78,43.668 h -74.92"
         style="fill:#f5f014;fill-opacity:1;fill-rule:nonzero;stroke:none"
         id="path28" /><path
         d="m 2105.66,564.461 -22.89,71.469 -22.97,-71.559 -74.85,0.09 60.71,-43.68 -22.74,-70.633 59.85,43.672 59.83,-43.672 -22.8,70.633 60.78,43.68 h -74.92"
         style="fill:#f5f014;fill-opacity:1;fill-rule:nonzero;stroke:none"
         id="path30" /><path
         d="m 2332.77,791.48 -22.97,71.559 -22.97,-71.641 -74.84,0.082 60.78,-43.66 -22.82,-70.64 59.85,43.75 59.83,-43.75 -22.8,70.64 60.77,43.66 h -74.83"
         style="fill:#f5f014;fill-opacity:1;fill-rule:nonzero;stroke:none"
         id="path32" /><path
         d="m 2489.88,1102.57 h -74.93 l -22.96,71.57 -22.89,-71.65 -74.93,0.08 60.78,-43.67 -22.74,-70.619 59.78,43.749 59.84,-43.749 -22.73,70.619 60.78,43.67"
         style="fill:#f5f014;fill-opacity:1;fill-rule:nonzero;stroke:none"
         id="path34" /><path
         d="m 2249.95,1297.66 59.84,43.66 59.84,-43.66 -22.8,70.63 60.77,43.59 h -74.84 l -22.97,71.55 -22.96,-71.64 -74.85,0.09 60.78,-43.59 -22.81,-70.63"
         style="fill:#f5f014;fill-opacity:1;fill-rule:nonzero;stroke:none"
         id="path36" /><path
         d="m 2083.63,1709.6 -22.89,-71.64 -74.93,0.17 60.71,-43.75 -22.74,-70.64 59.92,43.75 59.76,-43.75 -22.72,70.64 60.78,43.75 h -75 l -22.89,71.47"
         style="fill:#f5f014;fill-opacity:1;fill-rule:nonzero;stroke:none"
         id="path38" /><path
         d="m 3601.88,1300.63 v 465.28 h 140.6 l 84.43,-317.39 83.46,317.39 h 140.92 v -465.28 h -87.27 v 366.25 l -92.36,-366.25 h -90.46 l -92.04,366.25 v -366.25 h -87.28"
         style="fill:#ffffff;fill-opacity:1;fill-rule:nonzero;stroke:none"
         id="path40" /><path
         d="m 4329.95,1462.49 c -11.42,-3.81 -29.51,-8.36 -54.26,-13.64 -24.76,-5.3 -40.95,-10.48 -48.57,-15.56 -11.63,-8.25 -17.45,-18.72 -17.45,-31.41 0,-12.5 4.65,-23.29 13.97,-32.39 9.3,-9.09 21.15,-13.64 35.54,-13.64 16.08,0 31.42,5.28 46.03,15.87 10.78,8.03 17.87,17.88 21.26,29.51 2.32,7.62 3.48,22.11 3.48,43.48 z m -119.33,72.36 -80.93,14.6 c 9.09,32.58 24.76,56.7 46.97,72.37 22.22,15.65 55.23,23.48 99.03,23.48 39.77,0 69.39,-4.71 88.86,-14.12 19.47,-9.42 33.17,-21.38 41.11,-35.87 7.93,-14.49 11.89,-41.09 11.89,-79.82 l -0.94,-104.1 c 0,-29.62 1.42,-51.47 4.28,-65.54 2.85,-14.07 8.2,-29.15 16.03,-45.22 h -88.23 c -2.34,5.91 -5.19,14.7 -8.58,26.34 -1.47,5.28 -2.54,8.77 -3.16,10.47 -15.24,-14.81 -31.54,-25.92 -48.89,-33.32 -17.34,-7.41 -35.86,-11.11 -55.54,-11.11 -34.7,0 -62.05,9.41 -82.04,28.24 -20,18.84 -30,42.64 -30,71.41 0,19.05 4.55,36.03 13.65,50.94 9.1,14.92 21.85,26.35 38.25,34.28 16.39,7.94 40.04,14.86 70.93,20.79 41.68,7.82 70.57,15.13 86.64,21.9 v 8.88 c 0,17.15 -4.22,29.37 -12.69,36.66 -8.46,7.31 -24.43,10.96 -47.92,10.96 -15.87,0 -28.25,-3.12 -37.14,-9.37 -8.89,-6.25 -16.07,-17.19 -21.58,-32.85"
         style="fill:#ffffff;fill-opacity:1;fill-rule:nonzero;stroke:none"
         id="path42" /><path
         d="m 4576.24,1469.16 c 0,-33.44 7.94,-59.04 23.8,-76.82 15.88,-17.77 35.44,-26.66 58.72,-26.66 23.27,0 42.8,8.89 58.56,26.66 15.76,17.78 23.64,43.6 23.64,77.45 0,33 -7.88,58.39 -23.64,76.17 -15.76,17.77 -35.29,26.66 -58.56,26.66 -23.28,0 -42.84,-8.89 -58.72,-26.66 -15.86,-17.78 -23.8,-43.37 -23.8,-76.8 z m -91.4,4.75 c 0,29.63 7.29,58.3 21.9,86.01 14.59,27.72 35.28,48.89 62.04,63.48 26.77,14.61 56.65,21.9 89.66,21.9 51,0 92.78,-16.56 125.37,-49.67 32.58,-33.11 48.88,-74.96 48.88,-125.52 0,-51 -16.46,-93.27 -49.36,-126.8 -32.9,-33.54 -74.31,-50.3 -124.24,-50.3 -30.9,0 -60.37,6.98 -88.4,20.94 -28.04,13.97 -49.36,34.44 -63.95,61.42 -14.61,26.97 -21.9,59.83 -21.9,98.54"
         style="fill:#ffffff;fill-opacity:1;fill-rule:nonzero;stroke:none"
         id="path44" /><path
         d="m 4902.52,1300.63 v 337.05 h 89.18 v -337.05 z m 0,382.76 v 82.52 h 89.18 v -82.52 h -89.18"
         style="fill:#ffffff;fill-opacity:1;fill-rule:nonzero;stroke:none"
         id="path46" /><path
         d="m 5389.69,1300.63 h -89.18 v 172.01 c 0,36.39 -1.9,59.94 -5.71,70.62 -3.81,10.69 -10,18.99 -18.57,24.92 -8.57,5.92 -18.88,8.89 -30.94,8.89 -15.45,0 -29.31,-4.24 -41.58,-12.69 -12.27,-8.47 -20.69,-19.69 -25.23,-33.66 -4.55,-13.96 -6.83,-39.77 -6.83,-77.44 v -152.65 h -89.19 v 337.05 h 82.85 v -49.51 c 29.4,38.09 66.43,57.13 111.08,57.13 19.68,0 37.66,-3.54 53.96,-10.63 16.28,-7.09 28.61,-16.13 36.97,-27.13 8.36,-11.01 14.18,-23.5 17.46,-37.46 3.27,-13.97 4.91,-33.96 4.91,-59.98 v -209.47"
         style="fill:#ffffff;fill-opacity:1;fill-rule:nonzero;stroke:none"
         id="path48" /><path
         d="m 5480.16,1300.63 v 337.05 h 89.18 v -337.05 z m 0,382.76 v 82.52 h 89.18 v -82.52 h -89.18"
         style="fill:#ffffff;fill-opacity:1;fill-rule:nonzero;stroke:none"
         id="path50" /><path
         d="m 5815.31,1637.68 v -71.09 h -60.94 v -135.84 c 0,-27.51 0.58,-43.54 1.75,-48.09 1.16,-4.55 3.81,-8.3 7.93,-11.25 4.13,-2.97 9.15,-4.46 15.07,-4.46 8.26,0 20.21,2.86 35.86,8.58 l 7.62,-69.19 c -20.73,-8.89 -44.22,-13.33 -70.45,-13.33 -16.08,0 -30.58,2.69 -43.48,8.09 -12.91,5.39 -22.38,12.38 -28.41,20.95 -6.03,8.56 -10.21,20.16 -12.54,34.75 -1.9,10.37 -2.85,31.31 -2.85,62.85 v 146.94 h -40.94 v 71.09 h 40.94 v 66.97 l 89.5,52.05 v -119.02 h 60.94"
         style="fill:#ffffff;fill-opacity:1;fill-rule:nonzero;stroke:none"
         id="path52" /><path
         d="m 5966.08,1765.91 v -171.07 c 28.77,33.64 63.15,50.46 103.14,50.46 20.52,0 39.05,-3.81 55.55,-11.42 16.5,-7.62 28.93,-17.36 37.28,-29.2 8.36,-11.86 14.08,-24.97 17.14,-39.36 3.07,-14.39 4.6,-36.71 4.6,-66.96 v -197.73 h -89.18 v 178.04 c 0,35.34 -1.7,57.78 -5.08,67.29 -3.38,9.53 -9.36,17.09 -17.92,22.69 -8.58,5.61 -19.32,8.42 -32.22,8.42 -14.82,0 -28.04,-3.61 -39.68,-10.8 -11.63,-7.19 -20.15,-18.04 -25.55,-32.53 -5.39,-14.49 -8.08,-35.92 -8.08,-64.27 v -168.84 h -89.19 v 465.28 h 89.19"
         style="fill:#ffffff;fill-opacity:1;fill-rule:nonzero;stroke:none"
         id="path54" /><path
         d="m 6474.52,1498.04 c -0.64,25.81 -7.3,45.44 -19.99,58.87 -12.7,13.43 -28.15,20.16 -46.35,20.16 -19.47,0 -35.55,-7.1 -48.24,-21.27 -12.7,-14.18 -18.94,-33.44 -18.73,-57.76 z m -5.08,-90.14 88.86,-14.91 c -11.42,-32.59 -29.46,-57.4 -54.11,-74.44 -24.66,-17.03 -55.49,-25.54 -92.52,-25.54 -58.61,0 -101.99,19.15 -130.12,57.44 -22.22,30.68 -33.33,69.4 -33.33,116.17 0,55.86 14.61,99.6 43.81,131.23 29.19,31.63 66.11,47.45 110.76,47.45 50.14,0 89.7,-16.56 118.7,-49.67 28.98,-33.11 42.84,-83.84 41.57,-152.18 h -223.44 c 0.65,-26.46 7.83,-47.04 21.58,-61.73 13.76,-14.71 30.9,-22.06 51.43,-22.06 13.97,0 25.7,3.8 35.23,11.42 9.52,7.62 16.7,19.88 21.58,36.82"
         style="fill:#ffffff;fill-opacity:1;fill-rule:nonzero;stroke:none"
         id="path56" /><path
         d="m 7002.32,1462.49 c -11.43,-3.81 -29.51,-8.36 -54.27,-13.64 -24.76,-5.3 -40.95,-10.48 -48.56,-15.56 -11.63,-8.25 -17.46,-18.72 -17.46,-31.41 0,-12.5 4.65,-23.29 13.97,-32.39 9.31,-9.09 21.15,-13.64 35.55,-13.64 16.07,0 31.41,5.28 46.02,15.87 10.78,8.03 17.87,17.88 21.26,29.51 2.33,7.62 3.49,22.11 3.49,43.48 z m -119.34,72.36 -80.93,14.6 c 9.1,32.58 24.76,56.7 46.98,72.37 22.21,15.65 55.22,23.48 99.02,23.48 39.78,0 69.4,-4.71 88.87,-14.12 19.46,-9.42 33.16,-21.38 41.1,-35.87 7.93,-14.49 11.9,-41.09 11.9,-79.82 l -0.95,-104.1 c 0,-29.62 1.42,-51.47 4.29,-65.54 2.85,-14.07 8.19,-29.15 16.02,-45.22 h -88.23 c -2.34,5.91 -5.19,14.7 -8.58,26.34 -1.47,5.28 -2.53,8.77 -3.16,10.47 -15.23,-14.81 -31.53,-25.92 -48.89,-33.32 -17.34,-7.41 -35.86,-11.11 -55.53,-11.11 -34.71,0 -62.05,9.41 -82.04,28.24 -20,18.84 -30,42.64 -30,71.41 0,19.05 4.55,36.03 13.65,50.94 9.09,14.92 21.84,26.35 38.24,34.28 16.4,7.94 40.04,14.86 70.94,20.79 41.68,7.82 70.56,15.13 86.64,21.9 v 8.88 c 0,17.15 -4.23,29.37 -12.7,36.66 -8.45,7.31 -24.43,10.96 -47.92,10.96 -15.87,0 -28.25,-3.12 -37.14,-9.37 -8.88,-6.25 -16.07,-17.19 -21.58,-32.85"
         style="fill:#ffffff;fill-opacity:1;fill-rule:nonzero;stroke:none"
         id="path58" /><path
         d="m 7249.24,1476.13 c 0,-35.75 6.93,-61.94 20.79,-78.54 13.86,-16.61 30.95,-24.91 51.26,-24.91 21.79,0 40.2,8.5 55.22,25.54 15.03,17.03 22.54,42.26 22.54,75.69 0,34.92 -7.2,60.84 -21.59,77.77 -14.39,16.92 -32.58,25.39 -54.59,25.39 -21.37,0 -38.98,-8.31 -52.84,-24.92 -13.86,-16.61 -20.79,-41.95 -20.79,-76.02 z m -79.67,-197.72 101.89,-12.37 c 1.69,-11.86 5.6,-20 11.75,-24.45 8.45,-6.35 21.78,-9.52 39.98,-9.52 23.28,0 40.73,3.5 52.37,10.47 7.82,4.66 13.75,12.17 17.77,22.54 2.75,7.41 4.13,21.05 4.13,40.94 v 49.19 c -26.66,-36.39 -60.31,-54.58 -100.93,-54.58 -45.28,0 -81.15,19.14 -107.59,57.44 -20.74,30.26 -31.1,67.93 -31.1,112.98 0,56.51 13.59,99.67 40.78,129.5 27.18,29.84 60.98,44.75 101.4,44.75 41.68,0 76.07,-18.3 103.15,-54.91 v 47.29 h 83.47 v -302.47 c 0,-39.77 -3.28,-69.5 -9.84,-89.17 -6.55,-19.68 -15.76,-35.12 -27.61,-46.34 -11.85,-11.22 -27.66,-19.99 -47.45,-26.34 -19.78,-6.35 -44.8,-9.53 -75.06,-9.53 -57.13,0 -97.64,9.79 -121.56,29.36 -23.91,19.57 -35.86,44.39 -35.86,74.43 0,2.97 0.11,6.56 0.31,10.79"
         style="fill:#ffffff;fill-opacity:1;fill-rule:nonzero;stroke:none"
         id="path60" /><path
         d="m 7941.45,1462.49 c -11.43,-3.81 -29.51,-8.36 -54.27,-13.64 -24.75,-5.3 -40.95,-10.48 -48.56,-15.56 -11.63,-8.25 -17.45,-18.72 -17.45,-31.41 0,-12.5 4.64,-23.29 13.96,-32.39 9.31,-9.09 21.15,-13.64 35.55,-13.64 16.07,0 31.41,5.28 46.02,15.87 10.78,8.03 17.87,17.88 21.26,29.51 2.33,7.62 3.49,22.11 3.49,43.48 z m -119.34,72.36 -80.92,14.6 c 9.09,32.58 24.75,56.7 46.97,72.37 22.21,15.65 55.22,23.48 99.02,23.48 39.78,0 69.4,-4.71 88.87,-14.12 19.46,-9.42 33.16,-21.38 41.1,-35.87 7.93,-14.49 11.9,-41.09 11.9,-79.82 l -0.95,-104.1 c 0,-29.62 1.43,-51.47 4.29,-65.54 2.85,-14.07 8.19,-29.15 16.02,-45.22 h -88.23 c -2.33,5.91 -5.19,14.7 -8.57,26.34 -1.48,5.28 -2.54,8.77 -3.17,10.47 -15.23,-14.81 -31.53,-25.92 -48.89,-33.32 -17.34,-7.41 -35.85,-11.11 -55.53,-11.11 -34.71,0 -62.05,9.41 -82.04,28.24 -20,18.84 -30,42.64 -30,71.41 0,19.05 4.55,36.03 13.65,50.94 9.09,14.92 21.84,26.35 38.24,34.28 16.4,7.94 40.04,14.86 70.94,20.79 41.68,7.82 70.56,15.13 86.64,21.9 v 8.88 c 0,17.15 -4.23,29.37 -12.7,36.66 -8.45,7.31 -24.43,10.96 -47.92,10.96 -15.87,0 -28.25,-3.12 -37.13,-9.37 -8.89,-6.25 -16.08,-17.19 -21.59,-32.85"
         style="fill:#ffffff;fill-opacity:1;fill-rule:nonzero;stroke:none"
         id="path62" /><path
         d="m 8423.56,1300.63 h -89.18 v 172.01 c 0,36.39 -1.91,59.94 -5.71,70.62 -3.81,10.69 -10,18.99 -18.57,24.92 -8.57,5.92 -18.89,8.89 -30.95,8.89 -15.45,0 -29.3,-4.24 -41.57,-12.69 -12.27,-8.47 -20.69,-19.69 -25.23,-33.66 -4.55,-13.96 -6.83,-39.77 -6.83,-77.44 v -152.65 h -89.19 v 337.05 h 82.84 v -49.51 c 29.41,38.09 66.44,57.13 111.09,57.13 19.68,0 37.65,-3.54 53.95,-10.63 16.29,-7.09 28.62,-16.13 36.98,-27.13 8.35,-11.01 14.17,-23.5 17.46,-37.46 3.27,-13.97 4.91,-33.96 4.91,-59.98 v -209.47"
         style="fill:#ffffff;fill-opacity:1;fill-rule:nonzero;stroke:none"
         id="path64" /><path
         d="m 3849.76,704.711 -64.11,172.66 -62.84,-172.66 z m 172.98,-184.082 h -102.21 l -40.62,105.68 h -185.98 l -38.41,-105.68 h -99.66 l 181.23,465.281 h 99.34 l 186.31,-465.281"
         style="fill:#ffffff;fill-opacity:1;fill-rule:nonzero;stroke:none"
         id="path66" /><path
         d="m 4142.71,689.16 c 0,-33.43 7.94,-59.039 23.8,-76.808 15.88,-17.782 35.44,-26.661 58.72,-26.661 23.27,0 42.79,8.879 58.55,26.661 15.76,17.769 23.65,43.589 23.65,77.437 0,33.012 -7.89,58.402 -23.65,76.172 -15.76,17.769 -35.28,26.66 -58.55,26.66 -23.28,0 -42.84,-8.891 -58.72,-26.66 -15.86,-17.77 -23.8,-43.371 -23.8,-76.801 z m -91.41,4.762 c 0,29.617 7.3,58.289 21.91,86.008 14.59,27.718 35.27,48.879 62.04,63.468 26.77,14.614 56.65,21.911 89.66,21.911 50.99,0 92.78,-16.571 125.37,-49.668 32.58,-33.121 48.87,-74.961 48.87,-125.532 0,-50.988 -16.45,-93.257 -49.35,-126.8 -32.9,-33.528 -74.32,-50.297 -124.25,-50.297 -30.9,0 -60.36,6.976 -88.4,20.949 -28.04,13.961 -49.35,34.43 -63.94,61.41 -14.61,26.981 -21.91,59.828 -21.91,98.551"
         style="fill:#ffffff;fill-opacity:1;fill-rule:nonzero;stroke:none"
         id="path68" /><path
         d="m 4775.56,520.629 h -89.18 v 172.019 c 0,36.391 -1.9,59.93 -5.71,70.622 -3.81,10.679 -10,18.992 -18.57,24.921 -8.57,5.918 -18.88,8.879 -30.94,8.879 -15.45,0 -29.31,-4.23 -41.58,-12.691 -12.27,-8.469 -20.69,-19.688 -25.23,-33.649 -4.55,-13.968 -6.83,-39.781 -6.83,-77.441 v -152.66 h -89.19 v 337.062 h 82.85 V 808.18 c 29.4,38.082 66.43,57.129 111.08,57.129 19.68,0 37.66,-3.547 53.95,-10.637 16.29,-7.094 28.62,-16.133 36.98,-27.133 8.36,-11 14.18,-23.488 17.46,-37.461 3.27,-13.957 4.91,-33.949 4.91,-59.976 V 520.629"
         style="fill:#ffffff;fill-opacity:1;fill-rule:nonzero;stroke:none"
         id="path70" /><path
         d="m 5020.58,857.691 v -71.089 h -60.94 v -135.84 c 0,-27.512 0.58,-43.543 1.75,-48.09 1.16,-4.551 3.81,-8.301 7.93,-11.262 4.13,-2.969 9.15,-4.449 15.08,-4.449 8.25,0 20.2,2.859 35.86,8.57 l 7.61,-69.191 c -20.73,-8.891 -44.21,-13.328 -70.44,-13.328 -16.09,0 -30.59,2.699 -43.49,8.097 -12.91,5.391 -22.37,12.371 -28.41,20.942 -6.02,8.57 -10.2,20.16 -12.54,34.75 -1.89,10.371 -2.85,31.32 -2.85,62.847 v 146.954 h -40.94 v 71.089 h 40.94 v 66.957 l 89.5,52.051 V 857.691 h 60.94"
         style="fill:#ffffff;fill-opacity:1;fill-rule:nonzero;stroke:none"
         id="path72" /><path
         d="m 5268.46,682.488 c -11.43,-3.797 -29.51,-8.359 -54.27,-13.636 -24.75,-5.293 -40.94,-10.481 -48.56,-15.563 -11.63,-8.25 -17.45,-18.719 -17.45,-31.41 0,-12.488 4.65,-23.277 13.96,-32.379 9.31,-9.102 21.15,-13.648 35.55,-13.648 16.07,0 31.42,5.289 46.02,15.867 10.79,8.043 17.88,17.883 21.26,29.511 2.33,7.622 3.49,22.11 3.49,43.489 z m -119.34,72.371 -80.92,14.602 c 9.09,32.578 24.75,56.699 46.97,72.359 22.22,15.649 55.22,23.489 99.02,23.489 39.78,0 69.4,-4.707 88.87,-14.118 19.46,-9.429 33.16,-21.382 41.1,-35.871 7.93,-14.5 11.9,-41.101 11.9,-79.832 l -0.95,-104.097 c 0,-29.621 1.43,-51.461 4.29,-65.539 2.85,-14.071 8.19,-29.153 16.02,-45.223 h -88.23 c -2.33,5.922 -5.18,14.711 -8.57,26.351 -1.48,5.282 -2.54,8.77 -3.17,10.469 -15.23,-14.82 -31.53,-25.918 -48.88,-33.328 -17.35,-7.41 -35.86,-11.109 -55.54,-11.109 -34.71,0 -62.05,9.418 -82.04,28.238 -20,18.84 -30,42.641 -30,71.422 0,19.039 4.55,36.027 13.65,50.937 9.09,14.922 21.85,26.352 38.24,34.27 16.4,7.941 40.04,14.871 70.94,20.801 41.68,7.82 70.57,15.121 86.64,21.89 v 8.891 c 0,17.148 -4.23,29.359 -12.69,36.66 -8.46,7.301 -24.44,10.949 -47.92,10.949 -15.87,0 -28.26,-3.121 -37.14,-9.359 -8.89,-6.25 -16.08,-17.199 -21.59,-32.852"
         style="fill:#ffffff;fill-opacity:1;fill-rule:nonzero;stroke:none"
         id="path74" /><path
         d="m 5412.55,616.801 89.5,13.64 c 3.81,-17.351 11.54,-30.519 23.18,-39.511 11.63,-8.989 27.93,-13.481 48.87,-13.481 23.06,0 40.42,4.223 52.05,12.692 7.83,5.918 11.74,13.847 11.74,23.8 0,6.77 -2.11,12.368 -6.34,16.829 -4.45,4.218 -14.4,8.128 -29.84,11.73 -71.94,15.871 -117.54,30.371 -136.79,43.48 -26.66,18.2 -39.98,43.489 -39.98,75.86 0,29.199 11.52,53.742 34.59,73.629 23.05,19.89 58.81,29.84 107.27,29.84 46.12,0 80.4,-7.508 102.83,-22.528 22.42,-15.031 37.87,-37.25 46.34,-66.66 l -84.1,-15.551 c -3.6,13.121 -10.43,23.16 -20.48,30.16 -10.05,6.969 -24.38,10.469 -43,10.469 -23.49,0 -40.31,-3.289 -50.47,-9.847 -6.77,-4.653 -10.15,-10.68 -10.15,-18.082 0,-6.348 2.96,-11.739 8.88,-16.2 8.04,-5.91 35.81,-14.269 83.31,-25.058 47.5,-10.801 80.67,-24.024 99.51,-39.684 18.61,-15.859 27.93,-37.976 27.93,-66.328 0,-30.898 -12.91,-57.441 -38.72,-79.672 -25.82,-22.207 -64.01,-33.316 -114.58,-33.316 -45.91,0 -82.26,9.308 -109.02,27.929 -26.77,18.61 -44.28,43.911 -52.53,75.86"
         style="fill:#ffffff;fill-opacity:1;fill-rule:nonzero;stroke:none"
         id="path76" /><path
         d="M 5986.69,520.629 V 985.91 h 345 V 907.199 H 6080.64 V 804.051 h 233.59 V 725.66 H 6080.64 V 599.031 h 259.94 v -78.402 h -353.89"
         style="fill:#ffffff;fill-opacity:1;fill-rule:nonzero;stroke:none"
         id="path78" /><path
         d="m 6490.38,689.16 c 0,-33.43 7.94,-59.039 23.8,-76.808 15.88,-17.782 35.44,-26.661 58.72,-26.661 23.28,0 42.8,8.879 58.56,26.661 15.76,17.769 23.64,43.589 23.64,77.437 0,33.012 -7.88,58.402 -23.64,76.172 -15.76,17.769 -35.28,26.66 -58.56,26.66 -23.28,0 -42.84,-8.891 -58.72,-26.66 -15.86,-17.77 -23.8,-43.371 -23.8,-76.801 z m -91.4,4.762 c 0,29.617 7.29,58.289 21.9,86.008 14.59,27.718 35.28,48.879 62.04,63.468 26.77,14.614 56.65,21.911 89.66,21.911 51,0 92.78,-16.571 125.37,-49.668 32.58,-33.121 48.88,-74.961 48.88,-125.532 0,-50.988 -16.46,-93.257 -49.36,-126.8 -32.9,-33.528 -74.31,-50.297 -124.24,-50.297 -30.9,0 -60.37,6.976 -88.4,20.949 -28.04,13.961 -49.36,34.43 -63.95,61.41 -14.61,26.981 -21.9,59.828 -21.9,98.551"
         style="fill:#ffffff;fill-opacity:1;fill-rule:nonzero;stroke:none"
         id="path80" /><path
         d="m 6902.03,520.629 h -89.17 v 337.062 h 82.83 V 809.77 c 14.17,22.64 26.92,37.55 38.24,44.75 11.32,7.179 24.17,10.789 38.56,10.789 20.32,0 39.89,-5.61 58.72,-16.829 l -27.61,-77.75 c -15.03,9.719 -29,14.598 -41.9,14.598 -12.49,0 -23.06,-3.437 -31.74,-10.316 -8.68,-6.883 -15.49,-19.313 -20.46,-37.293 -4.98,-17.989 -7.47,-55.66 -7.47,-112.989 V 520.629"
         style="fill:#ffffff;fill-opacity:1;fill-rule:nonzero;stroke:none"
         id="path82" /><path
         d="m 7155.3,694.871 c 0,-37.871 7.51,-65.851 22.54,-83.949 15.02,-18.082 33.32,-27.133 54.9,-27.133 20.74,0 37.98,8.301 51.74,24.91 13.75,16.61 20.62,43.852 20.62,81.731 0,35.34 -7.09,61.57 -21.26,78.711 -14.18,17.129 -31.74,25.711 -52.68,25.711 -21.8,0 -39.89,-8.411 -54.28,-25.243 -14.39,-16.808 -21.58,-41.738 -21.58,-74.738 z m -88.23,162.82 h 83.15 V 808.18 c 10.8,16.922 25.39,30.672 43.81,41.261 18.4,10.571 38.82,15.868 61.25,15.868 39.14,0 72.36,-15.348 99.66,-46.028 27.29,-30.672 40.94,-73.422 40.94,-128.222 0,-56.278 -13.76,-100.028 -41.27,-131.231 -27.5,-31.207 -60.83,-46.816 -99.97,-46.816 -18.62,0 -35.5,3.699 -50.62,11.109 -15.13,7.41 -31.06,20.098 -47.77,38.09 V 392.41 h -89.18 v 465.281"
         style="fill:#ffffff;fill-opacity:1;fill-rule:nonzero;stroke:none"
         id="path84" /><path
         d="m 7652.64,682.488 c -11.43,-3.797 -29.51,-8.359 -54.27,-13.636 -24.75,-5.293 -40.94,-10.481 -48.56,-15.563 -11.63,-8.25 -17.45,-18.719 -17.45,-31.41 0,-12.488 4.65,-23.277 13.96,-32.379 9.31,-9.102 21.15,-13.648 35.55,-13.648 16.07,0 31.41,5.289 46.02,15.867 10.79,8.043 17.88,17.883 21.26,29.511 2.33,7.622 3.49,22.11 3.49,43.489 z m -119.34,72.371 -80.92,14.602 c 9.09,32.578 24.75,56.699 46.97,72.359 22.22,15.649 55.22,23.489 99.02,23.489 39.78,0 69.4,-4.707 88.87,-14.118 19.46,-9.429 33.16,-21.382 41.1,-35.871 7.93,-14.5 11.9,-41.101 11.9,-79.832 l -0.95,-104.097 c 0,-29.621 1.43,-51.461 4.29,-65.539 2.85,-14.071 8.19,-29.153 16.02,-45.223 h -88.23 c -2.33,5.922 -5.18,14.711 -8.57,26.351 -1.48,5.282 -2.54,8.77 -3.17,10.469 -15.23,-14.82 -31.53,-25.918 -48.88,-33.328 -17.35,-7.41 -35.86,-11.109 -55.54,-11.109 -34.71,0 -62.05,9.418 -82.04,28.238 -20,18.84 -30,42.641 -30,71.422 0,19.039 4.55,36.027 13.65,50.937 9.09,14.922 21.85,26.352 38.24,34.27 16.4,7.941 40.04,14.871 70.94,20.801 41.68,7.82 70.57,15.121 86.64,21.89 v 8.891 c 0,17.148 -4.23,29.359 -12.69,36.66 -8.46,7.301 -24.44,10.949 -47.92,10.949 -15.87,0 -28.26,-3.121 -37.14,-9.359 -8.89,-6.25 -16.08,-17.199 -21.59,-32.852"
         style="fill:#ffffff;fill-opacity:1;fill-rule:nonzero;stroke:none"
         id="path86" /><path
         d="m 8122.04,758.031 -87.91,-15.871 c -2.96,17.559 -9.67,30.789 -20.15,39.68 -10.47,8.89 -24.07,13.32 -40.78,13.32 -22.22,0 -39.94,-7.672 -53.17,-23.012 -13.22,-15.339 -19.83,-40.988 -19.83,-76.957 0,-39.992 6.72,-68.23 20.16,-84.742 13.42,-16.5 31.46,-24.758 54.11,-24.758 16.92,0 30.78,4.809 41.58,14.438 10.78,9.633 18.4,26.18 22.85,49.68 l 87.6,-14.918 c -9.1,-40.211 -26.56,-70.571 -52.38,-91.102 -25.82,-20.508 -60.41,-30.777 -103.77,-30.777 -49.31,0 -88.62,15.547 -117.91,46.66 -29.31,31.098 -43.97,74.148 -43.97,129.168 0,55.648 14.71,98.969 44.12,129.969 29.41,31 69.19,46.5 119.34,46.5 41.04,0 73.68,-8.84 97.91,-26.508 24.23,-17.66 41.63,-44.59 52.2,-80.77"
         style="fill:#ffffff;fill-opacity:1;fill-rule:nonzero;stroke:none"
         id="path88" /><path
         d="M 8278.52,985.91 V 814.852 c 28.77,33.628 63.15,50.457 103.14,50.457 20.52,0 39.05,-3.809 55.55,-11.43 16.5,-7.617 28.93,-17.348 37.29,-29.199 8.36,-11.852 14.07,-24.969 17.13,-39.352 3.07,-14.398 4.6,-36.707 4.6,-66.969 v -197.73 h -89.18 V 698.68 c 0,35.34 -1.69,57.769 -5.07,67.281 -3.39,9.527 -9.37,17.09 -17.93,22.699 -8.58,5.602 -19.32,8.41 -32.22,8.41 -14.81,0 -28.04,-3.601 -39.68,-10.8 -11.63,-7.18 -20.14,-18.032 -25.54,-32.532 -5.4,-14.488 -8.09,-35.91 -8.09,-64.258 V 520.629 h -89.19 V 985.91 h 89.19"
         style="fill:#ffffff;fill-opacity:1;fill-rule:nonzero;stroke:none"
         id="path90" /></g></g></svg>
