<svg width="600" height="600" viewBox="0 0 600 600" fill="none" xmlns="http://www.w3.org/2000/svg">
<path d="M461.9 126.622H138.1C121.691 126.622 108.389 139.925 108.389 156.334V480.134C108.389 496.543 121.691 509.845 138.1 509.845H461.9C478.309 509.845 491.611 496.543 491.611 480.134V156.334C491.611 139.925 478.309 126.622 461.9 126.622Z" fill="#EFECE8"/>
<path d="M228.01 494.778H167.66C165.724 494.778 164.154 496.347 164.154 498.283V528.267C164.154 530.203 165.724 531.772 167.66 531.772H228.01C229.946 531.772 231.515 530.203 231.515 528.267V498.283C231.515 496.347 229.946 494.778 228.01 494.778Z" fill="#266FB7"/>
<path d="M160.482 426.75V108.105C160.482 107.244 161.059 106.477 161.893 106.277C167.848 104.877 172.398 99.8386 173.07 93.633C173.076 93.5608 173.082 93.483 173.082 93.4053L173.154 79.0219V69.5664C173.154 68.5219 172.309 67.6775 171.265 67.6775H155.404C143.67 67.6775 134.159 77.1886 134.159 88.9219V104.783C134.159 105.827 135.004 106.672 136.048 106.672H146.104C147.126 106.672 147.959 107.477 147.993 108.5C148.787 132.805 148.148 168.827 140.515 202.111C134.154 229.861 134.154 265.472 134.154 265.472C134.154 265.472 134.154 307.122 140.515 334.866C147.926 367.194 148.743 402.105 148.054 426.355C148.026 427.378 147.187 428.189 146.165 428.189H136.043C134.998 428.189 134.154 429.033 134.154 430.078V445.939C134.154 457.672 143.665 467.183 155.398 467.183H171.259C172.304 467.183 173.148 466.339 173.148 465.294V456.655C173.148 456.622 173.148 456.589 173.148 456.555L172.137 437.75C172.126 437.533 172.082 437.316 171.993 437.111C170.198 432.872 166.465 429.661 161.904 428.583C161.059 428.383 160.476 427.616 160.476 426.755L160.482 426.75Z" fill="#266FB7"/>
<path d="M427.165 106.672H437.22C438.265 106.672 439.109 105.827 439.109 104.783V88.9219C439.109 77.1886 429.598 67.6775 417.865 67.6775H402.004C400.959 67.6775 400.115 68.5219 400.115 69.5664V78.7108C400.115 79.7719 399.248 80.6219 398.187 80.5997C387.054 80.3886 373.887 79.5497 361.048 77.333C338.12 73.3775 322.393 63.9108 286.437 63.9108C250.482 63.9108 234.665 73.1164 211.693 77.0775C201.682 78.8053 191.476 79.6942 182.187 80.1053C181.176 80.1497 180.382 80.9775 180.382 81.9942V91.6386C180.382 92.683 181.226 93.5275 182.27 93.5275H398.57C399.454 93.5275 400.237 94.1331 400.409 94.9997C401.109 98.4275 403.015 101.416 405.659 103.516C406.104 103.872 406.359 104.411 406.359 104.983V429.889C406.359 430.455 406.104 431 405.659 431.35C403.97 432.694 402.582 434.4 401.615 436.355C401.293 437.005 400.643 437.422 399.92 437.422H182.404C181.343 437.422 180.487 438.3 180.515 439.361L180.937 455.066C180.965 456.055 181.748 456.855 182.743 456.9C191.882 457.322 201.882 458.211 211.687 459.9C223.17 461.878 232.854 465.172 244.17 467.966C255.482 470.766 268.426 473.066 286.432 473.066C322.454 473.066 338.209 463.861 361.176 459.9C373.959 457.694 387.07 456.855 398.182 456.633C399.243 456.611 400.109 457.461 400.109 458.522V465.294C400.109 466.339 400.954 467.183 401.998 467.183H417.859C429.593 467.183 439.104 457.672 439.104 445.939V430.078C439.104 429.033 438.259 428.189 437.215 428.189H426.698C425.676 428.189 424.837 427.378 424.809 426.355C424.12 402.105 424.937 367.189 432.348 334.866C438.709 307.122 438.709 265.472 438.709 265.472H438.437C438.437 265.472 438.437 229.911 432.087 202.2C424.448 168.866 423.826 132.777 424.637 108.5C424.67 107.483 425.504 106.672 426.526 106.672H427.159H427.165Z" fill="#266FB7"/>
<path d="M183.071 437.416H168.038V457.055L183.071 456.911L186.999 448.072L183.071 437.416Z" fill="#266FB7"/>
<path d="M183.487 93.5161L168.132 98.9494L171.076 80.6494L183.02 80.0605L183.487 93.5161Z" fill="#266FB7"/>
<path d="M416.894 425.25L416.394 430.289H183.466L180.388 425.322L175.96 422.722V97.0779L183.177 93.7612L184.882 88.4556L411.644 86.1057L418.26 94.0445L421.905 423.667L416.894 425.25Z" fill="white"/>
<path d="M439.604 99.261H451.549V79.6221C451.549 68.9332 442.882 60.2665 432.193 60.2665H412.554V73.2221C401.032 73.0721 387.076 72.2665 373.488 69.9221C350.56 65.9665 334.832 56.4999 298.876 56.4999C262.921 56.4999 247.104 65.7054 224.132 69.6665C210.754 71.9721 197.021 72.7888 185.593 72.961V60.2665H165.954C155.265 60.2665 146.599 68.9332 146.599 79.6221V99.261H160.371C161.26 123.567 160.788 160.572 152.96 194.7C146.599 222.444 146.599 258.061 146.599 258.061C146.599 258.061 146.599 299.711 152.96 327.455C160.56 360.6 161.226 396.472 160.443 420.778H146.599V440.417C146.599 451.105 155.265 459.772 165.954 459.772H185.593V449.194C197.015 449.367 210.754 450.183 224.132 452.489C247.099 456.45 262.854 465.655 298.876 465.655C334.899 465.655 350.649 456.45 373.621 452.489C387.154 450.155 401.049 449.35 412.549 449.189V459.772H432.188C442.876 459.772 451.543 451.105 451.543 440.417V420.778H437.304C436.521 396.478 437.187 360.605 444.787 327.455C451.149 299.711 451.149 258.061 451.149 258.061H450.876C450.876 258.061 450.876 222.5 444.526 194.789C436.693 160.605 436.237 123.533 437.137 99.261H439.593H439.604Z" stroke="#1D1D1B" stroke-width="7.09569" stroke-linecap="round" stroke-linejoin="round"/>
<g opacity="0.52">
<path d="M418.261 361.178H177.855V98.8669L183.705 94.328L187.133 88.5447H411.972L414.599 92.9113L418.261 95.178V361.178Z" fill="#EFECE9"/>
<path d="M207.9 187.256H207.894C198.72 187.256 191.283 194.693 191.283 203.867V203.873C191.283 213.047 198.72 220.484 207.894 220.484H207.9C217.074 220.484 224.511 213.047 224.511 203.873V203.867C224.511 194.693 217.074 187.256 207.9 187.256Z" fill="#C1BDB5"/>
<path d="M416.038 430.267L182.522 428.483L175.633 421.967V361.178H418.427L419.116 426.195L416.038 430.267Z" fill="#C1BDB5"/>
<path d="M421.25 361.178H177.85V341.85L227.989 300.273C237.145 292.678 249.745 290.756 260.75 295.278L421.25 361.178Z" fill="#DBD5CA"/>
<path d="M415.927 192.406V174.289H405.055C405.205 173.634 405.294 172.956 405.294 172.256C405.294 167.234 401.228 163.167 396.205 163.167C396 163.167 395.8 163.184 395.6 163.195H375.372V163.306C374.866 163.217 374.355 163.167 373.828 163.167C368.805 163.167 364.739 167.234 364.739 172.256C364.739 172.956 364.828 173.634 364.978 174.289H355.65C350.627 174.289 346.561 178.356 346.561 183.378C346.561 183.378 346.561 192.334 337.661 192.467H325.439C321.427 192.467 318.177 195.717 318.177 199.728C318.177 203.739 321.427 206.989 325.439 206.989H415.933V192.461H357.889V192.4H415.933L415.927 192.406Z" fill="white"/>
<path d="M266.127 143.65H253.905C245.01 143.517 245.005 134.561 245.005 134.561C245.005 129.539 240.938 125.473 235.916 125.473H226.588C226.738 124.817 226.827 124.139 226.827 123.439C226.827 118.417 222.76 114.35 217.738 114.35C217.21 114.35 216.693 114.406 216.193 114.489V114.378H195.966C195.766 114.367 195.566 114.345 195.36 114.345C190.338 114.345 186.271 118.411 186.271 123.434C186.271 124.134 186.36 124.811 186.51 125.467H175.638V143.584H233.682V143.645H175.638V158.173H266.132C270.144 158.173 273.393 154.923 273.393 150.911C273.393 146.9 270.144 143.65 266.132 143.65H266.127Z" fill="white"/>
</g>
<path d="M420.266 98.8944V422.25" stroke="#1D1D1B" stroke-width="7.09569" stroke-linecap="round" stroke-linejoin="round"/>
<path d="M186.727 86.1057H411.643" stroke="#1D1D1B" stroke-width="7.09569" stroke-linecap="round" stroke-linejoin="round"/>
<path d="M174.383 420.772V100.072" stroke="#1D1D1B" stroke-width="7.09569" stroke-linecap="round" stroke-linejoin="round"/>
<path d="M413.015 430.005H185.598" stroke="#1D1D1B" stroke-width="7.09569" stroke-linecap="round" stroke-linejoin="round"/>
<path d="M170.965 99.261H146.599V79.6221C146.599 68.9332 155.265 60.2665 165.954 60.2665H185.593V84.6332C185.593 92.711 179.043 99.261 170.965 99.261V99.261Z" stroke="#1D1D1B" stroke-width="7.09569" stroke-linecap="round" stroke-linejoin="round"/>
<path d="M185.599 435.4V459.766H165.96C155.271 459.766 146.604 451.1 146.604 440.411V420.772H170.971C179.049 420.772 185.599 427.322 185.599 435.4Z" stroke="#1D1D1B" stroke-width="7.09569" stroke-linecap="round" stroke-linejoin="round"/>
<path d="M427.182 99.261H451.549V79.6221C451.549 68.9332 442.882 60.2665 432.194 60.2665H412.555V84.6332C412.555 92.711 419.105 99.261 427.182 99.261V99.261Z" stroke="#1D1D1B" stroke-width="7.09569" stroke-linecap="round" stroke-linejoin="round"/>
<path d="M412.549 435.4V459.766H432.188C442.877 459.766 451.543 451.1 451.543 440.411V420.772H427.177C419.099 420.772 412.549 427.322 412.549 435.4Z" stroke="#1D1D1B" stroke-width="7.09569" stroke-linecap="round" stroke-linejoin="round"/>
<path d="M240.277 487.922H172.916V524.917H240.277V487.922Z" stroke="#1D1D1B" stroke-width="7.09569" stroke-linecap="round" stroke-linejoin="round"/>
<path d="M180.849 499.055H219.554" stroke="#1D1D1B" stroke-width="7.09569" stroke-linecap="round" stroke-linejoin="round"/>
<path d="M180.849 509.845H211.677" stroke="#1D1D1B" stroke-width="5.65306" stroke-linecap="round" stroke-linejoin="round"/>
<path d="M298.877 268.483C301.54 268.483 303.699 266.324 303.699 263.661C303.699 260.998 301.54 258.839 298.877 258.839C296.214 258.839 294.055 260.998 294.055 263.661C294.055 266.324 296.214 268.483 298.877 268.483Z" fill="#1D1D1B"/>
<path d="M244.889 226.723H353.533C358.955 226.723 363.355 231.122 363.355 236.545V307.034C363.355 325.261 348.555 340.061 330.328 340.061H268.1C249.872 340.061 235.072 325.261 235.072 307.034V236.545C235.072 231.122 239.472 226.723 244.894 226.723H244.889Z" fill="#C1BDB5" stroke="#1D1D1B" stroke-width="8.695" stroke-linecap="round" stroke-linejoin="round"/>
<path d="M299.211 153.544C274.539 153.544 254.539 173.544 254.539 198.217V226.722H343.889V198.217C343.889 173.544 323.889 153.544 299.216 153.544H299.211ZM330.555 225.767H267.861V199.75C267.861 182.439 281.894 168.406 299.205 168.406C316.516 168.406 330.55 182.439 330.55 199.75V225.767H330.555Z" fill="white" stroke="#1D1D1B" stroke-width="8.43389" stroke-linecap="round" stroke-linejoin="round"/>
<path d="M304.661 278.117C308.422 276.044 310.972 272.05 310.972 267.456C310.972 260.733 305.522 255.289 298.805 255.289C292.089 255.289 286.639 260.739 286.639 267.456C286.639 272.028 289.166 276.011 292.894 278.089V304.656H292.978C292.928 304.961 292.894 305.272 292.894 305.594C292.894 308.861 295.539 311.506 298.805 311.506C302.072 311.506 304.716 308.861 304.716 305.594C304.716 305.272 304.683 304.961 304.633 304.656H304.661V278.122V278.117Z" fill="#1D1D1B"/>
</svg>
