<svg width="24" height="24" viewBox="0 0 24 24" xmlns="http://www.w3.org/2000/svg">
	<path fill="#1a1a1a" d="M0 .5C0 .222.222 0 .5 0h5c.278 0 .5.222.5.5v5c0 .278-.222.5-.5.5h-5a.498.498 0 0 1-.5-.5v-5zm9 0c0-.278.222-.5.5-.5h5c.278 0 .5.222.5.5v5c0 .278-.222.5-.5.5h-5a.498.498 0 0 1-.5-.5v-5zm9 0c0-.278.222-.5.5-.5h5c.278 0 .5.222.5.5v5c0 .278-.222.5-.5.5h-5a.498.498 0 0 1-.5-.5v-5zm-18 9c0-.278.222-.5.5-.5h5c.278 0 .5.222.5.5v5c0 .278-.222.5-.5.5h-5a.498.498 0 0 1-.5-.5v-5zm9 0c0-.278.222-.5.5-.5h5c.278 0 .5.222.5.5v5c0 .278-.222.5-.5.5h-5a.498.498 0 0 1-.5-.5v-5zm9 0c0-.278.222-.5.5-.5h5c.278 0 .5.222.5.5v5c0 .278-.222.5-.5.5h-5a.498.498 0 0 1-.5-.5v-5zm-18 9c0-.278.222-.5.5-.5h5c.278 0 .5.222.5.5v5c0 .278-.222.5-.5.5h-5a.498.498 0 0 1-.5-.5v-5zm9 0c0-.278.222-.5.5-.5h5c.278 0 .5.222.5.5v5c0 .278-.222.5-.5.5h-5a.498.498 0 0 1-.5-.5v-5zm9 0c0-.278.222-.5.5-.5h5c.278 0 .5.222.5.5v5c0 .278-.222.5-.5.5h-5a.498.498 0 0 1-.5-.5v-5z"/>
</svg>
