<svg width="24" height="22" viewBox="0 0 24 22" xmlns="http://www.w3.org/2000/svg">
	<path fill="#1a1a1a" d="M4 18v3c0 .278-.222.5-.5.5h-3A.498.498 0 0 1 0 21v-3c0-.278.222-.5.5-.5h3c.278 0 .5.222.5.5zm0-8.5v3c0 .278-.222.5-.5.5h-3a.498.498 0 0 1-.5-.5v-3c0-.278.222-.5.5-.5h3c.278 0 .5.222.5.5zM4 1v3c0 .278-.222.5-.5.5h-3A.498.498 0 0 1 0 4V1C0 .722.222.5.5.5h3c.278 0 .5.222.5.5zm20 17v3c0 .278-.222.5-.5.5h-17A.498.498 0 0 1 6 21v-3c0-.278.222-.5.5-.5h17c.278 0 .5.222.5.5zm0-8.5v3c0 .278-.222.5-.5.5h-17a.498.498 0 0 1-.5-.5v-3c0-.278.222-.5.5-.5h17c.278 0 .5.222.5.5zM24 1v3c0 .278-.222.5-.5.5h-17A.498.498 0 0 1 6 4V1c0-.278.222-.5.5-.5h17c.278 0 .5.222.5.5z"/>
</svg>
