<svg version="1.1" xmlns="http://www.w3.org/2000/svg" width="32" height="32" viewBox="0 0 32 32">
<title>external-link</title>
<path d="M27 20h-2c-0.265 0-0.52 0.105-0.707 0.293s-0.293 0.442-0.293 0.707v7h-20v-20h9c0.265 0 0.52-0.105 0.707-0.293s0.293-0.442 0.293-0.707v-2c0-0.265-0.105-0.52-0.293-0.707s-0.442-0.293-0.707-0.293h-10c-0.796 0-1.559 0.316-2.121 0.879s-0.879 1.326-0.879 2.121v22c0 0.796 0.316 1.559 0.879 2.121s1.326 0.879 2.121 0.879h22c0.796 0 1.559-0.316 2.121-0.879s0.879-1.326 0.879-2.121v-8c0-0.265-0.105-0.52-0.293-0.707s-0.442-0.293-0.707-0.293zM30.5 0h-8c-1.336 0-2.003 1.619-1.062 2.563l2.233 2.233-15.233 15.228c-0.14 0.139-0.251 0.305-0.326 0.487s-0.115 0.378-0.115 0.575c0 0.197 0.039 0.393 0.115 0.575s0.187 0.348 0.326 0.487l1.417 1.414c0.139 0.14 0.305 0.251 0.487 0.327s0.378 0.115 0.575 0.115c0.197 0 0.393-0.039 0.575-0.115s0.348-0.187 0.487-0.327l15.226-15.23 2.233 2.23c0.937 0.938 2.562 0.281 2.562-1.063v-8c0-0.398-0.158-0.779-0.439-1.061s-0.663-0.439-1.061-0.439z"></path>
</svg>
