<svg width="64" height="65" viewBox="0 0 64 65" fill="none" xmlns="http://www.w3.org/2000/svg">
<g id="quotationmark_europeana 1">
<path id="Vector" d="M56.2353 14.1904C52.4217 14.1904 48.7593 15.2088 45.2481 17.248C41.7369 19.2864 38.8969 22.1256 36.7297 25.7664C34.5625 29.4072 33.4785 33.4808 33.4785 37.9888C33.4785 39.8472 33.7449 41.54 34.2681 43.072C35.7089 47.8224 40.3849 51.304 45.9353 51.304C52.6337 51.304 58.0641 46.2344 58.0641 39.9824C58.0641 34.5432 53.9537 30.004 48.4745 28.9152C46.6881 28.368 46.6145 25.1648 47.8273 23.676V23.664C48.0361 23.4064 48.2561 23.1528 48.4985 22.9056C50.3633 20.9984 53.0705 19.568 56.6265 18.6128C57.8393 18.2656 58.6625 17.964 59.0961 17.7032C59.5265 17.4424 59.7457 17.008 59.7457 16.4C59.7457 15.7088 59.4209 15.1688 58.7713 14.7768C58.1217 14.388 57.2761 14.192 56.2345 14.192L56.2353 14.1904Z" fill="black"/>
<path id="Vector_2" d="M27.0107 14.1904C23.1971 14.1904 19.5347 15.2088 16.0235 17.248C12.5131 19.2864 9.67311 22.1256 7.50511 25.7664C5.33791 29.4072 4.25391 33.4808 4.25391 37.9888C4.25391 39.8472 4.52031 41.54 5.04351 43.072C6.48431 47.8224 11.1603 51.304 16.7107 51.304C23.4091 51.304 28.8403 46.2344 28.8403 39.9824C28.8403 34.5432 24.7299 30.004 19.2515 28.9152C17.4651 28.368 17.3915 25.1648 18.6043 23.676L18.6027 23.664C18.8123 23.4064 19.0323 23.1528 19.2739 22.9056C21.1387 20.9984 23.8467 19.568 27.4027 18.6128C28.6147 18.2656 29.4379 17.964 29.8723 17.7032C30.3027 17.4424 30.5219 17.008 30.5219 16.4C30.5219 15.7088 30.1971 15.1688 29.5475 14.7768C28.8987 14.388 28.0531 14.192 27.0107 14.192V14.1904Z" fill="black"/>
</g>
</svg>
