<svg width="392" height="507" viewBox="0 0 392 507" fill="none" xmlns="http://www.w3.org/2000/svg">
<path d="M361.033 55.2769H30.3451C13.5859 55.2769 0 68.7558 0 85.3829V413.466C0 430.094 13.5859 443.572 30.3451 443.572H361.033C377.793 443.572 391.379 430.094 391.379 413.466V85.3829C391.379 68.7558 377.793 55.2769 361.033 55.2769Z" fill="#EFECE8"/>
<path d="M147.452 38.1582C147.689 39.2721 147.919 40.4583 148.15 41.6987" stroke="#266FB7" stroke-width="6.50291" stroke-miterlimit="10" stroke-linecap="round" stroke-dasharray="19.27 19.27"/>
<path d="M249.794 38.1582C249.557 39.2721 249.327 40.4583 249.096 41.6987" stroke="#266FB7" stroke-width="6.50291" stroke-miterlimit="10" stroke-linecap="round" stroke-dasharray="19.27 19.27"/>
<path d="M150.298 59.8042C151.396 79.1503 149.053 104.644 135.799 130.716C108.476 184.443 113.155 209.395 113.155 209.395C113.155 235.521 125.056 258.883 143.761 274.466H253.792C272.497 258.883 284.392 235.521 284.392 209.395C284.392 209.395 289.065 184.437 261.749 130.716C246.364 100.459 242.814 79.7945 245.15 59.8041" stroke="#266FB7" stroke-width="6.50291" stroke-miterlimit="10" stroke-linecap="round" stroke-dasharray="19.27 19.27"/>
<path d="M264.89 25.6764C269.203 25.6764 279.44 20.093 279.44 16.6029V14.397C279.44 10.9068 269.203 4 264.89 4H132.957C128.644 4 115.577 10.9068 115.577 14.397L115.577 16.6029C115.577 20.093 128.644 25.6764 132.957 25.6764H264.89Z" stroke="#266FB7" stroke-width="6.50291" stroke-miterlimit="10" stroke-linecap="round" stroke-dasharray="19.27 19.27"/>
<path d="M144.806 300.598V295.67" stroke="#266FB7" stroke-width="6.50291" stroke-miterlimit="10" stroke-linecap="round" stroke-dasharray="14.45 14.45"/>
<path d="M144.806 282.291V277.363" stroke="#266FB7" stroke-width="6.50291" stroke-miterlimit="10" stroke-linecap="round" stroke-dasharray="14.45 14.45"/>
<path d="M252.735 277.363V282.291" stroke="#266FB7" stroke-width="6.50291" stroke-miterlimit="10" stroke-linecap="round" stroke-dasharray="14.45 14.45"/>
<path d="M252.735 295.671V300.599" stroke="#266FB7" stroke-width="6.50291" stroke-miterlimit="10" stroke-linecap="round" stroke-dasharray="14.45 14.45"/>
<path d="M125.289 228.392H271.564" stroke="#266FB7" stroke-width="6.50291" stroke-miterlimit="10" stroke-linecap="round" stroke-dasharray="19.27 19.27"/>
<path d="M269.803 178.241H127.739" stroke="#266FB7" stroke-width="6.81601" stroke-miterlimit="10" stroke-linecap="round" stroke-dasharray="19.27 19.27"/>
<path d="M296.706 312.128H70.7448C65.878 312.128 61.9326 316.043 61.9326 320.871V497.552C61.9326 502.38 65.878 506.294 70.7448 506.294H296.706C301.573 506.294 305.518 502.38 305.518 497.552V320.871C305.518 316.043 301.573 312.128 296.706 312.128Z" fill="#266FB7"/>
<path d="M319.757 300.598H76.1709V494.764H319.757V300.598Z" stroke="#1E1E1C" stroke-width="6.26206" stroke-linejoin="round"/>
<path d="M172.906 340.291H106.978C104.863 340.291 103.148 341.992 103.148 344.09V376.586C103.148 378.685 104.863 380.386 106.978 380.386H172.906C175.021 380.386 176.735 378.685 176.735 376.586V344.09C176.735 341.992 175.021 340.291 172.906 340.291Z" fill="#F6F6F6"/>
<path d="M183.726 333.577H110.14V373.672H183.726V333.577Z" stroke="#1D1D1B" stroke-width="6.54505" stroke-linecap="round" stroke-linejoin="round"/>
<path d="M118.8 345.643H161.089" stroke="#1D1D1B" stroke-width="6.54505" stroke-linecap="round" stroke-linejoin="round"/>
<path d="M118.8 357.336H152.483" stroke="#1D1D1B" stroke-width="5.21437" stroke-linecap="round" stroke-linejoin="round"/>
<path d="M128.613 76.1155L95.7734 50.6157" stroke="#C1BDB5" stroke-width="4.96148" stroke-linecap="round" stroke-linejoin="round"/>
<path d="M117.738 101.591L50.8877 77.0791" stroke="#C1BDB5" stroke-width="4.96148" stroke-linecap="round" stroke-linejoin="round"/>
<path d="M276.225 111.015L323.957 95.9375" stroke="#C1BDB5" stroke-width="4.96148" stroke-linecap="round" stroke-linejoin="round"/>
<path d="M282.907 71.1965L317.343 48.2617" stroke="#C1BDB5" stroke-width="4.96148" stroke-linecap="round" stroke-linejoin="round"/>
<path d="M269.803 63.1823L314.707 14.6333" stroke="#C1BDB5" stroke-width="4.96148" stroke-linecap="round" stroke-linejoin="round"/>
</svg>
