<svg width="600" height="600" viewBox="0 0 600 600" fill="none" xmlns="http://www.w3.org/2000/svg">
<path d="M468.882 116.277H146.5C130.162 116.277 116.917 129.521 116.917 145.86V468.242C116.917 484.58 130.162 497.825 146.5 497.825H468.882C485.22 497.825 498.465 484.58 498.465 468.242V145.86C498.465 129.521 485.22 116.277 468.882 116.277Z" fill="#EFECE8"/>
<path d="M191.123 437.257L182.532 492.518C182.248 494.34 183.656 495.985 185.502 495.985H226.794C228.628 495.985 230.036 494.358 229.764 492.541L221.919 439.245C221.717 437.86 220.581 436.795 219.185 436.689L194.33 434.724C192.762 434.6 191.365 435.707 191.123 437.257Z" fill="#266FB7"/>
<path d="M196.406 520C255.204 520 302.869 510.127 302.869 497.949C302.869 485.771 255.204 475.898 196.406 475.898C137.608 475.898 89.9435 485.771 89.9435 497.949C89.9435 510.127 137.608 520 196.406 520Z" fill="#266FB7"/>
<path d="M242.644 476.348C291.16 478.407 327.654 487.293 327.654 497.949C327.654 510.125 279.99 520 221.191 520C162.392 520 114.728 510.125 114.728 497.949C114.728 487.264 151.411 478.359 200.104 476.33" stroke="#010101" stroke-width="7" stroke-linejoin="round"/>
<path d="M235.982 404.236C322.653 404.236 392.913 333.976 392.913 247.305C392.913 160.634 322.653 90.374 235.982 90.374C149.312 90.374 79.051 160.634 79.051 247.305C79.051 333.976 149.312 404.236 235.982 404.236Z" fill="white"/>
<path d="M336.138 408.822C245.052 464.136 126.372 435.139 71.0576 344.059C15.7436 252.979 44.7407 134.293 135.826 78.9728" stroke="#010101" stroke-width="7" stroke-linecap="round" stroke-linejoin="round"/>
<path d="M154.523 109.769L113.976 43" stroke="#010101" stroke-width="7" stroke-linecap="round" stroke-linejoin="round"/>
<path d="M357.988 444.794L317.442 378.026" stroke="#010101" stroke-width="7" stroke-linecap="round" stroke-linejoin="round"/>
<path d="M205.961 434.505L196.406 495.985H244.685L235.982 436.878L205.961 434.505Z" stroke="#010101" stroke-width="7" stroke-linejoin="round"/>
<path d="M471.586 330.96L486.513 302.436C487.425 300.696 486.632 298.555 484.809 297.827L474.343 293.65C472.533 292.928 470.497 293.916 469.947 295.786L460.759 326.942L471.592 330.954L471.586 330.96Z" fill="#266FB7"/>
<path d="M443.218 452.436C480.342 452.436 510.436 422.342 510.436 385.218C510.436 348.095 480.342 318 443.218 318C406.095 318 376 348.095 376 385.218C376 422.342 406.095 452.436 443.218 452.436Z" fill="#266FB7"/>
<path d="M451.18 455.208C488.303 455.208 518.398 425.113 518.398 387.989C518.398 350.866 488.303 320.771 451.18 320.771C414.056 320.771 383.962 350.866 383.962 387.989C383.962 425.113 414.056 455.208 451.18 455.208Z" stroke="#010101" stroke-width="7" stroke-linejoin="round"/>
<path d="M474.101 308.796C464.622 301.306 460.747 288.212 465.457 276.415C471.19 262.037 487.502 255.026 501.879 260.765C516.256 266.499 523.267 282.811 517.528 297.188C512.872 308.861 501.246 315.677 489.342 314.76" stroke="#010101" stroke-width="7" stroke-linejoin="round"/>
<path d="M481.443 327.694L498.548 295.011L480.81 287.934L470.296 323.57L481.443 327.694Z" stroke="#010101" stroke-width="7" stroke-linejoin="round"/>
<path d="M451.18 440.038C479.925 440.038 503.228 416.735 503.228 387.989C503.228 359.244 479.925 335.941 451.18 335.941C422.434 335.941 399.132 359.244 399.132 387.989C399.132 416.735 422.434 440.038 451.18 440.038Z" fill="white" stroke="#010101" stroke-width="7" stroke-linejoin="round"/>
<path d="M443.713 384.818L467.77 348.893L458.646 391.161L443.713 384.818Z" fill="#DAD5C9"/>
<path d="M443.713 384.818L434.584 427.086L458.647 391.161" fill="#DAD5C9"/>
<path d="M448.008 395.456L412.083 371.399L454.345 380.523L448.008 395.456Z" fill="#DAD5C9"/>
<path d="M448.009 395.456L490.271 404.58L454.345 380.523" fill="#DAD5C9"/>
<path d="M446.867 381.203L486.703 365.43L455.487 394.776L446.867 381.203Z" fill="#969696" stroke="#010101" stroke-width="4" stroke-linecap="round" stroke-linejoin="round"/>
<path d="M446.867 381.203L415.657 410.549L455.487 394.776" fill="#DAD5C9"/>
<path d="M446.867 381.203L415.657 410.549L455.487 394.776" stroke="#010101" stroke-width="4" stroke-linecap="round" stroke-linejoin="round"/>
<path d="M451.18 396.024C455.617 396.024 459.215 392.427 459.215 387.99C459.215 383.552 455.617 379.955 451.18 379.955C446.742 379.955 443.145 383.552 443.145 387.99C443.145 392.427 446.742 396.024 451.18 396.024Z" fill="white" stroke="#010101" stroke-width="4" stroke-linejoin="round"/>
<path d="M284.61 153.835L260.725 161.799L259.234 166.029L249.283 171.999L241.07 169.514L226.64 162.923L217.434 170.508L211.464 172.993L207.482 180.957L197.885 185.684L194.548 195.636L197.885 206.333L189.076 225.491L191.312 239.176C191.312 239.176 197.489 254.103 197.885 254.352C198.282 254.6 203.506 266.043 203.506 266.043L217.688 272.013L218.931 268.776L227.64 272.013L252.022 265.795L267.198 250.867L279.883 254.6L284.61 251.364L289.089 254.849L300.035 273.255L311.478 282.461L314.714 292.413L313.223 298.632L316.459 309.707L327.157 316.541L332.629 327.487L340.339 340.42L354.272 328.232L357.757 303.353L363.727 293.401V277.231L369.448 263.546L358.503 233.194L358.254 207.321L346.314 177.466L341.587 187.169L311.732 174.981L293.326 159.06L284.616 153.835H284.61Z" fill="#DAD5C9"/>
<path d="M202.435 98.249L198.998 105.343H203.547L204.459 110.254L194.631 108.615L180.804 114.981V122.803L188.448 128.808H196.27L200.637 126.625L191.537 120.075C191.537 120.075 191.904 116.797 192.631 116.797C193.359 116.797 197.726 119.892 197.726 119.892H202.435L207.186 116.437L209.914 117.709L207.186 122.258L209.914 126.992L207.003 131.175L197.903 132.63L197.175 135.908L193.17 147.735L188.987 151.918V155.557L196.264 159.379L196.448 163.201L188.259 167.751L186.804 171.573L192.809 181.945H199.542L206.275 179.034L207.914 171.573L206.092 163.201L209.914 157.924L212.464 153.557L213.736 149.374L228.107 152.285H233.746L239.751 154.835V151.924L234.29 148.469L222.646 148.652L219.008 147.558L226.101 146.83L231.74 147.013L233.74 146.83L233.195 144.463L237.745 144.83L244.478 145.741L248.484 150.835L253.761 153.746L256.128 155.385L258.128 151.38L253.578 149.013L250.484 143.008L251.211 141.552L258.128 145.735L262.494 148.463L270.866 145.185L273.594 143.002L276.505 140.091L281.055 143.546L286.332 150.64L283.238 155.19L289.243 157.012L294.154 156.829L325.63 171.928L335.635 180.661H342.185L333.452 151.551L323.263 147.368L319.625 142.274L325.991 140.091L334.724 144.457L352.124 138.363L303.567 100.065L260.808 88.2914H215.487L202.423 98.2431L202.435 98.249Z" fill="#DAD5C9"/>
<path d="M163.273 154.042L162.114 159.261L164.551 162.621L168.841 159.373V154.036C168.841 153.918 163.273 154.036 163.273 154.036V154.042Z" fill="#DAD5C9"/>
<path d="M163.966 145.919L168.835 151.025L174.053 152.066C174.053 152.066 174.172 157.172 174.053 157.634C173.935 158.095 177.532 162.621 177.532 162.621L181.709 159.373L180.899 151.835L175.562 147.078H171.503L166.397 144.641L163.96 145.339" fill="#DAD5C9"/>
<path d="M231.669 402.846L214.387 395.042V388.859L205.287 387.587L215.564 386.309L213.109 379.399L208.742 369.571L210.925 360.471H215.564L216.747 352.105L208.565 338.639L206.198 332.817L207.837 327.179L207.654 315.535L199.648 310.258H172.172L165.439 309.163V313.352L161.984 309.163L157.25 304.98L143.79 296.247L136.513 298.797L127.78 288.786V285.219L121.591 289.514L112.314 286.603L107.036 288.059L104.309 295.886L99.9424 294.064L93.0259 274.959L87.3874 263.86V259.677L84.1096 260.588L92.665 294.064L102.486 299.886L107.581 307.163L114.13 325.54L132.324 345.917L147.429 358.839L155.978 359.744L176.722 381.759L203.932 394.681L219.842 400.32L231.669 402.846Z" fill="#DAD5C9"/>
<path d="M84.1096 232.384L89.2038 234.023L91.387 242.939L94.298 247.305L92.4816 239.117L91.9372 225.514L97.9367 214.007V206.729L102.67 197.452L107.581 191.447V186.353H111.036L115.408 190.175L117.592 183.258L114.13 179.62L115.225 175.253L109.403 176.164L113.403 169.976H120.502L126.685 164.881L123.047 173.798L131.596 173.253L127.78 169.248L129.235 160.332L126.869 147.049L122.135 150.688L121.591 145.777L117.225 153.599L113.947 160.332L106.67 170.52L107.853 161.61L109.403 151.782L123.774 135.405L131.052 130.855L126.685 138.316L129.413 142.322L132.691 134.861L135.785 130.855L139.24 119.578L136.513 117.578L104.67 154.326L90.1149 195.446L84.1096 232.384Z" fill="#DAD5C9"/>
<path d="M151.251 108.112L145.429 123.809L141.607 132.222L149.068 138.316L159.984 121.761L170.172 112.301L175.083 100.29L161.623 104.112L151.251 108.112Z" fill="#DAD5C9"/>
<path d="M90.9017 254.884L96.7236 263.375L101.333 262.647L103.155 267.256L107.764 266.286L108.492 259.677L102.427 261.073L96.4811 257.553L92.2389 254.281L90.9017 254.884Z" fill="#DAD5C9"/>
<path d="M235.982 400.828C322.653 400.828 392.913 330.568 392.913 243.897C392.913 157.227 322.653 86.9661 235.982 86.9661C149.311 86.9661 79.0509 157.227 79.0509 243.897C79.0509 330.568 149.311 400.828 235.982 400.828Z" stroke="#010101" stroke-width="7" stroke-linejoin="round"/>
</svg>
