<svg width="250" height="250" viewBox="0 0 250 250" fill="none" xmlns="http://www.w3.org/2000/svg">
<g id="Empty">
<g id="Group 262">
<rect id="Rectangle 358" x="14" y="153" width="219" height="79" rx="16" fill="#EFECE8"/>
<path id="Rectangle 359" d="M95.5 74L125 86L153.5 74L210.5 98.5L183 111.5L210.5 124L183 137V178.5L125 203L67 178.5V137L39.5 124L64.5 111.5L39.5 98.5L95.5 74Z" fill="white"/>
<path id="Rectangle 357" d="M74 113.987L125 92.5L176 113.987L125 136.001L74 113.987Z" fill="#4D4D4D"/>
<path id="Line 11" d="M64 181L125 207" stroke="#D8D8D8" stroke-width="8" stroke-linecap="round"/>
<path id="Line 12" d="M186 181L125 207" stroke="#D8D8D8" stroke-width="8" stroke-linecap="round"/>
<g id="Group 263">
<path id="Vector" d="M176.956 38.9256L177.266 37.8188C177.606 36.6738 178.801 36.0135 179.951 36.3347C181.102 36.656 181.781 37.84 181.479 38.9953L181.169 40.102C180.904 41.046 180.044 41.6982 179.064 41.6989C178.865 41.6989 178.666 41.6729 178.473 41.6203C177.311 41.2955 176.63 40.089 176.956 38.9256ZM183.85 45.8381C183.258 44.7853 183.629 43.4516 184.682 42.8583L185.684 42.2937C186.733 41.7249 188.045 42.1029 188.631 43.1434C189.218 44.1831 188.862 45.5012 187.832 46.1047L186.829 46.6694C186.508 46.8526 186.145 46.9504 185.775 46.9538C184.978 46.9599 184.241 46.5326 183.85 45.8381ZM188.475 51.4162C189.523 51.7135 190.192 52.7369 190.045 53.8163C189.897 54.8964 188.978 55.7023 187.888 55.7079C187.689 55.7099 187.49 55.6833 187.298 55.6293L186.186 55.3189C185.023 54.9922 184.345 53.7849 184.671 52.6215C184.997 51.458 186.205 50.7792 187.368 51.1053L188.475 51.4162ZM183.431 58.8537L183.995 59.851C184.59 60.9031 184.218 62.2382 183.165 62.8329C182.113 63.4269 180.778 63.0557 180.184 62.0037L179.62 61.0015C179.323 60.4957 179.242 59.892 179.395 59.3253C179.549 58.7593 179.922 58.2781 180.433 57.9903C180.944 57.7025 181.549 57.6314 182.113 57.7941C182.676 57.9561 183.151 58.3383 183.431 58.8537ZM173.665 58.8537C174.225 59.0095 174.7 59.3821 174.984 59.8886C175.269 60.3945 175.341 60.9933 175.184 61.5532L174.873 62.6599C174.609 63.6033 173.748 64.2561 172.769 64.2568C172.569 64.2568 172.37 64.2288 172.178 64.1734C171.015 63.8487 170.335 62.6422 170.66 61.4788L170.97 60.372C171.12 59.8074 171.489 59.3261 171.995 59.0356C172.501 58.7444 173.102 58.6678 173.666 58.823L173.665 58.8537ZM168.275 54.6052C168.56 55.1111 168.631 55.7092 168.475 56.2684C168.318 56.8269 167.946 57.3006 167.44 57.585L166.438 58.1496C166.112 58.3349 165.745 58.4306 165.37 58.4292C164.374 58.432 163.502 57.7614 163.249 56.7975C162.996 55.8343 163.425 54.8219 164.294 54.3345L165.296 53.7747C166.348 53.182 167.682 53.5532 168.275 54.6052ZM162.15 46.3365C162.474 45.1737 163.677 44.4928 164.841 44.8141L165.952 45.1203C167.009 45.4116 167.686 46.4397 167.538 47.5252C167.39 48.6107 166.462 49.4187 165.366 49.4168C165.168 49.4161 164.971 49.3894 164.779 49.3382L163.673 49.0319C163.113 48.8767 162.638 48.5055 162.353 47.9997C162.068 47.4945 161.994 46.8963 162.15 46.3365ZM168.148 40.6052C167.839 40.0987 167.749 39.4882 167.899 38.914C168.049 38.3391 168.426 37.8503 168.943 37.5591C169.461 37.2686 170.074 37.2002 170.642 37.3704C171.211 37.5406 171.686 37.9344 171.959 38.4615L172.524 39.4636C173.113 40.5163 172.739 41.8466 171.688 42.4386C171.363 42.6252 170.995 42.723 170.62 42.723C169.83 42.723 169.1 42.2964 168.713 41.6074L168.148 40.6052ZM140.927 54.5356V53.1315C140.927 51.9229 141.906 50.944 143.114 50.944C144.322 50.944 145.302 51.9229 145.302 53.1315V54.5356C145.302 55.7435 144.322 56.7231 143.114 56.7231C141.906 56.7231 140.927 55.7435 140.927 54.5356ZM150.39 59.3481C149.476 58.5735 149.355 57.2083 150.118 56.2856L150.993 55.2137C151.367 54.7693 151.9 54.4911 152.479 54.4405C153.056 54.3906 153.631 54.5718 154.076 54.9443C155.001 55.7216 155.122 57.101 154.344 58.0266L153.447 59.0944C153.031 59.5914 152.416 59.8785 151.768 59.8771C151.261 59.8689 150.772 59.6816 150.39 59.3481ZM156.038 63.5222L157.412 63.2774C157.993 63.1517 158.6 63.2672 159.094 63.5987C159.587 63.9303 159.925 64.4484 160.028 65.0336C160.132 65.6194 159.993 66.2224 159.643 66.7029C159.293 67.1835 158.762 67.5007 158.172 67.582L156.794 67.8267C156.669 67.8493 156.541 67.8609 156.414 67.8616C155.284 67.8548 154.346 66.9886 154.248 65.8634C154.15 64.7376 154.926 63.7232 156.038 63.5222ZM133.314 73.69C133.917 74.7366 133.56 76.0737 132.513 76.6773L131.306 77.3773C130.974 77.5694 130.596 77.6705 130.212 77.6705C129.222 77.6705 128.356 77.0054 128.099 76.0491C127.843 75.0927 128.261 74.0838 129.119 73.5887L130.326 72.8887C130.83 72.5996 131.428 72.523 131.989 72.6761C132.55 72.8286 133.026 73.1977 133.314 73.7022L133.314 73.69ZM126.275 65.0795C126.375 64.508 126.699 64.0001 127.174 63.6665C127.649 63.3336 128.237 63.203 128.808 63.3035L130.182 63.5441C131.306 63.7335 132.095 64.7541 131.996 65.8895C131.898 67.0249 130.945 67.8945 129.805 67.8883C129.679 67.887 129.553 67.8753 129.429 67.8535L128.051 67.6128C127.479 67.5124 126.971 67.189 126.638 66.7139C126.305 66.2388 126.174 65.651 126.275 65.0795ZM131.849 58.0357C131.072 57.1101 131.192 55.7306 132.118 54.9535C133.043 54.1769 134.423 54.2972 135.2 55.2228L136.101 56.2906C136.879 57.2162 136.76 58.5964 135.834 59.3743C134.909 60.1529 133.528 60.0332 132.75 59.1077L131.849 58.0357ZM72.7426 31.161V29.1875C72.7426 27.9796 73.7215 27 74.9301 27C76.138 27 77.1176 27.9796 77.1176 29.1875V31.161C77.1176 32.3689 76.138 33.3485 74.9301 33.3485C73.7215 33.3485 72.7426 32.3689 72.7426 31.161ZM82.5685 32.6225L83.5529 30.9122C84.1818 29.923 85.4786 29.6044 86.4937 30.191C87.5089 30.7775 87.8807 32.06 87.3373 33.0989L86.3529 34.8093C86.0651 35.3158 85.5866 35.687 85.0247 35.8395C84.4621 35.9919 83.8619 35.914 83.3574 35.6228C82.8529 35.3315 82.4852 34.851 82.3361 34.2877C82.1878 33.7244 82.2698 33.1249 82.5645 32.6218L82.5685 32.6225ZM89.5247 41.7834C89.2349 41.2803 89.157 40.6828 89.308 40.1223C89.4591 39.5624 89.8269 39.0846 90.33 38.7954L92.0363 37.811C92.5387 37.5164 93.1382 37.4344 93.7015 37.5834C94.2648 37.7324 94.7453 38.0995 95.0365 38.604C95.3278 39.1092 95.4064 39.7087 95.2532 40.2713C95.1008 40.8332 94.7303 41.3117 94.2238 41.5995L92.5175 42.5839C92.1853 42.7773 91.8079 42.8785 91.4238 42.8771C90.6404 42.8785 89.9165 42.4615 89.5247 41.7834ZM93.9743 48.0356H95.9471C97.1557 48.0356 98.1346 49.0145 98.1346 50.2231C98.1346 51.431 97.1557 52.4106 95.9471 52.4106H93.9743C92.7657 52.4106 91.7868 51.431 91.7868 50.2231C91.7868 49.0145 92.7657 48.0356 93.9743 48.0356ZM94.2238 58.8459C94.7303 59.1337 95.1009 59.6122 95.2533 60.1741C95.4064 60.7367 95.3278 61.3369 95.0366 61.8414C94.7454 62.3459 94.2648 62.7137 93.7015 62.8627C93.1382 63.011 92.5387 62.929 92.0363 62.6344L90.3301 61.65C89.2924 61.0423 88.9403 59.7106 89.5419 58.6696C90.1428 57.6278 91.4716 57.2675 92.5176 57.8615L94.2238 58.8459ZM87.3372 67.3464C87.6318 67.8495 87.7139 68.4483 87.5648 69.0123C87.4158 69.5756 87.0487 70.0561 86.5436 70.3473C86.0391 70.6385 85.4396 70.7165 84.877 70.564C84.3144 70.4109 83.8365 70.0404 83.5488 69.5339L82.5644 67.8276C82.2698 67.3252 82.1877 66.7257 82.3361 66.1624C82.4851 65.5991 82.8529 65.1185 83.3573 64.8273C83.8618 64.5354 84.462 64.4575 85.0246 64.6106C85.5865 64.7631 86.065 65.1336 86.3528 65.6401L87.3372 67.3464ZM77.1176 69.2843V71.2578C77.1176 72.4657 76.138 73.4453 74.9301 73.4453C73.7215 73.4453 72.7426 72.4657 72.7426 71.2578V69.2843C72.7426 68.0764 73.7215 67.0968 74.9301 67.0968C76.138 67.0968 77.1176 68.0764 77.1176 69.2843ZM67.2917 67.8276L66.3073 69.5379C65.9169 70.2147 65.1937 70.6324 64.4124 70.6324C63.6311 70.6324 62.9085 70.2154 62.5182 69.5386C62.1272 68.8612 62.1272 68.0279 62.5182 67.3511L63.5026 65.6408C64.1103 64.6037 65.4419 64.251 66.483 64.8519C67.5248 65.4535 67.8864 66.7823 67.2917 67.8276ZM60.2917 58.6401C60.8966 59.6853 60.5398 61.023 59.4946 61.628L57.7842 62.6165C57.452 62.8093 57.0747 62.9111 56.6905 62.9104C55.7027 62.9084 54.8386 62.2453 54.5816 61.2917C54.3245 60.3374 54.7388 59.3298 55.5926 58.8328L57.3029 57.8443C57.8102 57.5476 58.4151 57.4663 58.9818 57.6201C59.5492 57.7739 60.0305 58.1492 60.3176 58.6619L60.2917 58.6401ZM51.707 50.2311C51.707 49.0232 52.6866 48.0436 53.8945 48.0436H55.868C57.0759 48.0436 58.0555 49.0232 58.0555 50.2311C58.0555 51.4397 57.0759 52.4186 55.868 52.4186H53.8945C52.6866 52.4186 51.707 51.4397 51.707 50.2311ZM54.8173 38.6195C55.4209 37.573 56.7601 37.2155 57.8059 37.8197L59.5122 38.8041C60.0187 39.0919 60.3892 39.5697 60.5424 40.1323C60.6948 40.6949 60.6169 41.2944 60.3257 41.7989C60.0338 42.3041 59.5532 42.6712 58.9899 42.8202C58.4266 42.9692 57.8271 42.8872 57.3247 42.5926L55.6184 41.6082C54.5725 41.0039 54.213 39.6653 54.8173 38.6195ZM62.5133 33.0988C62.194 32.5957 62.0929 31.9839 62.2351 31.4049C62.3766 30.8259 62.7484 30.3296 63.2652 30.0315C63.7814 29.7328 64.3966 29.6583 64.9694 29.8244C65.5416 29.9905 66.0215 30.3829 66.2977 30.9113L67.2861 32.6176C67.606 33.1207 67.7072 33.7325 67.565 34.3115C67.4235 34.8905 67.0516 35.3868 66.5355 35.6848C66.0194 35.9836 65.4035 36.0581 64.8313 35.892C64.2585 35.7259 63.7786 35.3335 63.5024 34.8051L62.5133 33.0988Z" fill="#0A72CC"/>
<path id="Subtract" fill-rule="evenodd" clip-rule="evenodd" d="M188.582 111.383L213.082 121.827L213.079 121.826C213.886 122.17 214.409 122.962 214.409 123.839C214.409 124.716 213.886 125.507 213.079 125.851L185.201 137.817V178.277C185.235 179.176 184.714 180.004 183.889 180.364L125.544 205.275C124.996 205.508 124.376 205.508 123.829 205.275L65.5065 180.404C65.3261 180.314 65.16 180.199 65.0116 180.062C64.9433 180.021 64.8776 179.976 64.8148 179.927C64.6712 179.77 64.5523 179.593 64.4607 179.402C64.419 179.347 64.3807 179.288 64.3472 179.227C64.2303 178.95 64.1722 178.652 64.1763 178.352V137.813L36.3303 125.852C35.5236 125.508 35 124.716 35 123.839C35 122.962 35.5236 122.17 36.3303 121.827L60.8303 111.383L36.3303 100.936C35.5264 100.591 35.0055 99.8005 35.0055 98.9255C35.0055 98.0513 35.5264 97.2604 36.3303 96.9151L94.6718 71.8639C95.2207 71.6294 95.8421 71.6294 96.391 71.8639L124.706 83.9568L153.021 71.8639C153.57 71.6294 154.191 71.6294 154.74 71.8639L213.082 96.9151C213.886 97.2603 214.407 98.0512 214.407 98.9255C214.407 99.8005 213.886 100.591 213.082 100.936L188.582 111.383ZM206.651 98.9191L153.876 76.2566L130.14 86.3922L183.025 109.007L206.651 98.9191ZM119.273 86.3936L95.5395 76.2566L42.763 98.9187L66.388 109.007L119.273 86.3936ZM119.284 136.35L66.3985 113.754L42.7423 123.85L67.1985 134.35H67.2245L95.5185 146.5L119.284 136.35ZM95.5482 151.076C95.2475 151.079 94.9501 151.019 94.6732 150.901L68.5668 139.687V176.906L122.551 199.95V139.745L96.4232 150.901C96.1471 151.02 95.849 151.08 95.5482 151.076ZM126.894 199.948L180.835 176.91L180.864 139.69L154.772 150.899C154.495 151.018 154.198 151.077 153.897 151.074C153.596 151.078 153.298 151.018 153.022 150.899L126.894 139.743V199.948ZM182.142 134.37L182.204 134.344L206.621 123.846L182.996 113.753L130.111 136.349L153.876 146.507L182.142 134.37ZM124.5 88.5L71.5 111.5L124.5 134.5L177.5 111.5L124.5 88.5Z" fill="black"/>
</g>
<g id="Group 259">
<path id="Vector_2" d="M154.931 170L131.911 179.589L132 191L154.931 181.858L154.931 170Z" fill="#0A72CC" stroke="#0A72CC" stroke-width="2.95654" stroke-linecap="round" stroke-linejoin="round"/>
<path id="Vector_3" d="M159.332 164L133.418 174.78L133.418 189.012L159.332 178.232L159.332 164Z" stroke="black" stroke-width="2.95654" stroke-linecap="round" stroke-linejoin="round"/>
<path id="Vector_4" d="M137.331 178.794L152.221 172.599" stroke="black" stroke-width="2.95654" stroke-linecap="round" stroke-linejoin="round"/>
<path id="Vector_5" d="M137.058 182.944L148.917 178.011" stroke="black" stroke-width="2.35544" stroke-linecap="round" stroke-linejoin="round"/>
</g>
</g>
</g>
</svg>
