<svg width="420" height="420" viewBox="0 0 420 420" fill="none" xmlns="http://www.w3.org/2000/svg">
<path d="M304.336 84.6067H92.4386C81.6997 84.6067 72.9941 93.3123 72.9941 104.051V315.949C72.9941 326.688 81.6997 335.393 92.4386 335.393H304.336C315.075 335.393 323.781 326.688 323.781 315.949V104.051C323.781 93.3123 315.075 84.6067 304.336 84.6067Z" fill="#EFECE8"/>
<path d="M237.87 163.227H56.0724C46.0402 163.227 37.9074 171.36 37.9074 181.392V273.819C37.9074 283.852 46.0402 291.984 56.0724 291.984H237.87C247.902 291.984 256.035 283.852 256.035 273.819V181.392C256.035 171.36 247.902 163.227 237.87 163.227Z" fill="#1D1D1B"/>
<path d="M37.908 185.65L42.4424 167.303L58.7485 163.227H235.495L250.945 166.389L255.666 186.58H37.908" fill="#1D1D1B"/>
<path d="M237.87 163.227H56.0724C46.0402 163.227 37.9074 171.36 37.9074 181.392V273.819C37.9074 283.852 46.0402 291.984 56.0724 291.984H237.87C247.902 291.984 256.035 283.852 256.035 273.819V181.392C256.035 171.36 247.902 163.227 237.87 163.227Z" stroke="#010101" stroke-width="4.1125" stroke-linejoin="round"/>
<path d="M239.163 162.077H57.3651C47.3328 162.077 39.2001 170.21 39.2001 180.242V272.669C39.2001 282.701 47.3328 290.834 57.3651 290.834H239.163C249.195 290.834 257.328 282.701 257.328 272.669V180.242C257.328 170.21 249.195 162.077 239.163 162.077Z" fill="white"/>
<path d="M40.0576 183.275L44.5921 164.927L60.8982 160.851H237.644L253.095 164.013L257.816 184.208H40.0576" fill="#C1BDB5"/>
<path d="M240.02 160.851H58.2226C48.1904 160.851 40.0576 168.984 40.0576 179.016V271.443C40.0576 281.476 48.1904 289.608 58.2226 289.608H240.02C250.053 289.608 258.185 281.476 258.185 271.443V179.016C258.185 168.984 250.053 160.851 240.02 160.851Z" stroke="#010101" stroke-width="4.1125" stroke-linejoin="round"/>
<path d="M122.877 263.993H178.675" stroke="#EFECE8" stroke-width="3.29381" stroke-linecap="round" stroke-linejoin="round"/>
<path d="M122.877 272.292H178.675" stroke="#EFECE8" stroke-width="3.29381" stroke-linecap="round" stroke-linejoin="round"/>
<path d="M252.276 148.159H70.4785C60.4462 148.159 52.3135 156.292 52.3135 166.324V258.751C52.3135 268.783 60.4462 276.916 70.4785 276.916H252.276C262.309 276.916 270.441 268.783 270.441 258.751V166.324C270.441 156.292 262.309 148.159 252.276 148.159Z" fill="#1D1D1B"/>
<path d="M52.3137 170.586L56.8482 152.238L73.1543 148.159H249.9L265.351 151.32L270.072 171.515H52.3137" fill="#1D1D1B"/>
<path d="M252.276 148.159H70.4785C60.4462 148.159 52.3135 156.292 52.3135 166.324V258.751C52.3135 268.783 60.4462 276.916 70.4785 276.916H252.276C262.309 276.916 270.441 268.783 270.441 258.751V166.324C270.441 156.292 262.309 148.159 252.276 148.159Z" stroke="#010101" stroke-width="4.1125" stroke-linejoin="round"/>
<path d="M254.613 145.822H72.8155C62.7833 145.822 54.6505 153.955 54.6505 163.987V256.414C54.6505 266.446 62.7833 274.579 72.8155 274.579H254.613C264.646 274.579 272.778 266.446 272.778 256.414V163.987C272.778 153.955 264.646 145.822 254.613 145.822Z" fill="white"/>
<path d="M54.6501 168.245L59.1846 149.897L75.4907 145.822H252.237L267.687 148.983L272.408 169.178H54.6501" fill="#C1BDB5"/>
<path d="M254.613 145.822H72.8155C62.7833 145.822 54.6505 153.955 54.6505 163.987V256.414C54.6505 266.446 62.7833 274.579 72.8155 274.579H254.613C264.646 274.579 272.778 266.446 272.778 256.414V163.987C272.778 153.955 264.646 145.822 254.613 145.822Z" stroke="#010101" stroke-width="4.1125" stroke-linejoin="round"/>
<path d="M148.155 238.719H203.949" stroke="#EFECE8" stroke-width="3.29381" stroke-linecap="round" stroke-linejoin="round"/>
<path d="M148.155 247.015H203.949" stroke="#EFECE8" stroke-width="3.29381" stroke-linecap="round" stroke-linejoin="round"/>
<path d="M148.155 255.313H203.949" stroke="#EFECE8" stroke-width="3.29381" stroke-linecap="round" stroke-linejoin="round"/>
<path d="M268.186 132.25H86.3878C76.3556 132.25 68.2228 140.382 68.2228 150.415V242.842C68.2228 252.874 76.3556 261.007 86.3878 261.007H268.186C278.218 261.007 286.351 252.874 286.351 242.842V150.415C286.351 140.382 278.218 132.25 268.186 132.25Z" fill="#1D1D1B"/>
<path d="M68.2222 156.866L72.7527 135.707L89.0627 132.25H265.805L281.255 134.929L285.977 155.042L69.7427 156.112" fill="#1D1D1B"/>
<path d="M268.186 132.25H86.3878C76.3556 132.25 68.2228 140.382 68.2228 150.415V242.842C68.2228 252.874 76.3556 261.007 86.3878 261.007H268.186C278.218 261.007 286.351 252.874 286.351 242.842V150.415C286.351 140.382 278.218 132.25 268.186 132.25Z" stroke="#010101" stroke-width="4.1125" stroke-linejoin="round"/>
<path d="M270.994 129.442H89.1964C79.1642 129.442 71.0314 137.574 71.0314 147.607V240.034C71.0314 250.066 79.1642 258.199 89.1964 258.199H270.994C281.026 258.199 289.159 250.066 289.159 240.034V147.607C289.159 137.574 281.026 129.442 270.994 129.442Z" fill="white"/>
<path d="M71.0311 154.059L75.5655 132.895L91.8755 129.442H268.618L284.068 132.121L288.789 152.231L72.5516 153.3" fill="#C1BDB5"/>
<path d="M270.994 129.442H89.1964C79.1642 129.442 71.0314 137.574 71.0314 147.607V240.034C71.0314 250.066 79.1642 258.199 89.1964 258.199H270.994C281.026 258.199 289.159 250.066 289.159 240.034V147.607C289.159 137.574 281.026 129.442 270.994 129.442Z" stroke="#010101" stroke-width="4.1125" stroke-linejoin="round"/>
<path d="M162.171 218.645H232.809" stroke="#C1BDB5" stroke-width="4.18866" stroke-linecap="round" stroke-linejoin="round"/>
<path d="M162.171 226.944H232.809" stroke="#C1BDB5" stroke-width="4.18866" stroke-linecap="round" stroke-linejoin="round"/>
<path d="M162.171 235.243H232.809" stroke="#C1BDB5" stroke-width="4.18866" stroke-linecap="round" stroke-linejoin="round"/>
<path d="M162.171 181.981H211.163" stroke="#C1BDB5" stroke-width="4.18866" stroke-linecap="round" stroke-linejoin="round"/>
<path d="M145.317 227.883H87.8452V169.293L89.4928 166.708H91.4312L142.154 166.708L144.415 168L147 171.554L145.317 227.883Z" fill="#EFECE9"/>
<path d="M135.108 202.31C135.108 200.117 133.331 198.339 131.138 198.339C128.945 198.339 127.167 200.117 127.167 202.31C127.167 204.503 128.945 206.28 131.138 206.28C133.331 206.28 135.108 204.503 135.108 202.31Z" fill="#C1BDB5"/>
<path d="M141.83 239.723L92.3996 240.369L87.8766 236.169L87.3143 227.883H145.355V236.169L141.83 239.723Z" fill="#C1BDB5"/>
<path d="M146.031 227.883H87.8452V223.262L99.8318 213.324C102.023 211.508 105.031 211.05 107.662 212.128L146.031 227.883Z" fill="#DBD5CA"/>
<path d="M144.759 187.534V183.205H142.16C142.194 183.049 142.215 182.886 142.215 182.72C142.215 181.52 141.241 180.546 140.042 180.546C139.993 180.546 139.945 180.55 139.896 180.553H135.06V180.581C134.939 180.56 134.818 180.546 134.69 180.546C133.49 180.546 132.516 181.52 132.516 182.72C132.516 182.886 132.537 183.049 132.572 183.205H130.343C129.143 183.205 128.169 184.179 128.169 185.378C128.169 185.378 128.169 187.521 126.041 187.552H123.119C122.159 187.552 121.382 188.328 121.382 189.288C121.382 190.249 122.159 191.025 123.119 191.025H144.752V187.552H130.877V187.538H144.752L144.759 187.534Z" fill="white"/>
<path d="M108.948 175.881H106.026C103.897 175.85 103.897 173.707 103.897 173.707C103.897 172.508 102.923 171.534 101.724 171.534H99.4952C99.5299 171.378 99.5507 171.215 99.5507 171.049C99.5507 169.849 98.5766 168.875 97.3773 168.875C97.2525 168.875 97.1277 168.889 97.0064 168.91V168.882H92.1708C92.1223 168.882 92.0738 168.875 92.0252 168.875C90.8259 168.875 89.8518 169.849 89.8518 171.049C89.8518 171.215 89.8726 171.378 89.9073 171.534H87.3076V175.863H101.183V175.877H87.3076V179.351H108.941C109.901 179.351 110.678 178.574 110.678 177.614C110.678 176.654 109.901 175.877 108.941 175.877L108.948 175.881Z" fill="white"/>
<path d="M138.549 166.907H94.9896C90.6039 166.907 87.0485 170.463 87.0485 174.848V231.964C87.0485 236.35 90.6039 239.906 94.9896 239.906H138.549C142.935 239.906 146.49 236.35 146.49 231.964V174.848C146.49 170.463 142.935 166.907 138.549 166.907Z" stroke="#1D1D1B" stroke-width="4.18866" stroke-miterlimit="10"/>
<path d="M263.518 139.284L270.351 146.117" stroke="#F6F6F6" stroke-width="3.11484" stroke-miterlimit="10" stroke-linecap="round"/>
<path d="M263.518 146.117L270.351 139.284" stroke="#F6F6F6" stroke-width="3.11484" stroke-miterlimit="10" stroke-linecap="round"/>
<path d="M340.682 258.173L375.192 292.683C378.576 296.066 378.576 301.549 375.192 304.929C371.809 308.312 366.326 308.312 362.946 304.929L327.044 269.027" fill="#266FB7"/>
<path d="M285.888 179.563L291.185 180.823L329.311 187.177L330.105 178.835L315.362 173.609L295.019 174.927L285.888 179.563Z" fill="#F6F6F6"/>
<path d="M351.19 256.201L383.095 288.106C386.478 291.489 386.478 296.972 383.095 300.352C379.711 303.735 374.228 303.735 370.848 300.352L338.944 268.447" stroke="#1E1E1C" stroke-width="4.1125" stroke-miterlimit="10"/>
<path d="M300.853 282.027C329.974 282.027 353.582 258.419 353.582 229.298C353.582 200.176 329.974 176.568 300.853 176.568C271.731 176.568 248.123 200.176 248.123 229.298C248.123 258.419 271.731 282.027 300.853 282.027Z" fill="#266FB7"/>
<path d="M308.553 278.628C337.675 278.628 361.282 255.02 361.282 225.899C361.282 196.777 337.675 173.169 308.553 173.169C279.431 173.169 255.823 196.777 255.823 225.899C255.823 255.02 279.431 278.628 308.553 278.628Z" stroke="#1E1E1C" stroke-width="4.1125" stroke-miterlimit="10"/>
<path d="M308.552 265.254C330.288 265.254 347.908 247.634 347.908 225.899C347.908 204.163 330.288 186.543 308.552 186.543C286.817 186.543 269.197 204.163 269.197 225.899C269.197 247.634 286.817 265.254 308.552 265.254Z" fill="white" stroke="#1E1E1C" stroke-width="4.1125" stroke-miterlimit="10"/>
<path d="M309.824 197.864C324.466 197.864 336.335 209.733 336.335 224.374L309.824 197.864Z" fill="white"/>
<path d="M309.824 197.864C324.466 197.864 336.335 209.733 336.335 224.374" stroke="#266FB7" stroke-width="4.1125" stroke-linecap="round" stroke-linejoin="round"/>
<path d="M336.039 231.005V230.877" stroke="#266FB7" stroke-width="4.1125" stroke-linecap="round" stroke-linejoin="round"/>
</svg>
